<?xml version="1.0" encoding="UTF-8" standalone="no"?>
<!DOCTYPE svg PUBLIC "-//W3C//DTD SVG 1.1//EN"
 "http://www.w3.org/Graphics/SVG/1.1/DTD/svg11.dtd">
<!-- Generated by graphviz version 2.40.1 (20161225.0304)
 -->
<!-- Title: dependencies Pages: 1 -->
<svg width="504pt" height="284pt"
 viewBox="0.00 0.00 504.00 284.00" xmlns="http://www.w3.org/2000/svg" xmlns:xlink="http://www.w3.org/1999/xlink">
<g id="graph0" class="graph" transform="scale(1 1) rotate(0) translate(4 280)">
<title>dependencies</title>
<polygon fill="#ffffff" stroke="transparent" points="-4,4 -4,-280 500,-280 500,4 -4,4"/>
<text text-anchor="start" x="227.0091" y="-42.4" font-family="sans-serif" font-weight="bold" font-size="14.00" fill="#000000">Legend</text>
<polygon fill="#ffffb3" stroke="transparent" points="14,-10 14,-30 34,-30 34,-10 14,-10"/>
<text text-anchor="start" x="37.629" y="-15.4" font-family="sans-serif" font-size="14.00" fill="#000000"> &#160;Declarations</text>
<polygon fill="#8dd3c7" stroke="transparent" points="127,-10 127,-30 147,-30 147,-10 127,-10"/>
<text text-anchor="start" x="150.7251" y="-15.4" font-family="sans-serif" font-size="14.00" fill="#000000"> &#160;Module</text>
<polygon fill="#80b1d3" stroke="transparent" points="213,-10 213,-30 233,-30 233,-10 213,-10"/>
<text text-anchor="start" x="236.7812" y="-15.4" font-family="sans-serif" font-size="14.00" fill="#000000"> &#160;Bootstrap</text>
<polygon fill="#fdb462" stroke="transparent" points="310,-10 310,-30 330,-30 330,-10 310,-10"/>
<text text-anchor="start" x="333.6732" y="-15.4" font-family="sans-serif" font-size="14.00" fill="#000000"> &#160;Providers</text>
<polygon fill="#fb8072" stroke="transparent" points="406,-10 406,-30 426,-30 426,-10 406,-10"/>
<text text-anchor="start" x="429.7258" y="-15.4" font-family="sans-serif" font-size="14.00" fill="#000000"> &#160;Exports</text>
<g id="clust1" class="cluster">
<title>cluster_CoreModule</title>
<polygon fill="none" stroke="#000000" stroke-dasharray="1,5" points="13.5,-70 13.5,-268 482.5,-268 482.5,-70 13.5,-70"/>
</g>
<g id="clust4" class="cluster">
<title>cluster_CoreModule_exports</title>
<polygon fill="none" stroke="#000000" points="85.5,-208 85.5,-260 339.5,-260 339.5,-208 85.5,-208"/>
</g>
<g id="clust6" class="cluster">
<title>cluster_CoreModule_providers</title>
<polygon fill="none" stroke="#000000" points="21.5,-78 21.5,-130 474.5,-130 474.5,-78 21.5,-78"/>
</g>
<!-- InitializerModule  -->
<g id="node1" class="node">
<title>InitializerModule </title>
<polygon fill="#fb8072" stroke="#000000" points="331.4687,-252 213.5313,-252 213.5313,-216 331.4687,-216 331.4687,-252"/>
<text text-anchor="middle" x="272.5" y="-229.8" font-family="Times,serif" font-size="14.00" fill="#000000">InitializerModule </text>
</g>
<!-- LayoutModule  -->
<g id="node2" class="node">
<title>LayoutModule </title>
<polygon fill="#fb8072" stroke="#000000" points="195.708,-252 93.292,-252 93.292,-216 195.708,-216 195.708,-252"/>
<text text-anchor="middle" x="144.5" y="-229.8" font-family="Times,serif" font-size="14.00" fill="#000000">LayoutModule </text>
</g>
<!-- CoreModule -->
<g id="node3" class="node">
<title>CoreModule</title>
<polygon fill="#8dd3c7" stroke="#000000" points="251.7619,-187 248.7619,-191 227.7619,-191 224.7619,-187 165.2381,-187 165.2381,-151 251.7619,-151 251.7619,-187"/>
<text text-anchor="middle" x="208.5" y="-164.8" font-family="Times,serif" font-size="14.00" fill="#000000">CoreModule</text>
</g>
<!-- CoreModule&#45;&gt;InitializerModule  -->
<g id="edge1" class="edge">
<title>CoreModule&#45;&gt;InitializerModule </title>
<path fill="none" stroke="#000000" stroke-dasharray="5,2" d="M232.8235,-187.1061C232.8235,-187.1061 232.8235,-205.991 232.8235,-205.991"/>
<polygon fill="#000000" stroke="#000000" points="229.3235,-205.9909 232.8235,-215.991 236.3235,-205.991 229.3235,-205.9909"/>
</g>
<!-- CoreModule&#45;&gt;LayoutModule  -->
<g id="edge2" class="edge">
<title>CoreModule&#45;&gt;LayoutModule </title>
<path fill="none" stroke="#000000" stroke-dasharray="5,2" d="M180.4865,-187.1061C180.4865,-187.1061 180.4865,-205.991 180.4865,-205.991"/>
<polygon fill="#000000" stroke="#000000" points="176.9866,-205.9909 180.4865,-215.991 183.9866,-205.991 176.9866,-205.9909"/>
</g>
<!-- HttpRequestInterceptor -->
<g id="node4" class="node">
<title>HttpRequestInterceptor</title>
<ellipse fill="#fdb462" stroke="#000000" cx="364.5" cy="-104" rx="101.8419" ry="18"/>
<text text-anchor="middle" x="364.5" y="-99.8" font-family="Times,serif" font-size="14.00" fill="#000000">HttpRequestInterceptor</text>
</g>
<!-- HttpRequestInterceptor&#45;&gt;CoreModule -->
<g id="edge3" class="edge">
<title>HttpRequestInterceptor&#45;&gt;CoreModule</title>
<path fill="none" stroke="#000000" d="M297.0316,-117.468C297.0316,-136.5069 297.0316,-169 297.0316,-169 297.0316,-169 261.9877,-169 261.9877,-169"/>
<polygon fill="#000000" stroke="#000000" points="261.9877,-165.5001 251.9877,-169 261.9877,-172.5001 261.9877,-165.5001"/>
</g>
<!-- HttpResponseInterceptor -->
<g id="node5" class="node">
<title>HttpResponseInterceptor</title>
<ellipse fill="#fdb462" stroke="#000000" cx="137.5" cy="-104" rx="107.6424" ry="18"/>
<text text-anchor="middle" x="137.5" y="-99.8" font-family="Times,serif" font-size="14.00" fill="#000000">HttpResponseInterceptor</text>
</g>
<!-- HttpResponseInterceptor&#45;&gt;CoreModule -->
<g id="edge4" class="edge">
<title>HttpResponseInterceptor&#45;&gt;CoreModule</title>
<path fill="none" stroke="#000000" d="M205.0952,-118.104C205.0952,-118.104 205.0952,-140.7209 205.0952,-140.7209"/>
<polygon fill="#000000" stroke="#000000" points="201.5953,-140.7209 205.0952,-150.7209 208.5953,-140.7209 201.5953,-140.7209"/>
</g>
</g>
</svg>
