<?xml version="1.0" encoding="UTF-8" standalone="no"?>
<!DOCTYPE svg PUBLIC "-//W3C//DTD SVG 1.1//EN"
 "http://www.w3.org/Graphics/SVG/1.1/DTD/svg11.dtd">
<!-- Generated by graphviz version 2.40.1 (20161225.0304)
 -->
<!-- Title: dependencies Pages: 1 -->
<svg width="1806pt" height="211pt"
 viewBox="0.00 0.00 1806.00 211.00" xmlns="http://www.w3.org/2000/svg" xmlns:xlink="http://www.w3.org/1999/xlink">
<g id="graph0" class="graph" transform="scale(1 1) rotate(0) translate(4 207)">
<title>dependencies</title>
<polygon fill="#ffffff" stroke="transparent" points="-4,4 -4,-207 1802,-207 1802,4 -4,4"/>
<text text-anchor="start" x="878.0091" y="-42.4" font-family="sans-serif" font-weight="bold" font-size="14.00" fill="#000000">Legend</text>
<polygon fill="#ffffb3" stroke="transparent" points="665,-10 665,-30 685,-30 685,-10 665,-10"/>
<text text-anchor="start" x="688.629" y="-15.4" font-family="sans-serif" font-size="14.00" fill="#000000"> &#160;Declarations</text>
<polygon fill="#8dd3c7" stroke="transparent" points="778,-10 778,-30 798,-30 798,-10 778,-10"/>
<text text-anchor="start" x="801.7251" y="-15.4" font-family="sans-serif" font-size="14.00" fill="#000000"> &#160;Module</text>
<polygon fill="#80b1d3" stroke="transparent" points="864,-10 864,-30 884,-30 884,-10 864,-10"/>
<text text-anchor="start" x="887.7812" y="-15.4" font-family="sans-serif" font-size="14.00" fill="#000000"> &#160;Bootstrap</text>
<polygon fill="#fdb462" stroke="transparent" points="961,-10 961,-30 981,-30 981,-10 961,-10"/>
<text text-anchor="start" x="984.6732" y="-15.4" font-family="sans-serif" font-size="14.00" fill="#000000"> &#160;Providers</text>
<polygon fill="#fb8072" stroke="transparent" points="1057,-10 1057,-30 1077,-30 1077,-10 1057,-10"/>
<text text-anchor="start" x="1080.7258" y="-15.4" font-family="sans-serif" font-size="14.00" fill="#000000"> &#160;Exports</text>
<g id="clust1" class="cluster">
<title>cluster_DesktopProductDetailModule</title>
<polygon fill="none" stroke="#000000" stroke-dasharray="1,5" points="8,-70 8,-195 1790,-195 1790,-70 8,-70"/>
</g>
<g id="clust2" class="cluster">
<title>cluster_DesktopProductDetailModule_declarations</title>
<polygon fill="none" stroke="#000000" points="473,-78 473,-130 1782,-130 1782,-78 473,-78"/>
</g>
<g id="clust8" class="cluster">
<title>cluster_DesktopProductDetailModule_imports</title>
<polygon fill="none" stroke="#000000" points="16,-78 16,-130 465,-130 465,-78 16,-78"/>
</g>
<!-- DesktopImageSliderPopUpComponent -->
<g id="node1" class="node">
<title>DesktopImageSliderPopUpComponent</title>
<polygon fill="#ffffb3" stroke="#000000" points="1773.7976,-122 1538.2024,-122 1538.2024,-86 1773.7976,-86 1773.7976,-122"/>
<text text-anchor="middle" x="1656" y="-99.8" font-family="Times,serif" font-size="14.00" fill="#000000">DesktopImageSliderPopUpComponent</text>
</g>
<!-- DesktopProductDetailModule -->
<g id="node6" class="node">
<title>DesktopProductDetailModule</title>
<polygon fill="#8dd3c7" stroke="#000000" points="834.9622,-187 831.9622,-191 810.9622,-191 807.9622,-187 651.0378,-187 651.0378,-151 834.9622,-151 834.9622,-187"/>
<text text-anchor="middle" x="743" y="-164.8" font-family="Times,serif" font-size="14.00" fill="#000000">DesktopProductDetailModule</text>
</g>
<!-- DesktopImageSliderPopUpComponent&#45;&gt;DesktopProductDetailModule -->
<g id="edge1" class="edge">
<title>DesktopImageSliderPopUpComponent&#45;&gt;DesktopProductDetailModule</title>
<path fill="none" stroke="#000000" d="M1656,-122.2921C1656,-144.2057 1656,-178 1656,-178 1656,-178 845.1445,-178 845.1445,-178"/>
<polygon fill="#000000" stroke="#000000" points="845.1446,-174.5001 835.1445,-178 845.1445,-181.5001 845.1446,-174.5001"/>
</g>
<!-- DesktopProductAttributesComponent -->
<g id="node2" class="node">
<title>DesktopProductAttributesComponent</title>
<polygon fill="#ffffb3" stroke="#000000" points="1520.5265,-122 1293.4735,-122 1293.4735,-86 1520.5265,-86 1520.5265,-122"/>
<text text-anchor="middle" x="1407" y="-99.8" font-family="Times,serif" font-size="14.00" fill="#000000">DesktopProductAttributesComponent</text>
</g>
<!-- DesktopProductAttributesComponent&#45;&gt;DesktopProductDetailModule -->
<g id="edge2" class="edge">
<title>DesktopProductAttributesComponent&#45;&gt;DesktopProductDetailModule</title>
<path fill="none" stroke="#000000" d="M1407,-122.1061C1407,-141.3391 1407,-169 1407,-169 1407,-169 844.9775,-169 844.9775,-169"/>
<polygon fill="#000000" stroke="#000000" points="844.9776,-165.5001 834.9775,-169 844.9775,-172.5001 844.9776,-165.5001"/>
</g>
<!-- DesktopProductDescriptionCardComponent -->
<g id="node3" class="node">
<title>DesktopProductDescriptionCardComponent</title>
<polygon fill="#ffffb3" stroke="#000000" points="1275.0618,-122 1010.9382,-122 1010.9382,-86 1275.0618,-86 1275.0618,-122"/>
<text text-anchor="middle" x="1143" y="-99.8" font-family="Times,serif" font-size="14.00" fill="#000000">DesktopProductDescriptionCardComponent</text>
</g>
<!-- DesktopProductDescriptionCardComponent&#45;&gt;DesktopProductDetailModule -->
<g id="edge3" class="edge">
<title>DesktopProductDescriptionCardComponent&#45;&gt;DesktopProductDetailModule</title>
<path fill="none" stroke="#000000" d="M1143,-122.027C1143,-138.3976 1143,-160 1143,-160 1143,-160 845.0191,-160 845.0191,-160"/>
<polygon fill="#000000" stroke="#000000" points="845.0191,-156.5001 835.0191,-160 845.0191,-163.5001 845.0191,-156.5001"/>
</g>
<!-- DesktopProductDetailPageComponent -->
<g id="node4" class="node">
<title>DesktopProductDetailPageComponent</title>
<polygon fill="#ffffb3" stroke="#000000" points="992.4566,-122 759.5434,-122 759.5434,-86 992.4566,-86 992.4566,-122"/>
<text text-anchor="middle" x="876" y="-99.8" font-family="Times,serif" font-size="14.00" fill="#000000">DesktopProductDetailPageComponent</text>
</g>
<!-- DesktopProductDetailPageComponent&#45;&gt;DesktopProductDetailModule -->
<g id="edge4" class="edge">
<title>DesktopProductDetailPageComponent&#45;&gt;DesktopProductDetailModule</title>
<path fill="none" stroke="#000000" d="M797.2514,-122.1061C797.2514,-122.1061 797.2514,-140.991 797.2514,-140.991"/>
<polygon fill="#000000" stroke="#000000" points="793.7515,-140.9909 797.2514,-150.991 800.7515,-140.991 793.7515,-140.9909"/>
</g>
<!-- DesktopProductSuggestionPageComponent -->
<g id="node5" class="node">
<title>DesktopProductSuggestionPageComponent</title>
<polygon fill="#ffffb3" stroke="#000000" points="741.472,-122 480.528,-122 480.528,-86 741.472,-86 741.472,-122"/>
<text text-anchor="middle" x="611" y="-99.8" font-family="Times,serif" font-size="14.00" fill="#000000">DesktopProductSuggestionPageComponent</text>
</g>
<!-- DesktopProductSuggestionPageComponent&#45;&gt;DesktopProductDetailModule -->
<g id="edge5" class="edge">
<title>DesktopProductSuggestionPageComponent&#45;&gt;DesktopProductDetailModule</title>
<path fill="none" stroke="#000000" d="M696.2525,-122.1061C696.2525,-122.1061 696.2525,-140.991 696.2525,-140.991"/>
<polygon fill="#000000" stroke="#000000" points="692.7525,-140.9909 696.2525,-150.991 699.7525,-140.991 692.7525,-140.9909"/>
</g>
<!-- DesktopCommentModule -->
<g id="node7" class="node">
<title>DesktopCommentModule</title>
<polygon fill="#8dd3c7" stroke="#000000" points="456.9298,-122 453.9298,-126 432.9298,-126 429.9298,-122 295.0702,-122 295.0702,-86 456.9298,-86 456.9298,-122"/>
<text text-anchor="middle" x="376" y="-99.8" font-family="Times,serif" font-size="14.00" fill="#000000">DesktopCommentModule</text>
</g>
<!-- DesktopCommentModule&#45;&gt;DesktopProductDetailModule -->
<g id="edge6" class="edge">
<title>DesktopCommentModule&#45;&gt;DesktopProductDetailModule</title>
<path fill="none" stroke="#000000" d="M376,-122.027C376,-138.3976 376,-160 376,-160 376,-160 640.8641,-160 640.8641,-160"/>
<polygon fill="#000000" stroke="#000000" points="640.8642,-163.5001 650.8641,-160 640.8641,-156.5001 640.8642,-163.5001"/>
</g>
<!-- ProductDetailModule -->
<g id="node8" class="node">
<title>ProductDetailModule</title>
<polygon fill="#8dd3c7" stroke="#000000" points="277.8061,-122 274.8061,-126 253.8061,-126 250.8061,-122 140.1939,-122 140.1939,-86 277.8061,-86 277.8061,-122"/>
<text text-anchor="middle" x="209" y="-99.8" font-family="Times,serif" font-size="14.00" fill="#000000">ProductDetailModule</text>
</g>
<!-- ProductDetailModule&#45;&gt;DesktopProductDetailModule -->
<g id="edge7" class="edge">
<title>ProductDetailModule&#45;&gt;DesktopProductDetailModule</title>
<path fill="none" stroke="#000000" d="M209,-122.1061C209,-141.3391 209,-169 209,-169 209,-169 640.8982,-169 640.8982,-169"/>
<polygon fill="#000000" stroke="#000000" points="640.8982,-172.5001 650.8982,-169 640.8982,-165.5001 640.8982,-172.5001"/>
</g>
<!-- SharedModule -->
<g id="node9" class="node">
<title>SharedModule</title>
<polygon fill="#8dd3c7" stroke="#000000" points="122.4231,-122 119.4231,-126 98.4231,-126 95.4231,-122 23.5769,-122 23.5769,-86 122.4231,-86 122.4231,-122"/>
<text text-anchor="middle" x="73" y="-99.8" font-family="Times,serif" font-size="14.00" fill="#000000">SharedModule</text>
</g>
<!-- SharedModule&#45;&gt;DesktopProductDetailModule -->
<g id="edge8" class="edge">
<title>SharedModule&#45;&gt;DesktopProductDetailModule</title>
<path fill="none" stroke="#000000" d="M73,-122.2921C73,-144.2057 73,-178 73,-178 73,-178 640.8938,-178 640.8938,-178"/>
<polygon fill="#000000" stroke="#000000" points="640.8938,-181.5001 650.8938,-178 640.8937,-174.5001 640.8938,-181.5001"/>
</g>
</g>
</svg>
