<?xml version="1.0" encoding="UTF-8" standalone="no"?>
<!DOCTYPE svg PUBLIC "-//W3C//DTD SVG 1.1//EN"
 "http://www.w3.org/Graphics/SVG/1.1/DTD/svg11.dtd">
<!-- Generated by graphviz version 2.40.1 (20161225.0304)
 -->
<!-- Title: dependencies Pages: 1 -->
<svg width="746pt" height="211pt"
 viewBox="0.00 0.00 746.00 211.00" xmlns="http://www.w3.org/2000/svg" xmlns:xlink="http://www.w3.org/1999/xlink">
<g id="graph0" class="graph" transform="scale(1 1) rotate(0) translate(4 207)">
<title>dependencies</title>
<polygon fill="#ffffff" stroke="transparent" points="-4,4 -4,-207 742,-207 742,4 -4,4"/>
<text text-anchor="start" x="348.0091" y="-42.4" font-family="sans-serif" font-weight="bold" font-size="14.00" fill="#000000">Legend</text>
<polygon fill="#ffffb3" stroke="transparent" points="135,-10 135,-30 155,-30 155,-10 135,-10"/>
<text text-anchor="start" x="158.629" y="-15.4" font-family="sans-serif" font-size="14.00" fill="#000000"> &#160;Declarations</text>
<polygon fill="#8dd3c7" stroke="transparent" points="248,-10 248,-30 268,-30 268,-10 248,-10"/>
<text text-anchor="start" x="271.7251" y="-15.4" font-family="sans-serif" font-size="14.00" fill="#000000"> &#160;Module</text>
<polygon fill="#80b1d3" stroke="transparent" points="334,-10 334,-30 354,-30 354,-10 334,-10"/>
<text text-anchor="start" x="357.7812" y="-15.4" font-family="sans-serif" font-size="14.00" fill="#000000"> &#160;Bootstrap</text>
<polygon fill="#fdb462" stroke="transparent" points="431,-10 431,-30 451,-30 451,-10 431,-10"/>
<text text-anchor="start" x="454.6732" y="-15.4" font-family="sans-serif" font-size="14.00" fill="#000000"> &#160;Providers</text>
<polygon fill="#fb8072" stroke="transparent" points="527,-10 527,-30 547,-30 547,-10 527,-10"/>
<text text-anchor="start" x="550.7258" y="-15.4" font-family="sans-serif" font-size="14.00" fill="#000000"> &#160;Exports</text>
<g id="clust1" class="cluster">
<title>cluster_MobileHomeModule</title>
<polygon fill="none" stroke="#000000" stroke-dasharray="1,5" points="8,-70 8,-195 730,-195 730,-70 8,-70"/>
</g>
<g id="clust2" class="cluster">
<title>cluster_MobileHomeModule_declarations</title>
<polygon fill="none" stroke="#000000" points="250,-78 250,-130 722,-130 722,-78 250,-78"/>
</g>
<g id="clust5" class="cluster">
<title>cluster_MobileHomeModule_imports</title>
<polygon fill="none" stroke="#000000" points="16,-78 16,-130 242,-130 242,-78 16,-78"/>
</g>
<!-- MobileGeneralHomePageComponent -->
<g id="node1" class="node">
<title>MobileGeneralHomePageComponent</title>
<polygon fill="#ffffb3" stroke="#000000" points="713.9985,-122 486.0015,-122 486.0015,-86 713.9985,-86 713.9985,-122"/>
<text text-anchor="middle" x="600" y="-99.8" font-family="Times,serif" font-size="14.00" fill="#000000">MobileGeneralHomePageComponent</text>
</g>
<!-- MobileHomeModule -->
<g id="node3" class="node">
<title>MobileHomeModule</title>
<polygon fill="#8dd3c7" stroke="#000000" points="342.2022,-187 339.2022,-191 318.2022,-191 315.2022,-187 207.7978,-187 207.7978,-151 342.2022,-151 342.2022,-187"/>
<text text-anchor="middle" x="275" y="-164.8" font-family="Times,serif" font-size="14.00" fill="#000000">MobileHomeModule</text>
</g>
<!-- MobileGeneralHomePageComponent&#45;&gt;MobileHomeModule -->
<g id="edge1" class="edge">
<title>MobileGeneralHomePageComponent&#45;&gt;MobileHomeModule</title>
<path fill="none" stroke="#000000" d="M600,-122.1061C600,-141.3391 600,-169 600,-169 600,-169 352.3402,-169 352.3402,-169"/>
<polygon fill="#000000" stroke="#000000" points="352.3402,-165.5001 342.3402,-169 352.3402,-172.5001 352.3402,-165.5001"/>
</g>
<!-- MobileUserHomePageComponent -->
<g id="node2" class="node">
<title>MobileUserHomePageComponent</title>
<polygon fill="#ffffb3" stroke="#000000" points="467.6231,-122 258.3769,-122 258.3769,-86 467.6231,-86 467.6231,-122"/>
<text text-anchor="middle" x="363" y="-99.8" font-family="Times,serif" font-size="14.00" fill="#000000">MobileUserHomePageComponent</text>
</g>
<!-- MobileUserHomePageComponent&#45;&gt;MobileHomeModule -->
<g id="edge2" class="edge">
<title>MobileUserHomePageComponent&#45;&gt;MobileHomeModule</title>
<path fill="none" stroke="#000000" d="M300.1448,-122.1061C300.1448,-122.1061 300.1448,-140.991 300.1448,-140.991"/>
<polygon fill="#000000" stroke="#000000" points="296.6449,-140.9909 300.1448,-150.991 303.6449,-140.991 296.6449,-140.9909"/>
</g>
<!-- HomeModule -->
<g id="node4" class="node">
<title>HomeModule</title>
<polygon fill="#8dd3c7" stroke="#000000" points="233.7619,-122 230.7619,-126 209.7619,-126 206.7619,-122 140.2381,-122 140.2381,-86 233.7619,-86 233.7619,-122"/>
<text text-anchor="middle" x="187" y="-99.8" font-family="Times,serif" font-size="14.00" fill="#000000">HomeModule</text>
</g>
<!-- HomeModule&#45;&gt;MobileHomeModule -->
<g id="edge3" class="edge">
<title>HomeModule&#45;&gt;MobileHomeModule</title>
<path fill="none" stroke="#000000" d="M220.8899,-122.1061C220.8899,-122.1061 220.8899,-140.991 220.8899,-140.991"/>
<polygon fill="#000000" stroke="#000000" points="217.39,-140.9909 220.8899,-150.991 224.39,-140.991 217.39,-140.9909"/>
</g>
<!-- SharedModule -->
<g id="node5" class="node">
<title>SharedModule</title>
<polygon fill="#8dd3c7" stroke="#000000" points="122.4231,-122 119.4231,-126 98.4231,-126 95.4231,-122 23.5769,-122 23.5769,-86 122.4231,-86 122.4231,-122"/>
<text text-anchor="middle" x="73" y="-99.8" font-family="Times,serif" font-size="14.00" fill="#000000">SharedModule</text>
</g>
<!-- SharedModule&#45;&gt;MobileHomeModule -->
<g id="edge4" class="edge">
<title>SharedModule&#45;&gt;MobileHomeModule</title>
<path fill="none" stroke="#000000" d="M73,-122.1061C73,-141.3391 73,-169 73,-169 73,-169 197.7369,-169 197.7369,-169"/>
<polygon fill="#000000" stroke="#000000" points="197.737,-172.5001 207.7369,-169 197.7369,-165.5001 197.737,-172.5001"/>
</g>
</g>
</svg>
