<?xml version="1.0" encoding="UTF-8" standalone="no"?>
<!DOCTYPE svg PUBLIC "-//W3C//DTD SVG 1.1//EN"
 "http://www.w3.org/Graphics/SVG/1.1/DTD/svg11.dtd">
<!-- Generated by graphviz version 2.40.1 (20161225.0304)
 -->
<!-- Title: dependencies Pages: 1 -->
<svg width="1045pt" height="211pt"
 viewBox="0.00 0.00 1045.00 211.00" xmlns="http://www.w3.org/2000/svg" xmlns:xlink="http://www.w3.org/1999/xlink">
<g id="graph0" class="graph" transform="scale(1 1) rotate(0) translate(4 207)">
<title>dependencies</title>
<polygon fill="#ffffff" stroke="transparent" points="-4,4 -4,-207 1041,-207 1041,4 -4,4"/>
<text text-anchor="start" x="497.5091" y="-42.4" font-family="sans-serif" font-weight="bold" font-size="14.00" fill="#000000">Legend</text>
<polygon fill="#ffffb3" stroke="transparent" points="284.5,-10 284.5,-30 304.5,-30 304.5,-10 284.5,-10"/>
<text text-anchor="start" x="308.129" y="-15.4" font-family="sans-serif" font-size="14.00" fill="#000000"> &#160;Declarations</text>
<polygon fill="#8dd3c7" stroke="transparent" points="397.5,-10 397.5,-30 417.5,-30 417.5,-10 397.5,-10"/>
<text text-anchor="start" x="421.2251" y="-15.4" font-family="sans-serif" font-size="14.00" fill="#000000"> &#160;Module</text>
<polygon fill="#80b1d3" stroke="transparent" points="483.5,-10 483.5,-30 503.5,-30 503.5,-10 483.5,-10"/>
<text text-anchor="start" x="507.2812" y="-15.4" font-family="sans-serif" font-size="14.00" fill="#000000"> &#160;Bootstrap</text>
<polygon fill="#fdb462" stroke="transparent" points="580.5,-10 580.5,-30 600.5,-30 600.5,-10 580.5,-10"/>
<text text-anchor="start" x="604.1732" y="-15.4" font-family="sans-serif" font-size="14.00" fill="#000000"> &#160;Providers</text>
<polygon fill="#fb8072" stroke="transparent" points="676.5,-10 676.5,-30 696.5,-30 696.5,-10 676.5,-10"/>
<text text-anchor="start" x="700.2258" y="-15.4" font-family="sans-serif" font-size="14.00" fill="#000000"> &#160;Exports</text>
<g id="clust1" class="cluster">
<title>cluster_OrderModule</title>
<polygon fill="none" stroke="#000000" stroke-dasharray="1,5" points="8,-70 8,-195 1029,-195 1029,-70 8,-70"/>
</g>
<g id="clust2" class="cluster">
<title>cluster_OrderModule_declarations</title>
<polygon fill="none" stroke="#000000" points="138,-78 138,-130 1021,-130 1021,-78 138,-78"/>
</g>
<g id="clust7" class="cluster">
<title>cluster_OrderModule_imports</title>
<polygon fill="none" stroke="#000000" points="16,-78 16,-130 130,-130 130,-78 16,-78"/>
</g>
<!-- BaseOrderDetailCardComponent -->
<g id="node1" class="node">
<title>BaseOrderDetailCardComponent</title>
<polygon fill="#ffffb3" stroke="#000000" points="1013.105,-122 810.895,-122 810.895,-86 1013.105,-86 1013.105,-122"/>
<text text-anchor="middle" x="912" y="-99.8" font-family="Times,serif" font-size="14.00" fill="#000000">BaseOrderDetailCardComponent</text>
</g>
<!-- OrderModule -->
<g id="node5" class="node">
<title>OrderModule</title>
<polygon fill="#8dd3c7" stroke="#000000" points="536.1924,-187 533.1924,-191 512.1924,-191 509.1924,-187 443.8076,-187 443.8076,-151 536.1924,-151 536.1924,-187"/>
<text text-anchor="middle" x="490" y="-164.8" font-family="Times,serif" font-size="14.00" fill="#000000">OrderModule</text>
</g>
<!-- BaseOrderDetailCardComponent&#45;&gt;OrderModule -->
<g id="edge1" class="edge">
<title>BaseOrderDetailCardComponent&#45;&gt;OrderModule</title>
<path fill="none" stroke="#000000" d="M912,-122.2843C912,-143.3211 912,-175 912,-175 912,-175 546.3685,-175 546.3685,-175"/>
<polygon fill="#000000" stroke="#000000" points="546.3686,-171.5001 536.3685,-175 546.3685,-178.5001 546.3686,-171.5001"/>
</g>
<!-- BaseOrderDetailPageComponent -->
<g id="node2" class="node">
<title>BaseOrderDetailPageComponent</title>
<polygon fill="#ffffb3" stroke="#000000" points="792.105,-122 589.895,-122 589.895,-86 792.105,-86 792.105,-122"/>
<text text-anchor="middle" x="691" y="-99.8" font-family="Times,serif" font-size="14.00" fill="#000000">BaseOrderDetailPageComponent</text>
</g>
<!-- BaseOrderDetailPageComponent&#45;&gt;OrderModule -->
<g id="edge2" class="edge">
<title>BaseOrderDetailPageComponent&#45;&gt;OrderModule</title>
<path fill="none" stroke="#000000" d="M691,-122.0225C691,-139.3734 691,-163 691,-163 691,-163 546.1135,-163 546.1135,-163"/>
<polygon fill="#000000" stroke="#000000" points="546.1135,-159.5001 536.1135,-163 546.1134,-166.5001 546.1135,-159.5001"/>
</g>
<!-- BaseOrderListComponent -->
<g id="node3" class="node">
<title>BaseOrderListComponent</title>
<polygon fill="#ffffb3" stroke="#000000" points="571.4636,-122 408.5364,-122 408.5364,-86 571.4636,-86 571.4636,-122"/>
<text text-anchor="middle" x="490" y="-99.8" font-family="Times,serif" font-size="14.00" fill="#000000">BaseOrderListComponent</text>
</g>
<!-- BaseOrderListComponent&#45;&gt;OrderModule -->
<g id="edge3" class="edge">
<title>BaseOrderListComponent&#45;&gt;OrderModule</title>
<path fill="none" stroke="#000000" d="M490,-122.1061C490,-122.1061 490,-140.991 490,-140.991"/>
<polygon fill="#000000" stroke="#000000" points="486.5001,-140.9909 490,-150.991 493.5001,-140.991 486.5001,-140.9909"/>
</g>
<!-- BaseOrderListSummaryCardComponent -->
<g id="node4" class="node">
<title>BaseOrderListSummaryCardComponent</title>
<polygon fill="#ffffb3" stroke="#000000" points="390.1147,-122 145.8853,-122 145.8853,-86 390.1147,-86 390.1147,-122"/>
<text text-anchor="middle" x="268" y="-99.8" font-family="Times,serif" font-size="14.00" fill="#000000">BaseOrderListSummaryCardComponent</text>
</g>
<!-- BaseOrderListSummaryCardComponent&#45;&gt;OrderModule -->
<g id="edge4" class="edge">
<title>BaseOrderListSummaryCardComponent&#45;&gt;OrderModule</title>
<path fill="none" stroke="#000000" d="M268,-122.0225C268,-139.3734 268,-163 268,-163 268,-163 433.7318,-163 433.7318,-163"/>
<polygon fill="#000000" stroke="#000000" points="433.7318,-166.5001 443.7318,-163 433.7317,-159.5001 433.7318,-166.5001"/>
</g>
<!-- SharedModule -->
<g id="node6" class="node">
<title>SharedModule</title>
<polygon fill="#8dd3c7" stroke="#000000" points="122.4231,-122 119.4231,-126 98.4231,-126 95.4231,-122 23.5769,-122 23.5769,-86 122.4231,-86 122.4231,-122"/>
<text text-anchor="middle" x="73" y="-99.8" font-family="Times,serif" font-size="14.00" fill="#000000">SharedModule</text>
</g>
<!-- SharedModule&#45;&gt;OrderModule -->
<g id="edge5" class="edge">
<title>SharedModule&#45;&gt;OrderModule</title>
<path fill="none" stroke="#000000" d="M73,-122.2843C73,-143.3211 73,-175 73,-175 73,-175 433.7804,-175 433.7804,-175"/>
<polygon fill="#000000" stroke="#000000" points="433.7805,-178.5001 443.7804,-175 433.7804,-171.5001 433.7805,-178.5001"/>
</g>
</g>
</svg>
