<?xml version="1.0" encoding="UTF-8" standalone="no"?>
<!DOCTYPE svg PUBLIC "-//W3C//DTD SVG 1.1//EN"
 "http://www.w3.org/Graphics/SVG/1.1/DTD/svg11.dtd">
<!-- Generated by graphviz version 2.40.1 (20161225.0304)
 -->
<!-- Title: dependencies Pages: 1 -->
<svg width="1208pt" height="211pt"
 viewBox="0.00 0.00 1208.00 211.00" xmlns="http://www.w3.org/2000/svg" xmlns:xlink="http://www.w3.org/1999/xlink">
<g id="graph0" class="graph" transform="scale(1 1) rotate(0) translate(4 207)">
<title>dependencies</title>
<polygon fill="#ffffff" stroke="transparent" points="-4,4 -4,-207 1204,-207 1204,4 -4,4"/>
<text text-anchor="start" x="579.0091" y="-42.4" font-family="sans-serif" font-weight="bold" font-size="14.00" fill="#000000">Legend</text>
<polygon fill="#ffffb3" stroke="transparent" points="366,-10 366,-30 386,-30 386,-10 366,-10"/>
<text text-anchor="start" x="389.629" y="-15.4" font-family="sans-serif" font-size="14.00" fill="#000000"> &#160;Declarations</text>
<polygon fill="#8dd3c7" stroke="transparent" points="479,-10 479,-30 499,-30 499,-10 479,-10"/>
<text text-anchor="start" x="502.7251" y="-15.4" font-family="sans-serif" font-size="14.00" fill="#000000"> &#160;Module</text>
<polygon fill="#80b1d3" stroke="transparent" points="565,-10 565,-30 585,-30 585,-10 565,-10"/>
<text text-anchor="start" x="588.7812" y="-15.4" font-family="sans-serif" font-size="14.00" fill="#000000"> &#160;Bootstrap</text>
<polygon fill="#fdb462" stroke="transparent" points="662,-10 662,-30 682,-30 682,-10 662,-10"/>
<text text-anchor="start" x="685.6732" y="-15.4" font-family="sans-serif" font-size="14.00" fill="#000000"> &#160;Providers</text>
<polygon fill="#fb8072" stroke="transparent" points="758,-10 758,-30 778,-30 778,-10 758,-10"/>
<text text-anchor="start" x="781.7258" y="-15.4" font-family="sans-serif" font-size="14.00" fill="#000000"> &#160;Exports</text>
<g id="clust1" class="cluster">
<title>cluster_MobileOrderModule</title>
<polygon fill="none" stroke="#000000" stroke-dasharray="1,5" points="8,-70 8,-195 1192,-195 1192,-70 8,-70"/>
</g>
<g id="clust2" class="cluster">
<title>cluster_MobileOrderModule_declarations</title>
<polygon fill="none" stroke="#000000" points="248,-78 248,-130 1184,-130 1184,-78 248,-78"/>
</g>
<g id="clust7" class="cluster">
<title>cluster_MobileOrderModule_imports</title>
<polygon fill="none" stroke="#000000" points="16,-78 16,-130 240,-130 240,-78 16,-78"/>
</g>
<!-- MobileOrderDetailCardComponent -->
<g id="node1" class="node">
<title>MobileOrderDetailCardComponent</title>
<polygon fill="#ffffb3" stroke="#000000" points="1175.8347,-122 960.1653,-122 960.1653,-86 1175.8347,-86 1175.8347,-122"/>
<text text-anchor="middle" x="1068" y="-99.8" font-family="Times,serif" font-size="14.00" fill="#000000">MobileOrderDetailCardComponent</text>
</g>
<!-- MobileOrderModule -->
<g id="node5" class="node">
<title>MobileOrderModule</title>
<polygon fill="#8dd3c7" stroke="#000000" points="568.1331,-187 565.1331,-191 544.1331,-191 541.1331,-187 435.8669,-187 435.8669,-151 568.1331,-151 568.1331,-187"/>
<text text-anchor="middle" x="502" y="-164.8" font-family="Times,serif" font-size="14.00" fill="#000000">MobileOrderModule</text>
</g>
<!-- MobileOrderDetailCardComponent&#45;&gt;MobileOrderModule -->
<g id="edge1" class="edge">
<title>MobileOrderDetailCardComponent&#45;&gt;MobileOrderModule</title>
<path fill="none" stroke="#000000" d="M1068,-122.2843C1068,-143.3211 1068,-175 1068,-175 1068,-175 578.3132,-175 578.3132,-175"/>
<polygon fill="#000000" stroke="#000000" points="578.3132,-171.5001 568.3132,-175 578.3132,-178.5001 578.3132,-171.5001"/>
</g>
<!-- MobileOrderDetailPageComponent -->
<g id="node2" class="node">
<title>MobileOrderDetailPageComponent</title>
<polygon fill="#ffffb3" stroke="#000000" points="941.8347,-122 726.1653,-122 726.1653,-86 941.8347,-86 941.8347,-122"/>
<text text-anchor="middle" x="834" y="-99.8" font-family="Times,serif" font-size="14.00" fill="#000000">MobileOrderDetailPageComponent</text>
</g>
<!-- MobileOrderDetailPageComponent&#45;&gt;MobileOrderModule -->
<g id="edge2" class="edge">
<title>MobileOrderDetailPageComponent&#45;&gt;MobileOrderModule</title>
<path fill="none" stroke="#000000" d="M834,-122.0225C834,-139.3734 834,-163 834,-163 834,-163 578.3872,-163 578.3872,-163"/>
<polygon fill="#000000" stroke="#000000" points="578.3873,-159.5001 568.3872,-163 578.3872,-166.5001 578.3873,-159.5001"/>
</g>
<!-- MobileOrderListComponent -->
<g id="node3" class="node">
<title>MobileOrderListComponent</title>
<polygon fill="#ffffb3" stroke="#000000" points="708.1937,-122 531.8063,-122 531.8063,-86 708.1937,-86 708.1937,-122"/>
<text text-anchor="middle" x="620" y="-99.8" font-family="Times,serif" font-size="14.00" fill="#000000">MobileOrderListComponent</text>
</g>
<!-- MobileOrderListComponent&#45;&gt;MobileOrderModule -->
<g id="edge3" class="edge">
<title>MobileOrderListComponent&#45;&gt;MobileOrderModule</title>
<path fill="none" stroke="#000000" d="M550.1098,-122.1061C550.1098,-122.1061 550.1098,-140.991 550.1098,-140.991"/>
<polygon fill="#000000" stroke="#000000" points="546.6098,-140.9909 550.1098,-150.991 553.6098,-140.991 546.6098,-140.9909"/>
</g>
<!-- MobileOrderListSummaryCardComponent -->
<g id="node4" class="node">
<title>MobileOrderListSummaryCardComponent</title>
<polygon fill="#ffffb3" stroke="#000000" points="513.8444,-122 256.1556,-122 256.1556,-86 513.8444,-86 513.8444,-122"/>
<text text-anchor="middle" x="385" y="-99.8" font-family="Times,serif" font-size="14.00" fill="#000000">MobileOrderListSummaryCardComponent</text>
</g>
<!-- MobileOrderListSummaryCardComponent&#45;&gt;MobileOrderModule -->
<g id="edge4" class="edge">
<title>MobileOrderListSummaryCardComponent&#45;&gt;MobileOrderModule</title>
<path fill="none" stroke="#000000" d="M474.803,-122.1061C474.803,-122.1061 474.803,-140.991 474.803,-140.991"/>
<polygon fill="#000000" stroke="#000000" points="471.303,-140.9909 474.803,-150.991 478.303,-140.991 471.303,-140.9909"/>
</g>
<!-- OrderModule -->
<g id="node6" class="node">
<title>OrderModule</title>
<polygon fill="#8dd3c7" stroke="#000000" points="232.1924,-122 229.1924,-126 208.1924,-126 205.1924,-122 139.8076,-122 139.8076,-86 232.1924,-86 232.1924,-122"/>
<text text-anchor="middle" x="186" y="-99.8" font-family="Times,serif" font-size="14.00" fill="#000000">OrderModule</text>
</g>
<!-- OrderModule&#45;&gt;MobileOrderModule -->
<g id="edge5" class="edge">
<title>OrderModule&#45;&gt;MobileOrderModule</title>
<path fill="none" stroke="#000000" d="M186,-122.0225C186,-139.3734 186,-163 186,-163 186,-163 425.756,-163 425.756,-163"/>
<polygon fill="#000000" stroke="#000000" points="425.7561,-166.5001 435.756,-163 425.756,-159.5001 425.7561,-166.5001"/>
</g>
<!-- SharedModule -->
<g id="node7" class="node">
<title>SharedModule</title>
<polygon fill="#8dd3c7" stroke="#000000" points="122.4231,-122 119.4231,-126 98.4231,-126 95.4231,-122 23.5769,-122 23.5769,-86 122.4231,-86 122.4231,-122"/>
<text text-anchor="middle" x="73" y="-99.8" font-family="Times,serif" font-size="14.00" fill="#000000">SharedModule</text>
</g>
<!-- SharedModule&#45;&gt;MobileOrderModule -->
<g id="edge6" class="edge">
<title>SharedModule&#45;&gt;MobileOrderModule</title>
<path fill="none" stroke="#000000" d="M73,-122.2843C73,-143.3211 73,-175 73,-175 73,-175 425.4394,-175 425.4394,-175"/>
<polygon fill="#000000" stroke="#000000" points="425.4395,-178.5001 435.4394,-175 425.4394,-171.5001 425.4395,-178.5001"/>
</g>
</g>
</svg>
