<?xml version="1.0" encoding="UTF-8" standalone="no"?>
<!DOCTYPE svg PUBLIC "-//W3C//DTD SVG 1.1//EN"
 "http://www.w3.org/Graphics/SVG/1.1/DTD/svg11.dtd">
<!-- Generated by graphviz version 2.40.1 (20161225.0304)
 -->
<!-- Title: dependencies Pages: 1 -->
<svg width="1539pt" height="284pt"
 viewBox="0.00 0.00 1539.00 284.00" xmlns="http://www.w3.org/2000/svg" xmlns:xlink="http://www.w3.org/1999/xlink">
<g id="graph0" class="graph" transform="scale(1 1) rotate(0) translate(4 280)">
<title>dependencies</title>
<polygon fill="#ffffff" stroke="transparent" points="-4,4 -4,-280 1535,-280 1535,4 -4,4"/>
<text text-anchor="start" x="744.5091" y="-42.4" font-family="sans-serif" font-weight="bold" font-size="14.00" fill="#000000">Legend</text>
<polygon fill="#ffffb3" stroke="transparent" points="531.5,-10 531.5,-30 551.5,-30 551.5,-10 531.5,-10"/>
<text text-anchor="start" x="555.129" y="-15.4" font-family="sans-serif" font-size="14.00" fill="#000000"> &#160;Declarations</text>
<polygon fill="#8dd3c7" stroke="transparent" points="644.5,-10 644.5,-30 664.5,-30 664.5,-10 644.5,-10"/>
<text text-anchor="start" x="668.2251" y="-15.4" font-family="sans-serif" font-size="14.00" fill="#000000"> &#160;Module</text>
<polygon fill="#80b1d3" stroke="transparent" points="730.5,-10 730.5,-30 750.5,-30 750.5,-10 730.5,-10"/>
<text text-anchor="start" x="754.2812" y="-15.4" font-family="sans-serif" font-size="14.00" fill="#000000"> &#160;Bootstrap</text>
<polygon fill="#fdb462" stroke="transparent" points="827.5,-10 827.5,-30 847.5,-30 847.5,-10 827.5,-10"/>
<text text-anchor="start" x="851.1732" y="-15.4" font-family="sans-serif" font-size="14.00" fill="#000000"> &#160;Providers</text>
<polygon fill="#fb8072" stroke="transparent" points="923.5,-10 923.5,-30 943.5,-30 943.5,-10 923.5,-10"/>
<text text-anchor="start" x="947.2258" y="-15.4" font-family="sans-serif" font-size="14.00" fill="#000000"> &#160;Exports</text>
<g id="clust1" class="cluster">
<title>cluster_PharmacyModule</title>
<polygon fill="none" stroke="#000000" stroke-dasharray="1,5" points="8,-70 8,-268 1523,-268 1523,-70 8,-70"/>
</g>
<g id="clust2" class="cluster">
<title>cluster_PharmacyModule_declarations</title>
<polygon fill="none" stroke="#000000" points="138,-78 138,-130 1515,-130 1515,-78 138,-78"/>
</g>
<g id="clust9" class="cluster">
<title>cluster_PharmacyModule_imports</title>
<polygon fill="none" stroke="#000000" points="16,-78 16,-130 130,-130 130,-78 16,-78"/>
</g>
<g id="clust10" class="cluster">
<title>cluster_PharmacyModule_exports</title>
<polygon fill="none" stroke="#000000" points="95,-208 95,-260 1400,-260 1400,-208 95,-208"/>
</g>
<!-- BasePharmacyPageComponent -->
<g id="node1" class="node">
<title>BasePharmacyPageComponent</title>
<polygon fill="#ffffb3" stroke="#000000" points="1506.7324,-122 1315.2676,-122 1315.2676,-86 1506.7324,-86 1506.7324,-122"/>
<text text-anchor="middle" x="1411" y="-99.8" font-family="Times,serif" font-size="14.00" fill="#000000">BasePharmacyPageComponent</text>
</g>
<!-- PharmacyModule -->
<g id="node7" class="node">
<title>PharmacyModule</title>
<polygon fill="#8dd3c7" stroke="#000000" points="820.5284,-187 817.5284,-191 796.5284,-191 793.5284,-187 705.4716,-187 705.4716,-151 820.5284,-151 820.5284,-187"/>
<text text-anchor="middle" x="763" y="-164.8" font-family="Times,serif" font-size="14.00" fill="#000000">PharmacyModule</text>
</g>
<!-- BasePharmacyPageComponent&#45;&gt;PharmacyModule -->
<g id="edge1" class="edge">
<title>BasePharmacyPageComponent&#45;&gt;PharmacyModule</title>
<path fill="none" stroke="#000000" d="M1353.5482,-122.1061C1353.5482,-141.3391 1353.5482,-169 1353.5482,-169 1353.5482,-169 830.6995,-169 830.6995,-169"/>
<polygon fill="#000000" stroke="#000000" points="830.6995,-165.5001 820.6995,-169 830.6995,-172.5001 830.6995,-165.5001"/>
</g>
<!-- ContactSupportPageComponent -->
<g id="node2" class="node">
<title>ContactSupportPageComponent</title>
<polygon fill="#ffffb3" stroke="#000000" points="1297.4255,-122 1100.5745,-122 1100.5745,-86 1297.4255,-86 1297.4255,-122"/>
<text text-anchor="middle" x="1199" y="-99.8" font-family="Times,serif" font-size="14.00" fill="#000000">ContactSupportPageComponent</text>
</g>
<!-- ContactSupportPageComponent&#45;&gt;PharmacyModule -->
<g id="edge2" class="edge">
<title>ContactSupportPageComponent&#45;&gt;PharmacyModule</title>
<path fill="none" stroke="#000000" d="M1137.2943,-122.0225C1137.2943,-139.3734 1137.2943,-163 1137.2943,-163 1137.2943,-163 830.6632,-163 830.6632,-163"/>
<polygon fill="#000000" stroke="#000000" points="830.6633,-159.5001 820.6632,-163 830.6632,-166.5001 830.6633,-159.5001"/>
</g>
<!-- ContactSupportPopUpComponent -->
<g id="node3" class="node">
<title>ContactSupportPopUpComponent</title>
<polygon fill="#ffffb3" stroke="#000000" points="1083.1024,-122 874.8976,-122 874.8976,-86 1083.1024,-86 1083.1024,-122"/>
<text text-anchor="middle" x="979" y="-99.8" font-family="Times,serif" font-size="14.00" fill="#000000">ContactSupportPopUpComponent</text>
</g>
<!-- ContactSupportPopUpComponent&#45;&gt;PharmacyModule -->
<g id="edge3" class="edge">
<title>ContactSupportPopUpComponent&#45;&gt;PharmacyModule</title>
<path fill="none" stroke="#000000" d="M909.8102,-122.2396C909.8102,-137.5706 909.8102,-157 909.8102,-157 909.8102,-157 830.6019,-157 830.6019,-157"/>
<polygon fill="#000000" stroke="#000000" points="830.6019,-153.5001 820.6019,-157 830.6019,-160.5001 830.6019,-153.5001"/>
</g>
<!-- PharmacyInfoCardComponent -->
<g id="node4" class="node">
<title>PharmacyInfoCardComponent</title>
<polygon fill="#ffffb3" stroke="#000000" points="856.8431,-122 669.1569,-122 669.1569,-86 856.8431,-86 856.8431,-122"/>
<text text-anchor="middle" x="763" y="-99.8" font-family="Times,serif" font-size="14.00" fill="#000000">PharmacyInfoCardComponent</text>
</g>
<!-- PharmacyInfoCardComponent&#45;&gt;PharmacyModule -->
<g id="edge4" class="edge">
<title>PharmacyInfoCardComponent&#45;&gt;PharmacyModule</title>
<path fill="none" stroke="#000000" d="M763,-122.1061C763,-122.1061 763,-140.991 763,-140.991"/>
<polygon fill="#000000" stroke="#000000" points="759.5001,-140.9909 763,-150.991 766.5001,-140.991 759.5001,-140.9909"/>
</g>
<!-- SubscribeToPharmacyPopUpComponent -->
<g id="node5" class="node">
<title>SubscribeToPharmacyPopUpComponent</title>
<polygon fill="#ffffb3" stroke="#000000" points="651.4594,-122 404.5406,-122 404.5406,-86 651.4594,-86 651.4594,-122"/>
<text text-anchor="middle" x="528" y="-99.8" font-family="Times,serif" font-size="14.00" fill="#000000">SubscribeToPharmacyPopUpComponent</text>
</g>
<!-- SubscribeToPharmacyPopUpComponent&#45;&gt;PharmacyModule -->
<g id="edge5" class="edge">
<title>SubscribeToPharmacyPopUpComponent&#45;&gt;PharmacyModule</title>
<path fill="none" stroke="#000000" d="M642.2593,-122.2396C642.2593,-137.5706 642.2593,-157 642.2593,-157 642.2593,-157 695.4586,-157 695.4586,-157"/>
<polygon fill="#000000" stroke="#000000" points="695.4586,-160.5001 705.4586,-157 695.4586,-153.5001 695.4586,-160.5001"/>
</g>
<!-- SubscriptionCompletedPageComponent -->
<g id="node6" class="node">
<title>SubscriptionCompletedPageComponent</title>
<polygon fill="#ffffb3" stroke="#000000" points="386.2561,-122 145.7439,-122 145.7439,-86 386.2561,-86 386.2561,-122"/>
<text text-anchor="middle" x="266" y="-99.8" font-family="Times,serif" font-size="14.00" fill="#000000">SubscriptionCompletedPageComponent</text>
</g>
<!-- SubscriptionCompletedPageComponent&#45;&gt;PharmacyModule -->
<g id="edge6" class="edge">
<title>SubscriptionCompletedPageComponent&#45;&gt;PharmacyModule</title>
<path fill="none" stroke="#000000" d="M375.5742,-122.0225C375.5742,-139.3734 375.5742,-163 375.5742,-163 375.5742,-163 695.4168,-163 695.4168,-163"/>
<polygon fill="#000000" stroke="#000000" points="695.4168,-166.5001 705.4168,-163 695.4167,-159.5001 695.4168,-166.5001"/>
</g>
<!-- ContactSupportPageComponent  -->
<g id="node9" class="node">
<title>ContactSupportPageComponent </title>
<polygon fill="#fb8072" stroke="#000000" points="1391.925,-252 1192.075,-252 1192.075,-216 1391.925,-216 1391.925,-252"/>
<text text-anchor="middle" x="1292" y="-229.8" font-family="Times,serif" font-size="14.00" fill="#000000">ContactSupportPageComponent </text>
</g>
<!-- PharmacyModule&#45;&gt;ContactSupportPageComponent  -->
<g id="edge8" class="edge">
<title>PharmacyModule&#45;&gt;ContactSupportPageComponent </title>
<path fill="none" stroke="#000000" stroke-dasharray="5,2" d="M820.6168,-175C948.4556,-175 1244.625,-175 1244.625,-175 1244.625,-175 1244.625,-205.9775 1244.625,-205.9775"/>
<polygon fill="#000000" stroke="#000000" points="1241.1251,-205.9774 1244.625,-215.9775 1248.1251,-205.9775 1241.1251,-205.9774"/>
</g>
<!-- ContactSupportPopUpComponent  -->
<g id="node10" class="node">
<title>ContactSupportPopUpComponent </title>
<polygon fill="#fb8072" stroke="#000000" points="1173.6028,-252 962.3972,-252 962.3972,-216 1173.6028,-216 1173.6028,-252"/>
<text text-anchor="middle" x="1068" y="-229.8" font-family="Times,serif" font-size="14.00" fill="#000000">ContactSupportPopUpComponent </text>
</g>
<!-- PharmacyModule&#45;&gt;ContactSupportPopUpComponent  -->
<g id="edge9" class="edge">
<title>PharmacyModule&#45;&gt;ContactSupportPopUpComponent </title>
<path fill="none" stroke="#000000" stroke-dasharray="5,2" d="M820.6192,-181C897.1068,-181 1022.625,-181 1022.625,-181 1022.625,-181 1022.625,-205.7604 1022.625,-205.7604"/>
<polygon fill="#000000" stroke="#000000" points="1019.1251,-205.7604 1022.625,-215.7604 1026.1251,-205.7604 1019.1251,-205.7604"/>
</g>
<!-- PharmacyInfoCardComponent  -->
<g id="node11" class="node">
<title>PharmacyInfoCardComponent </title>
<polygon fill="#fb8072" stroke="#000000" points="944.8433,-252 753.1567,-252 753.1567,-216 944.8433,-216 944.8433,-252"/>
<text text-anchor="middle" x="849" y="-229.8" font-family="Times,serif" font-size="14.00" fill="#000000">PharmacyInfoCardComponent </text>
</g>
<!-- PharmacyModule&#45;&gt;PharmacyInfoCardComponent  -->
<g id="edge10" class="edge">
<title>PharmacyModule&#45;&gt;PharmacyInfoCardComponent </title>
<path fill="none" stroke="#000000" stroke-dasharray="5,2" d="M787.0461,-187.1061C787.0461,-187.1061 787.0461,-205.991 787.0461,-205.991"/>
<polygon fill="#000000" stroke="#000000" points="783.5462,-205.9909 787.0461,-215.991 790.5462,-205.991 783.5462,-205.9909"/>
</g>
<!-- SharedModule  -->
<g id="node12" class="node">
<title>SharedModule </title>
<polygon fill="#fb8072" stroke="#000000" points="734.9222,-252 633.0778,-252 633.0778,-216 734.9222,-216 734.9222,-252"/>
<text text-anchor="middle" x="684" y="-229.8" font-family="Times,serif" font-size="14.00" fill="#000000">SharedModule </text>
</g>
<!-- PharmacyModule&#45;&gt;SharedModule  -->
<g id="edge11" class="edge">
<title>PharmacyModule&#45;&gt;SharedModule </title>
<path fill="none" stroke="#000000" stroke-dasharray="5,2" d="M720.0987,-187.1061C720.0987,-187.1061 720.0987,-205.991 720.0987,-205.991"/>
<polygon fill="#000000" stroke="#000000" points="716.5988,-205.9909 720.0987,-215.991 723.5988,-205.991 716.5988,-205.9909"/>
</g>
<!-- SubscribeToPharmacyPopUpComponent  -->
<g id="node13" class="node">
<title>SubscribeToPharmacyPopUpComponent </title>
<polygon fill="#fb8072" stroke="#000000" points="615.4598,-252 364.5402,-252 364.5402,-216 615.4598,-216 615.4598,-252"/>
<text text-anchor="middle" x="490" y="-229.8" font-family="Times,serif" font-size="14.00" fill="#000000">SubscribeToPharmacyPopUpComponent </text>
</g>
<!-- PharmacyModule&#45;&gt;SubscribeToPharmacyPopUpComponent  -->
<g id="edge12" class="edge">
<title>PharmacyModule&#45;&gt;SubscribeToPharmacyPopUpComponent </title>
<path fill="none" stroke="#000000" stroke-dasharray="5,2" d="M705.2453,-181C630.538,-181 509.875,-181 509.875,-181 509.875,-181 509.875,-205.7604 509.875,-205.7604"/>
<polygon fill="#000000" stroke="#000000" points="506.3751,-205.7604 509.875,-215.7604 513.3751,-205.7604 506.3751,-205.7604"/>
</g>
<!-- SubscriptionCompletedPageComponent  -->
<g id="node14" class="node">
<title>SubscriptionCompletedPageComponent </title>
<polygon fill="#fb8072" stroke="#000000" points="347.2561,-252 102.7439,-252 102.7439,-216 347.2561,-216 347.2561,-252"/>
<text text-anchor="middle" x="225" y="-229.8" font-family="Times,serif" font-size="14.00" fill="#000000">SubscriptionCompletedPageComponent </text>
</g>
<!-- PharmacyModule&#45;&gt;SubscriptionCompletedPageComponent  -->
<g id="edge13" class="edge">
<title>PharmacyModule&#45;&gt;SubscriptionCompletedPageComponent </title>
<path fill="none" stroke="#000000" stroke-dasharray="5,2" d="M705.2403,-175C570.4289,-175 246.375,-175 246.375,-175 246.375,-175 246.375,-205.9775 246.375,-205.9775"/>
<polygon fill="#000000" stroke="#000000" points="242.8751,-205.9774 246.375,-215.9775 249.8751,-205.9775 242.8751,-205.9774"/>
</g>
<!-- SharedModule -->
<g id="node8" class="node">
<title>SharedModule</title>
<polygon fill="#8dd3c7" stroke="#000000" points="122.4231,-122 119.4231,-126 98.4231,-126 95.4231,-122 23.5769,-122 23.5769,-86 122.4231,-86 122.4231,-122"/>
<text text-anchor="middle" x="73" y="-99.8" font-family="Times,serif" font-size="14.00" fill="#000000">SharedModule</text>
</g>
<!-- SharedModule&#45;&gt;PharmacyModule -->
<g id="edge7" class="edge">
<title>SharedModule&#45;&gt;PharmacyModule</title>
<path fill="none" stroke="#000000" d="M112.5416,-122.1061C112.5416,-141.3391 112.5416,-169 112.5416,-169 112.5416,-169 695.2762,-169 695.2762,-169"/>
<polygon fill="#000000" stroke="#000000" points="695.2762,-172.5001 705.2762,-169 695.2761,-165.5001 695.2762,-172.5001"/>
</g>
</g>
</svg>
