<?xml version="1.0" encoding="UTF-8" standalone="no"?>
<!DOCTYPE svg PUBLIC "-//W3C//DTD SVG 1.1//EN"
 "http://www.w3.org/Graphics/SVG/1.1/DTD/svg11.dtd">
<!-- Generated by graphviz version 2.40.1 (20161225.0304)
 -->
<!-- Title: dependencies Pages: 1 -->
<svg width="1330pt" height="211pt"
 viewBox="0.00 0.00 1330.00 211.00" xmlns="http://www.w3.org/2000/svg" xmlns:xlink="http://www.w3.org/1999/xlink">
<g id="graph0" class="graph" transform="scale(1 1) rotate(0) translate(4 207)">
<title>dependencies</title>
<polygon fill="#ffffff" stroke="transparent" points="-4,4 -4,-207 1326,-207 1326,4 -4,4"/>
<text text-anchor="start" x="640.0091" y="-42.4" font-family="sans-serif" font-weight="bold" font-size="14.00" fill="#000000">Legend</text>
<polygon fill="#ffffb3" stroke="transparent" points="427,-10 427,-30 447,-30 447,-10 427,-10"/>
<text text-anchor="start" x="450.629" y="-15.4" font-family="sans-serif" font-size="14.00" fill="#000000"> &#160;Declarations</text>
<polygon fill="#8dd3c7" stroke="transparent" points="540,-10 540,-30 560,-30 560,-10 540,-10"/>
<text text-anchor="start" x="563.7251" y="-15.4" font-family="sans-serif" font-size="14.00" fill="#000000"> &#160;Module</text>
<polygon fill="#80b1d3" stroke="transparent" points="626,-10 626,-30 646,-30 646,-10 626,-10"/>
<text text-anchor="start" x="649.7812" y="-15.4" font-family="sans-serif" font-size="14.00" fill="#000000"> &#160;Bootstrap</text>
<polygon fill="#fdb462" stroke="transparent" points="723,-10 723,-30 743,-30 743,-10 723,-10"/>
<text text-anchor="start" x="746.6732" y="-15.4" font-family="sans-serif" font-size="14.00" fill="#000000"> &#160;Providers</text>
<polygon fill="#fb8072" stroke="transparent" points="819,-10 819,-30 839,-30 839,-10 819,-10"/>
<text text-anchor="start" x="842.7258" y="-15.4" font-family="sans-serif" font-size="14.00" fill="#000000"> &#160;Exports</text>
<g id="clust1" class="cluster">
<title>cluster_DesktopProductListModule</title>
<polygon fill="none" stroke="#000000" stroke-dasharray="1,5" points="8,-70 8,-195 1314,-195 1314,-70 8,-70"/>
</g>
<g id="clust2" class="cluster">
<title>cluster_DesktopProductListModule_declarations</title>
<polygon fill="none" stroke="#000000" points="281,-78 281,-130 1306,-130 1306,-78 281,-78"/>
</g>
<g id="clust7" class="cluster">
<title>cluster_DesktopProductListModule_imports</title>
<polygon fill="none" stroke="#000000" points="16,-78 16,-130 273,-130 273,-78 16,-78"/>
</g>
<!-- DesktopProductCategoryTreeComponent -->
<g id="node1" class="node">
<title>DesktopProductCategoryTreeComponent</title>
<polygon fill="#ffffb3" stroke="#000000" points="1298.4971,-122 1049.5029,-122 1049.5029,-86 1298.4971,-86 1298.4971,-122"/>
<text text-anchor="middle" x="1174" y="-99.8" font-family="Times,serif" font-size="14.00" fill="#000000">DesktopProductCategoryTreeComponent</text>
</g>
<!-- DesktopProductListModule -->
<g id="node5" class="node">
<title>DesktopProductListModule</title>
<polygon fill="#8dd3c7" stroke="#000000" points="619.5336,-187 616.5336,-191 595.5336,-191 592.5336,-187 448.4664,-187 448.4664,-151 619.5336,-151 619.5336,-187"/>
<text text-anchor="middle" x="534" y="-164.8" font-family="Times,serif" font-size="14.00" fill="#000000">DesktopProductListModule</text>
</g>
<!-- DesktopProductCategoryTreeComponent&#45;&gt;DesktopProductListModule -->
<g id="edge1" class="edge">
<title>DesktopProductCategoryTreeComponent&#45;&gt;DesktopProductListModule</title>
<path fill="none" stroke="#000000" d="M1174,-122.2843C1174,-143.3211 1174,-175 1174,-175 1174,-175 629.6492,-175 629.6492,-175"/>
<polygon fill="#000000" stroke="#000000" points="629.6492,-171.5001 619.6492,-175 629.6491,-178.5001 629.6492,-171.5001"/>
</g>
<!-- DesktopProductListPageComponent -->
<g id="node2" class="node">
<title>DesktopProductListPageComponent</title>
<polygon fill="#ffffb3" stroke="#000000" points="1031.0279,-122 810.9721,-122 810.9721,-86 1031.0279,-86 1031.0279,-122"/>
<text text-anchor="middle" x="921" y="-99.8" font-family="Times,serif" font-size="14.00" fill="#000000">DesktopProductListPageComponent</text>
</g>
<!-- DesktopProductListPageComponent&#45;&gt;DesktopProductListModule -->
<g id="edge2" class="edge">
<title>DesktopProductListPageComponent&#45;&gt;DesktopProductListModule</title>
<path fill="none" stroke="#000000" d="M921,-122.0225C921,-139.3734 921,-163 921,-163 921,-163 629.8878,-163 629.8878,-163"/>
<polygon fill="#000000" stroke="#000000" points="629.8879,-159.5001 619.8878,-163 629.8878,-166.5001 629.8879,-159.5001"/>
</g>
<!-- DesktopProductListResultCardComponent -->
<g id="node3" class="node">
<title>DesktopProductListResultCardComponent</title>
<polygon fill="#ffffb3" stroke="#000000" points="793.3046,-122 536.6954,-122 536.6954,-86 793.3046,-86 793.3046,-122"/>
<text text-anchor="middle" x="665" y="-99.8" font-family="Times,serif" font-size="14.00" fill="#000000">DesktopProductListResultCardComponent</text>
</g>
<!-- DesktopProductListResultCardComponent&#45;&gt;DesktopProductListModule -->
<g id="edge3" class="edge">
<title>DesktopProductListResultCardComponent&#45;&gt;DesktopProductListModule</title>
<path fill="none" stroke="#000000" d="M578.3072,-122.1061C578.3072,-122.1061 578.3072,-140.991 578.3072,-140.991"/>
<polygon fill="#000000" stroke="#000000" points="574.8072,-140.9909 578.3072,-150.991 581.8072,-140.991 574.8072,-140.9909"/>
</g>
<!-- DesktopSearchInCategoryComponent -->
<g id="node4" class="node">
<title>DesktopSearchInCategoryComponent</title>
<polygon fill="#ffffb3" stroke="#000000" points="518.5534,-122 289.4466,-122 289.4466,-86 518.5534,-86 518.5534,-122"/>
<text text-anchor="middle" x="404" y="-99.8" font-family="Times,serif" font-size="14.00" fill="#000000">DesktopSearchInCategoryComponent</text>
</g>
<!-- DesktopSearchInCategoryComponent&#45;&gt;DesktopProductListModule -->
<g id="edge4" class="edge">
<title>DesktopSearchInCategoryComponent&#45;&gt;DesktopProductListModule</title>
<path fill="none" stroke="#000000" d="M483.3801,-122.1061C483.3801,-122.1061 483.3801,-140.991 483.3801,-140.991"/>
<polygon fill="#000000" stroke="#000000" points="479.8802,-140.9909 483.3801,-150.991 486.8802,-140.991 479.8802,-140.9909"/>
</g>
<!-- ProductListModule -->
<g id="node6" class="node">
<title>ProductListModule</title>
<polygon fill="#8dd3c7" stroke="#000000" points="265.3767,-122 262.3767,-126 241.3767,-126 238.3767,-122 140.6233,-122 140.6233,-86 265.3767,-86 265.3767,-122"/>
<text text-anchor="middle" x="203" y="-99.8" font-family="Times,serif" font-size="14.00" fill="#000000">ProductListModule</text>
</g>
<!-- ProductListModule&#45;&gt;DesktopProductListModule -->
<g id="edge5" class="edge">
<title>ProductListModule&#45;&gt;DesktopProductListModule</title>
<path fill="none" stroke="#000000" d="M203,-122.0225C203,-139.3734 203,-163 203,-163 203,-163 438.3288,-163 438.3288,-163"/>
<polygon fill="#000000" stroke="#000000" points="438.3288,-166.5001 448.3288,-163 438.3288,-159.5001 438.3288,-166.5001"/>
</g>
<!-- SharedModule -->
<g id="node7" class="node">
<title>SharedModule</title>
<polygon fill="#8dd3c7" stroke="#000000" points="122.4231,-122 119.4231,-126 98.4231,-126 95.4231,-122 23.5769,-122 23.5769,-86 122.4231,-86 122.4231,-122"/>
<text text-anchor="middle" x="73" y="-99.8" font-family="Times,serif" font-size="14.00" fill="#000000">SharedModule</text>
</g>
<!-- SharedModule&#45;&gt;DesktopProductListModule -->
<g id="edge6" class="edge">
<title>SharedModule&#45;&gt;DesktopProductListModule</title>
<path fill="none" stroke="#000000" d="M73,-122.2843C73,-143.3211 73,-175 73,-175 73,-175 438.3698,-175 438.3698,-175"/>
<polygon fill="#000000" stroke="#000000" points="438.3699,-178.5001 448.3698,-175 438.3698,-171.5001 438.3699,-178.5001"/>
</g>
</g>
</svg>
