<?xml version="1.0" encoding="UTF-8" standalone="no"?>
<!DOCTYPE svg PUBLIC "-//W3C//DTD SVG 1.1//EN"
 "http://www.w3.org/Graphics/SVG/1.1/DTD/svg11.dtd">
<!-- Generated by graphviz version 2.40.1 (20161225.0304)
 -->
<!-- Title: dependencies Pages: 1 -->
<svg width="880pt" height="284pt"
 viewBox="0.00 0.00 880.00 284.00" xmlns="http://www.w3.org/2000/svg" xmlns:xlink="http://www.w3.org/1999/xlink">
<g id="graph0" class="graph" transform="scale(1 1) rotate(0) translate(4 280)">
<title>dependencies</title>
<polygon fill="#ffffff" stroke="transparent" points="-4,4 -4,-280 876,-280 876,4 -4,4"/>
<text text-anchor="start" x="415.0091" y="-42.4" font-family="sans-serif" font-weight="bold" font-size="14.00" fill="#000000">Legend</text>
<polygon fill="#ffffb3" stroke="transparent" points="202,-10 202,-30 222,-30 222,-10 202,-10"/>
<text text-anchor="start" x="225.629" y="-15.4" font-family="sans-serif" font-size="14.00" fill="#000000"> &#160;Declarations</text>
<polygon fill="#8dd3c7" stroke="transparent" points="315,-10 315,-30 335,-30 335,-10 315,-10"/>
<text text-anchor="start" x="338.7251" y="-15.4" font-family="sans-serif" font-size="14.00" fill="#000000"> &#160;Module</text>
<polygon fill="#80b1d3" stroke="transparent" points="401,-10 401,-30 421,-30 421,-10 401,-10"/>
<text text-anchor="start" x="424.7812" y="-15.4" font-family="sans-serif" font-size="14.00" fill="#000000"> &#160;Bootstrap</text>
<polygon fill="#fdb462" stroke="transparent" points="498,-10 498,-30 518,-30 518,-10 498,-10"/>
<text text-anchor="start" x="521.6732" y="-15.4" font-family="sans-serif" font-size="14.00" fill="#000000"> &#160;Providers</text>
<polygon fill="#fb8072" stroke="transparent" points="594,-10 594,-30 614,-30 614,-10 594,-10"/>
<text text-anchor="start" x="617.7258" y="-15.4" font-family="sans-serif" font-size="14.00" fill="#000000"> &#160;Exports</text>
<g id="clust1" class="cluster">
<title>cluster_ProductDetailModule</title>
<polygon fill="none" stroke="#000000" stroke-dasharray="1,5" points="8,-70 8,-268 864,-268 864,-70 8,-70"/>
</g>
<g id="clust2" class="cluster">
<title>cluster_ProductDetailModule_declarations</title>
<polygon fill="none" stroke="#000000" points="138,-78 138,-130 856,-130 856,-78 138,-78"/>
</g>
<g id="clust6" class="cluster">
<title>cluster_ProductDetailModule_imports</title>
<polygon fill="none" stroke="#000000" points="16,-78 16,-130 130,-130 130,-78 16,-78"/>
</g>
<g id="clust7" class="cluster">
<title>cluster_ProductDetailModule_exports</title>
<polygon fill="none" stroke="#000000" points="317,-208 317,-260 435,-260 435,-208 317,-208"/>
</g>
<!-- BaseProductAttributesComponent -->
<g id="node1" class="node">
<title>BaseProductAttributesComponent</title>
<polygon fill="#ffffb3" stroke="#000000" points="848.08,-122 639.92,-122 639.92,-86 848.08,-86 848.08,-122"/>
<text text-anchor="middle" x="744" y="-99.8" font-family="Times,serif" font-size="14.00" fill="#000000">BaseProductAttributesComponent</text>
</g>
<!-- ProductDetailModule -->
<g id="node4" class="node">
<title>ProductDetailModule</title>
<polygon fill="#8dd3c7" stroke="#000000" points="444.8061,-187 441.8061,-191 420.8061,-191 417.8061,-187 307.1939,-187 307.1939,-151 444.8061,-151 444.8061,-187"/>
<text text-anchor="middle" x="376" y="-164.8" font-family="Times,serif" font-size="14.00" fill="#000000">ProductDetailModule</text>
</g>
<!-- BaseProductAttributesComponent&#45;&gt;ProductDetailModule -->
<g id="edge1" class="edge">
<title>BaseProductAttributesComponent&#45;&gt;ProductDetailModule</title>
<path fill="none" stroke="#000000" d="M744,-122.1061C744,-141.3391 744,-169 744,-169 744,-169 454.7863,-169 454.7863,-169"/>
<polygon fill="#000000" stroke="#000000" points="454.7863,-165.5001 444.7863,-169 454.7863,-172.5001 454.7863,-165.5001"/>
</g>
<!-- BaseProductDescriptionCardComponent -->
<g id="node2" class="node">
<title>BaseProductDescriptionCardComponent</title>
<polygon fill="#ffffb3" stroke="#000000" points="622.1161,-122 377.8839,-122 377.8839,-86 622.1161,-86 622.1161,-122"/>
<text text-anchor="middle" x="500" y="-99.8" font-family="Times,serif" font-size="14.00" fill="#000000">BaseProductDescriptionCardComponent</text>
</g>
<!-- BaseProductDescriptionCardComponent&#45;&gt;ProductDetailModule -->
<g id="edge2" class="edge">
<title>BaseProductDescriptionCardComponent&#45;&gt;ProductDetailModule</title>
<path fill="none" stroke="#000000" d="M411.1725,-122.1061C411.1725,-122.1061 411.1725,-140.991 411.1725,-140.991"/>
<polygon fill="#000000" stroke="#000000" points="407.6726,-140.9909 411.1725,-150.991 414.6726,-140.991 407.6726,-140.9909"/>
</g>
<!-- BaseProductDetailPageComponent -->
<g id="node3" class="node">
<title>BaseProductDetailPageComponent</title>
<polygon fill="#ffffb3" stroke="#000000" points="359.5112,-122 146.4888,-122 146.4888,-86 359.5112,-86 359.5112,-122"/>
<text text-anchor="middle" x="253" y="-99.8" font-family="Times,serif" font-size="14.00" fill="#000000">BaseProductDetailPageComponent</text>
</g>
<!-- BaseProductDetailPageComponent&#45;&gt;ProductDetailModule -->
<g id="edge3" class="edge">
<title>BaseProductDetailPageComponent&#45;&gt;ProductDetailModule</title>
<path fill="none" stroke="#000000" d="M333.5512,-122.1061C333.5512,-122.1061 333.5512,-140.991 333.5512,-140.991"/>
<polygon fill="#000000" stroke="#000000" points="330.0513,-140.9909 333.5512,-150.991 337.0513,-140.991 330.0513,-140.9909"/>
</g>
<!-- SharedModule  -->
<g id="node6" class="node">
<title>SharedModule </title>
<polygon fill="#fb8072" stroke="#000000" points="426.9222,-252 325.0778,-252 325.0778,-216 426.9222,-216 426.9222,-252"/>
<text text-anchor="middle" x="376" y="-229.8" font-family="Times,serif" font-size="14.00" fill="#000000">SharedModule </text>
</g>
<!-- ProductDetailModule&#45;&gt;SharedModule  -->
<g id="edge5" class="edge">
<title>ProductDetailModule&#45;&gt;SharedModule </title>
<path fill="none" stroke="#000000" stroke-dasharray="5,2" d="M376,-187.1061C376,-187.1061 376,-205.991 376,-205.991"/>
<polygon fill="#000000" stroke="#000000" points="372.5001,-205.9909 376,-215.991 379.5001,-205.991 372.5001,-205.9909"/>
</g>
<!-- SharedModule -->
<g id="node5" class="node">
<title>SharedModule</title>
<polygon fill="#8dd3c7" stroke="#000000" points="122.4231,-122 119.4231,-126 98.4231,-126 95.4231,-122 23.5769,-122 23.5769,-86 122.4231,-86 122.4231,-122"/>
<text text-anchor="middle" x="73" y="-99.8" font-family="Times,serif" font-size="14.00" fill="#000000">SharedModule</text>
</g>
<!-- SharedModule&#45;&gt;ProductDetailModule -->
<g id="edge4" class="edge">
<title>SharedModule&#45;&gt;ProductDetailModule</title>
<path fill="none" stroke="#000000" d="M73,-122.1061C73,-141.3391 73,-169 73,-169 73,-169 297.2446,-169 297.2446,-169"/>
<polygon fill="#000000" stroke="#000000" points="297.2446,-172.5001 307.2446,-169 297.2446,-165.5001 297.2446,-172.5001"/>
</g>
</g>
</svg>
