<svg xmlns="http://www.w3.org/2000/svg" width="10.081" height="10.43" viewBox="0 0 10.081 10.43"><path fill="#f76b3b" d="M6,4.973H7V3.483H8.5V2.49H7V1H6V2.49H4.5v.993H6ZM4,9.442a.993.993,0,1,0,1,.993A1,1,0,0,0,4,9.442Zm5,0a.993.993,0,1,0,1,.993A1,1,0,0,0,9,9.442ZM4.085,7.828l.015-.06.45-.809H8.276a1,1,0,0,0,.875-.512l1.93-3.481-.87-.477h-.005l-.55.993L8.276,5.966H4.765L4.7,5.832,3.58,3.483,3.105,2.49,2.635,1.5H1V2.49H2L3.8,6.259,3.125,7.476A.955.955,0,0,0,3,7.953a1,1,0,0,0,1,.993h6V7.953H4.21A.127.127,0,0,1,4.085,7.828Z" transform="translate(-1 -1.001)"/></svg>