<svg xmlns="http://www.w3.org/2000/svg" width="22.336" height="23.106" viewBox="0 0 22.336 23.106"><path d="M12.079,9.8H14.3V6.5h3.324V4.3H14.3V1H12.079V4.3H8.755V6.5h3.324Zm-4.432,9.9a2.2,2.2,0,1,0,2.216,2.2A2.205,2.205,0,0,0,7.648,19.705Zm11.079,0a2.2,2.2,0,1,0,2.216,2.2A2.205,2.205,0,0,0,18.727,19.705ZM7.836,16.129,7.869,16l1-1.794H17.12a2.208,2.208,0,0,0,1.939-1.133l4.277-7.713L21.408,4.3H21.4L20.178,6.5,17.12,12H9.343l-.144-.3L6.717,6.5,5.664,4.3,4.623,2.1H1V4.3H3.216L7.2,12.652l-1.5,2.7A2.116,2.116,0,0,0,5.432,16.4a2.215,2.215,0,0,0,2.216,2.2h13.3V16.4H8.113A.28.28,0,0,1,7.836,16.129Z" transform="translate(-1 -1)" fill="#fff"/></svg>