<svg xmlns="http://www.w3.org/2000/svg" width="24" height="24" viewBox="0 0 24 24"><g id="Address_icon" transform="translate(-53 -11)"><rect id="bg" width="24" height="24" transform="translate(53 11)" fill="none"/><g id="Group_451" data-name="Group 451" transform="translate(56.563 13.651)"><g id="Group_426" data-name="Group 426"><path id="Path_954" data-name="Path 954" d="M306.347,260a.347.347,0,1,0,.347.347.348.348,0,0,0-.347-.347Zm0,0" transform="translate(-295.369 -250.967)" fill="#27528d" stroke="#27528d" stroke-width="0.5"/><path id="Path_955" data-name="Path 955" d="M3.589,12.847.115,17.224a.353.353,0,0,0-.042.368.349.349,0,0,0,.313.2H17.478a.349.349,0,0,0,.271-.566l-3.474-4.377A.347.347,0,0,0,14,12.715H10.961l2.6-4.075a5.558,5.558,0,1,0-9.255,0l2.6,4.075H3.86a.342.342,0,0,0-.271.132ZM2.29,15.6h2.1L3.207,17.092h-2.1ZM7.348,13.41,8.3,14.9H5.83L7.014,13.41Zm3.172,0h.33L12.034,14.9H9.564ZM12.587,15.6l1.185,1.494H4.093L5.277,15.6Zm2.071,1.494L13.473,15.6h2.1l1.185,1.494Zm.365-2.189h-2.1L11.736,13.41h2.1ZM4.885,8.258a4.864,4.864,0,1,1,8.095,0s0,0,0,.007c-.229.358-3.867,6.066-4.044,6.34C8.491,13.91,5.34,8.97,4.888,8.265a.012.012,0,0,0,0-.007ZM6.129,13.41,4.944,14.9h-2.1L4.027,13.41Zm0,0" transform="translate(-0.039)" fill="#27528d" stroke="#27528d" stroke-width="0.5"/></g><path id="Path_956" data-name="Path 956" d="M159.474,66.948A3.474,3.474,0,1,0,156,63.474a3.475,3.475,0,0,0,3.474,3.474Zm0-6.253a2.779,2.779,0,1,1-2.779,2.779,2.783,2.783,0,0,1,2.779-2.779Zm0,0" transform="translate(-150.58 -57.916)" fill="#27528d" stroke="#27528d" stroke-width="0.5"/><path id="Path_957" data-name="Path 957" d="M247.759,292.7a.346.346,0,0,0-.476.118L246,294.946a.347.347,0,0,0,.594.358l1.285-2.13a.343.343,0,0,0-.118-.476Zm0,0" transform="translate(-237.403 -282.481)" fill="#27528d" stroke="#27528d" stroke-width="0.5"/></g></g></svg>
