<svg xmlns="http://www.w3.org/2000/svg" width="85.001" height="85" viewBox="0 0 85.001 85">
  <g id="Arayeshi" transform="translate(0 0)">
    <rect id="Rectangle_146" data-name="Rectangle 146" width="6.492" height="11.021" transform="translate(39.254 65.847)" fill="#8e9fff"/>
    <g id="Group_177" data-name="Group 177" transform="translate(10.382 1.615)">
      <path id="Path_525" data-name="Path 525" d="M198.822,461.8H187.509A6.508,6.508,0,0,0,181,468.308h24.314A6.484,6.484,0,0,0,198.822,461.8Z" transform="translate(-161.055 -386.547)" fill="#dde9ff"/>
      <path id="Path_526" data-name="Path 526" d="M118.778,64.667a32.11,32.11,0,1,0-45.409,0,32.9,32.9,0,0,0,4.081,3.462A32.119,32.119,0,0,0,118.778,64.667Z" transform="translate(-63.963 -9.85)" fill="#dde9ff"/>
    </g>
    <g id="Group_178" data-name="Group 178" transform="translate(4.545 9.414)">
      <path id="Path_527" data-name="Path 527" d="M158.745,81.273a23.373,23.373,0,1,0-7.677,17.318A23.379,23.379,0,0,0,158.745,81.273Z" transform="translate(-98.366 -57.9)" fill="#fefefe"/>
      <path id="Path_528" data-name="Path 528" d="M43.582,276.288H28v-8.765a1.628,1.628,0,0,1,1.623-1.623H41.959a1.628,1.628,0,0,1,1.623,1.623Z" transform="translate(-28 -232.14)" fill="#e4e8ff"/>
    </g>
    <path id="Path_529" data-name="Path 529" d="M51.686,176.078H40V161.924a3.237,3.237,0,0,1,4.772-2.857l5.194,2.775a3.263,3.263,0,0,1,1.72,2.857Z" transform="translate(-33.508 -132.159)" fill="#ff9090"/>
    <path id="Path_530" data-name="Path 530" d="M28.179,357.717H13.246A3.256,3.256,0,0,1,10,354.471V331.423a1.628,1.628,0,0,1,1.623-1.623H29.8a1.628,1.628,0,0,1,1.623,1.623v23.048A3.245,3.245,0,0,1,28.179,357.717Z" transform="translate(-8.377 -274.357)" fill="#dde9ff"/>
    <path id="Path_531" data-name="Path 531" d="M357.936,201.358h-14.4l-4.723-10.225a13.255,13.255,0,0,1,2.824-15.079l.179-.179a13.251,13.251,0,0,1,18.422,0h0a13.251,13.251,0,0,1,2.678,15.371Z" transform="translate(-280.905 -143.208)" fill="#fedeaa"/>
    <path id="Path_532" data-name="Path 532" d="M383.876,376.4h-4.788a4.787,4.787,0,0,1-4.788-4.788V352.1h14.364v19.526A4.783,4.783,0,0,1,383.876,376.4Z" transform="translate(-311.65 -293.037)" fill="#dde9ff"/>
    <rect id="Rectangle_147" data-name="Rectangle 147" width="14.381" height="7.742" transform="translate(62.65 58.605)" fill="#00dbb5"/>
    <path id="Path_533" data-name="Path 533" d="M191.423,260.646a1.707,1.707,0,0,0,1.152-.471,1.606,1.606,0,0,0,.471-1.152,1.676,1.676,0,0,0-.471-1.152,1.607,1.607,0,0,0-1.152-.471,1.707,1.707,0,0,0-1.152.471,1.607,1.607,0,0,0-.471,1.152,1.676,1.676,0,0,0,.471,1.152A1.707,1.707,0,0,0,191.423,260.646Z" transform="translate(-158.261 -214.612)"/>
    <path id="Path_534" data-name="Path 534" d="M80.352,31.111a15.231,15.231,0,0,0-4.765-3.138A33.528,33.528,0,0,0,10.16,24.587a5.027,5.027,0,0,0-5.18,4.98v13.1A3.306,3.306,0,0,0,2.988,45.7v7.338A3.317,3.317,0,0,0,0,56.345V79.92A5,5,0,0,0,4.98,84.9H20.254a5,5,0,0,0,4.98-4.98V62.189A33.313,33.313,0,0,0,37.52,66.605v8.317h-.8a8.332,8.332,0,0,0-8.317,8.317,1.665,1.665,0,0,0,1.66,1.66H54.935a1.665,1.665,0,0,0,1.66-1.66,8.332,8.332,0,0,0-8.317-8.317h-.8V66.605a33.028,33.028,0,0,0,13-4.848V78.342A6.561,6.561,0,0,0,67.037,84.9h4.9a6.561,6.561,0,0,0,6.558-6.558V58.786l4.931-10.011A15.169,15.169,0,0,0,80.352,31.111ZM8.3,29.567a1.64,1.64,0,0,1,.813-1.428,1.6,1.6,0,0,1,1.644-.033l5.313,2.839a1.634,1.634,0,0,1,.88,1.461v9.978H8.3ZM6.309,45.72H18.926v7.3H6.309Zm15.606,34.2a1.665,1.665,0,0,1-1.66,1.66H4.98a1.665,1.665,0,0,1-1.66-1.66V56.345H21.914Zm.332-26.878V45.72a3.306,3.306,0,0,0-1.992-3.038V32.422a4.967,4.967,0,0,0-2.623-4.383L13.3,25.715A30.233,30.233,0,0,1,72.051,27.01a14.247,14.247,0,0,0-2.241-.166,15.844,15.844,0,0,0-2.523.216,25.574,25.574,0,0,0-46.7-6.773A1.657,1.657,0,0,0,23.425,22,22.091,22.091,0,0,1,42.517,11.189a21.863,21.863,0,0,1,6.176.88L36.424,24.321a1.653,1.653,0,0,0,0,2.341,1.63,1.63,0,0,0,1.179.481,1.7,1.7,0,0,0,1.179-.481l13.281-13.3a22.828,22.828,0,0,1,5.744,3.951L36.49,38.648a1.653,1.653,0,0,0,0,2.341,1.63,1.63,0,0,0,1.179.481,1.7,1.7,0,0,0,1.179-.481L60.065,19.772a21.846,21.846,0,0,1,4,8.168,15.217,15.217,0,0,0-4.848,3.171l-.183.183a15.2,15.2,0,0,0-3.237,17.3l.9,1.959a22.242,22.242,0,0,1-26.247,1.561A1.658,1.658,0,0,0,28.654,54.9a25.539,25.539,0,0,0,29.468-1.245l1.992,4.316a30.442,30.442,0,0,1-34.88.249V56.329A3.313,3.313,0,0,0,22.246,53.042Zm52.926,6.989v4.6H63.8v-4.6ZM52.976,81.58H32.008a5,5,0,0,1,4.7-3.337H48.278A4.979,4.979,0,0,1,52.976,81.58ZM44.16,74.922H40.84v-8c.548.033,1.1.033,1.644.033h.448c.4,0,.813-.017,1.212-.033v8ZM71.935,81.58h-4.9A3.241,3.241,0,0,1,63.8,78.342V67.95H75.172V78.342A3.252,3.252,0,0,1,71.935,81.58ZM80.452,47.3,75.82,56.711h-.847V49.887a1.66,1.66,0,0,0-3.32,0v6.823H63.2l-4.383-9.5a11.927,11.927,0,0,1,2.523-13.53l.183-.183A11.885,11.885,0,0,1,80.452,47.3Z" transform="translate(0 0.1)"/>
    <path id="Path_535" data-name="Path 535" d="M433.123,257.4a1.707,1.707,0,0,0-1.152.471,1.607,1.607,0,0,0-.471,1.152,1.676,1.676,0,0,0,.471,1.152,1.607,1.607,0,0,0,1.152.471,1.676,1.676,0,0,0,1.152-.471,1.606,1.606,0,0,0,.471-1.152,1.607,1.607,0,0,0-1.623-1.623Z" transform="translate(-359.566 -214.612)"/>
  </g>
</svg>
