<svg xmlns="http://www.w3.org/2000/svg" width="32.759" height="32.759"
     viewBox="0 0 32.759 32.759">
    <defs>
        <style>
            .avatar-2-svg-a{fill:#ecf8ff;}.avatar-2-svg-b{clip-path:url(#avatar-2-svg-a);}.avatar-2-svg-c{fill:#ccdfeb;}.avatar-2-svg-d{fill:#7d7873;}.avatar-2-svg-d,.avatar-2-svg-e,.avatar-2-svg-f,.avatar-2-svg-g,.avatar-2-svg-h,.avatar-2-svg-i,.avatar-2-svg-j,.avatar-2-svg-k,.avatar-2-svg-l,.avatar-2-svg-m,.avatar-2-svg-n,.avatar-2-svg-o,.avatar-2-svg-p{fill-rule:evenodd;}.avatar-2-svg-e{fill:#7f7a77;}.avatar-2-svg-f{fill:#f5b67e;}.avatar-2-svg-g{fill:#857e79;}.avatar-2-svg-h{fill:#f6c085;}.avatar-2-svg-i{fill:#f8c997;}.avatar-2-svg-j{fill:#402412;}.avatar-2-svg-k{fill:#756e6a;}.avatar-2-svg-l{fill:#9f9993;}.avatar-2-svg-m{fill:#3e3b3a;}.avatar-2-svg-n{fill:#5a5858;}.avatar-2-svg-o{fill:#d6825b;}.avatar-2-svg-p{fill:#e5b17d;}
        </style>
        <clipPath id="avatar-2-svg-a">
            <circle class="avatar-2-svg-a" cx="16.379" cy="16.379" r="16.379"/>
        </clipPath>
    </defs>
    <g class="avatar-2-svg-b" transform="translate(0 0)">
        <circle class="avatar-2-svg-c" cx="16.379" cy="16.379" r="16.379"/>
        <g transform="translate(7.862 3.931)">
            <path class="avatar-2-svg-d" d="M297.584,320.258l-.047-1.5h4.742l-.045,1.455Z"
                  transform="translate(-291.218 -298.795)"/>
            <path class="avatar-2-svg-e"
                  d="M283.77,329.281c-.151-.113-3.529-1.7-3.529-1.7-1.5.5-1.841,3.873-1.994,5.862h3.593Z"
                  transform="translate(-278.246 -304.727)"/>
            <path class="avatar-2-svg-e"
                  d="M313.385,329.281c.151-.113,3.529-1.7,3.529-1.7,1.5.5,1.841,3.873,1.994,5.862h-3.593Z"
                  transform="translate(-301.874 -304.727)"/>
            <path class="avatar-2-svg-f"
                  d="M298.087,316.278H296.5v1c0,.622-.1.493-.684.816a4.871,4.871,0,0,1-.731.514c.7,2.269,1.214,5.186,2.592,7.232h.818c1.378-2.046,1.887-4.964,2.592-7.232a4.87,4.87,0,0,1-.731-.514c-.581-.323-.685-.194-.684-.816v-1Z"
                  transform="translate(-289.569 -297.129)"/>
            <path class="avatar-2-svg-g"
                  d="M290.958,325.534s-.495-.653-.722-1.023c-.689-1.118-1.667-2.648-1.69-2.661-.845.385-3.927,1.593-4.272,1.892a37.523,37.523,0,0,1,1.072,5.846h10.942a37.523,37.523,0,0,1,1.072-5.846c-.345-.3-3.427-1.507-4.272-1.892a19.446,19.446,0,0,1-1.343,2.66C291.449,324.956,290.958,325.534,290.958,325.534Z"
                  transform="translate(-282.299 -300.877)"/>
            <path class="avatar-2-svg-h"
                  d="M317.117,290.712a2.166,2.166,0,0,0,1.709,2.6,2.1,2.1,0,0,0,2.529-1.758,2.331,2.331,0,0,0-1.708-2.754A2.215,2.215,0,0,0,317.117,290.712Z"
                  transform="translate(-304.356 -278.624)"/>
            <path class="avatar-2-svg-h"
                  d="M283.481,290.712a2.167,2.167,0,0,1-1.709,2.6,2.1,2.1,0,0,1-2.53-1.758,2.331,2.331,0,0,1,1.708-2.754A2.216,2.216,0,0,1,283.481,290.712Z"
                  transform="translate(-278.89 -278.624)"/>
            <path class="avatar-2-svg-i"
                  d="M296.044,265.682a6.4,6.4,0,0,0-4.818-2.648l-.1,0,0-.074-.933.037-.932-.037,0,.074-.1,0a6.394,6.394,0,0,0-4.818,2.648,8.21,8.21,0,0,0-1.206,5.387c.068,1.416.319,3.7.389,5.121,1.819,6.8,11.631,6.915,13.326,0,.07-1.417.321-3.7.389-5.121A8.212,8.212,0,0,0,296.044,265.682Z"
                  transform="translate(-281.525 -261.275)"/>
            <path class="avatar-2-svg-j"
                  d="M283.613,267.219c-.09.2.429-1.769,1.569-1.8,1.193-.035,8.609.416,8.989-.081,1.257,1.59,2.089,8.124,2.16,8.109.381-.074.44-3.459.44-3.83,0-1.729.5-5.057-2.628-7.132-1.924-1.276-5.9-1.4-8.114-.68a5.857,5.857,0,0,0-3.57,3.341c-.6,1.677-.588,2.987-.389,6.308.022.36.064.721.114,1.078a6.916,6.916,0,0,0,.122.714C282.619,274.508,282.648,268.714,283.613,267.219Z"
                  transform="translate(-280.734 -260.203)"/>
            <path class="avatar-2-svg-j"
                  d="M282.876,263.082c.05.146.241.863,2.729,1.706a15.1,15.1,0,0,0,4.7.823,3.551,3.551,0,0,1-.722-.522,9.53,9.53,0,0,0,3.09.462,3.1,3.1,0,0,0,2.087-.863,5.3,5.3,0,0,1-.883-.321,9.36,9.36,0,0,0,2.569-1.866c.943-1.084,1.244-2.107,1.124-2.006s-.923.5-.8.361a10.128,10.128,0,0,0,.221-1.746,5.414,5.414,0,0,1-.9.522c-.2.04.221-1.324.221-1.324a12.281,12.281,0,0,1-3.03.2,23.013,23.013,0,0,0-3.351-.561,5.741,5.741,0,0,0-2.609.4l.261-.522a14.935,14.935,0,0,0-2.879,1.1,5.925,5.925,0,0,0-1.164,1.365,3.606,3.606,0,0,0-1.033-.16,1.644,1.644,0,0,0-.662.13l1.044.341a2.359,2.359,0,0,0-.823.442c-.351.311-.642.672-.492.582a5.447,5.447,0,0,1,1.014-.17Z"
                  transform="translate(-280.449 -257.824)"/>
            <path class="avatar-2-svg-k" d="M299.109,326.029c.085,0,.563.076.563.076l.336,1.216-1.2-.555Z"
                  transform="translate(-292.072 -303.686)"/>
            <path class="avatar-2-svg-l"
                  d="M296.372,318.758l1.281,2.458s-1.319,1.295-1.3,1.238-.592-2.347-.546-2.469S296.372,318.758,296.372,318.758Z"
                  transform="translate(-290.053 -298.797)"/>
            <path class="avatar-2-svg-k" d="M307.975,326.027c-.085,0-.563.076-.563.076l-.335,1.216,1.2-.555Z"
                  transform="translate(-297.632 -303.685)"/>
            <path class="avatar-2-svg-l"
                  d="M309.382,318.756l-1.282,2.458s1.319,1.295,1.3,1.238.592-2.347.546-2.468S309.382,318.756,309.382,318.756Z"
                  transform="translate(-298.32 -298.796)"/>
            <path class="avatar-2-svg-m"
                  d="M283.829,287.7a2.231,2.231,0,0,0-.532.986.824.824,0,0,0-.365.09.366.366,0,0,0-.01.419.91.91,0,0,0,.358.056c0,1.966,1.058,3.368,3.08,3.295a2.663,2.663,0,0,0,2.352-1.433,5.144,5.144,0,0,0,.595-1.575c.05-.352.092-.528.176-.578a3.151,3.151,0,0,1,1.075,0c.084.05.125.226.176.578a5.133,5.133,0,0,0,.595,1.575,2.664,2.664,0,0,0,2.353,1.433c2.022.073,3.082-1.328,3.08-3.295a.912.912,0,0,0,.358-.056.367.367,0,0,0-.01-.419.823.823,0,0,0-.365-.09,2.231,2.231,0,0,0-.532-.986,2.835,2.835,0,0,0-1.755-.6c-2.017-.159-6.694-.148-8.716-.021a3.054,3.054,0,0,0-1.914.619Zm5.646.854h0c-.049.038-.119-.086-.126-.125-.068-.39.023-.95-.523-1.052h2.39c-.546.1-.455.661-.523,1.052-.007.039-.077.161-.126.125a5.4,5.4,0,0,0-1.092,0Zm1.75-.911h0a2.581,2.581,0,0,1,1.173-.3c.905-.059,3.1-.1,3.745.687a1.7,1.7,0,0,1,.389,1,4.721,4.721,0,0,1-.134,1.278,2.453,2.453,0,0,1-2.728,2.006c-1.856-.1-2.782-2.128-2.713-3.787a1.186,1.186,0,0,1,.268-.88Zm-2.409,0h0a1.185,1.185,0,0,1,.268.88c.069,1.658-.857,3.687-2.713,3.787a2.453,2.453,0,0,1-2.728-2.006,4.721,4.721,0,0,1-.134-1.278,1.7,1.7,0,0,1,.389-1c.646-.791,2.839-.746,3.745-.687A2.58,2.58,0,0,1,288.816,287.642Z"
                  transform="translate(-281.349 -277.431)"/>
            <path class="avatar-2-svg-n"
                  d="M285.078,288.578a1.731,1.731,0,0,0-.4,1.015,4.8,4.8,0,0,0,.137,1.3,2.7,2.7,0,0,0,1.123,1.675,2.776,2.776,0,0,0,1.654.367c1.889-.1,2.831-2.166,2.761-3.854a1.208,1.208,0,0,0-.273-.9,2.627,2.627,0,0,0-1.194-.307,8.263,8.263,0,0,0-3.291.329A1.4,1.4,0,0,0,285.078,288.578Z"
                  transform="translate(-282.571 -278.014)"/>
            <path class="avatar-2-svg-n"
                  d="M307.473,289.124c-.07,1.677.866,3.728,2.743,3.828a2.755,2.755,0,0,0,1.647-.367,2.684,2.684,0,0,0,1.111-1.662,4.779,4.779,0,0,0,.136-1.292,1.719,1.719,0,0,0-.394-1.008,1.38,1.38,0,0,0-.513-.366,8.191,8.191,0,0,0-3.273-.329,2.615,2.615,0,0,0-1.186.3A1.2,1.2,0,0,0,307.473,289.124Z"
                  transform="translate(-297.896 -278.048)"/>
            <path class="avatar-2-svg-o"
                  d="M303.008,309.222a3.41,3.41,0,0,1-4.972,0,4.279,4.279,0,0,0,2.458.892A4.462,4.462,0,0,0,303.008,309.222Z"
                  transform="translate(-291.553 -292.385)"/>
            <path class="avatar-2-svg-p"
                  d="M301.781,300.4c-.006,0-.008-.008,0-.017a.109.109,0,0,1,.045-.08,11.7,11.7,0,0,0,.871-3.089c.222.014-.22,2.367-.411,2.929a4.09,4.09,0,0,1,.682-.053c.655,0,1.186.131,1.186.293s-.531.293-1.186.293C302.332,300.677,301.816,300.555,301.781,300.4Z"
                  transform="translate(-294.067 -284.312)"/>
        </g>

    </g>
</svg>