<svg xmlns="http://www.w3.org/2000/svg" width="32.759" height="32.759"
     viewBox="0 0 32.759 32.759">
    <defs>
        <style>
            .avatar-6-svg-a{fill:#ecf8ff;}.avatar-6-svg-b{clip-path:url(#avatar-6-svg-a);}.avatar-6-svg-c{fill:#d1e7f3;}.avatar-6-svg-d{fill:#61381b;}.avatar-6-svg-d,.avatar-6-svg-e,.avatar-6-svg-f,.avatar-6-svg-g,.avatar-6-svg-h,.avatar-6-svg-i,.avatar-6-svg-j,.avatar-6-svg-k,.avatar-6-svg-l,.avatar-6-svg-m{fill-rule:evenodd;}.avatar-6-svg-e{fill:#ef9095;}.avatar-6-svg-f{fill:#f5b67e;}.avatar-6-svg-g{fill:#7c5e64;}.avatar-6-svg-h{fill:#f6c085;}.avatar-6-svg-i{fill:#f8c997;}.avatar-6-svg-j{fill:#3e3b3a;}.avatar-6-svg-k{fill:#e5b17d;}.avatar-6-svg-l{fill:#402412;}.avatar-6-svg-m{fill:#d6825b;}
        </style>
        <clipPath id="avatar-6-svg-a">
            <circle class="avatar-6-svg-a" cx="16.379" cy="16.379" r="16.379"/>
        </clipPath>
    </defs>
    <g class="avatar-6-svg-b" transform="translate(0 0)">
        <circle class="avatar-6-svg-c" cx="16.379" cy="16.379" r="16.379"/>
        <g transform="translate(7.862 4.914)">
            <path class="avatar-6-svg-d"
                  d="M286.726,380.641a34.725,34.725,0,0,0-1.591,3.5,11.852,11.852,0,0,0,2.1,8.209c2.442,3.383,7.784,3.007,7.882,3.2.247.478.495-.014.992.515a11.3,11.3,0,0,0,2.709-11.2Z"
                  transform="translate(-283.901 -377.106)"/>
            <path class="avatar-6-svg-e"
                  d="M315.148,425.513a1.108,1.108,0,0,0-.385.985c.112.344,1.508.711,1.69.543C317.628,425.957,315.719,425.306,315.148,425.513Z"
                  transform="translate(-303.887 -407.253)"/>
            <path class="avatar-6-svg-f" d="M317.007,436.822l3.433-2.592c1.5.5,1.938,4.761,2.091,6.751h-3.593Z"
                  transform="translate(-305.41 -413.14)"/>
            <path class="avatar-6-svg-f"
                  d="M295.681,425.642H294.1v1c0,1.187-3.153,1.295-4.224,1.637.388,2.087-.284,3.007,5.513,6.5h.818c2.809-1.021,4.943-2.274,5.48-6.48-1.1-.351-4.417-.454-4.415-1.662v-1Z"
                  transform="translate(-287.164 -407.365)"/>
            <path class="avatar-6-svg-f"
                  d="M286.035,437.524c-.151-.113-2.338-3.294-2.338-3.294-1.5.5-1.938,4.761-2.091,6.751H285.2Z"
                  transform="translate(-281.606 -413.14)"/>
            <path class="avatar-6-svg-g"
                  d="M288.113,433.693h0l-.018,0-.018,0-.018,0-.018,0-.017,0-.017,0-.034.008-.017,0-.016,0-.016,0h0l-.015,0-.016,0-.016,0-.016,0-.015,0-.015,0-.041.011h0l-.014,0-.014,0-.014,0-.014,0-.014,0-.013,0-.011,0h0l-.013,0-.013,0-.012,0h0l-.012,0-.025.008-.009,0h0l-.034.012-.006,0-.005,0-.021.008-.01,0-.009,0-.026.011-.008,0-.029.012h0l-.028.013h0l-.023.012,0,0h0l-.02.012h0l-.017.014a17.81,17.81,0,0,1,.565,2.864c-.214,1.428-1.05,2.453-.449,3.809H300.46c.6-1.356-.235-2.381-.449-3.809a17.812,17.812,0,0,1,.565-2.864l-.017-.014h0l-.02-.012h0l0,0-.022-.012h0l-.028-.013h0l-.029-.012-.008,0-.026-.011-.009,0-.01,0-.022-.008-.005,0-.006,0-.034-.012h0l-.009,0-.025-.008-.012,0h0l-.012,0-.013,0-.013,0h0l-.011,0-.013,0-.014,0-.014,0-.014,0-.014,0-.014,0h0l-.041-.011-.015,0-.015,0-.016,0-.016,0-.016,0-.015,0h0l-.016,0-.016,0-.017,0-.034-.008-.017,0-.017,0-.018,0-.018,0-.018,0-.018,0h0a6.088,6.088,0,0,1-11.7,0Z"
                  transform="translate(-285.403 -412.779)"/>
            <g transform="translate(0.549 8.669)">
                <path class="avatar-6-svg-h"
                      d="M286.589,398.1a1.852,1.852,0,0,1-1.154,2.378,1.821,1.821,0,0,1-2.084-1.61,2.016,2.016,0,0,1,1.143-2.523C285.388,396.136,286.326,396.922,286.589,398.1Z"
                      transform="translate(-283.281 -396.314)"/>
                <path class="avatar-6-svg-h"
                      d="M322.76,398.1a1.852,1.852,0,0,0,1.154,2.378,1.822,1.822,0,0,0,2.084-1.61,2.016,2.016,0,0,0-1.144-2.523C323.961,396.136,323.023,396.922,322.76,398.1Z"
                      transform="translate(-309.782 -396.314)"/>
            </g>
            <path class="avatar-6-svg-i"
                  d="M293.577,372.356h-.02l-.933-.037,0,.074-.1,0a6.394,6.394,0,0,0-4.818,2.648,8.209,8.209,0,0,0-1.206,5.387c.232,4.817,2.93,10.225,7.073,10.265,4.143-.04,6.841-5.448,7.073-10.265a8.209,8.209,0,0,0-1.206-5.387,6.394,6.394,0,0,0-4.818-2.648l-.1,0,0-.074-.933.037Z"
                  transform="translate(-284.885 -371.511)"/>
            <path class="avatar-6-svg-d"
                  d="M317.1,377.68c-.057.265-.006,1.683,1.626,3.856s1.758,2.363,1.758,2.363.076,3.667.283,3.232a29.9,29.9,0,0,0,.5-3.592,8.071,8.071,0,0,0-.032-3.345c-.416-1.7-.94-2.343-1.662-2.63A6.187,6.187,0,0,0,317.1,377.68Z"
                  transform="translate(-305.463 -374.968)"/>
            <path class="avatar-6-svg-d" d="M286.9,392.15c-.284.321-1.2.356-1.2.356.04.3.437,4.773.809,4.456Z"
                  transform="translate(-284.353 -384.845)"/>
            <path class="avatar-6-svg-d"
                  d="M314.155,380.067c.074-1.242.712-4.078.4-4.852-.9-2.232-2.55-3.136-5.319-3.412a8.5,8.5,0,0,0-1.56-.01C309.265,374.415,310.606,377.9,314.155,380.067Z"
                  transform="translate(-299.136 -371.136)"/>
            <path class="avatar-6-svg-d"
                  d="M296.281,373.237c-.561,3.5-7.951,2.373-10.383,6.586-2.709-4.1,1.439-12.487,8.66-9.244Z"
                  transform="translate(-283.931 -369.85)"/>
            <g transform="translate(5.217 10.845)">
                <path class="avatar-6-svg-j"
                      d="M298.079,404.052a.548.548,0,1,0-.548-.548A.549.549,0,0,0,298.079,404.052Z"
                      transform="translate(-297.531 -402.956)"/>
                <path class="avatar-6-svg-j"
                      d="M316.949,404.052a.548.548,0,1,0-.548-.548A.549.549,0,0,0,316.949,404.052Z"
                      transform="translate(-310.219 -402.956)"/>
            </g>
            <path class="avatar-6-svg-k"
                  d="M305.424,406.628c-.007,0-.008-.008,0-.017a.109.109,0,0,1,.045-.08,11.719,11.719,0,0,0,.871-3.089c.222.014-.22,2.367-.411,2.928a4.093,4.093,0,0,1,.682-.053c.655,0,1.186.131,1.186.293s-.531.293-1.186.293C305.976,406.9,305.46,406.782,305.424,406.628Z"
                  transform="translate(-297.618 -392.439)"/>
            <g transform="translate(3.748 9.291)">
                <path class="avatar-6-svg-l"
                      d="M312.4,398.994c-.325.135.215-.745,1.812-.78,1.861-.041,2.427.854,1.694.6A4.923,4.923,0,0,0,312.4,398.994Z"
                      transform="translate(-305.998 -398.213)"/>
                <path class="avatar-6-svg-l"
                      d="M296.864,398.994c.325.135-.215-.745-1.811-.78-1.861-.041-2.427.854-1.694.6A4.923,4.923,0,0,1,296.864,398.994Z"
                      transform="translate(-293.049 -398.213)"/>
            </g>
            <path class="avatar-6-svg-m"
                  d="M306.227,417.949c-.361,1.158-3.633,1.158-3.994,0A3.528,3.528,0,0,0,306.227,417.949Z"
                  transform="translate(-295.476 -402.193)"/>
            <path class="avatar-6-svg-d"
                  d="M310.025,430.01c-.85,2.146-.211,2.822-.211,2.822l.1-1.207a19.1,19.1,0,0,1,.323,2.443,8.819,8.819,0,0,1-.337,2.214,6.577,6.577,0,0,0,2.26-2.115,7.809,7.809,0,0,0,.491-3.734,6.329,6.329,0,0,0,.309.73,12.033,12.033,0,0,0,.1-2.064,2.574,2.574,0,0,0-.223-1.323C311.583,425.972,310.325,429.251,310.025,430.01Z"
                  transform="translate(-300.419 -408.44)"/>
        </g>
    </g>
</svg>