<svg xmlns="http://www.w3.org/2000/svg" width="32.759" height="32.759"
     viewBox="0 0 32.759 32.759">
    <defs>
        <style>
            .avatar-4-svg-a{fill:#4dc3e8;}.avatar-4-svg-b{clip-path:url(#avatar-4-svg-a);}.avatar-4-svg-c{fill:#ecc19c;}.avatar-4-svg-d{fill:#c7d4e2;}.avatar-4-svg-e{fill:#543e36;}.avatar-4-svg-f{fill:#1a1a1a;}.avatar-4-svg-g{fill:#435363;}.avatar-4-svg-h{fill:#141720;}.avatar-4-svg-i{fill:#e7ecf2;}
        </style>
        <clipPath id="avatar-4-svg-a">
            <circle cx="16.379" cy="16.379" r="16.379"/>
        </clipPath>
    </defs>
    <g transform="translate(0 0)">
        <circle class="avatar-4-svg-a" cx="16.379" cy="16.379" r="16.379" transform="translate(0 0)"/>
        <g class="avatar-4-svg-b" transform="translate(0 0)">
            <path class="avatar-4-svg-c"
                  d="M66.791,18.216V23.66c0,.079,0,.158,0,.236,0,.163-.013.326-.027.487,0,.056-.009.111-.016.166-.023.231-.055.458-.1.684-.014.075-.029.149-.045.222a.312.312,0,0,1-.009.045c-.014.075-.032.149-.05.222-.007.039-.018.079-.027.118s-.018.068-.029.1c-.038.147-.081.29-.126.433-.021.068-.043.134-.066.2,0,.007-.005.014-.007.021l-.064.182c-.007.018-.014.036-.022.056-.021.057-.043.115-.066.172s-.055.138-.084.206-.052.122-.079.183c0,.011-.009.02-.013.03-.03.064-.059.129-.089.192s-.063.132-.1.2c-.064.131-.134.261-.2.388l-.1.172a10.521,10.521,0,0,1-.915,1.332c-.045.059-.091.116-.14.172-.066.08-.134.159-.2.236s-.122.136-.184.2c-.172.184-.347.36-.526.525-.036.036-.073.068-.111.1-.061.056-.122.109-.184.161s-.1.084-.149.125c-.129.106-.258.208-.388.3-.054.041-.109.081-.165.118-.089.064-.181.125-.272.184-.05.034-.1.066-.154.1-.183.113-.367.217-.549.306-.045.023-.089.045-.134.066l-.14.064q-.089.04-.177.075a.558.558,0,0,1-.07.027c-.07.029-.141.056-.211.079-.088.032-.177.059-.265.084-.061.018-.123.034-.184.048a.025.025,0,0,1-.013,0c-.061.014-.122.029-.183.039a.425.425,0,0,1-.048.009c-.05.009-.1.018-.15.023-.072.011-.143.02-.215.023a.518.518,0,0,1-.073.005c-.057,0-.114.005-.17.005H59.5q-.083,0-.166-.005a.385.385,0,0,1-.065-.005c-.05,0-.1-.007-.156-.014a.222.222,0,0,1-.034,0c-.066-.009-.132-.02-.2-.032s-.114-.022-.174-.036a5.133,5.133,0,0,1-.94-.317,6.852,6.852,0,0,1-.822-.433c-.138-.084-.276-.174-.412-.268-.068-.048-.136-.1-.2-.147q-.32-.234-.632-.508c-.057-.052-.114-.1-.172-.158s-.115-.106-.17-.157q-.21-.2-.408-.419-.078-.083-.156-.172c-.143-.161-.283-.328-.415-.5-.052-.063-.1-.127-.149-.192q-.271-.36-.514-.75c-.043-.07-.086-.142-.127-.211s-.1-.17-.147-.256a9.76,9.76,0,0,1-.487-1c-.021-.05-.043-.1-.061-.15s-.054-.131-.077-.2q-.054-.142-.1-.285c-.032-.095-.063-.192-.093-.288s-.056-.186-.081-.281-.055-.2-.079-.306c0-.011-.005-.021-.007-.032q-.051-.215-.091-.435c-.036-.193-.064-.39-.086-.589-.009-.063-.014-.125-.02-.188s-.012-.131-.016-.2c-.009-.12-.014-.242-.018-.363,0-.079,0-.158,0-.236V18.216A7.288,7.288,0,0,1,59.5,10.929H59.5a7.367,7.367,0,0,1,1.615.179,7.3,7.3,0,0,1,5.673,7.108Z"
                  transform="translate(-43.123 -9.026)"/>
        </g>
        <g class="avatar-4-svg-b" transform="translate(0 0)">
            <path class="avatar-4-svg-c"
                  d="M58.529,136.114v0H39.538v0a9.448,9.448,0,0,1,.507-3.066q.089-.26.193-.516v0c.07-.17.143-.337.222-.5a9.4,9.4,0,0,1,1.156-1.844c.115-.141.231-.279.351-.412.059-.068.122-.134.184-.2s.125-.129.19-.193a9.451,9.451,0,0,1,1.026-.884c.181-.134.363-.26.553-.381s.383-.235.58-.342a.011.011,0,0,1,.007,0c.077-.041.152-.086.227-.132.149-.089.3-.186.435-.29.072-.05.14-.1.208-.158.161-.129.317-.267.465-.412.048-.048.1-.1.145-.147.1-.1.2-.213.286-.324.045-.054.09-.109.131-.165s.084-.113.125-.17a5.957,5.957,0,0,0,1.113-3.482l1.384.007,1.423.007a5.992,5.992,0,0,0,2.25,4.686c.066.054.132.106.2.154s.131.095.2.14c.014.011.027.02.041.029.064.043.129.086.2.125s.149.09.224.131a.088.088,0,0,1,.032.016c.158.088.313.179.466.274.073.045.147.091.218.143q.223.145.435.306a0,0,0,0,0,0,0h0a9.587,9.587,0,0,1,1.024.884A9.448,9.448,0,0,1,58.529,136.114Z"
                  transform="translate(-32.654 -101.162)"/>
        </g>
        <g class="avatar-4-svg-b" transform="translate(0 0)">
            <path class="avatar-4-svg-d"
                  d="M58.53,158.389H39.539a9.452,9.452,0,0,1,.507-3.066q.089-.261.193-.516s0,0,0,0c.068-.17.143-.337.222-.5a9.4,9.4,0,0,1,1.156-1.844c.115-.142.231-.279.351-.412.059-.068.122-.134.184-.2s.125-.129.19-.193a9.435,9.435,0,0,1,1.026-.884c.181-.134.363-.26.553-.381s.383-.236.58-.344a.006.006,0,0,1,.007,0v0c.077-.043.152-.086.227-.131a5.533,5.533,0,0,0,.639-.451l0,0A5.1,5.1,0,0,0,49.029,151h.014a5.113,5.113,0,0,0,3.659-1.539l0,0a4.794,4.794,0,0,0,.4.3c.014.011.027.02.041.029.064.043.131.084.2.125s.149.088.224.129a.174.174,0,0,1,.032.016c.158.088.313.179.466.276.073.045.147.091.218.143.149.095.294.2.435.306h0a9.508,9.508,0,0,1,3.814,7.606Z"
                  transform="translate(-32.655 -123.437)"/>
        </g>
        <g class="avatar-4-svg-b" transform="translate(0 0)">
            <path class="avatar-4-svg-e"
                  d="M66.79,84.049c0,.079,0,.158,0,.236,0,.163-.013.326-.027.487,0,.056-.009.111-.016.166-.023.231-.055.458-.1.684-.014.075-.029.149-.045.222a.314.314,0,0,1-.009.045c-.014.075-.032.149-.05.222-.009.043-.02.084-.032.125a.8.8,0,0,1-.023.095c-.038.147-.081.29-.126.433-.021.068-.043.134-.066.2,0,.007-.005.014-.007.021l-.064.182c-.007.018-.014.036-.022.056-.021.057-.043.115-.066.172s-.055.138-.084.206-.052.122-.079.183c0,.011-.009.02-.013.03-.03.064-.059.129-.09.192s-.063.132-.1.2c-.064.131-.134.261-.2.388l-.1.172A10.523,10.523,0,0,1,64.56,90.1c-.045.059-.091.116-.14.172-.066.08-.134.159-.2.236s-.122.136-.184.2c-.172.184-.347.36-.526.525-.036.036-.073.068-.111.1-.061.056-.122.109-.184.161s-.1.084-.149.125c-.129.106-.258.208-.388.3-.054.041-.109.081-.165.118-.089.064-.181.125-.272.184-.05.034-.1.066-.154.1-.183.113-.367.217-.549.306-.045.023-.089.045-.134.066l-.14.064q-.089.04-.177.075a.556.556,0,0,1-.07.027c-.07.029-.141.056-.211.079-.088.032-.177.059-.265.084-.061.018-.123.034-.184.048a.025.025,0,0,1-.013,0c-.061.014-.122.029-.183.039a.424.424,0,0,1-.048.009c-.05.009-.1.018-.15.023-.072.011-.143.02-.215.023a.518.518,0,0,1-.073.005c-.057,0-.114.005-.17.005H59.5q-.083,0-.166-.005a.384.384,0,0,1-.065-.005c-.05,0-.1-.007-.156-.014a.222.222,0,0,1-.034,0c-.066-.009-.132-.02-.2-.032s-.114-.022-.174-.036a5.132,5.132,0,0,1-.94-.317,6.85,6.85,0,0,1-.822-.433c-.138-.082-.274-.172-.412-.268-.068-.048-.136-.1-.2-.147q-.32-.234-.632-.508c-.057-.052-.114-.1-.172-.158s-.115-.106-.17-.157q-.21-.2-.408-.419-.078-.083-.156-.172c-.143-.161-.283-.328-.415-.5-.052-.063-.1-.127-.149-.192q-.271-.36-.514-.75c-.043-.07-.086-.142-.127-.211s-.1-.17-.147-.256a9.76,9.76,0,0,1-.487-1c-.021-.05-.043-.1-.061-.15s-.054-.131-.077-.2q-.054-.142-.1-.285c-.032-.095-.063-.192-.093-.288s-.056-.186-.081-.281-.055-.2-.079-.306c0-.011-.005-.021-.007-.032q-.051-.215-.091-.435c-.036-.193-.064-.39-.086-.589-.009-.063-.014-.125-.02-.188s-.012-.131-.016-.2c-.009-.12-.014-.242-.018-.363,0-.079,0-.158,0-.236l1.164,2.288,2,.872,2.365.213,1.754.159h.011l1.642.149,3.657.329Z"
                  transform="translate(-43.122 -69.415)"/>
        </g>
        <g class="avatar-4-svg-b" transform="translate(0 0)">
            <path class="avatar-4-svg-e"
                  d="M65.242,13.724a10.024,10.024,0,0,1-1.368,2.238c-.032.04-.064.079-.1.118A10.035,10.035,0,0,1,59.5,19.1a9.752,9.752,0,0,1-1.368.394q-.47.1-.956.156a10.363,10.363,0,0,1-1.137.063,9.995,9.995,0,0,1-1.3-.084,9.455,9.455,0,0,1-1.219-.233c-.227-.057-.449-.123-.67-.2s-.428-.15-.637-.236v-.739A7.288,7.288,0,0,1,59.5,10.932h.007a7.367,7.367,0,0,1,1.615.179,7.31,7.31,0,0,1,4.121,2.613Z"
                  transform="translate(-43.125 -9.029)"/>
        </g>
        <g class="avatar-4-svg-b" transform="translate(0 0)">
            <path class="avatar-4-svg-e"
                  d="M115.5,21.23v1.434a11.174,11.174,0,0,1-3.015-3.566s0-.005,0-.007a11.1,11.1,0,0,1-1.291-4.513A7.294,7.294,0,0,1,115.5,21.23Z"
                  transform="translate(-91.831 -12.04)"/>
        </g>
        <g class="avatar-4-svg-b" transform="translate(0 0)">
            <path class="avatar-4-svg-e"
                  d="M53.069,55.028c-.077.134-.147.272-.217.414-.027.055-.054.115-.08.172a6.068,6.068,0,0,0-.555,2.248c0,.02,0,.041,0,.061V55.115c0-.1,0-.2,0-.3C52.5,54.893,52.784,54.965,53.069,55.028Z"
                  transform="translate(-43.124 -45.275)"/>
        </g>
        <g class="avatar-4-svg-b" transform="translate(0 0)">
            <path class="avatar-4-svg-e"
                  d="M131.054,55.031c.108.19.2.385.3.585a6,6,0,0,1,.557,2.31V55.118c0-.1,0-.2,0-.294C131.622,54.9,131.34,54.967,131.054,55.031Z"
                  transform="translate(-108.236 -45.279)"/>
        </g>
        <g class="avatar-4-svg-b" transform="translate(0 0)">
            <path class="avatar-4-svg-f"
                  d="M69.97,58.935a.062.062,0,0,0-.054-.061,19.511,19.511,0,0,0-2.665-.2,30.04,30.04,0,0,0-3.562.444h-.283c-.149,0-.625-.1-1.233-.2a14.835,14.835,0,0,0-2.329-.245,19.585,19.585,0,0,0-2.279.147c-.183.022-.317.041-.387.052a.062.062,0,0,0-.054.061l-.014.761a.066.066,0,0,0,.041.061l.086.03c.127.048.116,2.341.8,2.914.406.338.768.532,2.291.532a2.144,2.144,0,0,0,1.964-.949,7.06,7.06,0,0,0,.716-1.717.6.6,0,0,1,.532-.541h.007a.591.591,0,0,1,.539.541,7.067,7.067,0,0,0,.716,1.717,2.143,2.143,0,0,0,1.964.949c1.523,0,1.885-.193,2.291-.532.684-.573.673-2.866.8-2.914l.086-.03a.066.066,0,0,0,.041-.061Zm-7.678,2.714A2,2,0,0,1,60.676,62.9c-2.443.123-2.556-.559-2.714-1.1a3.721,3.721,0,0,1-.138-1.556c.064-.541.2-.857.446-1.017a1.112,1.112,0,0,1,.514-.177,9.809,9.809,0,0,1,1.346-.063,6.772,6.772,0,0,1,1.086.084c.87.14,1.457.435,1.457.727A5.424,5.424,0,0,1,62.292,61.648Zm6.84.156c-.157.541-.27,1.223-2.714,1.1A2,2,0,0,1,64.8,61.648a5.419,5.419,0,0,1-.381-1.846c0-.4,1.113-.811,2.544-.811s1.659.107,1.86.24c.245.159.381.476.446,1.017A3.714,3.714,0,0,1,69.132,61.8Z"
                  transform="translate(-47.167 -48.459)"/>
        </g>
        <g class="avatar-4-svg-b" transform="translate(0 0)">
            <path class="avatar-4-svg-e"
                  d="M59.512,75.052l0,1.765,0,.618v.485l0,1.611v0l0,0h0l-.005,0-7.04-3.584c0-.011-.005-.021-.007-.032q-.051-.215-.091-.435c-.036-.193-.064-.39-.086-.589-.009-.063-.014-.125-.02-.188s-.012-.131-.016-.2c-.009-.12-.014-.242-.018-.363,0-.079,0-.158,0-.236V71.764c0,.03,0,.061,0,.091a7.124,7.124,0,0,0,.256,1.668,7.241,7.241,0,0,0,.457,1.23v0A2.921,2.921,0,0,0,54.6,76.5c.036.005.073.009.109.013a6.294,6.294,0,0,0,.7.039,4.659,4.659,0,0,0,2.234-1.031l.011-.005c.027-.016.054-.032.077-.048a.136.136,0,0,1,.021-.013,3.621,3.621,0,0,1,1.74-.4h.014Z"
                  transform="translate(-43.124 -59.269)"/>
            <path class="avatar-4-svg-e"
                  d="M101.337,71.764l0,2.139a8.776,8.776,0,0,1-.143,1.574c-.038.2-.081.406-.131.607L99.409,78.47,94.05,79.531h0l0,0v0l-.005-4.479h.014a3.63,3.63,0,0,1,1.742.4l.02.013.079.048.009.005a4.668,4.668,0,0,0,2.234,1.032,6.291,6.291,0,0,0,.7-.039c.038,0,.073-.007.111-.013a2.918,2.918,0,0,0,1.674-1.745v0a7.24,7.24,0,0,0,.456-1.23,7.044,7.044,0,0,0,.256-1.692C101.337,71.809,101.337,71.787,101.337,71.764Z"
                  transform="translate(-77.667 -59.269)"/>
        </g>
        <g class="avatar-4-svg-b">
            <ellipse class="avatar-4-svg-c" cx="1.786" cy="0.552" rx="1.786" ry="0.552"
                     transform="translate(14.594 17.548)"/>
        </g>
        <g class="avatar-4-svg-b" transform="translate(0 0)">
            <path class="avatar-4-svg-g"
                  d="M60.523,155.174v9.847h-.761v-9.292c.1-.082.2-.163.308-.24C60.219,155.378,60.369,155.274,60.523,155.174Z"
                  transform="translate(-49.357 -128.157)"/>
            <path class="avatar-4-svg-g" d="M124.021,155.185v9.845h.761V155.74Z"
                  transform="translate(-102.428 -128.166)"/>
        </g>
        <g class="avatar-4-svg-b" transform="translate(0 0)">
            <g transform="translate(14.297 26.415)">
                <path class="avatar-4-svg-h" d="M82.113,151.713l2.083,2.5,2.083-2.5Z"
                      transform="translate(-82.113 -151.713)"/>
                <path class="avatar-4-svg-h" d="M88.232,171.093H87l.89-11.456c.037.146.646.146.684,0l.89,11.456Z"
                      transform="translate(-86.15 -158.257)"/>
            </g>
            <g transform="translate(12.514 24.802)">
                <path class="avatar-4-svg-i"
                      d="M75.737,144.081l-.005.009,0,0-.865,1.452-.807,1.353-2.186-3.038c.07-.05.14-.1.206-.159l0,0a5.954,5.954,0,0,0,1.153-1.217l2.5,1.59Z"
                      transform="translate(-71.872 -142.481)"/>
                <path class="avatar-4-svg-i"
                      d="M97.936,143.827l-2.186,3.038-.807-1.353-.867-1.452-.007-.013,2.513-1.6a6,6,0,0,0,1.155,1.226C97.8,143.727,97.869,143.779,97.936,143.827Z"
                      transform="translate(-90.204 -142.447)"/>
            </g>
        </g>
    </g>
</svg>