<svg xmlns="http://www.w3.org/2000/svg" width="32.759" height="32.759"
     viewBox="0 0 32.759 32.759">
    <defs>
        <style>
            .avatar-8-svg-a{fill:#ecf8ff;}.avatar-8-svg-b{clip-path:url(#avatar-8-svg-a);}.avatar-8-svg-c{fill:#fcbde5;}.avatar-8-svg-d{fill:#543e36;}.avatar-8-svg-d,.avatar-8-svg-e,.avatar-8-svg-f,.avatar-8-svg-g,.avatar-8-svg-h,.avatar-8-svg-i,.avatar-8-svg-j,.avatar-8-svg-k,.avatar-8-svg-l,.avatar-8-svg-m,.avatar-8-svg-n,.avatar-8-svg-o,.avatar-8-svg-p{fill-rule:evenodd;}.avatar-8-svg-e{fill:#a9bcc7;}.avatar-8-svg-f{fill:#98c0d4;}.avatar-8-svg-g{fill:#f5b67e;}.avatar-8-svg-h{fill:#b5ccd8;}.avatar-8-svg-i{fill:#f6c085;}.avatar-8-svg-j{fill:#f8c997;}.avatar-8-svg-k{fill:#533d35;}.avatar-8-svg-l{fill:#abc3cf;}.avatar-8-svg-m{fill:#c9e1ed;}.avatar-8-svg-n{fill:#3e3b3a;}.avatar-8-svg-o{fill:#d6825b;}.avatar-8-svg-p{fill:#e5b17d;}
        </style>
        <clipPath id="avatar-8-svg-a">
            <circle class="avatar-8-svg-a" cx="16.379" cy="16.379" r="16.379"/>
        </clipPath>
    </defs>
    <g class="avatar-8-svg-b" transform="translate(0 0)">
        <circle class="avatar-8-svg-c" cx="16.379" cy="16.379" r="16.379"/>
        <g transform="translate(7.862 5.897)">
            <path class="avatar-8-svg-d"
                  d="M78.085,176.427c.374,3.748-.021,10.982,2.888,12.939,4.43,2.981,3.226,3.2,7.38.138s3.61-8.052,3.585-13.532Z"
                  transform="translate(-76.377 -166.966)"/>
            <path class="avatar-8-svg-d"
                  d="M109.234,153.873c8.706-1.722,3.11,17.984,2.159,22.118-.412,1.794-1.016,1.337-2.587-1.268,0,0,3.019-7.409,3.226-11.612s-1.274-5.649-2.177-7.235S109.234,153.873,109.234,153.873Z"
                  transform="translate(-97.035 -152.035)"/>
            <path class="avatar-8-svg-d"
                  d="M88.261,150.527c.271,2.382-.363,2.672-2.283,3.943s-2.749,1.271-2.438,1.115a20.212,20.212,0,0,0,1.79-2.724,18.463,18.463,0,0,1-4.02,2.412c-2.023.8-2.75.493-2.75.493s1.79-2.335,1.556-2.153a10.37,10.37,0,0,0-2.179,1.816,13.438,13.438,0,0,0-.447,5.419c.191,1.72,3.652,7.1,3.712,9.629.03,1.275-1.848,3.153-2.4,2.516-2.244-2.588-2.632-18.124-2.525-18.861a6.557,6.557,0,0,1,2.53-4.216C81.358,147.884,87.967,147.941,88.261,150.527Z"
                  transform="translate(-75.151 -148.481)"/>
            <path class="avatar-8-svg-e" d="M108.273,213.9l3.433-2.592c1.5.5,1.938,4.761,2.091,6.751H110.2Z"
                  transform="translate(-96.676 -190.725)"/>
            <path class="avatar-8-svg-f" d="M90.857,208.063c.034-.273.238-2.115.238-2.115l4.88-.033-.066,1.516Z"
                  transform="translate(-84.965 -187.101)"/>
            <path class="avatar-8-svg-g"
                  d="M92.713,202.718H91.127v1c0,.622-.1.493-.684.816a4.891,4.891,0,0,1-.731.514c.7,2.269,1.214,5.186,2.592,7.232h.818c1.378-2.046,1.887-4.964,2.592-7.232a4.891,4.891,0,0,1-.731-.514c-.581-.323-.685-.194-.684-.816v-1Z"
                  transform="translate(-84.195 -184.951)"/>
            <path class="avatar-8-svg-e" d="M78.4,213.9l-3.433-2.592c-1.5.5-1.938,4.761-2.091,6.751h3.593Z"
                  transform="translate(-72.872 -190.725)"/>
            <path class="avatar-8-svg-h"
                  d="M84.4,210.519c-1.4-.512-1.57-2.008-1.288-2.228-.845.385-3.955.766-4.3,1.065a56.539,56.539,0,0,1,1.1,6.673H90.943a56.558,56.558,0,0,1,1.1-6.673c-.345-.3-3.454-.68-4.3-1.065.283.219.108,1.716-1.288,2.228h0l-1.1,3.743-.95-3.743Z"
                  transform="translate(-76.869 -188.698)"/>
            <g transform="translate(0.549 8.966)">
                <path class="avatar-8-svg-i"
                      d="M77.855,177.642A1.852,1.852,0,0,1,76.7,180.02a1.822,1.822,0,0,1-2.084-1.61,2.016,2.016,0,0,1,1.144-2.523C76.654,175.674,77.592,176.46,77.855,177.642Z"
                      transform="translate(-74.547 -175.852)"/>
                <path class="avatar-8-svg-i"
                      d="M114.027,177.642a1.852,1.852,0,0,0,1.154,2.377,1.822,1.822,0,0,0,2.084-1.61,2.016,2.016,0,0,0-1.144-2.523C115.228,175.674,114.29,176.46,114.027,177.642Z"
                      transform="translate(-101.048 -175.852)"/>
            </g>
            <path class="avatar-8-svg-j"
                  d="M84.843,149.432h-.02l-.932-.037,0,.074-.1,0a6.392,6.392,0,0,0-4.818,2.648,8.21,8.21,0,0,0-1.206,5.386c.232,4.817,2.93,10.225,7.073,10.265,4.143-.04,6.841-5.448,7.073-10.265a8.208,8.208,0,0,0-1.206-5.386,6.391,6.391,0,0,0-4.818-2.648l-.1,0,0-.074-.932.037Z"
                  transform="translate(-76.151 -149.096)"/>
            <path class="avatar-8-svg-d"
                  d="M108.365,154.756c-.057.265-.006,1.683,1.625,3.856s1.758,2.363,1.758,2.363c.465-.807.292-1.195.753-.182a8.712,8.712,0,0,0,0-3.523c-.416-1.7-.941-2.343-1.662-2.63A6.186,6.186,0,0,0,108.365,154.756Z"
                  transform="translate(-96.729 -152.553)"/>
            <path class="avatar-8-svg-d"
                  d="M78.189,168.661c-.283.321-1.367-1.179-1.168.654a23.891,23.891,0,0,0,1.125,5.393C77.882,172.935,77.407,170.866,78.189,168.661Z"
                  transform="translate(-75.645 -161.865)"/>
            <path class="avatar-8-svg-k"
                  d="M108.443,157.388c.074-1.242.3-4.248-.017-5.022-.9-2.232-2.55-3.136-5.319-3.412-.85-.085.439,1.348.439,1.348C105.838,153.548,104.7,156.033,108.443,157.388Z"
                  transform="translate(-93.008 -148.796)"/>
            <path class="avatar-8-svg-d"
                  d="M87.513,151.551c-6.384.931-5.518,6.415-10.6,5.614-.293-.046-.638-1.584-.638-1.584a14,14,0,0,1,1.546-4.009,5.987,5.987,0,0,1,3.213-2.3c1.112-.457,4.073-.8,4.577-.151Z"
                  transform="translate(-75.163 -148.674)"/>
            <path class="avatar-8-svg-l" d="M94.194,212.484l.8.3-.178,1.988-1.056-1.263Z"
                  transform="translate(-86.917 -191.517)"/>
            <path class="avatar-8-svg-m" d="M89.331,206.771l.738-.755,1.947,2.42-1.862,1.637Z"
                  transform="translate(-83.939 -187.168)"/>
            <path class="avatar-8-svg-l" d="M101.336,212.384l-.8.3.128,1.932,1.107-1.207Z"
                  transform="translate(-91.474 -191.45)"/>
            <path class="avatar-8-svg-m" d="M103.221,206.671l-.738-.755-1.947,2.42,1.862,1.636Z"
                  transform="translate(-91.474 -187.101)"/>
            <path class="avatar-8-svg-h"
                  d="M79.377,210.771a2.415,2.415,0,0,0-.761.253c1.717,3.259-.818,4.567.117,6.673H91.726c.934-2.106-1.6-3.414.116-6.673a2.408,2.408,0,0,0-.761-.253c-.494,2.518-3.283,5.712-5.961,5.714S79.868,213.293,79.377,210.771Z"
                  transform="translate(-76.669 -190.366)"/>
            <g transform="translate(5.217 10.568)">
                <path class="avatar-8-svg-n" d="M89.345,181.838a.548.548,0,1,0-.548-.548A.549.549,0,0,0,89.345,181.838Z"
                      transform="translate(-88.797 -180.742)"/>
                <path class="avatar-8-svg-n"
                      d="M108.215,181.837a.548.548,0,1,0-.548-.548A.549.549,0,0,0,108.215,181.837Z"
                      transform="translate(-101.485 -180.741)"/>
            </g>
            <path class="avatar-8-svg-o" d="M98.265,193.871a1.921,1.921,0,0,1-3.705,0A2.207,2.207,0,0,0,98.265,193.871Z"
                  transform="translate(-87.455 -179.002)"/>
            <path class="avatar-8-svg-p"
                  d="M96.426,184.356c-.007,0-.008-.008,0-.017a.108.108,0,0,1,.045-.08,11.707,11.707,0,0,0,.871-3.088c.222.013-.22,2.367-.411,2.928a4.083,4.083,0,0,1,.681-.053c.655,0,1.186.131,1.186.293s-.531.293-1.186.293C96.978,184.632,96.461,184.51,96.426,184.356Z"
                  transform="translate(-88.706 -170.462)"/>
            <g transform="translate(3.585 8.93)">
                <path class="avatar-8-svg-d"
                      d="M104.164,176.524c-.325.135.215-.745,1.811-.78,1.861-.04,2.427.855,1.694.6A4.922,4.922,0,0,0,104.164,176.524Z"
                      transform="translate(-97.437 -175.742)"/>
                <path class="avatar-8-svg-d"
                      d="M87.63,176.524c.325.135-.215-.745-1.811-.78-1.861-.04-2.427.855-1.694.6A4.923,4.923,0,0,1,87.63,176.524Z"
                      transform="translate(-83.815 -175.742)"/>
            </g>
            <path class="avatar-8-svg-k"
                  d="M118.079,168.89c.284.321,1.367-1.179,1.168.654a23.9,23.9,0,0,1-1.125,5.393C118.386,173.165,118.861,171.1,118.079,168.89Z"
                  transform="translate(-103.27 -162.019)"/>
        </g>
    </g>
</svg>