<svg xmlns="http://www.w3.org/2000/svg" width="32.759" height="32.759"
     viewBox="0 0 32.759 32.759">
    <defs>
        <style>
            .avatar-1-svg-a{fill:#ecf8ff;}.avatar-1-svg-b{clip-path:url(#avatar-1-svg-a);}.avatar-1-svg-c{fill:#90e2c6;}.avatar-1-svg-d{fill:#9f2025;}.avatar-1-svg-d,.avatar-1-svg-e,.avatar-1-svg-f,.avatar-1-svg-g,.avatar-1-svg-h,.avatar-1-svg-i,.avatar-1-svg-j,.avatar-1-svg-k,.avatar-1-svg-l,.avatar-1-svg-m,.avatar-1-svg-n{fill-rule:evenodd;}.avatar-1-svg-e{fill:#f5b67e;}.avatar-1-svg-f{fill:#841b21;}.avatar-1-svg-g{fill:#f6c085;}.avatar-1-svg-h{fill:#f8c997;}.avatar-1-svg-i{fill:#d6825b;}.avatar-1-svg-j{fill:#59341a;}.avatar-1-svg-k{fill:#402412;}.avatar-1-svg-l{fill:#5d331a;}.avatar-1-svg-m{fill:#3e3b3a;}.avatar-1-svg-n{fill:#e5b17d;}
        </style>
        <clipPath id="avatar-1-svg-a">
            <circle class="avatar-1-svg-a" cx="16.379" cy="16.379" r="16.379"/>
        </clipPath>
    </defs>
    <g class="avatar-1-svg-b" transform="translate(0 0)">
        <circle class="avatar-1-svg-c" cx="16.379" cy="16.379" r="16.379"/>
        <g transform="translate(7.862 5.241)">
            <path class="avatar-1-svg-d"
                  d="M387.567,438.646c-.151-.113-3.529-1.7-3.529-1.7-1.5.5-1.841,3.873-1.994,5.862h3.593Z"
                  transform="translate(-382.043 -415.13)"/>
            <path class="avatar-1-svg-d"
                  d="M417.182,438.646c.151-.113,3.529-1.7,3.529-1.7,1.5.5,1.841,3.873,1.994,5.862h-3.593Z"
                  transform="translate(-405.671 -415.13)"/>
            <path class="avatar-1-svg-e"
                  d="M401.884,425.642H400.3v1c0,.622-.1.493-.684.816a4.873,4.873,0,0,1-.731.514c.7,2.268,1.214,5.186,2.592,7.232h.818c1.378-2.046,1.887-4.964,2.592-7.232a4.872,4.872,0,0,1-.731-.514c-.581-.323-.685-.194-.684-.816v-1Z"
                  transform="translate(-393.366 -407.532)"/>
            <path class="avatar-1-svg-f"
                  d="M393.631,433.443c-1.4-.512-1.57-2.008-1.288-2.228-.845.385-3.927,1.593-4.272,1.892a37.535,37.535,0,0,1,1.072,5.846h10.942a37.529,37.529,0,0,1,1.072-5.846c-.345-.3-3.427-1.507-4.272-1.892.283.219.108,1.716-1.288,2.228h0l-.982,1.641-.983-1.641Z"
                  transform="translate(-386.096 -411.279)"/>
            <path class="avatar-1-svg-g"
                  d="M420.914,399.857a2,2,0,0,0,1.709,2.378,2.1,2.1,0,0,0,2.529-1.61,2.139,2.139,0,0,0-1.708-2.523A2.193,2.193,0,0,0,420.914,399.857Z"
                  transform="translate(-408.154 -388.99)"/>
            <path class="avatar-1-svg-g"
                  d="M387.278,399.857a2,2,0,0,1-1.709,2.378,2.1,2.1,0,0,1-2.53-1.61,2.139,2.139,0,0,1,1.709-2.523A2.193,2.193,0,0,1,387.278,399.857Z"
                  transform="translate(-382.687 -388.99)"/>
            <path class="avatar-1-svg-h"
                  d="M399.841,375.046a6.4,6.4,0,0,0-4.818-2.648l-.1,0,0-.074-.933.037-.932-.037,0,.074-.1,0a6.4,6.4,0,0,0-4.818,2.648,8.209,8.209,0,0,0-1.206,5.387c.232,4.817.663,10.212,7.073,10.265,6.43.054,6.8-5.482,7.032-10.265A8.211,8.211,0,0,0,399.841,375.046Z"
                  transform="translate(-385.322 -371.677)"/>
            <path class="avatar-1-svg-i" d="M406.659,416.1a1.921,1.921,0,0,1-3.7,0A11.008,11.008,0,0,0,406.659,416.1Z"
                  transform="translate(-396.104 -401.114)"/>
            <path class="avatar-1-svg-j"
                  d="M386.778,380.572c.085-1.776.107-4.987,1.662-4.987,1.151,0,1.464.265,4.961.265,3.1,0,3.995-.353,5.153-.353,1.241,0,1.549,1.673,1.573,3.992,0,.478.038.956.065,1.433.016.28.036.56.05.84.006.114.035.418.182.389.165-.032.184-.647.2-.779a22.12,22.12,0,0,0,.149-2.805c0-1.72.494-5.031-2.592-7.094-1.9-1.269-5.821-1.395-8-.677a5.8,5.8,0,0,0-3.522,3.323c-.6,1.668-.58,2.971-.384,6.274.021.358.063.717.113,1.072a6.914,6.914,0,0,0,.119.71c.124.505.3.144.292-.17C386.788,381.527,386.755,381.051,386.778,380.572Z"
                  transform="translate(-384.805 -370.359)"/>
            <path class="avatar-1-svg-k"
                  d="M391.223,409.208a4.612,4.612,0,0,1-.813.085,2.933,2.933,0,0,1-2.306-1.008,2.037,2.037,0,0,1-.353-.9c-.031-.245-.163-.857-.184-1.066-.119-1.206-.375-.336-.388.6a3.1,3.1,0,0,0,.111.681,16.894,16.894,0,0,0-.114,1.815c.271,3.527,4.811,4.454,7.042,4.781a19.866,19.866,0,0,0,4.806-1.374c1.8-1.245,2.382-2.653,2.121-5.222a3.1,3.1,0,0,0,.111-.681c-.012-.932-.268-1.8-.388-.6-.021.209-.153.822-.184,1.066a2.038,2.038,0,0,1-.353.9,2.933,2.933,0,0,1-2.306,1.008,4.614,4.614,0,0,1-.813-.085,1.345,1.345,0,0,1,.19.68c0,.9-.944,1.654-2.243,1.906a1.116,1.116,0,0,1-.256-.128,2.489,2.489,0,0,1-.652-.659,2.471,2.471,0,0,1-.652.659,1.091,1.091,0,0,1-.281.137c-1.321-.243-2.287-1.008-2.287-1.914A1.348,1.348,0,0,1,391.223,409.208Z"
                  transform="translate(-385.492 -394.139)"/>
            <path class="avatar-1-svg-l"
                  d="M399.175,411.541c-.725-.589-2.473.888-2.845,1.047a1.493,1.493,0,0,1-1.786-.473,3.08,3.08,0,0,0,.671,1.266c.946,1.065,2.944.781,3.96-.132,1.016.913,3.013,1.2,3.96.132a3.082,3.082,0,0,0,.671-1.266,1.493,1.493,0,0,1-1.786.473C401.648,412.428,399.9,410.952,399.175,411.541Z"
                  transform="translate(-390.449 -397.957)"/>
            <g transform="translate(4.482 11.333)">
                <path class="avatar-1-svg-m" d="M396.274,406.05a.548.548,0,1,0-.548-.548A.549.549,0,0,0,396.274,406.05Z"
                      transform="translate(-395.726 -404.954)"/>
                <path class="avatar-1-svg-m" d="M418.5,406.05a.548.548,0,1,0-.548-.548A.549.549,0,0,0,418.5,406.05Z"
                      transform="translate(-410.673 -404.954)"/>
            </g>
            <g transform="translate(3.264 9.721)">
                <path class="avatar-1-svg-j"
                      d="M392.029,400.564c-.182-.3.765-.459,1.728-.467,1.615-.014,2.492.762,1.715.74A34.494,34.494,0,0,1,392.029,400.564Z"
                      transform="translate(-392.007 -400.077)"/>
                <path class="avatar-1-svg-j"
                      d="M417.3,400.478c.178-.3-.771-.449-1.735-.445-1.615.007-2.481.794-1.705.763C414.445,400.773,417.253,400.567,417.3,400.478Z"
                      transform="translate(-406.511 -400.034)"/>
            </g>
            <path class="avatar-1-svg-n"
                  d="M406.342,405.346c-.005,0-.006-.006,0-.014a.091.091,0,0,1,.037-.066,9.682,9.682,0,0,0,.721-2.555,7.132,7.132,0,0,1-.34,2.423,3.357,3.357,0,0,1,.564-.044c.542,0,.981.109.981.242s-.439.242-.981.242C406.8,405.575,406.37,405.474,406.342,405.346Z"
                  transform="translate(-398.379 -392.113)"/>
        </g>
    </g>
</svg>