<svg xmlns="http://www.w3.org/2000/svg" width="32.759" height="32.759"
     viewBox="0 0 32.759 32.759">
    <defs>
        <style>
            .avatar-7-svg-a{fill:#b6fccb;}.avatar-7-svg-b{clip-path:url(#avatar-7-svg-a);}.avatar-7-svg-c{fill:#c2ffcc;}.avatar-7-svg-d{fill:#953d23;stroke:#231815;stroke-miterlimit:22.avatar-7-svg-926;stroke-width:0.avatar-7-svg-567px;}.avatar-7-svg-d,.avatar-7-svg-e,.avatar-7-svg-f,.avatar-7-svg-g,.avatar-7-svg-h,.avatar-7-svg-i,.avatar-7-svg-j,.avatar-7-svg-l,.avatar-7-svg-m{fill-rule:evenodd;}.avatar-7-svg-e{fill:#ceacca;}.avatar-7-svg-f{fill:#f6c085;}.avatar-7-svg-g{fill:#d8b3d2;}.avatar-7-svg-h{fill:#f8c997;}.avatar-7-svg-i{fill:#cc5827;}.avatar-7-svg-j,.avatar-7-svg-k{fill:#3e3b3a;}.avatar-7-svg-l{fill:#d6825b;}.avatar-7-svg-m{fill:#e5b17d;}
        </style>
        <clipPath id="avatar-7-svg-a">
            <circle class="avatar-7-svg-a" cx="16.379" cy="16.379" r="16.379"/>
        </clipPath>
    </defs>
    <g class="avatar-7-svg-b" transform="translate(0 0)">
        <circle class="avatar-7-svg-c" cx="16.379" cy="16.379" r="16.379"/>
        <g transform="translate(7.535 4.586)">
            <path class="avatar-7-svg-d"
                  d="M198.374,71.45a72.612,72.612,0,0,1-2.877,6.713l-6.7-.135s-4.187-3.062-4.49-5.33a23.263,23.263,0,0,1-.131-4.388l14.107-.345Z"
                  transform="translate(-182.308 -57.267)"/>
            <path class="avatar-7-svg-e"
                  d="M218.929,104.7c.151-.113,2.167-4.085,2.167-4.085,1.5.5,1.938,4.761,2.091,6.751h-3.593Z"
                  transform="translate(-205.707 -79.221)"/>
            <path class="avatar-7-svg-f"
                  d="M193.737,92.027h-1.586v1c0,1.187-3.153,1.3-4.224,1.637.289,2.476,2.586,4.293,5.968,6.6h.818c1.377-2.046,4.838-3.3,4.919-6.6-1.085-.347-4.312-.436-4.31-1.637v-1Z"
                  transform="translate(-184.861 -73.446)"/>
            <path class="avatar-7-svg-e"
                  d="M184.033,104.247c-.151-.113-2.28-3.632-2.28-3.632-1.5.5-1.938,4.761-2.091,6.751h3.593Z"
                  transform="translate(-179.303 -79.221)"/>
            <path class="avatar-7-svg-g"
                  d="M186.166,100.08a2.417,2.417,0,0,0-.761.253c1.717,3.259-.818,4.567.116,6.673h12.994c.934-2.106-1.6-3.414.116-6.673a2.411,2.411,0,0,0-.761-.253c-.422,2.164-2.881,3.825-5.852,3.825S186.588,102.244,186.166,100.08Z"
                  transform="translate(-183.1 -78.861)"/>
            <path class="avatar-7-svg-h"
                  d="M191.633,38.741h-.02l-.933-.037,0,.074-.1,0a6.394,6.394,0,0,0-4.818,2.648,8.211,8.211,0,0,0-1.206,5.387c.232,4.817,2.93,10.225,7.073,10.265,4.143-.04,6.841-5.448,7.073-10.265a8.209,8.209,0,0,0-1.206-5.387,6.394,6.394,0,0,0-4.818-2.648l-.1,0,0-.074-.933.037Z"
                  transform="translate(-182.582 -37.592)"/>
            <path class="avatar-7-svg-i"
                  d="M213.444,64.2c.325.135-.215-.745-1.811-.78-1.861-.041-2.427.854-1.694.6A4.92,4.92,0,0,1,213.444,64.2Z"
                  transform="translate(-199.453 -54.21)"/>
            <path class="avatar-7-svg-j" d="M195.688,68.844a.548.548,0,1,0-.548-.548A.549.549,0,0,0,195.688,68.844Z"
                  transform="translate(-189.71 -57.121)"/>
            <circle class="avatar-7-svg-k" cx="0.548" cy="0.548" r="0.548" transform="translate(11.611 10.627)"/>
            <path class="avatar-7-svg-l"
                  d="M199.6,82.985a4.382,4.382,0,0,0,4.216,0C203.488,85.116,199.963,85.05,199.6,82.985Z"
                  transform="translate(-192.711 -67.366)"/>
            <path class="avatar-7-svg-m"
                  d="M202.407,72.892c-.006,0-.008-.008,0-.017a.11.11,0,0,1,.045-.08,11.716,11.716,0,0,0,.871-3.088c.222.014-.22,2.367-.411,2.929a4.083,4.083,0,0,1,.681-.053c.655,0,1.186.131,1.186.293s-.531.293-1.186.293C202.959,73.168,202.442,73.046,202.407,72.892Z"
                  transform="translate(-194.593 -58.438)"/>
            <path class="avatar-7-svg-i"
                  d="M190.639,64.243c-.325.135.215-.745,1.811-.78,1.861-.041,2.427.854,1.694.6A4.923,4.923,0,0,0,190.639,64.243Z"
                  transform="translate(-186.623 -54.239)"/>
            <path class="avatar-7-svg-i"
                  d="M190.287,38.207c2.583,1.526,10.406,4.081,10.177,11.686,0,0,.548-3.046.567-2.9a13.1,13.1,0,0,1-.17,4.807,19.472,19.472,0,0,1-2.779,5.895,10.175,10.175,0,0,0,3.932-4.562c4.117-9.429.839-19.6-8.945-17.558C190.968,36.012,189.356,37.658,190.287,38.207Z"
                  transform="translate(-186.266 -35.307)"/>
            <path class="avatar-7-svg-i"
                  d="M185.457,42.095c-5.425,2.864-3.251,12.763-1.09,16.087,1.033,1.589,2.093,2.623,1.722,2.3s-3.047-.106-5.908-5.511c-2.3-4.347-3.062-15.261,4.08-15.261Z"
                  transform="translate(-178.566 -38.271)"/>
            <path class="avatar-7-svg-i"
                  d="M184.02,52.3c.3-.265,1.779-2.022,1.779-2.022a17.143,17.143,0,0,0,1.188,10.925C184.8,57.454,184.485,56.588,184.02,52.3Z"
                  transform="translate(-182.233 -45.377)"/>
        </g>
    </g>
</svg>