<svg xmlns="http://www.w3.org/2000/svg" width="32.759" height="32.759"
     viewBox="0 0 32.759 32.759">
    <defs>
        <style>
            .avatar-5-svg-a{fill:#ecf8ff;}.avatar-5-svg-b{clip-path:url(#avatar-5-svg-a);}.avatar-5-svg-c{fill:#ffde72;}.avatar-5-svg-d{fill:#4a1e12;}.avatar-5-svg-d,.avatar-5-svg-e,.avatar-5-svg-f,.avatar-5-svg-g,.avatar-5-svg-h,.avatar-5-svg-i,.avatar-5-svg-j,.avatar-5-svg-k,.avatar-5-svg-l,.avatar-5-svg-m{fill-rule:evenodd;}.avatar-5-svg-e{fill:#df2e26;}.avatar-5-svg-f{fill:#f5b67e;}.avatar-5-svg-g{fill:#e53825;}.avatar-5-svg-h{fill:#f6c085;}.avatar-5-svg-i{fill:#f8c997;}.avatar-5-svg-j{fill:#efefef;}.avatar-5-svg-k{fill:#3e3b3a;}.avatar-5-svg-l{fill:#d6825b;}.avatar-5-svg-m{fill:#e5b17d;}
        </style>
        <clipPath id="avatar-5-svg-a">
            <circle class="avatar-5-svg-a" cx="16.379" cy="16.379" r="16.379"/>
        </clipPath>
    </defs>
    <g class="avatar-5-svg-b" transform="translate(0 0)">
        <circle class="avatar-5-svg-c" cx="16.379" cy="16.379" r="16.379"/>
        <g transform="translate(7.207 5.569)">
            <path class="avatar-5-svg-d"
                  d="M383.27,65.736a22.278,22.278,0,0,1,.591,6.012,45.4,45.4,0,0,1-.841,4.679c5.227,1.091,8.5.469,13.6-.334a12.008,12.008,0,0,0-.288-4.5,12.438,12.438,0,0,1,.79-6.314Z"
                  transform="translate(-381.048 -56.275)"/>
            <path class="avatar-5-svg-d"
                  d="M414.37,41.86c10.067-1.722.539,13.945,5.855,17.976.758.575-3.457,3.1-5.028.5-.985-1.634,2.237-4.619,2.444-8.822s-1.274-5.649-2.178-7.235A10.2,10.2,0,0,1,414.37,41.86Z"
                  transform="translate(-402.128 -40.438)"/>
            <path class="avatar-5-svg-d"
                  d="M390.624,39.836c.271,2.382-.363,2.672-2.283,3.943s-2.749,1.271-2.438,1.115a20.212,20.212,0,0,0,1.79-2.724,18.474,18.474,0,0,1-4.021,2.412c-2.023.8-2.749.493-2.749.493s1.79-2.335,1.556-2.153a10.362,10.362,0,0,0-2.179,1.816,13.439,13.439,0,0,0-.446,5.419c.285,2.568,2.978,7.455,1.448,8.466-2.058,1.361-4.684-1.154-4.256-1.263,3.2-.811,1.488-13.182,1.594-13.919a6.557,6.557,0,0,1,2.531-4.215C383.721,37.193,390.33,37.249,390.624,39.836Z"
                  transform="translate(-376.999 -37.79)"/>
            <path class="avatar-5-svg-e" d="M413.972,103.207l3.433-2.592c1.5.5,1.938,4.761,2.091,6.751H415.9Z"
                  transform="translate(-401.86 -80.034)"/>
            <path class="avatar-5-svg-f"
                  d="M398.412,92.027h-1.586v1c0,.622-.1.493-.684.816a4.868,4.868,0,0,1-.731.514c.7,2.269,1.214,5.186,2.592,7.232h.818c1.378-2.046,1.887-4.964,2.592-7.232a4.867,4.867,0,0,1-.731-.514c-.581-.323-.685-.194-.684-.816v-1Z"
                  transform="translate(-389.38 -74.26)"/>
            <path class="avatar-5-svg-e" d="M384.095,103.207l-3.433-2.592c-1.5.5-1.938,4.761-2.091,6.751h3.593Z"
                  transform="translate(-378.056 -80.034)"/>
            <path class="avatar-5-svg-g"
                  d="M389.211,97.6c-.845.385-3.762.726-4.107,1.025.28.613,2.032,3.548.906,6.713h11.028a11.768,11.768,0,0,1,1.1-6.673c-.345-.3-3.472-.633-4.318-1.018,1.025.8-.822,3.243-2.338,3.349C389.959,100.889,388.2,98.384,389.211,97.6Z"
                  transform="translate(-382.449 -78.007)"/>
            <g transform="translate(1.063 8.16)">
                <path class="avatar-5-svg-h"
                      d="M383.553,64.489a1.852,1.852,0,0,1-1.154,2.378,1.822,1.822,0,0,1-2.084-1.61,2.016,2.016,0,0,1,1.144-2.523C382.353,62.521,383.291,63.307,383.553,64.489Z"
                      transform="translate(-380.246 -62.699)"/>
                <path class="avatar-5-svg-h"
                      d="M419.725,64.489a1.853,1.853,0,0,0,1.154,2.378,1.822,1.822,0,0,0,2.084-1.61,2.016,2.016,0,0,0-1.144-2.523C420.926,62.521,419.988,63.307,419.725,64.489Z"
                      transform="translate(-406.747 -62.699)"/>
            </g>
            <path class="avatar-5-svg-i"
                  d="M390.542,38.741h-.02l-.933-.037,0,.074-.1,0a6.394,6.394,0,0,0-4.818,2.648,8.21,8.21,0,0,0-1.206,5.387c.232,4.817,2.93,10.225,7.073,10.265,4.143-.04,6.841-5.448,7.073-10.265a8.21,8.21,0,0,0-1.206-5.387,6.394,6.394,0,0,0-4.818-2.648l-.1,0,0-.074-.933.037Z"
                  transform="translate(-381.335 -38.405)"/>
            <path class="avatar-5-svg-d"
                  d="M386.368,38.741a14.173,14.173,0,0,1,2.939-.577,9.43,9.43,0,0,1,4.31.718A7.343,7.343,0,0,1,396,41.189c.189.491.151.529-2.193,2.155a13.91,13.91,0,0,1-4.952,2.079c.907-.292,1.643-1.79,1.643-1.79s-.622.731-3.722,1.828-3.914.753-3.914.753a4.085,4.085,0,0,1-.448-3.24c.541-1.781.988-1.92,2.019-2.956A4.794,4.794,0,0,1,386.368,38.741Z"
                  transform="translate(-380.53 -38.031)"/>
            <path class="avatar-5-svg-d"
                  d="M414.063,44.064c-.057.265-.006,1.683,1.626,3.856s1.758,2.363,1.758,2.363.049,3.979.068,3.809.874-4.123.874-4.123a10.274,10.274,0,0,0-.185-3.391c-.416-1.7-.94-2.343-1.661-2.63A6.181,6.181,0,0,0,414.063,44.064Z"
                  transform="translate(-401.913 -41.862)"/>
            <path class="avatar-5-svg-d" d="M383.97,58.535c-.284.321-1.152,1.063-1.152,1.063l.937,4.4Z"
                  transform="translate(-380.912 -51.739)"/>
            <path class="avatar-5-svg-g"
                  d="M385.477,100.079a2.417,2.417,0,0,0-.761.253c1.717,3.259-.818,4.567.116,6.673h12.993c.935-2.106-1.6-3.414.117-6.673a2.424,2.424,0,0,0-.761-.253c-.422,2.164-2.881,3.826-5.853,3.826S385.9,102.243,385.477,100.079Z"
                  transform="translate(-382.123 -79.674)"/>
            <path class="avatar-5-svg-j"
                  d="M396.284,101a3.423,3.423,0,0,1-2.493-2.266.987.987,0,0,1,.223-1.131l-.021.009c-.065.029-.143.057-.229.086a3.749,3.749,0,0,0-1.432.942.421.421,0,0,0-.079.31c.123.643,1.115.662,1.115.662a2.253,2.253,0,0,0,.019.747c.142.907.5,1.39.964,1.528C394.913,102.051,395.626,101.708,396.284,101Z"
                  transform="translate(-387.252 -78.007)"/>
            <path class="avatar-5-svg-j"
                  d="M404.571,100.979a3.423,3.423,0,0,0,2.493-2.266,1,1,0,0,0-.224-1.139,2.519,2.519,0,0,0,.251.1,3.749,3.749,0,0,1,1.432.942.421.421,0,0,1,.079.31c-.123.643-1.115.662-1.115.662a2.261,2.261,0,0,1-.019.747c-.142.907-.5,1.39-.964,1.528C405.943,102.033,405.229,101.69,404.571,100.979Z"
                  transform="translate(-395.539 -77.989)"/>
            <path class="avatar-5-svg-k"
                  d="M390.369,66.328a1.438,1.438,0,0,1,.75,0,.439.439,0,0,1,.272.334c.053.2.1.392.159.586a4.624,4.624,0,0,0,.457,1.112,1.638,1.638,0,0,0,1.371.686,6.89,6.89,0,0,0,2.71-.1,1.626,1.626,0,0,0,.388-.153.988.988,0,0,0,.428-.5,6.819,6.819,0,0,0,.267-.758c.056-.187.111-.374.167-.561a1.025,1.025,0,0,1,.158-.32,2.525,2.525,0,0,0,.162-.272.472.472,0,0,0,.053-.206c.012-.258.025-.527.029-.785.011-.693-3.176-.573-3.545-.557-.168.008-.336.018-.5.033a8.223,8.223,0,0,0-1.758.306,2.7,2.7,0,0,1-2.38,0,8.224,8.224,0,0,0-1.757-.306c-.168-.015-.335-.025-.5-.033-.37-.016-3.557-.136-3.546.557,0,.258.017.527.029.785a.477.477,0,0,0,.053.206,2.582,2.582,0,0,0,.162.272,1.025,1.025,0,0,1,.159.32c.056.187.11.374.167.561a6.75,6.75,0,0,0,.266.758.987.987,0,0,0,.428.5,1.63,1.63,0,0,0,.388.153,6.89,6.89,0,0,0,2.71.1,1.638,1.638,0,0,0,1.371-.686,4.612,4.612,0,0,0,.457-1.112c.056-.194.106-.39.159-.586a.438.438,0,0,1,.271-.334Zm1.385-.456h0a.557.557,0,0,1,.277-.338,4.634,4.634,0,0,1,1.545-.381,13.174,13.174,0,0,1,2.576-.016,1.888,1.888,0,0,1,.8.241.587.587,0,0,1,.177.443,6.709,6.709,0,0,1-.149,1.467,3.719,3.719,0,0,1-.371,1.076.9.9,0,0,1-.45.348,2.566,2.566,0,0,1-.286.087,5.843,5.843,0,0,1-2.438.049c-.187-.029-.372-.072-.558-.115a.979.979,0,0,1-.684-.506,4.272,4.272,0,0,1-.437-1.4,3.655,3.655,0,0,1-.047-.632,1.17,1.17,0,0,1,.045-.327Zm-2.021,0h0a1.169,1.169,0,0,1,.045.327,3.655,3.655,0,0,1-.047.632,4.271,4.271,0,0,1-.437,1.4.979.979,0,0,1-.685.506c-.185.043-.371.086-.558.115a5.843,5.843,0,0,1-2.438-.049,2.564,2.564,0,0,1-.286-.087.9.9,0,0,1-.45-.348,3.719,3.719,0,0,1-.371-1.076,6.71,6.71,0,0,1-.148-1.467.586.586,0,0,1,.177-.443,1.888,1.888,0,0,1,.8-.241,13.174,13.174,0,0,1,2.576.016,4.632,4.632,0,0,1,1.545.381A.556.556,0,0,1,389.734,65.872Z"
                  transform="translate(-381.537 -55.969)"/>
            <path class="avatar-5-svg-d"
                  d="M388.154,62.813c-.325.135.215-.745,1.812-.78,1.861-.041,2.427.854,1.694.6A4.924,4.924,0,0,0,388.154,62.813Z"
                  transform="translate(-384.439 -54.09)"/>
            <g transform="translate(5.053 9.954)">
                <path class="avatar-5-svg-k" d="M392.972,69.27a.548.548,0,1,0-.548-.548A.549.549,0,0,0,392.972,69.27Z"
                      transform="translate(-392.424 -68.174)"/>
                <path class="avatar-5-svg-k" d="M414.985,69.27a.548.548,0,1,0-.548-.548A.549.549,0,0,0,414.985,69.27Z"
                      transform="translate(-407.226 -68.174)"/>
            </g>
            <path class="avatar-5-svg-d"
                  d="M415.014,62.813c.325.135-.215-.745-1.811-.78-1.861-.041-2.427.854-1.694.6A4.923,4.923,0,0,1,415.014,62.813Z"
                  transform="translate(-399.995 -54.09)"/>
            <path class="avatar-5-svg-l"
                  d="M404.045,84.427a1.455,1.455,0,0,1,.036.32,1.42,1.42,0,1,1-2.84,0,1.453,1.453,0,0,1,.036-.32Z"
                  transform="translate(-393.3 -69.149)"/>
            <path class="avatar-5-svg-m"
                  d="M401.949,73.684c-.007,0-.008-.008,0-.017a.11.11,0,0,1,.045-.08,11.712,11.712,0,0,0,.871-3.088c.222.014-.22,2.367-.411,2.929a4.09,4.09,0,0,1,.682-.053c.655,0,1.186.131,1.186.293s-.531.293-1.186.293C402.5,73.961,401.984,73.838,401.949,73.684Z"
                  transform="translate(-393.772 -59.784)"/>
        </g>
    </g>
</svg>