<svg xmlns="http://www.w3.org/2000/svg" width="450" height="339.801" viewBox="0 0 450 339.801"><defs><style>.a-bike{fill:#f5f6f8;}.b-bike{fill:#307eb2;}.c-bike{fill:#d3947f;}.d-bike{fill:#2a6393;}.e-bike{fill:#a0c1c0;}.f-bike{fill:#c7c9c9;}.g-bike{fill:#e0e0e0;}.h-bike{fill:#f9cba5;}.i-bike{fill:#517b7c;}.j-bike{fill:#456b6b;}.k-bike{fill:#595959;}.l-bike{fill:#3d3d3b;}.m-bike{fill:#f9ffae;}.n-bike{fill:#eaeaea;}.o-bike{fill:#afafaf;}.p-bike{fill:#bcbcbc;}.q-bike{fill:#bececc;}.as-bike,.r-bike{fill:#49eae2;}.s-bike{fill:#17afaf;}.t-bike{fill:#148a93;}.u-bike{fill:#f6ad68;}.v-bike{fill:#473f3f;}.w-bike{fill:#382f2f;}.x-bike{fill:#777;}.y-bike{fill:#35d3cf;}.z-bike{fill:#2cc4c4;}.aa-bike{fill:#b3fff6;}.ab-bike{fill:#0f6b6d;}.ac-bike{fill:#22c6c6;}.ad-bike{fill:#fff;}.ae-bike{fill:#d6d6d6;}.af-bike{fill:#b5b5b5;}.ag-bike{fill:#9b9b9b;}.ah-bike{fill:#63452d;}.ai-bike{fill:#2879af;}.aj-bike{fill:#4f97c9;}.ak-bike{fill:#6b4e32;}.al-bike{fill:#3a83cc;}.am-bike{fill:#60a8e2;}.an-bike{fill:#e2ab93;}.ao-bike{fill:#564343;}.ap-bike{fill:#b7725f;}.aq-bike{fill:#4a89d3;}.ar-bike{fill:#316aa3;}.as-bike{opacity:0.3;}.at-bike{fill:#21bfbb;}.au-bike{fill:#3681bf;}.av-bike{fill:#ddd;}.aw-bike{fill:#edd1d8;}.ax-bike{fill:#f4456a;}.ay-bike{fill:#d12c54;}.az-bike{fill:#fc7595;}.ba-bike{fill:#3578af;}.bb-bike{fill:#563d28;}.bc-bike{fill:#1692a3;}.bd-bike{fill:#ffdfbd;}.be-bike{fill:#eac5a7;}.bf-bike{fill:#57eadf;}.bg-bike{fill:#efefef;}</style></defs><g transform="translate(0)"><path class="a-bike" d="M317.51,23.384h0a11.825,11.825,0,0,1-11.784,11.784H281.735V54.594h52.336a13.161,13.161,0,0,1,13.164,13.164h0a13.161,13.161,0,0,1-13.164,13.164H291.289a8.563,8.563,0,0,0-8.6,8.6h0a8.563,8.563,0,0,0,8.6,8.6h13.482a7.566,7.566,0,0,1,7.537,7.537h0a7.566,7.566,0,0,1-7.537,7.537H257V11.6h48.621A11.848,11.848,0,0,1,317.51,23.384Z" transform="translate(11.077 0.766)"/><path class="a-bike" d="M283.638,6.2H183a11.954,11.954,0,0,0-8.493,20.382h0a12.055,12.055,0,0,0,8.493,3.5h31a8.266,8.266,0,0,1,6.051,2.548h0A8.5,8.5,0,0,1,214,47.177H146.8c-12.951,0-19.427,15.711-10.3,24.841h0a14.543,14.543,0,0,0,10.3,4.246h37.686a13.343,13.343,0,0,1,9.448,3.928h0c8.387,8.387,2.442,22.824-9.448,22.824H98.072a14.991,14.991,0,0,0-10.3,25.9h0a14.9,14.9,0,0,0,10.3,4.14H255.718Z" transform="translate(2.916 0.434)"/><path class="a-bike" d="M252.238,108.4H151.6a11.954,11.954,0,0,0-8.493,20.382h0a12.055,12.055,0,0,0,8.493,3.5h31a8.267,8.267,0,0,1,6.051,2.548h0a8.5,8.5,0,0,1-6.051,14.544H115.4c-12.951,0-19.427,15.712-10.3,24.841h0a14.543,14.543,0,0,0,10.3,4.246h37.686a13.343,13.343,0,0,1,9.448,3.928h0c8.387,8.387,2.442,22.824-9.448,22.824H66.672a14.991,14.991,0,0,0-10.3,25.9h0a14.9,14.9,0,0,0,10.3,4.14H224.318Z" transform="translate(3.18 4.182)"/><ellipse class="a-bike" cx="12.102" cy="12.102" rx="12.102" ry="12.102" transform="translate(139.84 6.634)"/><ellipse class="a-bike" cx="13.27" cy="13.27" rx="13.27" ry="13.27" transform="translate(99.668 49.31)"/><ellipse class="a-bike" cx="14.756" cy="14.756" rx="14.756" ry="14.756" transform="translate(46.71 102.392)"/><ellipse class="a-bike" cx="9.342" cy="9.342" rx="9.342" ry="9.342" transform="translate(20.595 214.671)"/><ellipse class="a-bike" cx="5.414" cy="5.414" rx="5.414" ry="5.414" transform="translate(0 218.618)"/><ellipse class="a-bike" cx="11.784" cy="11.784" rx="11.784" ry="11.784" transform="translate(67.835 157.947)"/><ellipse class="a-bike" cx="7.962" cy="7.962" rx="7.962" ry="7.962" transform="translate(41.72 161.768)"/><ellipse class="a-bike" cx="8.387" cy="8.387" rx="8.387" ry="8.387" transform="translate(18.684 108.73)"/><ellipse class="a-bike" cx="6.9" cy="6.9" rx="6.9" ry="6.9" transform="translate(74.842 54.869)"/><ellipse class="a-bike" cx="9.023" cy="9.023" rx="9.023" ry="9.023" transform="translate(109.427 9.712)"/><ellipse class="a-bike" cx="12.102" cy="12.102" rx="12.102" ry="12.102" transform="translate(337.206 12.366)"/><ellipse class="a-bike" cx="13.27" cy="13.27" rx="13.27" ry="13.27" transform="translate(366.453 54.418)"/><ellipse class="a-bike" cx="6.9" cy="6.9" rx="6.9" ry="6.9" transform="translate(405.519 60.727)"/><ellipse class="a-bike" cx="9.023" cy="9.023" rx="9.023" ry="9.023" transform="translate(373.035 15.445)"/><g transform="translate(252.865 84.418)"><path class="b-bike" d="M278.582,104.792,263.082,80.8,242.7,84.3l22.612,35.988s8.068,12.633,15.5,12.1l50.744-4.989,1.486-12.633-39.491-.318A21.4,21.4,0,0,1,278.582,104.792Z" transform="translate(-242.7 -80.8)"/><path class="c-bike" d="M349.955,120.476l.425-4.565a5.208,5.208,0,0,0-3.822-5.52l-5.308-1.38a5.027,5.027,0,0,0-3.291.212l-10.3,4.353-1.062,8.917.743.106a13.786,13.786,0,0,0,5.1-.318l4.14-1.062a2.824,2.824,0,0,0,2.123-2.442l.106-.637a2.033,2.033,0,0,1,1.8-1.8l1.8.318c1.062-.106,2.335.106,2.548,1.168l.318,2.229a2,2,0,0,0,1.062,1.38l1.274.531A1.837,1.837,0,0,0,349.955,120.476Z" transform="translate(-237.533 -79.074)"/><path class="d-bike" d="M326,112.1h2.229a.752.752,0,0,1,.743.849L326.743,125.9a.957.957,0,0,1-.637.637l-1.062.106c-.425,0-.849-.318-.743-.743l1.062-12.951A.643.643,0,0,1,326,112.1Z" transform="translate(-237.675 -78.872)"/></g><ellipse class="e-bike" cx="172.981" cy="7.948" rx="172.981" ry="7.948" transform="translate(104.038 323.905)"/><path class="f-bike" d="M185.946,185.046a2.691,2.691,0,0,0,0,3.822l15.5,15.5,3.822-3.822-15.5-15.5A2.691,2.691,0,0,0,185.946,185.046Z" transform="translate(8.53 8.496)"/><path class="g-bike" d="M185.8,185.258l17.3,17.3,2.123-2.123-15.5-15.393a2.691,2.691,0,0,0-3.822,0A.371.371,0,0,1,185.8,185.258Z" transform="translate(8.565 8.512)"/><g transform="translate(123.239 191.251)"><path class="f-bike" d="M118.2,185.354a2.628,2.628,0,0,0,2.654,2.654h96.6V182.7h-96.6A2.628,2.628,0,0,0,118.2,185.354Z" transform="translate(-118.2 -182.7)"/><path class="g-bike" d="M217.458,185.566V182.7h-96.6a2.628,2.628,0,0,0-2.654,2.654v.212Z" transform="translate(-118.2 -182.7)"/></g><path class="f-bike" d="M209.254,155.3a2.628,2.628,0,0,0-2.654,2.654v48.09h5.308v-48.09A2.565,2.565,0,0,0,209.254,155.3Z" transform="translate(9.624 6.914)"/><path class="g-bike" d="M209.254,155.3a2.628,2.628,0,0,0-2.654,2.654v48.09h2.654Z" transform="translate(9.642 6.914)"/><path class="h-bike" d="M154.518,246.756H141.46A2.81,2.81,0,0,1,138.7,244V227.754a2.628,2.628,0,0,1,2.654-2.654h13.27v21.656Z" transform="translate(6.411 10.352)"/><path class="i-bike" d="M176.4,265.406v17.516a7.951,7.951,0,0,0,7.962,7.962H292.325a15.4,15.4,0,0,0,15.393-15.393V265.3H176.4Z" transform="translate(7.191 11.576)"/><path class="j-bike" d="M176.4,278.506v3.609a7.951,7.951,0,0,0,7.962,7.962H292.325A15.269,15.269,0,0,0,307.188,278.4H176.4Z" transform="translate(7.197 12.383)"/><g transform="translate(374.415 256.388)"><ellipse class="k-bike" cx="37.793" cy="37.792" rx="37.793" ry="37.792"/><ellipse class="l-bike" cx="35.245" cy="35.245" rx="35.245" ry="35.245" transform="translate(2.548 2.548)"/><ellipse class="m-bike" cx="27.389" cy="27.389" rx="27.389" ry="27.389" transform="translate(10.404 10.404)"/><ellipse class="l-bike" cx="24.417" cy="24.417" rx="24.417" ry="24.417" transform="translate(13.376 13.376)"/><ellipse class="l-bike" cx="23.143" cy="23.143" rx="23.143" ry="23.143" transform="translate(14.65 14.65)"/><path class="n-bike" d="M415.494,271.053a22.871,22.871,0,0,0-7.962-7.962l-9.873,14.968,3.609-17.516a24.769,24.769,0,0,0-5.626-.743,19.979,19.979,0,0,0-5.626.743l3.609,17.516-9.873-14.968a22.871,22.871,0,0,0-7.962,7.962l14.968,9.873-17.516-3.609a24.769,24.769,0,0,0-.743,5.626,19.978,19.978,0,0,0,.743,5.626l17.516-3.609-14.968,9.873a22.871,22.871,0,0,0,7.962,7.962l9.873-14.968-3.609,17.516a24.769,24.769,0,0,0,5.626.743,19.978,19.978,0,0,0,5.626-.743l-3.609-17.516,9.873,14.862a22.871,22.871,0,0,0,7.962-7.962l-14.862-9.873,17.516,3.609a24.767,24.767,0,0,0,.743-5.626,19.98,19.98,0,0,0-.743-5.626l-17.516,3.609Zm-17.941,12.739-1.062,1.062H394.9l-1.062-1.062V282.2l1.062-1.062h1.592l1.062,1.062Z" transform="translate(-357.85 -245.15)"/><g transform="translate(14.65 14.756)"><path class="o-bike" d="M394.843,283.4H394.1l.531.106Z" transform="translate(-371.17 -258.453)"/><path class="o-bike" d="M395.931,282.5l-.531.531.425-.212Z" transform="translate(-371.09 -258.508)"/><path class="o-bike" d="M392.4,281.931l.106.212V281.4Z" transform="translate(-371.274 -258.576)"/><path class="o-bike" d="M396.9,260c.212,0,.425.106.637.106C397.325,260.106,397.112,260,396.9,260Z" transform="translate(-370.997 -259.894)"/><path class="o-bike" d="M393.431,283.231l-.531-.531.318.531Z" transform="translate(-371.244 -258.496)"/><path class="o-bike" d="M395.2,280l.531.531-.319-.425Z" transform="translate(-371.102 -258.662)"/><path class="o-bike" d="M392.7,280.731l.531-.531-.425.318Z" transform="translate(-371.256 -258.65)"/><path class="o-bike" d="M393.8,279.806h.743l-.531-.106Z" transform="translate(-371.188 -258.681)"/><path class="o-bike" d="M413,270.4Z" transform="translate(-370.006 -259.253)"/><path class="o-bike" d="M415.8,284.937c0-.212.106-.425.106-.637A1.579,1.579,0,0,1,415.8,284.937Z" transform="translate(-369.833 -258.397)"/><path class="o-bike" d="M399.3,281.177l17.835.743c0,.743-.106,1.486-.106,2.229a14.222,14.222,0,0,0,.106-2.123,19.979,19.979,0,0,0-.743-5.626l-8.811,1.8Z" transform="translate(-370.849 -258.884)"/><path class="o-bike" d="M397.3,278.5l13.164-12.1a22.815,22.815,0,0,0-4.353-3.4l-4.989,7.537Z" transform="translate(-370.973 -259.709)"/><path class="o-bike" d="M393.783,277.735l.743-17.835c.743,0,1.486.106,2.123.106a13.533,13.533,0,0,0-2.123-.106,19.979,19.979,0,0,0-5.626.743l1.8,8.811Z" transform="translate(-371.49 -259.9)"/><path class="o-bike" d="M411.4,268.2a13.825,13.825,0,0,1,1.062,1.592A5.95,5.95,0,0,0,411.4,268.2Z" transform="translate(-370.104 -259.389)"/><path class="o-bike" d="M410.337,266.943c-.212-.212-.425-.531-.637-.743C409.912,266.412,410.125,266.731,410.337,266.943Z" transform="translate(-370.209 -259.512)"/><path class="o-bike" d="M396.1,281.1v.743l.106-.531Z" transform="translate(-371.047 -258.594)"/><path class="o-bike" d="M395.272,286.6l-.743,17.835c-.743,0-1.486-.106-2.229-.106a14.222,14.222,0,0,0,2.123.106,19.975,19.975,0,0,0,5.626-.743l-1.8-8.811Z" transform="translate(-371.281 -258.256)"/><path class="o-bike" d="M391.737,303.306c-.212,0-.425-.106-.637-.106A1.346,1.346,0,0,1,391.737,303.306Z" transform="translate(-371.354 -257.233)"/><path class="o-bike" d="M392.057,285.7,379,297.8a22.814,22.814,0,0,0,4.353,3.4l4.989-7.537Z" transform="translate(-372.1 -258.311)"/><path class="o-bike" d="M405.5,300.3Z" transform="translate(-370.468 -257.412)"/><path class="o-bike" d="M383.1,262.9h0C383,263.006,383.1,263.006,383.1,262.9Z" transform="translate(-371.85 -259.715)"/><path class="o-bike" d="M398.3,284.6l12.1,13.164a22.817,22.817,0,0,0,3.4-4.353l-7.537-4.989Z" transform="translate(-370.911 -258.379)"/><path class="o-bike" d="M377.268,295.192c-.425-.531-.743-1.062-1.168-1.592A15.18,15.18,0,0,0,377.268,295.192Z" transform="translate(-372.278 -257.825)"/><path class="o-bike" d="M407.792,298.8a13.829,13.829,0,0,1-1.592,1.062A10.339,10.339,0,0,0,407.792,298.8Z" transform="translate(-370.424 -257.504)"/><path class="o-bike" d="M409,297.637c.212-.212.531-.425.743-.637A4.617,4.617,0,0,1,409,297.637Z" transform="translate(-370.252 -257.615)"/><path class="o-bike" d="M380.9,264.568c.531-.425,1.062-.743,1.592-1.168C381.962,263.825,381.325,264.143,380.9,264.568Z" transform="translate(-371.983 -259.685)"/><path class="o-bike" d="M378.4,296.4l.637.637A1.8,1.8,0,0,1,378.4,296.4Z" transform="translate(-372.137 -257.652)"/><path class="o-bike" d="M379.537,265.7c-.212.212-.425.318-.637.531C379.112,266.018,379.325,265.912,379.537,265.7Z" transform="translate(-372.106 -259.543)"/><path class="o-bike" d="M391.2,279.464,379.1,266.3a22.819,22.819,0,0,0-3.4,4.352l7.537,4.99Z" transform="translate(-372.303 -259.506)"/><path class="o-bike" d="M390.335,282.566l-17.835-.743c0-.743.106-1.38.106-2.123a12.85,12.85,0,0,0-.106,2.017,19.978,19.978,0,0,0,.743,5.626l8.811-1.8Z" transform="translate(-372.5 -258.681)"/><path class="o-bike" d="M375.6,292.8Z" transform="translate(-372.309 -257.874)"/><path class="o-bike" d="M372.7,279.037c0-.212.106-.425.106-.637A1.346,1.346,0,0,0,372.7,279.037Z" transform="translate(-372.488 -258.761)"/></g><ellipse class="p-bike" cx="7.643" cy="7.643" rx="7.643" ry="7.643" transform="translate(30.149 30.149)"/><ellipse class="l-bike" cx="2.229" cy="2.229" rx="2.229" ry="2.229" transform="translate(35.563 35.563)"/></g><g transform="translate(177.865 256.388)"><ellipse class="k-bike" cx="37.793" cy="37.792" rx="37.793" ry="37.792"/><ellipse class="l-bike" cx="35.245" cy="35.245" rx="35.245" ry="35.245" transform="translate(2.548 2.548)"/><ellipse class="m-bike" cx="27.389" cy="27.389" rx="27.389" ry="27.389" transform="translate(10.404 10.404)"/><ellipse class="l-bike" cx="24.417" cy="24.417" rx="24.417" ry="24.417" transform="translate(13.376 13.376)"/><ellipse class="l-bike" cx="23.143" cy="23.143" rx="23.143" ry="23.143" transform="translate(14.65 14.65)"/><path class="n-bike" d="M227.194,271.053a22.871,22.871,0,0,0-7.962-7.962l-9.873,14.968,3.609-17.516a24.769,24.769,0,0,0-5.626-.743,19.979,19.979,0,0,0-5.626.743l3.609,17.516-9.873-14.968a22.871,22.871,0,0,0-7.962,7.962l14.968,9.873-17.516-3.609a24.768,24.768,0,0,0-.743,5.626,19.978,19.978,0,0,0,.743,5.626l17.516-3.609-14.968,9.873a22.871,22.871,0,0,0,7.962,7.962l9.873-14.968-3.609,17.516a24.769,24.769,0,0,0,5.626.743,19.978,19.978,0,0,0,5.626-.743l-3.609-17.516,9.873,14.862a22.87,22.87,0,0,0,7.962-7.962l-14.862-9.873,17.516,3.609a24.769,24.769,0,0,0,.743-5.626,19.979,19.979,0,0,0-.743-5.626l-17.516,3.609Zm-17.941,12.739-1.062,1.062H206.6l-1.062-1.062V282.2l1.062-1.062h1.592l1.062,1.062Z" transform="translate(-169.55 -245.15)"/><g transform="translate(14.65 14.756)"><path class="o-bike" d="M206.543,283.4H205.8l.531.106Z" transform="translate(-182.87 -258.453)"/><path class="o-bike" d="M207.631,282.5l-.531.531.425-.212Z" transform="translate(-182.79 -258.508)"/><path class="o-bike" d="M204.1,281.931l.106.212V281.4Z" transform="translate(-182.974 -258.576)"/><path class="o-bike" d="M208.6,260c.212,0,.425.106.637.106C209.025,260.106,208.812,260,208.6,260Z" transform="translate(-182.697 -259.894)"/><path class="o-bike" d="M205.131,283.231l-.531-.531.318.531Z" transform="translate(-182.944 -258.496)"/><path class="o-bike" d="M206.9,280l.531.531-.318-.425Z" transform="translate(-182.802 -258.662)"/><path class="o-bike" d="M204.4,280.731l.531-.531-.425.318Z" transform="translate(-182.956 -258.65)"/><path class="o-bike" d="M205.5,279.806h.743l-.531-.106Z" transform="translate(-182.888 -258.681)"/><path class="o-bike" d="M224.7,270.4Z" transform="translate(-181.706 -259.253)"/><path class="o-bike" d="M227.5,284.937c0-.212.106-.425.106-.637A1.577,1.577,0,0,1,227.5,284.937Z" transform="translate(-181.533 -258.397)"/><path class="o-bike" d="M211,281.177l17.835.743c0,.743-.106,1.486-.106,2.229a14.224,14.224,0,0,0,.106-2.123,19.977,19.977,0,0,0-.743-5.626l-8.811,1.8Z" transform="translate(-182.549 -258.884)"/><path class="o-bike" d="M209,278.5l13.164-12.1a22.815,22.815,0,0,0-4.352-3.4l-4.989,7.537Z" transform="translate(-182.673 -259.709)"/><path class="o-bike" d="M205.483,277.735l.743-17.835c.743,0,1.486.106,2.123.106a13.534,13.534,0,0,0-2.123-.106,19.979,19.979,0,0,0-5.626.743l1.8,8.811Z" transform="translate(-183.19 -259.9)"/><path class="o-bike" d="M223.1,268.2a13.831,13.831,0,0,1,1.062,1.592A5.951,5.951,0,0,0,223.1,268.2Z" transform="translate(-181.804 -259.389)"/><path class="o-bike" d="M222.037,266.943c-.212-.212-.425-.531-.637-.743C221.612,266.412,221.825,266.731,222.037,266.943Z" transform="translate(-181.909 -259.512)"/><path class="o-bike" d="M207.8,281.1v.743l.106-.531Z" transform="translate(-182.747 -258.594)"/><path class="o-bike" d="M206.972,286.6l-.743,17.835c-.743,0-1.486-.106-2.229-.106a14.222,14.222,0,0,0,2.123.106,19.975,19.975,0,0,0,5.626-.743l-1.8-8.811Z" transform="translate(-182.981 -258.256)"/><path class="o-bike" d="M203.437,303.306c-.212,0-.425-.106-.637-.106A1.346,1.346,0,0,1,203.437,303.306Z" transform="translate(-183.054 -257.233)"/><path class="o-bike" d="M203.764,285.7,190.6,297.8a22.814,22.814,0,0,0,4.353,3.4l4.989-7.537Z" transform="translate(-183.806 -258.311)"/><path class="o-bike" d="M217.2,300.3Z" transform="translate(-182.168 -257.412)"/><path class="o-bike" d="M194.8,262.9h0C194.7,263.006,194.8,263.006,194.8,262.9Z" transform="translate(-183.55 -259.715)"/><path class="o-bike" d="M210,284.6l12.1,13.164a22.816,22.816,0,0,0,3.4-4.353l-7.537-4.989Z" transform="translate(-182.611 -258.379)"/><path class="o-bike" d="M188.968,295.192c-.425-.531-.743-1.062-1.168-1.592A15.193,15.193,0,0,0,188.968,295.192Z" transform="translate(-183.978 -257.825)"/><path class="o-bike" d="M219.492,298.8a13.829,13.829,0,0,1-1.592,1.062C218.431,299.543,219.068,299.118,219.492,298.8Z" transform="translate(-182.124 -257.504)"/><path class="o-bike" d="M220.7,297.637c.212-.212.531-.425.743-.637A4.614,4.614,0,0,1,220.7,297.637Z" transform="translate(-181.952 -257.615)"/><path class="o-bike" d="M192.6,264.568c.531-.425,1.062-.743,1.592-1.168C193.662,263.825,193.025,264.143,192.6,264.568Z" transform="translate(-183.683 -259.685)"/><path class="o-bike" d="M190.1,296.4l.637.637A1.8,1.8,0,0,1,190.1,296.4Z" transform="translate(-183.837 -257.652)"/><path class="o-bike" d="M191.237,265.7c-.212.212-.425.318-.637.531C190.812,266.018,191.025,265.912,191.237,265.7Z" transform="translate(-183.806 -259.543)"/><path class="o-bike" d="M202.9,279.464,190.8,266.3a22.817,22.817,0,0,0-3.4,4.352l7.537,4.99Z" transform="translate(-184.003 -259.506)"/><path class="o-bike" d="M202.035,282.566l-17.835-.743c0-.743.106-1.38.106-2.123a12.846,12.846,0,0,0-.106,2.017,19.978,19.978,0,0,0,.743,5.626l8.811-1.8Z" transform="translate(-184.2 -258.681)"/><path class="o-bike" d="M187.3,292.8Z" transform="translate(-184.009 -257.874)"/><path class="o-bike" d="M184.4,279.037c0-.212.106-.425.106-.637A1.346,1.346,0,0,0,184.4,279.037Z" transform="translate(-184.188 -258.761)"/></g><ellipse class="p-bike" cx="7.643" cy="7.643" rx="7.643" ry="7.643" transform="translate(30.149 30.149)"/><ellipse class="l-bike" cx="2.229" cy="2.229" rx="2.229" ry="2.229" transform="translate(35.563 35.563)"/></g><g transform="translate(348.956 71.463)"><g transform="translate(4.14 13.482)"><path class="n-bike" d="M345.574,121.122h-2.866V95.538a9.012,9.012,0,0,0-.955-4.034l-4.353-9.13,2.548-1.274,4.353,9.13a12.907,12.907,0,0,1,1.168,5.308v25.584Z" transform="translate(-337.4 -81.1)"/></g><path class="q-bike" d="M333.5,68.4V95.683a15.591,15.591,0,0,0,8.068-13.588A15.224,15.224,0,0,0,333.5,68.4Z" transform="translate(-333.5 -68.4)"/></g><path class="r-bike" d="M364.1,107.4v27.707h3.609a1.9,1.9,0,0,0,1.911-1.911V109.311a1.9,1.9,0,0,0-1.911-1.911H364.1Z" transform="translate(16.048 4.933)"/><path class="s-bike" d="M398.085,234.784h0a7.867,7.867,0,0,1-7.537-5.626l-25.8-89.492a3.406,3.406,0,0,1,3.291-4.459h10.722V107.5H365.813a13.778,13.778,0,0,0-10.934,5.414l-5.52,9.66A15.9,15.9,0,0,0,347.978,135l16.985,57.326c4.671,19.852,5.1,33.334,1.38,53.292a14.916,14.916,0,0,1-14.65,12.208l-55.415.212a15.4,15.4,0,0,1-15.393-15.393V226.929a49.459,49.459,0,0,1,7.856-26.646H202.116A53.71,53.71,0,0,0,148.4,254v11.677a11.983,11.983,0,0,0,12,12H376.854a6.574,6.574,0,0,0,5.945-3.928c4.034-10.191,14.65-16.985,26.54-16.985h30.786a3.593,3.593,0,0,0,2.866-5.839c-7.537-9.13-18.047-15.287-33.546-15.924C408.383,234.784,399.147,234.784,398.085,234.784Z" transform="translate(2.763 3.521)"/><rect class="t-bike" width="5.626" height="27.707" transform="translate(375.901 112.333)"/><path class="s-bike" d="M353.127,188.014,349.411,175.7l-6.157,14.119a31.291,31.291,0,0,0-2.654,12.845V229.1a3.761,3.761,0,0,0,3.716,3.716h11.571C358.01,217.314,357.055,205,353.127,188.014Z" transform="translate(15.737 7.748)"/><path class="t-bike" d="M352.72,188.014,349,175.7l-1.8,4.14,2.442,8.174c4.034,16.879,4.883,29.194,2.76,44.905h2.972C357.6,217.314,356.648,205,352.72,188.014Z" transform="translate(15.007 7.747)"/><path class="u-bike" d="M147.193,225.1h-6.051a2.4,2.4,0,0,0-2.442,2.442V244.1a2.628,2.628,0,0,0,2.654,2.654h1.38A50.722,50.722,0,0,1,147.193,225.1Z" transform="translate(6.446 10.352)"/><g transform="translate(277.067 203.228)"><path class="t-bike" d="M267,242.459a15.4,15.4,0,0,0,15.393,15.393h6.051a15.368,15.368,0,0,1-14.862-15.393V221.546a49.458,49.458,0,0,1,7.856-26.646h-6.582A49.459,49.459,0,0,0,267,221.546Z" transform="translate(-267 -194.9)"/><path class="s-bike" d="M363.345,264.985a6.459,6.459,0,0,1-5.945,3.928h6.582a6.574,6.574,0,0,0,5.945-3.928c4.034-10.191,14.65-16.985,26.54-16.985h-6.582C377.995,248,367.379,254.794,363.345,264.985Z" transform="translate(-261.433 -191.63)"/></g><path class="v-bike" d="M286.96,176.334h-9.13c-5.733,0-11.571-.318-17.3-.849l-41.72-4.883a6.478,6.478,0,0,0-7.006,6.37v19.321h75.691a7.566,7.566,0,0,0,7.537-7.537V184.3A8.043,8.043,0,0,0,286.96,176.334Z" transform="translate(9.202 7.822)"/><path class="w-bike" d="M211.9,188.1v7.219h75.691a7.41,7.41,0,0,0,7.431-7.219Z" transform="translate(9.207 8.786)"/><path class="u-bike" d="M369.3,109.1v24.1a13.632,13.632,0,0,0,7.113-12A13.929,13.929,0,0,0,369.3,109.1Z" transform="translate(16.368 5.03)"/><path class="t-bike" d="M347.583,125.568a8.152,8.152,0,0,0-7.219-8.068l-2.442,4.353a15.736,15.736,0,0,0-1.8,10.934,7.692,7.692,0,0,0,3.5.743A7.884,7.884,0,0,0,347.583,125.568Z" transform="translate(15.569 5.46)"/><ellipse class="r-bike" cx="7.113" cy="7.113" rx="7.113" ry="7.113" transform="translate(347.992 122.97)"/><ellipse class="i-bike" cx="3.397" cy="3.397" rx="3.397" ry="3.397" transform="translate(357.914 162.252)"/><ellipse class="n-bike" cx="1.168" cy="1.168" rx="1.168" ry="1.168" transform="translate(358.916 164.48)"/><ellipse class="l-bike" cx="4.565" cy="4.565" rx="4.565" ry="4.565" transform="translate(350.562 125.509)"/><ellipse class="x-bike" cx="1.592" cy="1.592" rx="1.592" ry="1.592" transform="translate(353.559 128.471)"/><path class="t-bike" d="M359.613,232.4c-.318,1.8-.531,3.609-.955,5.52a14.916,14.916,0,0,1-14.65,12.208l-55.415.212A15.4,15.4,0,0,1,273.2,234.948v8.28a12.437,12.437,0,0,0,12.421,12.421h61.572a12.436,12.436,0,0,0,12.421-12.421V232.4Z" transform="translate(11.827 10.668)"/><rect class="s-bike" width="85.458" height="78.77" transform="translate(131.669 113.147)"/><rect class="y-bike" width="90.235" height="12.527" transform="translate(129.24 113.563)"/><path class="r-bike" d="M253.394,215.1H199.04a40.322,40.322,0,0,0-40.34,40.34v14.438a4.712,4.712,0,0,0,4.671,4.671h99.365a4.712,4.712,0,0,0,4.671-4.671V229.113A14,14,0,0,0,253.394,215.1Z" transform="translate(6.684 9.443)"/><path class="t-bike" d="M253.511,215.217a14,14,0,0,1,14.013,14.013v40.765a4.712,4.712,0,0,1-4.671,4.671H163.488a4.712,4.712,0,0,1-4.671-4.671V255.557a40.322,40.322,0,0,1,40.34-40.34h54.353m0-2.017H199.157A42.407,42.407,0,0,0,156.8,255.557v14.438a6.728,6.728,0,0,0,6.688,6.688h99.365a6.728,6.728,0,0,0,6.688-6.688V229.23a16.016,16.016,0,0,0-16.03-16.03Z" transform="translate(6.568 9.305)"/><path class="y-bike" d="M254.71,221.8H200.357A35.452,35.452,0,0,0,164.9,257.257V274.03H267.025V234.114A12.323,12.323,0,0,0,254.71,221.8Z" transform="translate(7.005 9.834)"/><path class="z-bike" d="M254.71,221.8H200.357A35.452,35.452,0,0,0,164.9,257.257V274.03H267.025V234.114A12.323,12.323,0,0,0,254.71,221.8Z" transform="translate(7.005 9.834)"/><path class="y-bike" d="M255.165,225.1H204.422A33.164,33.164,0,0,0,171.3,258.222v15.712h95.331V236.671A11.508,11.508,0,0,0,255.165,225.1Z" transform="translate(7.338 10.024)"/><rect class="z-bike" width="95.331" height="6.37" transform="translate(178.743 276.664)"/><path class="aa-bike" d="M254.772,220.9H200.419A36.517,36.517,0,0,0,163.9,257.419v16.773h.955V257.419a35.452,35.452,0,0,1,35.457-35.457h54.353a12.419,12.419,0,0,1,12.314,11.677V229.18A13.091,13.091,0,0,0,254.772,220.9Z" transform="translate(6.954 9.78)"/><g transform="translate(227.196 249.043)"><path class="t-bike" d="M251.8,257.952a2.129,2.129,0,0,1-2.123,2.123H219.529a2.123,2.123,0,0,1,0-4.246h30.149A2.129,2.129,0,0,1,251.8,257.952Zm-2.229-11.041H219.423a2.123,2.123,0,1,0,0,4.246h30.149a2.129,2.129,0,0,0,2.123-2.123A2,2,0,0,0,249.572,246.911Zm0-8.811H219.423a2.123,2.123,0,0,0,0,4.246h30.149a2.129,2.129,0,0,0,2.123-2.123A2,2,0,0,0,249.572,238.1Z" transform="translate(-217.3 -238.1)"/><path class="ab-bike" d="M219.423,250.646h4.989a2.123,2.123,0,1,1,0-4.246h-4.989a2.123,2.123,0,0,0,0,4.246Z" transform="translate(-217.3 -237.589)"/><path class="ab-bike" d="M219.423,242.346h4.989a2.123,2.123,0,1,1,0-4.246h-4.989a2.123,2.123,0,0,0,0,4.246Z" transform="translate(-217.3 -238.1)"/><path class="ab-bike" d="M222.289,256.923a2.129,2.129,0,0,1,2.123-2.123h-4.989a2.123,2.123,0,1,0,0,4.246h4.989A2.129,2.129,0,0,1,222.289,256.923Z" transform="translate(-217.3 -237.072)"/></g><path class="ac-bike" d="M388.374,231.883c23.78-3.291,41.72,13.27,42.676,14.225a3.793,3.793,0,0,0-.743-2.76c-7.537-9.13-18.047-15.287-33.546-15.924-1.062,0-10.3-.106-11.359-.106H385.3a6.181,6.181,0,0,1-2.017-.318h0l-12.951,8.28s-11.465,11.04-14.119,19.852-1.7,15.075-1.7,15.075h1.7C356.314,270.207,363.852,235.28,388.374,231.883Z" transform="translate(15.447 10.182)"/><path class="t-bike" d="M383.287,231.99h0a8.07,8.07,0,0,1-5.52-5.414L354.943,147.7l17.516,72.082a21.9,21.9,0,0,1-5.308,19.958c-6.688,7.219-14.65,19.427-12.633,35.351C354.625,275.09,353.988,249.188,383.287,231.99Z" transform="translate(15.438 5.672)"/><rect class="ad-bike" width="56.901" height="5.839" transform="translate(198.795 286.855)"/><rect class="g-bike" width="56.901" height="2.866" transform="translate(198.795 289.722)"/><path class="g-bike" d="M160.282,278.939H149.029a2.242,2.242,0,0,1-2.229-2.229v-1.38a2.242,2.242,0,0,1,2.229-2.229h11.253Z" transform="translate(6.797 12.057)"/><path class="ad-bike" d="M278.508,267.7v5.2a2.129,2.129,0,0,1-2.123,2.123H243.9v5.839h36.625a4.145,4.145,0,0,0,4.14-4.14V267.7Z" transform="translate(11.049 11.724)"/><path class="g-bike" d="M281.693,267.7v6.9a4.145,4.145,0,0,1-4.14,4.14H243.9v2.229h36.625a4.145,4.145,0,0,0,4.14-4.14v-9.023h-2.972Z" transform="translate(11.049 11.724)"/><path class="ae-bike" d="M193.993,267.7H161.72a5.482,5.482,0,0,0-5.52,5.52v6.37a5.482,5.482,0,0,0,5.52,5.52h32.272a5.482,5.482,0,0,0,5.52-5.52v-6.37A5.55,5.55,0,0,0,193.993,267.7Z" transform="translate(7.06 11.724)"/><path class="f-bike" d="M156.2,276v2.972a5.482,5.482,0,0,0,5.52,5.52h32.272a5.483,5.483,0,0,0,5.52-5.52V276Z" transform="translate(7.06 12.235)"/><path class="ae-bike" d="M265.208,267.7H234.74a4.145,4.145,0,0,0-4.14,4.14v4.777a4.145,4.145,0,0,0,4.14,4.14h30.468a4.145,4.145,0,0,0,4.14-4.14V271.84A4.078,4.078,0,0,0,265.208,267.7Z" transform="translate(10.464 11.724)"/><path class="f-bike" d="M230.6,273.9v2.442a4.145,4.145,0,0,0,4.14,4.14h30.468a4.145,4.145,0,0,0,4.14-4.14V273.9Z" transform="translate(10.464 12.106)"/><g transform="translate(171.94 283.14)"><path class="af-bike" d="M188.6,277.888H165.992a1.592,1.592,0,1,0,0,3.185H188.6a1.633,1.633,0,0,0,1.592-1.592A1.563,1.563,0,0,0,188.6,277.888Zm0-6.688H165.992a1.592,1.592,0,0,0,0,3.185H188.6a1.633,1.633,0,0,0,1.592-1.592A1.563,1.563,0,0,0,188.6,271.2Z" transform="translate(-164.4 -271.2)"/><g transform="translate(0 0.106)"><path class="ag-bike" d="M165.992,280.685h3.716a1.592,1.592,0,0,1,0-3.185h-3.716a1.592,1.592,0,1,0,0,3.185Z" transform="translate(-164.4 -270.918)"/><path class="ag-bike" d="M165.992,274.485h3.716a1.592,1.592,0,0,1,0-3.185h-3.716a1.592,1.592,0,0,0,0,3.185Z" transform="translate(-164.4 -271.3)"/></g></g><path class="ah-bike" d="M301.7,168.1l1.7,72.719,14.438-.212,3.185-72.506Z" transform="translate(13.908 7.244)"/><g transform="translate(314.045 247.124)"><path class="ai-bike" d="M303.479,236.625l-.743,1.38a24.008,24.008,0,0,0-2.336,10.3v1.274c0,1.486.849,2.654,2.017,2.654h32.8c2.442,0,3.609-3.822,2.017-6.157l-1.062-1.592c-3.716-5.308-8.917-8.28-14.331-8.28Z" transform="translate(-300.4 -236.2)"/><path class="aj-bike" d="M300.5,246.7v2.229c0,1.486.849,2.654,2.017,2.654h32.8c2.017,0,3.185-2.654,2.548-4.883Z" transform="translate(-300.394 -235.553)"/></g><path class="ak-bike" d="M309.1,168.1l1.7,72.719,14.438-.212,3.185-72.506Z" transform="translate(14.249 7.244)"/><g transform="translate(321.779 247.124)"><path class="al-bike" d="M310.879,236.625l-.743,1.38a24.008,24.008,0,0,0-2.336,10.3v1.274c0,1.486.849,2.654,2.017,2.654h32.8c2.442,0,3.609-3.822,2.017-6.157l-1.062-1.592c-3.716-5.308-8.917-8.28-14.331-8.28Z" transform="translate(-307.8 -236.2)"/><path class="am-bike" d="M308,246.7v2.229c0,1.486.849,2.654,2.017,2.654h32.8c2.017,0,3.185-2.654,2.548-4.883Z" transform="translate(-307.788 -235.553)"/></g><g transform="translate(257.01 17.803)"><path class="an-bike" d="M293.453,40.043c3.822-15.181-3.079-17.729-10.616-19l-12.421-2.229A12.06,12.06,0,0,0,256.4,28.578l-7.431,41.083h.106L246,86.116l21.232,3.822L266.595,70.4l.743-4.353,12.421,2.229a8.362,8.362,0,0,0,9.767-6.794L289.844,60l.212-1.062.849-4.565,6.582,1.168Z" transform="translate(-246 -16.605)"/><path class="ao-bike" d="M267.59,37.612h0a3.643,3.643,0,0,1,2.972,4.246l-.106.849,6.157,1.062,2.017-10.934a3.27,3.27,0,0,1,3.822-2.654l17.516,3.185h0c.531-4.989-6.582-11.89-12.421-12.951l-19.639-3.5A12.06,12.06,0,0,0,253.9,26.678L248.8,54.81l4.671.849a7.367,7.367,0,0,0,8.6-5.945l1.592-9.13A3.294,3.294,0,0,1,267.59,37.612Z" transform="translate(-245.828 -16.722)"/></g><g transform="translate(292.601 55.671)"><rect class="ap-bike" width="4.14" height="8.387" transform="translate(0 4.074) rotate(-79.781)"/></g><ellipse class="ao-bike" cx="1.38" cy="1.38" rx="1.38" ry="1.38" transform="matrix(0.177, -0.984, 0.984, 0.177, 298.825, 41.902)"/><path class="ak-bike" d="M321.825,155.757,235.2,149.6v30.574h85.67a12.21,12.21,0,0,0,12.208-12.208A12.421,12.421,0,0,0,321.825,155.757Z" transform="translate(10.044 6.83)"/><path class="aq-bike" d="M274.131,70.965,246.848,66.4S226.041,92.409,227.1,143.684v63.589h44.374l-1.7-103.929Z" transform="translate(10.229 2.474)"/><path class="ar-bike" d="M268.968,102.21l.212-1.911-8.6-15.5L244.87,86.392a3.261,3.261,0,0,0-2.548,4.777l17.835,33.122s4.14,7.431,9.342,11.147Z" transform="translate(11.081 3.799)"/><path class="aq-bike" d="M277.4,106.847,263.489,81.9,243,84.023l20.17,37.368s7.219,13.164,14.65,13.164l50.956-1.592,2.336-12.527-39.385-2.866A21.746,21.746,0,0,1,277.4,106.847Z" transform="translate(10.499 3.661)"/><rect class="ao-bike" width="1.592" height="5.308" transform="matrix(0.177, -0.984, 0.984, 0.177, 282.16, 46.701)"/><rect class="ao-bike" width="1.592" height="5.308" transform="matrix(0.177, -0.984, 0.984, 0.177, 281.605, 49.448)"/><rect class="ao-bike" width="0.637" height="5.308" transform="translate(281.291 51.174) rotate(-79.781)"/><path class="ao-bike" d="M290.841,56.168l-1.168-3.609-7.113-1.274-.637-.106A3.376,3.376,0,0,0,278,53.833h0l-1.274,7.113-4.671-.849,2.017-11.041-5.2-.955L266,64.555h.106l.106-.318,12.421,2.229a8.5,8.5,0,0,0,8.6-3.716l-5.945-1.062h0l-.531-.106.955-5.308a1.85,1.85,0,0,1,2.229-1.486Z" transform="translate(12.21 3.014)"/><path class="ao-bike" d="M283.2,35.056l8.6-.955a.844.844,0,0,1,.955,1.062l-.318,1.592Z" transform="translate(13.151 2.151)"/><path class="ar-bike" d="M246.769,62.2l27.389,6.263a3.1,3.1,0,0,1,2.442,3.609l-.106.531a3.2,3.2,0,0,1-3.822,2.654l-27.92-5.2a3.164,3.164,0,0,1-2.442-4.14l.531-1.592A3.71,3.71,0,0,1,246.769,62.2Z" transform="translate(11.027 2.92)"/><path class="as-bike" d="M300.263,29.189l-1.38,19.639-34.183-5.2,5.2-18.047,6.688-1.38Z" transform="translate(12.044 1.542)"/><path class="aa-bike" d="M248.372,48.936l8.705,1.38a11.15,11.15,0,0,0,12.739-9.236l1.274-8.174a6.883,6.883,0,0,1,7.962-5.733l23.461,3.716a30.3,30.3,0,1,0-54.141,18.047Z" transform="translate(10.763 0.055)"/><path class="s-bike" d="M277.994,23.995a8.035,8.035,0,0,1,1.592.106l22.93,3.609a30.364,30.364,0,1,0-56.689,17.516l11.677,2.123a5.168,5.168,0,0,0,1.274.106,8.005,8.005,0,0,0,7.962-6.9l1.274-8.174A10.214,10.214,0,0,1,277.994,23.995Z" transform="translate(10.761 0.049)"/><path class="at-bike" d="M249.012,26.224a27.182,27.182,0,0,1,52.973,1.38l.425.106a30.313,30.313,0,1,0-56.583,17.516l5.733,1.062A27.627,27.627,0,0,1,249.012,26.224Z" transform="translate(10.762 0.049)"/><g transform="translate(248.378 148.94)"><path class="au-bike" d="M263.88,148.622a1.624,1.624,0,0,1-3.185-.637l-.849-.106a1.624,1.624,0,1,1-3.185-.637l-.849-.106a1.624,1.624,0,0,1-3.185-.637l-.849-.106a1.624,1.624,0,0,1-3.185-.637l-.849-.106a1.624,1.624,0,1,1-3.185-.637L243.5,144.8l-3.4,19.215,21.338,3.822,3.4-19.215Z" transform="translate(-237.34 -142.252)"/><path class="ad-bike" d="M260.006,142.4a1.8,1.8,0,1,1-3.609,0h-.955a1.789,1.789,0,0,1-1.8,1.8,1.728,1.728,0,0,1-1.8-1.8h-.955a1.8,1.8,0,1,1-3.609,0h-.955a1.789,1.789,0,0,1-1.8,1.8,1.728,1.728,0,0,1-1.8-1.8h-.425a1.8,1.8,0,1,1-3.609,0H237.5v21.126h23.567V142.4Z" transform="translate(-237.5 -142.4)"/><g transform="translate(2.866 6.263)"><rect class="av-bike" width="17.835" height="0.318"/><g transform="translate(0 2.229)"><rect class="av-bike" width="17.835" height="0.318"/></g><g transform="translate(0 4.459)"><rect class="av-bike" width="17.835" height="0.318"/></g><g transform="translate(0 6.688)"><rect class="av-bike" width="17.835" height="0.318"/></g><g transform="translate(0 8.811)"><rect class="av-bike" width="17.835" height="0.318"/></g><g transform="translate(0 11.04)"><rect class="av-bike" width="17.835" height="0.318"/></g></g></g><g transform="translate(261.007 153.265)"><rect class="aw-bike" width="1.274" height="0.743" transform="translate(1.994 2.35) rotate(-9.776)"/><rect class="aw-bike" width="1.274" height="0.743" transform="translate(2.411 4.593) rotate(-9.77)"/><path class="ax-bike" d="M253.223,157.966l-1.8-10.616a1.021,1.021,0,1,0-2.017.318l1.8,10.616Z" transform="translate(-249.385 -146.485)"/><path class="ay-bike" d="M250.2,146.5l2.017,11.571.955-.212-1.8-10.616A1.2,1.2,0,0,0,250.2,146.5Z" transform="translate(-249.334 -146.484)"/><path class="ax-bike" d="M252.525,147.6c-.318,0-.425.318-.425.531l.637,3.822c0,.318.318.425.531.425.318,0,.425-.318.425-.531l-.637-3.822C253.055,147.706,252.843,147.6,252.525,147.6Z" transform="translate(-249.217 -146.416)"/><rect class="az-bike" width="1.38" height="6.263" transform="translate(2.152 11.756) rotate(-9.776)"/></g><g transform="translate(245.857 169.512)"><path class="am-bike" d="M259.936,190.738H239.023a2.129,2.129,0,0,1-2.123-2.123V162.5h25.266v26.009A2.314,2.314,0,0,1,259.936,190.738Z" transform="translate(-234.989 -162.075)"/><path class="ba-bike" d="M263.02,166.983H236.055a.951.951,0,0,1-.955-.955v-2.972a.951.951,0,0,1,.955-.955H263.02a.951.951,0,0,1,.955.955v2.972A.951.951,0,0,1,263.02,166.983Z" transform="translate(-235.1 -162.1)"/></g><path class="an-bike" d="M347.661,127.2l.743-4.459a5.242,5.242,0,0,0-3.4-5.733l-5.2-1.7a5.787,5.787,0,0,0-3.291,0L325.9,118.923l-1.7,8.811.743.106a13.707,13.707,0,0,0,5.1,0l4.14-.743a2.959,2.959,0,0,0,2.335-2.229l.106-.637a1.931,1.931,0,0,1,1.911-1.592l2.123-.106a1.9,1.9,0,0,1,2.123,1.911l.212,2.229a1.512,1.512,0,0,0,.955,1.38l1.274.637A1.985,1.985,0,0,0,347.661,127.2Z" transform="translate(14.888 5.361)"/><path class="ar-bike" d="M324.26,117.4l2.229.106a.68.68,0,0,1,.637.849l-3.079,12.739a.8.8,0,0,1-.743.531h-1.062a.82.82,0,0,1-.743-.849l1.911-12.845A.841.841,0,0,1,324.26,117.4Z" transform="translate(14.972 5.465)"/><path class="bb-bike" d="M268.6,178.708l47.453-5.308a2.068,2.068,0,0,1,2.336,2.123l-1.7,64.863-3.291.106-1.486-61.678H268.6Z" transform="translate(12.07 7.536)"/><path class="bc-bike" d="M211.552,120.5l-75.479,7.006L126.2,186.531V120.5Z" transform="translate(5.47 5.261)"/><path class="bd-bike" d="M210.682,153.026H127.135a2.356,2.356,0,0,1-2.335-2.335V134.236a2.356,2.356,0,0,1,2.335-2.336h83.547a2.356,2.356,0,0,1,2.335,2.336V150.69A2.289,2.289,0,0,1,210.682,153.026Z" transform="translate(5.391 6.09)"/><path class="be-bike" d="M126.9,153.013h83.759a2.129,2.129,0,0,0,2.123-2.123V134.223a2.129,2.129,0,0,0-2.123-2.123Z" transform="translate(5.497 6.101)"/><path class="bf-bike" d="M214.135,111.9l-80.787,2.866L123.9,108.5h90.235Z" transform="translate(5.34 5.094)"/><path class="bg-bike" d="M121.9,278.365a4.565,4.565,0,0,1,9.13,0Z" transform="translate(5.663 12.1)"/><path class="bg-bike" d="M128.8,278.266a2.866,2.866,0,0,1,5.733,0Z" transform="translate(5.998 12.198)"/><path class="bg-bike" d="M88.9,278.685a10.085,10.085,0,0,1,20.17,0Z" transform="translate(4.096 11.78)"/><path class="bg-bike" d="M104.2,278.463a6.263,6.263,0,0,1,12.527,0Z" transform="translate(4.828 12.001)"/><path class="bg-bike" d="M137.3,278.279a3.079,3.079,0,1,1,6.157,0Z" transform="translate(6.392 12.186)"/></g></svg>