<svg xmlns="http://www.w3.org/2000/svg" width="48" height="48" viewBox="0 0 48 48"><g transform="translate(0 0)"><path fill="none" d="M0,0H48V48H0Z"/><g transform="translate(14.971 14.929)"><path fill="#f73b3b" d="M11.808,9.016,17.923,2.9a.376.376,0,0,0,0-.532L15.664.11a.376.376,0,0,0-.532,0L9.017,6.225,2.9.11a.387.387,0,0,0-.532,0L.111,2.37a.376.376,0,0,0,0,.532L6.226,9.016.111,15.131a.376.376,0,0,0,0,.532l2.259,2.259a.376.376,0,0,0,.532,0l6.115-6.115,6.115,6.115a.376.376,0,0,0,.532,0l2.259-2.259a.376.376,0,0,0,0-.532Z" transform="translate(-0.001 0)"/></g><path fill="#f73b3b" d="M22.169,2A20.169,20.169,0,1,0,42.338,22.169,20.176,20.176,0,0,0,22.169,2Zm0,36.3A16.135,16.135,0,1,1,38.3,22.169,16.156,16.156,0,0,1,22.169,38.3Z" transform="translate(1.831 1.831)"/></g></svg>