<svg xmlns="http://www.w3.org/2000/svg" width="56.323" height="48.434" viewBox="0 0 56.323 48.434"><g transform="translate(0 -35.857)"><g transform="translate(0 35.857)"><g transform="translate(0 0)"><path fill="#fb9600" d="M55.6,76.618,32.494,38.3a5.06,5.06,0,0,0-8.666,0L.725,76.618a5.06,5.06,0,0,0,4.333,7.673H51.264A5.06,5.06,0,0,0,55.6,76.618Zm-3.12,3.3a1.4,1.4,0,0,1-1.213.708H5.058a1.393,1.393,0,0,1-1.193-2.112L26.968,40.2a1.393,1.393,0,0,1,2.386,0l23.1,38.314A1.4,1.4,0,0,1,52.477,79.916Z" transform="translate(0 -35.857)"/></g></g><g transform="translate(25.695 50.944)"><g transform="translate(0 0)"><path fill="#fb9600" d="M236.062,173.005c-1.395,0-2.483.748-2.483,2.075,0,4.048.476,9.866.476,13.915,0,1.055.919,1.5,2.007,1.5.816,0,1.973-.442,1.973-1.5,0-4.048.476-9.866.476-13.915A2.186,2.186,0,0,0,236.062,173.005Z" transform="translate(-233.578 -173.005)"/></g></g><g transform="translate(25.593 70.778)"><g transform="translate(0 0)"><path fill="#fb9600" d="M235.271,353.306a2.62,2.62,0,0,0,0,5.239,2.62,2.62,0,0,0,0-5.239Z" transform="translate(-232.651 -353.306)"/></g></g></g></svg>