<svg xmlns="http://www.w3.org/2000/svg" width="80" height="80" viewBox="0 0 80 80"><g transform="translate(-248 -16)"><rect fill="#f5fafe" width="80" height="80" rx="2" transform="translate(248 16)"/><g transform="translate(12.913 13.37)"><g transform="translate(249.182 22.391)"><g transform="translate(27.838 11.206)"><path fill="#c5e1f1" d="M156.1,179.212a11.47,11.47,0,0,0-6.977-1.939l-5.118-.05h-8.109v5.951h14.641a2.616,2.616,0,0,1,2.615,2.615v1.845a2.615,2.615,0,0,1-2.615,2.615H135.894V207.3h6.093V195.724h7.082q4.911,0,7.364-1.6t2.456-5.531V185.18A6.853,6.853,0,0,0,156.1,179.212Z" transform="translate(-135.894 -177.223)"/></g><path fill="#bfd4df" d="M77.834,180.818a11.471,11.471,0,0,0,6.978,1.939l5.117.05h8.11v-5.951H83.4a2.615,2.615,0,0,1-2.615-2.615v-1.846a2.615,2.615,0,0,1,2.615-2.615H98.038v-17.05H91.945v11.577H84.864q-4.911,0-7.365,1.6t-2.456,5.531v3.411A6.854,6.854,0,0,0,77.834,180.818Z" transform="translate(-75.043 -152.729)"/></g></g></g></svg>