<svg xmlns="http://www.w3.org/2000/svg" width="13.773" height="13.772" viewBox="0 0 13.773 13.772"><g transform="translate(0 0)"><path fill="none" d="M0,0H13.773V13.773H0ZM0,0H13.773V13.773H0Z"/><path fill="#202020" d="M9.034,3H3.869a1.14,1.14,0,0,0-1.056.7L1.08,7.746A1.134,1.134,0,0,0,1,8.165V9.312A1.151,1.151,0,0,0,2.148,10.46H5.769l-.545,2.623-.017.184a.864.864,0,0,0,.252.608l.608.6L9.849,10.7a1.141,1.141,0,0,0,.333-.809V4.148A1.151,1.151,0,0,0,9.034,3Zm0,6.886L6.543,12.377l.769-3.064H2.148V8.165L3.869,4.148H9.034ZM11.329,3h2.3V9.886h-2.3Z" transform="translate(-0.426 -1.278)"/></g></svg>