<svg xmlns="http://www.w3.org/2000/svg" width="44.328" height="36.001" viewBox="0 0 44.328 36.001"><g transform="translate(-75.043 -152.729)"><g transform="translate(99.319 162.501)"><path fill="#4dc3e8" d="M153.513,178.958a10,10,0,0,0-6.084-1.691l-4.463-.044h-7.072v5.19h12.767a2.281,2.281,0,0,1,2.281,2.281V186.3a2.281,2.281,0,0,1-2.281,2.281H135.894v14.868h5.313V193.357h6.176q4.283,0,6.422-1.4t2.142-4.823v-2.974A5.976,5.976,0,0,0,153.513,178.958Z" transform="translate(-135.894 -177.223)"/></g><g transform="translate(75.043 152.729)"><path fill="#0b427c" d="M77.477,177.223a10,10,0,0,0,6.085,1.691l4.463.044H95.1v-5.19H82.328a2.281,2.281,0,0,1-2.28-2.281v-1.61a2.28,2.28,0,0,1,2.28-2.28H95.1V152.729H89.782v10.1H83.607q-4.283,0-6.422,1.4t-2.142,4.823v2.974A5.977,5.977,0,0,0,77.477,177.223Z" transform="translate(-75.043 -152.729)"/></g></g></svg>