<svg xmlns="http://www.w3.org/2000/svg" width="26" height="26" viewBox="0 0 26 26"><path fill="#0b427c" d="M223,343.22a1.353,1.353,0,0,0,0,2.705,1.353,1.353,0,1,0,0-2.705Z" transform="translate(-210.401 -325.775)"/><path fill="#0b427c" d="M187.763,140c2.371,0,3.46,1.405,3.46,2.354a1.007,1.007,0,0,1-1.054,1c-.948,0-.562-1.353-2.354-1.353-.878,0-1.581.386-1.581,1.195,0,.949.984,1.493,1.563,1.985a3.216,3.216,0,0,1,1.177,2.67c0,.913-.246,1.177-.966,1.177-.861,0-1.036-.386-1.036-.72a2.206,2.206,0,0,0-.984-2.2c-.474-.369-1.967-1.563-1.967-3.215S185.515,140,187.763,140Z" transform="translate(-175.468 -132.864)"/><path fill="#0b427c" d="M13,0A12.993,12.993,0,0,0,0,13V24.984A1.016,1.016,0,0,0,1.016,26H13A13,13,0,0,0,13,0Zm0,23.969H2.031V13A10.969,10.969,0,1,1,13,23.969Z"/></svg>