<svg id="Home_icon" xmlns="http://www.w3.org/2000/svg" width="24" height="24" viewBox="0 0 24 24"><path id="Path_979" data-name="Path 979" d="M0,0H24V24H0Z" fill="none"/><g id="home" transform="translate(3.001 -23.798)"><g id="Group_448" data-name="Group 448" transform="translate(-0.001 27.798)"><g id="Group_447" data-name="Group 447" transform="translate(0)"><path id="Path_981" data-name="Path 981" d="M18.438,34.359,9.6,27.891a.484.484,0,0,0-.572,0L.2,34.359a.484.484,0,1,0,.572.781l8.548-6.259,8.548,6.259a.484.484,0,0,0,.572-.781Z" transform="translate(0.001 -27.798)" fill="#27528d" stroke="#27528d" stroke-width="0.5"/></g></g><g id="Group_450" data-name="Group 450" transform="translate(2.054 35.25)"><g id="Group_449" data-name="Group 449" transform="translate(0 0)"><path id="Path_982" data-name="Path 982" d="M70.495,232.543a.484.484,0,0,0-.484.484v7.708H66.137v-4.207a2.421,2.421,0,0,0-4.843,0v4.207H57.42v-7.708a.484.484,0,1,0-.968,0v8.192a.484.484,0,0,0,.484.484h4.842a.484.484,0,0,0,.482-.447.363.363,0,0,0,0-.038v-4.692a1.453,1.453,0,1,1,2.906,0v4.692a.359.359,0,0,0,0,.037.484.484,0,0,0,.482.447h4.842a.484.484,0,0,0,.484-.484v-8.192A.484.484,0,0,0,70.495,232.543Z" transform="translate(-56.452 -232.543)" fill="#27528d" stroke="#27528d" stroke-width="0.5"/></g></g></g></svg>
