<svg xmlns="http://www.w3.org/2000/svg" width="13.773" height="13.772" viewBox="0 0 13.773 13.772"><g transform="translate(0 0)"><path fill="none" d="M0,0H13.773V13.773H0ZM0,0H13.773V13.773H0Z"/><path fill="#202020" d="M5.591,12.477h5.165a1.14,1.14,0,0,0,1.056-.7l1.733-4.046a1.134,1.134,0,0,0,.08-.419V6.165a1.151,1.151,0,0,0-1.148-1.148H8.856L9.4,2.394l.017-.184A.864.864,0,0,0,9.166,1.6L8.558,1,4.776,4.782a1.141,1.141,0,0,0-.333.809v5.739A1.151,1.151,0,0,0,5.591,12.477Zm0-6.886L8.081,3.1,7.312,6.165h5.165V7.312l-1.722,4.017H5.591ZM1,5.591H3.3v6.886H1Z" transform="translate(-0.426 -0.426)"/></g></svg>