<svg xmlns="http://www.w3.org/2000/svg" width="17.44" height="17.44" viewBox="0 0 17.44 17.44"><g id="list" transform="translate(0.25 0.25)"><path id="Path_945" data-name="Path 945" d="M16.6,0H.345A.345.345,0,0,0,0,.345V16.6a.345.345,0,0,0,.345.345H14.158a.345.345,0,1,0,0-.689H.689V.689H16.251V16.6a.345.345,0,0,0,.689,0V.345A.345.345,0,0,0,16.6,0Z" fill="#27528d" stroke="#27528d" stroke-width="0.5"/><path id="Path_946" data-name="Path 946" d="M44.15,62.421a1.335,1.335,0,1,0,1.335,1.335A1.336,1.336,0,0,0,44.15,62.421Zm0,1.973a.638.638,0,1,1,.638-.638A.639.639,0,0,1,44.15,64.394Z" transform="translate(-40.33 -58.841)" fill="#27528d" stroke="#27528d" stroke-width="0.5"/><path id="Path_947" data-name="Path 947" d="M109.288,79.421h-8.125a.348.348,0,1,0,0,.7h8.125a.348.348,0,1,0,0-.7Z" transform="translate(-95.135 -74.86)" fill="#27528d" stroke="#27528d" stroke-width="0.5"/><path id="Path_948" data-name="Path 948" d="M44.15,124.421a.348.348,0,1,0,0,.7.638.638,0,1,1-.638.638.348.348,0,1,0-.7,0,1.335,1.335,0,1,0,1.335-1.335Z" transform="translate(-40.33 -117.286)" fill="#27528d" stroke="#27528d" stroke-width="0.5"/><path id="Path_949" data-name="Path 949" d="M109.288,141.421h-8.125a.348.348,0,0,0,0,.7h8.125a.348.348,0,1,0,0-.7Z" transform="translate(-95.135 -133.299)" fill="#27528d" stroke="#27528d" stroke-width="0.5"/><path id="Path_950" data-name="Path 950" d="M44.15,186.421a1.335,1.335,0,1,0,1.335,1.335A1.336,1.336,0,0,0,44.15,186.421Zm0,1.973a.638.638,0,1,1,.638-.638A.639.639,0,0,1,44.15,188.394Z" transform="translate(-40.33 -175.73)" fill="#27528d" stroke="#27528d" stroke-width="0.5"/><path id="Path_951" data-name="Path 951" d="M109.288,203.421h-8.125a.348.348,0,1,0,0,.7h8.125a.348.348,0,1,0,0-.7Z" transform="translate(-95.135 -191.738)" fill="#27528d" stroke="#27528d" stroke-width="0.5"/></g></svg>
