<svg xmlns="http://www.w3.org/2000/svg" width="75.938" height="57.009" viewBox="0 0 75.938 57.009"><g id="Logo" transform="translate(-195 -22.048)"><g id="Typo" transform="translate(-177.101 -492.947)"><path id="Path_1179" data-name="Path 1179" d="M693.749,553.256v17.4a2.829,2.829,0,0,0,2.829-2.829v-17.4A2.829,2.829,0,0,0,693.749,553.256Z" transform="translate(-261.197)" fill="#fefefe"/><path id="Path_1180" data-name="Path 1180" d="M569.722,580.951a6.856,6.856,0,1,0,3,13.024V590.7a4.164,4.164,0,1,1,1.152-3.247h0q.014.165.015.334v4.855a2.692,2.692,0,0,0,2.692,2.692V587.74h0A6.855,6.855,0,0,0,569.722,580.951Z" transform="translate(-154.911 -24.786)" fill="#fefefe"/><path id="Path_1181" data-name="Path 1181" d="M648.849,584.019V588.3c0,.118-.006.235-.016.35h0a4.375,4.375,0,0,1-2.32,3.5,3.728,3.728,0,0,0-2.038,3.28v.051a7.2,7.2,0,0,0,7.2-7.132h0V581.19A2.829,2.829,0,0,0,648.849,584.019Z" transform="translate(-221.184 -24.981)" fill="#fefefe"/><path id="Path_1182" data-name="Path 1182" d="M403.23,584.1a2.853,2.853,0,0,0-.018.325l-.012.963a2.72,2.72,0,0,1-.344,1.344,4.4,4.4,0,0,1-3.833,2.242c-.072,0-.143,0-.215,0h0v2.788h0v-2.8a4.4,4.4,0,0,1-3.381-2.215,2.721,2.721,0,0,1-.344-1.344l-.012-.963a2.852,2.852,0,0,0-.018-.325v-2.547a2.843,2.843,0,0,0-1.428.38,2.872,2.872,0,0,0-1.351,1.769c-.005.019-.012.037-.017.056-.012.049-.017.1-.026.148s-.026.127-.034.193h0a2.851,2.851,0,0,0-.018.325l-.012.964a2.721,2.721,0,0,1-.344,1.344,4.4,4.4,0,0,1-3.834,2.242c-.072,0-.143,0-.215,0a4.379,4.379,0,0,1-1.259-.252v-7.18a2.829,2.829,0,0,0-2.829,2.829V590.1q0,.177-.016.351h0a4.378,4.378,0,1,1-2.009-4.064v-3.12a7.2,7.2,0,1,0,4.69,8.334c.055.013.11.028.166.039a7.215,7.215,0,0,0,7.106-2.573h0a7.261,7.261,0,0,0,1.317,1.285l.007.005h0q.2.15.412.286c.1.066.21.128.316.189.039.023.077.047.117.069.1.057.212.109.32.161.045.022.088.046.134.067.1.047.208.089.313.131.053.022.105.046.159.066.1.038.2.07.305.1.061.02.121.043.183.061.1.029.2.053.3.078.069.017.136.036.205.052.1.021.2.037.3.055.074.013.147.028.221.039.1.014.2.023.3.033.066.007.131.017.2.022h0l.077.006h0v0h0c.072,0,.145,0,.219,0a7.18,7.18,0,0,0,5.636-2.723,6.776,6.776,0,0,0,.54-.775,6.387,6.387,0,0,0,.888-3.292v-3.431a2.877,2.877,0,0,0-2.856,2.547Z" transform="translate(0 -25.274)" fill="#fefefe"/><path id="Path_1183" data-name="Path 1183" d="M730.139,587.784a6.873,6.873,0,0,0-2.607-5.4,6.393,6.393,0,0,0-.742-.517,4.812,4.812,0,0,0-2.759-.85h-3.284a2.754,2.754,0,0,0,2.438,2.734,2.672,2.672,0,0,0,.311.017,7.624,7.624,0,0,1,1.818.341,4.21,4.21,0,0,1,2.146,3.67c0,.069,0,.137,0,.206v0h-.008a4.21,4.21,0,0,1-2.121,3.237,2.6,2.6,0,0,1-1.287.329h-.026v.008h-1.783a2.742,2.742,0,0,0-2.742,2.742h4.525v0l.019,0h.015a6.054,6.054,0,0,0,2.756-.836,6.43,6.43,0,0,0,.742-.517,6.937,6.937,0,0,0,1.23-1.261l.006-.008a6.873,6.873,0,0,0,1.351-3.613l.006-.081h0C730.137,587.925,730.139,587.855,730.139,587.784Z" transform="translate(-282.1 -24.844)" fill="#fefefe"/><path id="Path_1184" data-name="Path 1184" d="M530.431,647.118a1.7,1.7,0,1,0,1.7,1.7A1.7,1.7,0,0,0,530.431,647.118Z" transform="translate(-127.191 -78.518)" fill="#fefefe"/><path id="Path_1185" data-name="Path 1185" d="M512.243,647.118a1.7,1.7,0,1,0,1.7,1.7A1.7,1.7,0,0,0,512.243,647.118Z" transform="translate(-112.421 -78.518)" fill="#fefefe"/><path id="Path_1186" data-name="Path 1186" d="M494.054,647.118a1.7,1.7,0,1,0,1.7,1.7A1.7,1.7,0,0,0,494.054,647.118Z" transform="translate(-97.651 -78.518)" fill="#fefefe"/><path id="Path_1187" data-name="Path 1187" d="M467.657,647.118a1.7,1.7,0,1,0,1.7,1.7A1.7,1.7,0,0,0,467.657,647.118Z" transform="translate(-76.215 -78.518)" fill="#fefefe"/><path id="Path_1188" data-name="Path 1188" d="M449.469,647.118a1.7,1.7,0,1,0,1.7,1.7A1.7,1.7,0,0,0,449.469,647.118Z" transform="translate(-61.445 -78.518)" fill="#fefefe"/><circle id="Ellipse_110" data-name="Ellipse 110" cx="1.702" cy="1.702" r="1.702" transform="translate(377.648 562.898)" fill="#fefefe"/></g><g id="DP" transform="translate(138.957 -130.681)"><g id="Group_491" data-name="Group 491" transform="translate(95.687 161.039)"><path id="Path_1175" data-name="Path 1175" d="M150.877,178.7a8.506,8.506,0,0,0-5.174-1.438l-3.8-.037h-6.014v4.413h10.857a1.94,1.94,0,0,1,1.939,1.939v1.369a1.939,1.939,0,0,1-1.939,1.939H135.894v12.643h4.518v-8.584h5.252a10.1,10.1,0,0,0,5.461-1.188q1.82-1.188,1.821-4.1v-2.529A5.082,5.082,0,0,0,150.877,178.7Z" transform="translate(-135.894 -177.223)" fill="#fff"/></g><g id="Group_492" data-name="Group 492" transform="translate(75.043 152.729)"><path id="Path_1176" data-name="Path 1176" d="M77.112,173.558A8.506,8.506,0,0,0,82.287,175l3.795.037H92.1V170.62H81.238a1.939,1.939,0,0,1-1.939-1.939v-1.369a1.939,1.939,0,0,1,1.939-1.939H92.1V152.729H87.577v8.585H82.326a10.1,10.1,0,0,0-5.461,1.188q-1.82,1.189-1.821,4.1v2.529A5.082,5.082,0,0,0,77.112,173.558Z" transform="translate(-75.043 -152.729)" fill="#fff"/></g></g></g></svg>
