<svg xmlns="http://www.w3.org/2000/svg" width="24" height="24" viewBox="0 0 24 24"><g id="Address_icon" transform="translate(-53 -11)"><rect id="bg" width="24" height="24" transform="translate(53 11)" fill="none"/><g id="logout_1_" data-name="logout (1)" transform="translate(18.203 13.758)"><g id="Group_453" data-name="Group 453" transform="translate(41)"><g id="Group_452" data-name="Group 452"><path id="Path_983" data-name="Path 983" d="M51.984,4.17a.688.688,0,0,0,.688-.688V1.7A1.71,1.71,0,0,0,50.954,0H42.718A1.71,1.71,0,0,0,41,1.7V15.918a1.71,1.71,0,0,0,1.718,1.7h8.237a1.71,1.71,0,0,0,1.718-1.7V14.135a.688.688,0,0,0-1.376,0v1.783a.333.333,0,0,1-.341.323H42.718a.333.333,0,0,1-.341-.323V1.7a.333.333,0,0,1,.341-.323h8.237A.333.333,0,0,1,51.3,1.7V3.482A.688.688,0,0,0,51.984,4.17Z" transform="translate(-41)" fill="#27528d"/></g></g><g id="Group_455" data-name="Group 455" transform="translate(46.148 4.549)"><g id="Group_454" data-name="Group 454"><path id="Path_984" data-name="Path 984" d="M200.056,135.966l-3.662-3.572a.688.688,0,0,0-.961.985l2.452,2.391H191.3a.688.688,0,0,0,0,1.376h6.58l-2.452,2.391a.688.688,0,0,0,.961.985l3.662-3.572A.688.688,0,0,0,200.056,135.966Z" transform="translate(-190.616 -132.199)" fill="#27528d"/></g></g></g></g></svg>
