<svg xmlns="http://www.w3.org/2000/svg" width="108.387" height="25.49" viewBox="0 0 108.387 25.49"><g id="Logo" transform="translate(-140 -11.048)"><g id="Typo" transform="translate(-232.101 -535.947)"><path id="Path_1179" data-name="Path 1179" d="M693.749,552.9v15.187a2.469,2.469,0,0,0,2.469-2.469V550.428A2.469,2.469,0,0,0,693.749,552.9Z" transform="translate(-268.892)" fill="#0b427c"/><path id="Path_1180" data-name="Path 1180" d="M568.849,580.951a5.983,5.983,0,1,0,2.615,11.366v-2.859a3.634,3.634,0,1,1,1.006-2.834h0q.012.144.013.291v4.237a2.349,2.349,0,0,0,2.349,2.349v-6.627h0A5.983,5.983,0,0,0,568.849,580.951Z" transform="translate(-159.475 -25.517)" fill="#0b427c"/><path id="Path_1181" data-name="Path 1181" d="M648.293,583.659V587.4c0,.1,0,.2-.014.306h0a3.819,3.819,0,0,1-2.025,3.052,3.253,3.253,0,0,0-1.778,2.863v.045a6.286,6.286,0,0,0,6.284-6.224h0V581.19A2.469,2.469,0,0,0,648.293,583.659Z" transform="translate(-227.7 -25.717)" fill="#0b427c"/><path id="Path_1182" data-name="Path 1182" d="M399.267,583.774a2.491,2.491,0,0,0-.016.284l-.011.841a2.374,2.374,0,0,1-.3,1.173,3.839,3.839,0,0,1-3.345,1.957c-.063,0-.125,0-.187,0h0v2.433h0v-2.44a3.837,3.837,0,0,1-2.951-1.933,2.374,2.374,0,0,1-.3-1.173l-.011-.841a2.487,2.487,0,0,0-.016-.284v-2.223a2.481,2.481,0,0,0-1.246.332,2.507,2.507,0,0,0-1.179,1.544c0,.017-.011.032-.015.049-.01.042-.015.086-.022.13s-.023.111-.029.168h0a2.488,2.488,0,0,0-.016.284l-.011.841a2.375,2.375,0,0,1-.3,1.173,3.839,3.839,0,0,1-3.346,1.956c-.062,0-.125,0-.187,0a3.821,3.821,0,0,1-1.1-.22v-6.266a2.469,2.469,0,0,0-2.469,2.469v4.988q0,.155-.014.306h0a3.821,3.821,0,1,1-1.753-3.547v-2.723a6.288,6.288,0,1,0,4.093,7.273c.048.011.1.024.145.034a6.3,6.3,0,0,0,6.2-2.246h0a6.338,6.338,0,0,0,1.15,1.121l.006,0h0q.175.131.359.25c.09.058.183.111.276.165.034.02.067.041.1.061.091.05.185.1.279.141.039.019.077.04.117.059.089.041.181.078.273.115.046.019.092.04.139.057.087.033.177.061.266.09.053.018.106.037.16.053.086.025.173.046.261.068.06.015.119.032.179.045.085.018.172.032.258.048.064.011.128.025.193.034.086.012.173.02.259.029.057.006.114.015.172.019h0l.067,0h0v0h0c.063,0,.127,0,.191,0a6.266,6.266,0,0,0,4.918-2.376,5.91,5.91,0,0,0,.471-.677,5.574,5.574,0,0,0,.775-2.873v-2.994a2.51,2.51,0,0,0-2.492,2.223Z" transform="translate(0 -26.018)" fill="#0b427c"/><path id="Path_1183" data-name="Path 1183" d="M728.784,586.923a6,6,0,0,0-2.275-4.708,5.6,5.6,0,0,0-.648-.451,4.2,4.2,0,0,0-2.408-.742h-2.866a2.4,2.4,0,0,0,2.128,2.386,2.346,2.346,0,0,0,.272.015,6.651,6.651,0,0,1,1.586.3,3.675,3.675,0,0,1,1.873,3.2c0,.06,0,.12,0,.18v0h-.007a3.674,3.674,0,0,1-1.851,2.825,2.273,2.273,0,0,1-1.123.287h-.023v.007h-1.556a2.393,2.393,0,0,0-2.393,2.393h3.949v0l.017,0h.013a5.283,5.283,0,0,0,2.405-.729,5.614,5.614,0,0,0,.648-.451,6.051,6.051,0,0,0,1.073-1.1l.005-.007a6,6,0,0,0,1.179-3.153l.005-.07h0C728.782,587.046,728.784,586.985,728.784,586.923Z" transform="translate(-290.411 -25.576)" fill="#0b427c"/><path id="Path_1184" data-name="Path 1184" d="M530.214,647.118A1.485,1.485,0,1,0,531.7,648.6,1.485,1.485,0,0,0,530.214,647.118Z" transform="translate(-130.938 -80.831)" fill="#0b427c"/><path id="Path_1185" data-name="Path 1185" d="M512.026,647.118a1.485,1.485,0,1,0,1.485,1.485A1.485,1.485,0,0,0,512.026,647.118Z" transform="translate(-115.733 -80.831)" fill="#0b427c"/><path id="Path_1186" data-name="Path 1186" d="M493.837,647.118a1.485,1.485,0,1,0,1.485,1.485A1.485,1.485,0,0,0,493.837,647.118Z" transform="translate(-100.527 -80.831)" fill="#0b427c"/><path id="Path_1187" data-name="Path 1187" d="M467.44,647.118a1.485,1.485,0,1,0,1.485,1.485A1.485,1.485,0,0,0,467.44,647.118Z" transform="translate(-78.46 -80.831)" fill="#0b427c"/><path id="Path_1188" data-name="Path 1188" d="M449.252,647.118a1.485,1.485,0,1,0,1.485,1.485A1.485,1.485,0,0,0,449.252,647.118Z" transform="translate(-63.255 -80.831)" fill="#0b427c"/><circle id="Ellipse_110" data-name="Ellipse 110" cx="1.485" cy="1.485" r="1.485" transform="translate(376.942 561.31)" fill="#0b427c"/></g><g id="DP" transform="translate(141.957 -141.681)"><g id="Group_491" data-name="Group 491" transform="translate(92.232 159.648)"><path id="Path_1175" data-name="Path 1175" d="M148.369,178.451a7.082,7.082,0,0,0-4.308-1.2l-3.16-.031h-5.007V180.9h9.04a1.615,1.615,0,0,1,1.615,1.615v1.14a1.615,1.615,0,0,1-1.615,1.615h-9.04v10.527h3.762v-7.148h4.373a8.407,8.407,0,0,0,4.547-.99,3.766,3.766,0,0,0,1.517-3.415v-2.106A4.231,4.231,0,0,0,148.369,178.451Z" transform="translate(-135.894 -177.223)" fill="#4dc3e8"/></g><g id="Group_492" data-name="Group 492" transform="translate(75.043 152.729)"><path id="Path_1176" data-name="Path 1176" d="M76.766,170.072a7.083,7.083,0,0,0,4.308,1.2l3.16.031h5.007v-3.675H80.2a1.615,1.615,0,0,1-1.615-1.615v-1.14a1.615,1.615,0,0,1,1.615-1.615h9.04V152.729H85.479v7.148H81.107a8.409,8.409,0,0,0-4.547.989,3.766,3.766,0,0,0-1.517,3.415v2.106A4.232,4.232,0,0,0,76.766,170.072Z" transform="translate(-75.043 -152.729)" fill="#0b427c"/></g></g></g></svg>
