<svg xmlns="http://www.w3.org/2000/svg" width="15.302" height="18.534" viewBox="0 0 15.302 18.534"><g transform="translate(0 0)"><path fill="#fefefe" d="M56.878,2.143A7.6,7.6,0,0,0,51.269.006,7.7,7.7,0,0,0,43.93,7.222V7.81A6.827,6.827,0,0,0,45.6,12.036l5.985,6.5,6.1-6.633a6.65,6.65,0,0,0,1.554-4.243A7.586,7.586,0,0,0,56.878,2.143Zm.035,9.046-5.332,5.779-5.22-5.662a5.756,5.756,0,0,1-1.4-3.531V7.269a6.662,6.662,0,0,1,6.35-6.256h.271A6.621,6.621,0,0,1,58.2,7.628,5.585,5.585,0,0,1,56.913,11.188Z" transform="translate(-43.93 0)"/><g transform="translate(3.416 2.888)"><path fill="#fefefe" d="M177.012,115.568V112.18h-1.694v3.388H171.93v1.694h3.388v3.388h1.694v-3.388H180.4v-1.694Z" transform="translate(-171.93 -112.18)"/></g></g></svg>