<svg xmlns="http://www.w3.org/2000/svg" width="85" height="84.996" viewBox="0 0 85 84.996">
  <g id="On_demand" transform="translate(0 0)">
    <rect id="Rectangle_145" data-name="Rectangle 145" width="74.864" height="49.117" transform="translate(5.065 34.296)" fill="#fefefe"/>
    <path id="Path_504" data-name="Path 504" d="M102.853,10H36.011A3.9,3.9,0,0,0,32,13.8v7.6h74.864V13.8A3.91,3.91,0,0,0,102.853,10Z" transform="translate(-26.935 -8.417)" fill="#dde9ff"/>
    <path id="Path_505" data-name="Path 505" d="M91.828,90.864H10L13.659,82h74.51Z" transform="translate(-8.417 -68.31)" fill="#dde9ff"/>
    <path id="Path_506" data-name="Path 506" d="M186.979,138v3.957c0,3.577-2.912,6.015-6.49,6.015h0c-3.577,0-6.49-2.438-6.49-6.015V138Z" transform="translate(-144.859 -114.941)" fill="#00dbb5"/>
    <path id="Path_507" data-name="Path 507" d="M268.979,138v3.957c0,3.577-2.912,6.015-6.49,6.015h0c-3.577,0-6.49-2.438-6.49-6.015V138Z" transform="translate(-213.126 -114.941)" fill="#e7f8ff"/>
    <path id="Path_508" data-name="Path 508" d="M350.979,138v3.957c0,3.577-2.912,6.015-6.49,6.015h0c-3.577,0-6.49-2.438-6.49-6.015V138Z" transform="translate(-281.393 -114.941)" fill="#00dbb5"/>
    <path id="Path_509" data-name="Path 509" d="M432.979,138v3.957c0,3.577-2.912,6.015-6.49,6.015h0c-3.577,0-6.49-2.438-6.49-6.015V138Z" transform="translate(-349.568 -114.941)" fill="#e7f8ff"/>
    <path id="Path_510" data-name="Path 510" d="M22.979,138v3.957c0,3.577-2.912,6.015-6.49,6.015h0c-3.577,0-6.49-2.438-6.49-6.015V138Z" transform="translate(-8.417 -114.941)" fill="#00dbb5"/>
    <path id="Path_511" data-name="Path 511" d="M104.979,138v3.957c0,3.577-2.912,6.015-6.49,6.015h0c-3.577,0-6.49-2.438-6.49-6.015V138Z" transform="translate(-76.592 -114.941)" fill="#e7f8ff"/>
    <path id="Path_512" data-name="Path 512" d="M374.694,354.681l-3.862,3.862,8.025,8.025-7.17,7.155-8.025-8.025-2.881,2.881L355.7,349.6Z" transform="translate(-295.446 -290.31)" fill="#fedeaa"/>
    <path id="Path_513" data-name="Path 513" d="M110.522,292H126.7l2.248-11H107.8Z" transform="translate(-89.611 -234.011)" fill="#ff9090"/>
    <path id="Path_514" data-name="Path 514" d="M63.845,81.676H6.972V34.911a10.9,10.9,0,0,0,1.494.116,8.545,8.545,0,0,0,6.806-3.1,8.545,8.545,0,0,0,6.806,3.1,8.545,8.545,0,0,0,6.806-3.1,8.545,8.545,0,0,0,6.806,3.1,8.545,8.545,0,0,0,6.806-3.1,9.013,9.013,0,0,0,13.612,0,9.013,9.013,0,0,0,13.612,0,8.545,8.545,0,0,0,6.806,3.1,8.787,8.787,0,0,0,1.494-.116V48.175a1.66,1.66,0,1,0,3.32,0V33.7a7.715,7.715,0,0,0,3.652-6.64v-4.15h0a1.612,1.612,0,0,0-.116-.614l-3.536-9V5.644A5.661,5.661,0,0,0,75.7,0H9.3A5.65,5.65,0,0,0,3.652,5.644V13.3l-3.536,9A1.612,1.612,0,0,0,0,22.909H0v4.15A7.715,7.715,0,0,0,3.652,33.7V83.336A1.665,1.665,0,0,0,5.312,85H63.845a1.66,1.66,0,0,0,0-3.32ZM22.079,31.707c-2.988,0-5.146-1.959-5.146-4.648v-2.49H27.225v2.49C27.225,29.749,25.067,31.707,22.079,31.707ZM6.441,15.273H78.553l2.341,5.976H4.1Zm29.25,16.435c-2.988,0-5.146-1.959-5.146-4.648v-2.49H40.837v2.49C40.837,29.749,38.679,31.707,35.691,31.707Zm13.612,0c-2.988,0-5.146-1.959-5.146-4.648v-2.49H54.449v2.49C54.449,29.749,52.291,31.707,49.3,31.707Zm13.612,0c-2.988,0-5.146-1.959-5.146-4.648v-2.49H68.062v2.49C68.062,29.749,65.9,31.707,62.915,31.707Zm18.758-4.648c0,2.689-2.158,4.648-5.146,4.648s-5.146-1.959-5.146-4.648v-2.49H81.674ZM6.972,5.644A2.331,2.331,0,0,1,9.3,3.32H75.7a2.331,2.331,0,0,1,2.324,2.324v6.308H6.972ZM3.32,24.569H13.612v2.49c0,2.689-2.158,4.648-5.146,4.648S3.32,29.749,3.32,27.059Z" transform="translate(0)"/>
    <path id="Path_515" data-name="Path 515" d="M371.626,357.006l-6.9-6.9,2.738-2.738a1.607,1.607,0,0,0,.411-1.535,1.582,1.582,0,0,0-1.124-1.124l-18.978-5.081a1.59,1.59,0,0,0-1.947,1.947l5.081,18.979a1.582,1.582,0,0,0,1.124,1.124,1.617,1.617,0,0,0,1.535-.412l1.757-1.757,6.9,6.9a1.555,1.555,0,0,0,1.124.459,1.621,1.621,0,0,0,1.124-.459l7.17-7.17A1.591,1.591,0,0,0,371.626,357.006Zm-18.361.079-3.672-13.676,13.676,3.672-1.9,1.9-7.17,7.17Zm10.067,5.967-5.777-5.778,4.923-4.923,5.777,5.778Z" transform="translate(-287.091 -281.872)"/>
    <path id="Path_516" data-name="Path 516" d="M297.961,288.062a1.576,1.576,0,0,0,0-2.232l-5.192-5.192a1.578,1.578,0,1,0-2.232,2.232l5.192,5.192a1.586,1.586,0,0,0,2.232,0Z" transform="translate(-241.664 -233.416)"/>
    <path id="Path_517" data-name="Path 517" d="M354,277.283v3.435a1.583,1.583,0,1,0,3.166,0v-3.435a1.583,1.583,0,1,0-3.166,0Z" transform="translate(-295.124 -229.743)"/>
    <path id="Path_518" data-name="Path 518" d="M290.518,344.1h-3.435a1.583,1.583,0,0,0,0,3.166h3.435a1.583,1.583,0,0,0,0-3.166Z" transform="translate(-237.911 -286.869)"/>
    <path id="Path_519" data-name="Path 519" d="M75.07,268.139a1.575,1.575,0,0,0,1.535,1.2H92.212a1.583,1.583,0,0,0,0-3.166H77.84l-.522-2.137h14.2a1.564,1.564,0,0,0,1.551-1.266l2.248-11.017a1.6,1.6,0,0,0-1.551-1.9H73.788l-.681-2.754a1.575,1.575,0,0,0-1.535-1.2H67.583a1.583,1.583,0,0,0,0,3.166h2.754Zm16.746-15.1-1.6,7.835H76.526l-1.947-7.835Z" transform="translate(-55.553 -204.306)"/>
    <path id="Path_520" data-name="Path 520" d="M131.459,396.559a1.567,1.567,0,0,0-.459,1.124,1.664,1.664,0,0,0,.459,1.124,1.567,1.567,0,0,0,1.124.459,1.664,1.664,0,0,0,1.124-.459,1.567,1.567,0,0,0,.459-1.124,1.665,1.665,0,0,0-.459-1.124,1.567,1.567,0,0,0-1.124-.459A1.594,1.594,0,0,0,131.459,396.559Z" transform="translate(-109.212 -330.22)"/>
    <path id="Path_521" data-name="Path 521" d="M205.459,396.559a1.567,1.567,0,0,0-.459,1.124,1.664,1.664,0,0,0,.459,1.124,1.566,1.566,0,0,0,1.124.459,1.664,1.664,0,0,0,1.124-.459,1.567,1.567,0,0,0,.459-1.124,1.665,1.665,0,0,0-.459-1.124,1.567,1.567,0,0,0-1.124-.459A1.594,1.594,0,0,0,205.459,396.559Z" transform="translate(-170.905 -330.22)"/>
    <path id="Path_522" data-name="Path 522" d="M107.583,441.166h19.849a1.583,1.583,0,0,0,0-3.166H107.583a1.583,1.583,0,0,0,0,3.166Z" transform="translate(-88.079 -364.717)"/>
    <path id="Path_523" data-name="Path 523" d="M65.659,438.459a1.567,1.567,0,0,0-.459,1.124,1.665,1.665,0,0,0,.459,1.124,1.567,1.567,0,0,0,1.124.459,1.665,1.665,0,0,0,1.124-.459,1.567,1.567,0,0,0,.459-1.124,1.665,1.665,0,0,0-.459-1.124A1.567,1.567,0,0,0,66.783,438,1.635,1.635,0,0,0,65.659,438.459Z" transform="translate(-54.88 -364.717)"/>
  </g>
</svg>
