<svg xmlns="http://www.w3.org/2000/svg" width="88.294" height="85" viewBox="0 0 88.294 85">
  <g id="Daroo" transform="translate(0 0)">
    <path id="Path_536" data-name="Path 536" d="M311.6,93.888h-1.012a.793.793,0,0,1-.79-.79V90.3a.793.793,0,0,1,.79-.79h1.6V57.39a.793.793,0,0,0-.79-.79h-22.6a.793.793,0,0,0-.79.79V83.724a3.207,3.207,0,0,1,2.987,3.177v23.109h20.406a.925.925,0,0,0,.205-.032Z" transform="translate(-235.097 -47.653)" fill="#fff"/>
    <path id="Path_537" data-name="Path 537" d="M311.6,202.212V190.626h-1.012a.793.793,0,0,1-.79-.79v-2.8a.793.793,0,0,1,.79-.79h1.6V171.5H288v8.962a3.207,3.207,0,0,1,2.987,3.177v18.573Z" transform="translate(-235.097 -140.31)" fill="#dde9ff"/>
    <path id="Path_538" data-name="Path 538" d="M293.058,109.22V57.39a.793.793,0,0,1,.79-.79H288.79a.793.793,0,0,0-.79.79V83.724a3.207,3.207,0,0,1,2.987,3.177v23.109h2.861A.793.793,0,0,1,293.058,109.22Z" transform="translate(-238.001 -47.653)" opacity="0.1"/>
    <ellipse id="Ellipse_54" data-name="Ellipse 54" cx="4.299" cy="4.284" rx="4.299" ry="4.284" transform="translate(61.614 47.993)" fill="#ff9090"/>
    <rect id="Rectangle_148" data-name="Rectangle 148" width="18.288" height="4.695" transform="translate(23.023 34.404)" fill="#dde9ff"/>
    <rect id="Rectangle_149" data-name="Rectangle 149" width="4.9" height="4.695" transform="translate(22.596 34.404)" opacity="0.1"/>
    <path id="Path_539" data-name="Path 539" d="M114.1,160.312a.793.793,0,0,0,.79.79H136.7a.793.793,0,0,0,.79-.79V154.89a.793.793,0,0,0-.79-.79H114.89a.793.793,0,0,0-.79.79Z" transform="translate(-93.751 -127.301)" fill="#00dbb5"/>
    <g id="Group_180" data-name="Group 180" transform="translate(19.825 26.799)" opacity="0.1">
      <path id="Path_540" data-name="Path 540" d="M119.227,160.312V154.89a.793.793,0,0,1,.79-.79H114.99a.793.793,0,0,0-.79.79v5.422a.793.793,0,0,0,.79.79h5.027A.783.783,0,0,1,119.227,160.312Z" transform="translate(-114.2 -154.1)"/>
    </g>
    <path id="Path_541" data-name="Path 541" d="M103.748,228.1H72.593a3.2,3.2,0,0,0-3.193,3.193v8.472H79.706a.793.793,0,0,1,.79.79v5.074h2.466a1.585,1.585,0,0,1,1.581,1.581v17.055h19.205a3.2,3.2,0,0,0,3.193-3.193v-29.78A3.2,3.2,0,0,0,103.748,228.1Z" transform="translate(-58.43 -184.94)" fill="#dde9ff"/>
    <g id="Group_181" data-name="Group 181" transform="translate(10.97 39.923)" opacity="0.1">
      <path id="Path_542" data-name="Path 542" d="M74.3,239.765v-8.472a3.2,3.2,0,0,1,3.193-3.193h-4.9a3.2,3.2,0,0,0-3.193,3.193v8.472Z" transform="translate(-69.4 -228.1)"/>
    </g>
    <path id="Path_543" data-name="Path 543" d="M165.1,430v4.252h19.205a3.2,3.2,0,0,0,3.193-3.193V430Z" transform="translate(-135.712 -354.927)" fill="#00dbb5"/>
    <path id="Path_544" data-name="Path 544" d="M202.748,272.5h15.917v17.877H202.748a.648.648,0,0,1-.648-.632v-16.6A.662.662,0,0,1,202.748,272.5Z" transform="translate(-166.491 -224.328)" fill="#fff"/>
    <g id="Group_182" data-name="Group 182" transform="translate(35.025 48.171)" opacity="0.1">
      <path id="Path_545" data-name="Path 545" d="M205.488,289.729v-16.6a.638.638,0,0,1,.648-.632h-3.288a.648.648,0,0,0-.648.632v16.6a.638.638,0,0,0,.648.632h3.288A.619.619,0,0,1,205.488,289.729Z" transform="translate(-202.2 -272.5)"/>
    </g>
    <path id="Path_546" data-name="Path 546" d="M49.918,307.764V302.69a.793.793,0,0,0-.79-.79H33.89a.793.793,0,0,0-.79.79v5.074Z" transform="translate(-27.868 -249.473)" fill="#00dbb5"/>
    <path id="Path_547" data-name="Path 547" d="M38.079,307.764V302.69a.793.793,0,0,1,.79-.79H33.89a.793.793,0,0,0-.79.79v5.074Z" transform="translate(-27.868 -249.473)" opacity="0.1"/>
    <path id="Path_548" data-name="Path 548" d="M32.411,360.545a1.585,1.585,0,0,1-1.581,1.581H9.081A1.585,1.585,0,0,1,7.5,360.545V340.581A1.585,1.585,0,0,1,9.081,339h21.75a1.585,1.585,0,0,1,1.581,1.581Z" transform="translate(-6.314 -278.311)" fill="#dde9ff"/>
    <g id="Group_183" data-name="Group 183" transform="translate(1.185 60.689)" opacity="0.1">
      <path id="Path_549" data-name="Path 549" d="M12.479,360.545V340.581A1.585,1.585,0,0,1,14.06,339H9.081A1.585,1.585,0,0,0,7.5,340.581v19.964a1.585,1.585,0,0,0,1.581,1.581H14.06A1.585,1.585,0,0,1,12.479,360.545Z" transform="translate(-7.5 -339)"/>
    </g>
    <rect id="Rectangle_150" data-name="Rectangle 150" width="24.911" height="11.065" transform="translate(1.185 66.317)" fill="#fedeaa"/>
    <rect id="Rectangle_151" data-name="Rectangle 151" width="7.018" height="11.065" transform="translate(1.185 66.317)" fill="#fff"/>
    <path id="Path_550" data-name="Path 550" d="M437.3,292.5v29.685a.793.793,0,0,0,.79.79h7.255a.793.793,0,0,0,.79-.79V292.5Z" transform="translate(-360.797 -239.161)" fill="#fedeaa"/>
    <path id="Path_551" data-name="Path 551" d="M437.3,351.629l8.82-8.8V334.7l-8.82,8.8Z" transform="translate(-360.797 -274.69)" fill="#ff9090"/>
    <path id="Path_552" data-name="Path 552" d="M440.5,322.185V292.5h-3.3v29.685a.793.793,0,0,0,.79.79h3.3A.8.8,0,0,1,440.5,322.185Z" transform="translate(-360.713 -239.161)" opacity="0.1"/>
    <path id="Path_553" data-name="Path 553" d="M438.324,268.388a.793.793,0,0,1-.79.79H426.69a.793.793,0,0,1-.79-.79v-2.8a.793.793,0,0,1,.79-.79h10.843a.793.793,0,0,1,.79.79Z" transform="translate(-351.199 -218.899)" fill="#fff"/>
    <g id="Group_184" data-name="Group 184" transform="translate(74.701 45.901)" opacity="0.1">
      <path id="Path_554" data-name="Path 554" d="M429.14,268.388v-2.8a.793.793,0,0,1,.79-.79h-3.24a.793.793,0,0,0-.79.79v2.8a.793.793,0,0,0,.79.79h3.24A.783.783,0,0,1,429.14,268.388Z" transform="translate(-425.9 -264.8)"/>
    </g>
    <g id="Group_185" data-name="Group 185" transform="translate(26.951 1.193)">
      <path id="Path_555" data-name="Path 555" d="M205.3,100.055a2.361,2.361,0,0,1-2.355,2.355h-4.394a2.361,2.361,0,0,1-2.355-2.355h0a2.361,2.361,0,0,1,2.355-2.355h4.41a2.348,2.348,0,0,1,2.339,2.355Z" transform="translate(-189.348 -83.45)" fill="#fcdb67"/>
      <path id="Path_556" data-name="Path 556" d="M159.955,46.938a2.347,2.347,0,0,1,0,3.319l-3.1,3.1a2.347,2.347,0,0,1-3.319,0h0a2.347,2.347,0,0,1,0-3.319l3.1-3.1a2.347,2.347,0,0,1,3.319,0Z" transform="translate(-152.85 -40.133)" fill="#fcdb67"/>
      <path id="Path_557" data-name="Path 557" d="M218.355,14.655a2.347,2.347,0,0,1-3.319,0l-3.1-3.1a2.347,2.347,0,0,1,0-3.319h0a2.347,2.347,0,0,1,3.319,0l3.1,3.1a2.347,2.347,0,0,1,0,3.319Z" transform="translate(-202.019 -7.55)" fill="#fcdb67"/>
    </g>
    <path id="Path_558" data-name="Path 558" d="M346.2,273.369a5.485,5.485,0,1,0,5.485-5.469A5.484,5.484,0,0,0,346.2,273.369Zm8.583,0a3.114,3.114,0,1,1-3.114-3.1A3.106,3.106,0,0,1,354.783,273.369Z" transform="translate(-285.703 -221.061)"/>
    <path id="Path_559" data-name="Path 559" d="M343.723,255.423a1.183,1.183,0,1,0-.838.348A1.184,1.184,0,0,0,343.723,255.423Z" transform="translate(-282.614 -209.578)"/>
    <path id="Path_560" data-name="Path 560" d="M319.385,232.2a1.187,1.187,0,1,0,.838.348A1.184,1.184,0,0,0,319.385,232.2Z" transform="translate(-263.177 -192.044)"/>
    <path id="Path_561" data-name="Path 561" d="M376.4,242.386a1.187,1.187,0,1,0,.348-.838A1.184,1.184,0,0,0,376.4,242.386Z" transform="translate(-311.313 -199.488)"/>
    <path id="Path_562" data-name="Path 562" d="M348.485,227.871a1.187,1.187,0,1,0-.838-.348A1.184,1.184,0,0,0,348.485,227.871Z" transform="translate(-287.245 -186.503)"/>
    <path id="Path_563" data-name="Path 563" d="M319.385,198.8a1.187,1.187,0,1,0,.838.348A1.184,1.184,0,0,0,319.385,198.8Z" transform="translate(-263.177 -164.42)"/>
    <path id="Path_564" data-name="Path 564" d="M233.685,310.471h5.121a1.185,1.185,0,1,0,0-2.371h-5.121a1.185,1.185,0,1,0,0,2.371Z" transform="translate(-192.056 -254.818)"/>
    <path id="Path_565" data-name="Path 565" d="M233.685,338.771h5.121a1.185,1.185,0,1,0,0-2.371h-5.121a1.185,1.185,0,1,0,0,2.371Z" transform="translate(-192.056 -278.224)"/>
    <path id="Path_566" data-name="Path 566" d="M86.155,85.343h-8.8V51.276A2.167,2.167,0,0,0,75.2,49.1H50.538a2.167,2.167,0,0,0-2.156,2.176V78.955H43.707V76.4h.638A2.167,2.167,0,0,0,46.5,74.22V68.249a2.167,2.167,0,0,0-2.156-2.176h-23.8a2.167,2.167,0,0,0-2.156,2.176V74.22A2.167,2.167,0,0,0,20.543,76.4h.638v2.559H15.455a4.8,4.8,0,0,0-4.778,4.822V91.8H6.572a2.167,2.167,0,0,0-2.156,2.176V98.26h-1.4A3.047,3.047,0,0,0,0,101.306v21.986a3.047,3.047,0,0,0,3.018,3.046H26.752a3.047,3.047,0,0,0,3.018-3.046v-1.9H49.434a4.8,4.8,0,0,0,4.778-4.822v-6.041H74.1v13.63a2.167,2.167,0,0,0,2.156,2.176h7.917a2.167,2.167,0,0,0,2.156-2.176V92.776a2.168,2.168,0,0,0,1.966-2.159V87.537A2.146,2.146,0,0,0,86.155,85.343Zm-2.4,21.882L76.7,114.31v-5.257l7.055-7.085Zm-7.037-1.845v-12.6h7.055v5.5Zm9-15.215H74.754V87.954h10.97ZM74.772,51.711V69.1H72.443a1.306,1.306,0,0,0,0,2.611h2.329v13.63h-.448a2.167,2.167,0,0,0-2.156,2.176V90.6a2.155,2.155,0,0,0,1.966,2.159v10.149h-19.9V83.759a4.808,4.808,0,0,0-3.26-4.561V71.713H64.681a1.306,1.306,0,0,0,0-2.611H50.969V51.711Zm-23.13,54.661H36.153V89.295H51.642ZM23.768,76.4h9.176a1.306,1.306,0,0,0,0-2.611H20.974v-5.1h22.94v5.1H39.844a1.306,1.306,0,0,0,0,2.611h1.294v2.559H23.768ZM13.247,83.777a2.2,2.2,0,0,1,2.191-2.211h34a2.2,2.2,0,0,1,2.191,2.211v2.907H35.549a2.008,2.008,0,0,0-2,2v18.278a2,2,0,0,0,2,2H51.624v5.118H29.771V101.306a3.047,3.047,0,0,0-3.018-3.046h-1.4V93.978A2.167,2.167,0,0,0,23.2,91.8H13.247ZM7,94.413H22.768V98.26H7Zm-3.984,6.458H26.752a.429.429,0,0,1,.431.435v3.151H23.63a1.306,1.306,0,0,0,0,2.611h3.553v9.574H10.246v-9.574h6.485a1.306,1.306,0,0,0,0-2.611H2.587v-3.151A.44.44,0,0,1,3.018,100.871Zm-.431,6.2H7.658v9.574H2.587Zm24.165,16.659H3.018a.429.429,0,0,1-.431-.435v-4.039h24.6v4.039A.429.429,0,0,1,26.752,123.728Zm22.7-4.944H29.788v-2.071H51.659A2.228,2.228,0,0,1,49.451,118.784Zm4.778-10.862v-2.385H74.116v2.385Zm22.492,15.806V118l7.055-7.085v12.812Z" transform="translate(0 -41.339)"/>
    <path id="Path_567" data-name="Path 567" d="M192.341,90.2a3.541,3.541,0,1,0,0,7.081h4.394a3.541,3.541,0,1,0,0-7.081Zm5.548,3.541a1.167,1.167,0,0,1-1.17,1.17h-4.394a1.17,1.17,0,1,1,0-2.339h4.41A1.164,1.164,0,0,1,197.889,93.741Z" transform="translate(-155.785 -74.512)"/>
    <path id="Path_568" data-name="Path 568" d="M148.841,48.964a3.452,3.452,0,0,0,2.5-1.043l3.1-3.1a3.516,3.516,0,0,0,1.043-2.5,3.452,3.452,0,0,0-1.043-2.5,3.5,3.5,0,0,0-2.5-1.027,3.452,3.452,0,0,0-2.5,1.043l-3.1,3.1a3.516,3.516,0,0,0-1.043,2.5,3.452,3.452,0,0,0,1.043,2.5A3.5,3.5,0,0,0,148.841,48.964Zm-.822-4.363,3.1-3.1a1.162,1.162,0,1,1,1.644,1.644l-3.1,3.114a1.17,1.17,0,0,1-1.992-.822A1.184,1.184,0,0,1,148.019,44.6Z" transform="translate(-119.937 -32.667)"/>
    <path id="Path_569" data-name="Path 569" d="M207.841,9.136a3.516,3.516,0,0,0,2.5,1.043,3.452,3.452,0,0,0,2.5-1.043,3.516,3.516,0,0,0,1.043-2.5,3.452,3.452,0,0,0-1.043-2.5l-3.1-3.1a3.511,3.511,0,0,0-4.995,0,3.516,3.516,0,0,0-1.043,2.5,3.452,3.452,0,0,0,1.043,2.5Zm-1.423-6.418a1.145,1.145,0,0,1,1.644,0l3.1,3.1a1.162,1.162,0,1,1-1.644,1.644l-3.1-3.1a1.148,1.148,0,0,1-.348-.822A1.122,1.122,0,0,1,206.419,2.719Z" transform="translate(-168.142 0)"/>
  </g>
</svg>
