<svg xmlns="http://www.w3.org/2000/svg" width="79.935" height="86.5" viewBox="0 0 79.935 86.5">
  <g id="Darookhane" transform="translate(0 1.5)">
    <rect id="Rectangle_143" data-name="Rectangle 143" width="69.596" height="50.143" transform="translate(5.169 33.225)" fill="#fefefe"/>
    <path id="Path_494" data-name="Path 494" d="M10,78.539V67.231A3.185,3.185,0,0,1,13.118,64H83.586A3.185,3.185,0,0,1,86.7,67.231V78.539Z" transform="translate(-8.385 -49.122)" fill="#dde9ff"/>
    <g id="Group_172" data-name="Group 172" transform="translate(11.117 48.491)">
      <rect id="Rectangle_144" data-name="Rectangle 144" width="25.201" height="34.893" fill="#dde9ff"/>
      <path id="Path_495" data-name="Path 495" d="M330.755,309.262H302V286h28.755" transform="translate(-267.107 -286)" fill="#dde9ff"/>
    </g>
    <path id="Path_496" data-name="Path 496" d="M214.6,10.927h0a3.257,3.257,0,0,0-4.6,0l-4.966,4.966a3.257,3.257,0,0,0,0,4.6h0a3.257,3.257,0,0,0,4.6,0l4.966-4.966A3.257,3.257,0,0,0,214.6,10.927Z" transform="translate(-169.394 24.12)" fill="#fff"/>
    <line id="Line_2" data-name="Line 2" x2="6.332" y2="6.332" transform="translate(37.003 12.332)" fill="none"/>
    <path id="Path_497" data-name="Path 497" d="M235.1,13.41l4.6,4.6,2.483-2.483a3.254,3.254,0,0,0-4.6-4.6Z" transform="translate(-197.057 24.189)" fill="#ff9090"/>
    <path id="Path_498" data-name="Path 498" d="M79.935,58.651A4.681,4.681,0,0,0,75.251,54H62.215a1.55,1.55,0,1,0,0,3.1H75.251a1.56,1.56,0,0,1,1.561,1.55v9.3H3.122v-9.3A1.56,1.56,0,0,1,4.684,57.1H24.137a1.55,1.55,0,1,0,0-3.1H4.684A4.671,4.671,0,0,0,0,58.651V75.038a7.5,7.5,0,0,0,3.466,6.31,2.3,2.3,0,0,0-.031.326V121.9H1.561a1.55,1.55,0,1,0,0,3.1H78.373a1.55,1.55,0,1,0,0-3.1H76.5V81.673a2.3,2.3,0,0,0-.031-.326,7.481,7.481,0,0,0,3.466-6.31V58.651ZM14.988,121.9V91.518H36.22V121.9Zm58.39-11.162H48.71V91.518H73.378Zm0-22.325H47.149a1.56,1.56,0,0,0-1.561,1.55v22.325a1.56,1.56,0,0,0,1.561,1.55H73.378V121.9H39.343V89.967a1.56,1.56,0,0,0-1.561-1.55H13.427a1.56,1.56,0,0,0-1.561,1.55V121.9H6.557V72.093c.328.047,66.82,0,66.82,0s-.012,16.1,0,16.324Z" transform="translate(0 -40.004)"/>
    <path id="Path_499" data-name="Path 499" d="M191.615,384a1.7,1.7,0,0,0-1.147.468,1.572,1.572,0,0,0-.468,1.147,1.668,1.668,0,0,0,.468,1.147,1.6,1.6,0,0,0,1.147.468,1.668,1.668,0,0,0,1.147-.468,1.572,1.572,0,0,0,.468-1.147,1.669,1.669,0,0,0-.468-1.147A1.7,1.7,0,0,0,191.615,384Z" transform="translate(-160.379 -319.07)"/>
    <path id="Path_500" data-name="Path 500" d="M198.359,13.729a4.347,4.347,0,0,0,3.079-1.28l2.483-2.483h0L206.4,7.483a4.288,4.288,0,0,0,1.28-3.079,4.288,4.288,0,0,0-1.28-3.079,4.37,4.37,0,0,0-6.169,0l-4.966,4.966a4.365,4.365,0,0,0,3.09,7.438ZM201.8,2.881a2.154,2.154,0,0,1,3.046,3.046l-1.7,1.7L200.1,4.58Zm-4.966,4.966,1.7-1.7,3.046,3.046-1.7,1.7a2.158,2.158,0,0,1-3.046,0,2.158,2.158,0,0,1,0-3.046Z" transform="translate(-160.432 32.953)"/>
    <path id="Path_501" data-name="Path 501" d="M345.915,320.443h4.3v4.3a1.615,1.615,0,1,0,3.231,0v-4.3h4.3a1.615,1.615,0,0,0,0-3.231h-4.3v-4.3a1.615,1.615,0,0,0-3.231,0v4.3h-4.3a1.615,1.615,0,1,0,0,3.231Z" transform="translate(-291.456 -258.02)"/>
    <path id="Path_502" data-name="Path 502" d="M125.615,323.3A1.62,1.62,0,0,0,124,324.915v13.457a1.615,1.615,0,1,0,3.231,0V324.915A1.62,1.62,0,0,0,125.615,323.3Z" transform="translate(-104.668 -268.213)"/>
    <path id="Path_503" data-name="Path 503" d="M125.615,444.7a1.7,1.7,0,0,0-1.147.468,1.6,1.6,0,0,0-.468,1.147,1.7,1.7,0,0,0,.468,1.147,1.6,1.6,0,0,0,1.147.468,1.669,1.669,0,0,0,1.147-.468,1.6,1.6,0,0,0,.468-1.147,1.7,1.7,0,0,0-.468-1.147A1.627,1.627,0,0,0,125.615,444.7Z" transform="translate(-104.668 -370.572)"/>
    <g id="Group_176" data-name="Group 176" transform="translate(30.681 0)">
      <ellipse id="Ellipse_53" data-name="Ellipse 53" cx="12.405" cy="12.405" rx="12.405" ry="12.405" transform="translate(0 0)" fill="#00dbb5" stroke="#000" stroke-width="3"/>
      <path id="Path_524" data-name="Path 524" d="M41.539,59.54A1.542,1.542,0,0,1,40.47,59.1l-4.155-4.155a1.5,1.5,0,1,1,2.123-2.123l3.086,3.086,5.8-5.8a1.5,1.5,0,0,1,2.123,2.123l-6.85,6.85A1.461,1.461,0,0,1,41.539,59.54Z" transform="translate(-30.474 -42.197)"/>
    </g>
  </g>
</svg>
