<svg xmlns="http://www.w3.org/2000/svg" width="16.657" height="33.685" viewBox="0 0 16.657 33.685"><defs><style>.pin-a-78374673640091837664{fill:#27528d;opacity:0.54;}</style></defs><g transform="translate(0 0)"><ellipse class="pin-a-78374673640091837664" cx="6.983" cy="2.649" rx="6.983" ry="2.649" transform="translate(1.301 28.387)"/><path fill="#f76b3b" d="M12.425,205a.647.647,0,0,0-.255-.053H4.478a.628.628,0,0,0-.255.054c-2.61,1.133-4.232,3.27-4.223,5.686.055.318.751,3.1,8.324,3.1s8.269-2.779,8.333-3.2c0-2.308-1.622-4.445-4.232-5.579Zm0,0" transform="translate(0 -192.633)"/><path fill="#1c77c3" d="M72.185,106.668H64.493a.641.641,0,0,0-.641.641v6.41a.638.638,0,0,0,.03.191c.09.29.729,1.732,4.457,1.732s4.368-1.442,4.457-1.732a.638.638,0,0,0,.029-.191v-6.41A.641.641,0,0,0,72.185,106.668Zm0,0" transform="translate(-60.015 -100.258)"/><path fill="#f76b3b" d="M34.808,32.04a.659.659,0,0,0-.727.3c-.009.017-.993,1.588-5.846,1.588S22.4,32.361,22.4,32.361a.641.641,0,0,0-1.214.287c0,2.723,3.015,5.769,7.051,5.769s7.051-3.046,7.051-5.769a.636.636,0,0,0-.478-.609Zm0,0" transform="translate(-19.911 -30.084)"/><path fill="#f76b3b" d="M35.228,2.277C35.111,2.045,33.926,0,28.245,0s-6.866,2.045-6.983,2.277a.643.643,0,0,0,0,.573c.117.233,1.3,2.278,6.983,2.278s6.866-2.045,6.983-2.277a.638.638,0,0,0,0-.574Zm0,0" transform="translate(-19.921)"/><path d="M8.324,213.789c-7.573,0-8.269-2.779-8.324-3.1-.009-2.415,1.613-4.554,4.223-5.69a.642.642,0,0,1,.511,1.177c-2.1.911-3.414,2.556-3.459,4.309.127.293,1.131,2.018,7.048,2.018s6.921-1.724,7.049-2.017c-.046-1.753-1.361-3.4-3.459-4.309a.642.642,0,0,1,.511-1.177c2.609,1.134,4.23,3.273,4.23,5.579C16.592,211.01,15.9,213.789,8.324,213.789Zm0,0" transform="translate(0.001 -192.637)"/><path d="M28.235,8.333c-4.036,0-7.051-3.046-7.051-5.769a.645.645,0,0,1,.068-.287C21.369,2.045,22.554,0,28.235,0S35.1,2.045,35.218,2.277a.642.642,0,0,1,.068.287c0,2.723-3.015,5.769-7.051,5.769ZM22.474,2.762c.153,2.028,2.615,4.289,5.761,4.289S33.844,4.79,34,2.762c-.322-.357-1.661-1.48-5.761-1.48S22.8,2.4,22.474,2.762Zm0,0" transform="translate(-19.911 0)"/><path d="M28.233,35.2c-5.681,0-6.866-2.045-6.983-2.277a.641.641,0,0,1,1.137-.591c.04.063,1.069,1.586,5.846,1.586,4.852,0,5.837-1.573,5.847-1.587a.654.654,0,0,1,.864-.247.631.631,0,0,1,.272.84c-.117.232-1.3,2.277-6.983,2.277Zm0,0" transform="translate(-19.909 -30.071)"/><path d="M128.493,341.565a.641.641,0,0,1-.641-.641v-9.615a.641.641,0,0,1,1.282,0v9.615A.641.641,0,0,1,128.493,341.565Zm0,0" transform="translate(-120.169 -310.797)"/><path d="M68.339,115.641c-3.728,0-4.368-1.442-4.457-1.732a.638.638,0,0,1-.03-.191v-6.41a.641.641,0,0,1,1.282,0v6.254c.137.16.815.8,3.205.8,2.341,0,3.038-.612,3.2-.812v-6.24a.641.641,0,0,1,1.282,0v6.41a.638.638,0,0,1-.029.191c-.09.29-.73,1.732-4.457,1.732Zm0,0" transform="translate(-60.015 -100.258)"/></g></svg>