<svg xmlns="http://www.w3.org/2000/svg" width="60.755" height="60" viewBox="0 0 60.755 60">
    <g transform="translate(0 -3.18)">
        <g transform="translate(0 3.18)">
            <path d="M57.924,13.495H49.245a.943.943,0,1,0,0,1.887h8.679a.944.944,0,0,1,.943.943v3.459H36.1v-4.4h6.855a.943.943,0,1,0,0-1.887H36.1V10.287a2.833,2.833,0,0,0-2.83-2.83H30.314V6.01a2.833,2.833,0,0,0-2.83-2.83H8.616a2.833,2.833,0,0,0-2.83,2.83V7.457H2.83A2.833,2.833,0,0,0,0,10.287V27.268a.943.943,0,0,0,1.887,0V10.287a.944.944,0,0,1,.943-.943H5.786v15.22H4.465a.943.943,0,1,0,0,1.887h27.17a.943.943,0,1,0,0-1.887H30.314V9.344H33.27a.944.944,0,0,1,.943.943V60.35a.944.944,0,0,1-.943.943H2.83a.944.944,0,0,1-.943-.943V34.06A.943.943,0,0,0,0,34.06V60.35a2.833,2.833,0,0,0,2.83,2.83H33.27a2.833,2.833,0,0,0,2.83-2.83V41.042H57.925a2.833,2.833,0,0,0,2.83-2.83V16.325A2.833,2.833,0,0,0,57.924,13.495Zm-29.5,11.069H7.673V6.01a.944.944,0,0,1,.943-.943H27.484a.944.944,0,0,1,.943.943Zm30.44,13.648a.944.944,0,0,1-.943.943H36.1V26.7H58.868Zm0-13.4H36.1V21.671H58.868Z"
                  transform="translate(0 -3.18)"/>
        </g>
        <g transform="translate(42.055 35.221)">
            <path d="M351.088,272.431H340.074a.86.86,0,1,0,0,1.721h11.013a.86.86,0,0,0,0-1.721Z"
                  transform="translate(-339.214 -272.431)"/>
        </g>
        <g transform="translate(3.671 29.174)">
            <path d="M56.923,217.308H36.5a2.584,2.584,0,0,0-2.581,2.581v6.195a2.584,2.584,0,0,0,2.581,2.581h20.42a2.584,2.584,0,0,0,2.581-2.581v-6.195A2.584,2.584,0,0,0,56.923,217.308Zm.86,8.776a.861.861,0,0,1-.86.86H36.5a.861.861,0,0,1-.86-.86v-6.195a.861.861,0,0,1,.86-.86h20.42a.861.861,0,0,1,.86.86Z"
                  transform="translate(-33.921 -217.308)"/>
        </g>
        <g transform="translate(4.818 44.441)">
            <path d="M47.906,346.634a3.384,3.384,0,1,0,3.384,3.384A3.388,3.388,0,0,0,47.906,346.634Zm0,5.048a1.663,1.663,0,1,1,1.663-1.663A1.665,1.665,0,0,1,47.906,351.682Z"
                  transform="translate(-44.522 -346.634)"/>
        </g>
        <g transform="translate(23.683 44.441)">
            <path d="M200.552,346.634a3.384,3.384,0,1,0,3.384,3.384A3.388,3.388,0,0,0,200.552,346.634Zm0,5.048a1.663,1.663,0,1,1,1.663-1.663A1.665,1.665,0,0,1,200.552,351.682Z"
                  transform="translate(-197.168 -346.634)"/>
        </g>
        <g transform="translate(14.515 44.441)">
            <path d="M124.229,346.634a3.384,3.384,0,1,0,3.384,3.384A3.388,3.388,0,0,0,124.229,346.634Zm0,5.048a1.663,1.663,0,1,1,1.663-1.663A1.665,1.665,0,0,1,124.229,351.682Z"
                  transform="translate(-120.845 -346.634)"/>
        </g>
        <g transform="translate(4.818 53.429)">
            <path d="M47.906,418.716a3.384,3.384,0,1,0,3.384,3.384A3.388,3.388,0,0,0,47.906,418.716Zm0,5.048A1.663,1.663,0,1,1,49.57,422.1,1.665,1.665,0,0,1,47.906,423.764Z"
                  transform="translate(-44.522 -418.716)"/>
        </g>
        <g transform="translate(23.683 53.429)">
            <path d="M200.552,418.716a3.384,3.384,0,1,0,3.384,3.384A3.388,3.388,0,0,0,200.552,418.716Zm0,5.048a1.663,1.663,0,1,1,1.663-1.664A1.665,1.665,0,0,1,200.552,423.764Z"
                  transform="translate(-197.168 -418.716)"/>
        </g>
        <g transform="translate(14.515 53.429)">
            <path d="M124.229,418.716a3.384,3.384,0,1,0,3.384,3.384A3.388,3.388,0,0,0,124.229,418.716Zm0,5.048a1.663,1.663,0,1,1,1.663-1.664A1.665,1.665,0,0,1,124.229,423.764Z"
                  transform="translate(-120.845 -418.716)"/>
        </g>
        <g transform="translate(11.237 7.081)">
            <path d="M100.569,39.222H94.144a.86.86,0,0,0,0,1.721h6.424a.86.86,0,0,0,0-1.721Z"
                  transform="translate(-93.284 -39.222)"/>
        </g>
        <g transform="translate(11.36 13.524)">
            <path d="M105.158,90.1H94.144a.86.86,0,1,0,0,1.721h11.013a.86.86,0,1,0,0-1.721Z"
                  transform="translate(-93.284 -90.104)"/>
        </g>
        <g transform="translate(11.36 19.831)">
            <path d="M105.158,143.106H94.144a.86.86,0,1,0,0,1.721h11.013a.86.86,0,1,0,0-1.721Z"
                  transform="translate(-93.284 -143.106)"/>
        </g>
    </g>
</svg>