<svg xmlns="http://www.w3.org/2000/svg" width="16" height="16" viewBox="0 0 16 16"><g transform="translate(0)"><path fill="#39a9db" d="M12.25,4.688V1.875h-.937V0H4.688V1.875H3.75V4.688H0V16H16V4.688ZM3.75,15.063H.938V5.625H3.75ZM5.625.938h4.75v.938H5.625ZM7.531,15.063H4.688V11.25H7.531Zm3.781,0H8.469V11.25h2.844Zm0-4.75H4.688V8.438h6.625Zm0-2.813H4.688V5.625h6.625Zm0-2.813H4.688V2.813h6.625Zm3.75,10.375H12.25V5.625h2.813Z"/><g transform="translate(2.15 6.435)"><rect fill="#39a9db" width="1.075" height="2.15"/></g><g transform="translate(2.15 9.193)"><rect fill="#39a9db" width="1.075" height="2.15"/></g><g transform="translate(12.775 6.435)"><rect fill="#39a9db" width="1.075" height="2.15"/></g><g transform="translate(12.775 9.193)"><rect fill="#39a9db" width="1.075" height="2.15"/></g></g></svg>