<svg xmlns="http://www.w3.org/2000/svg" width="32" height="31.997" viewBox="0 0 32 31.997"><rect fill="#fff" width="28.537" height="16.794" transform="translate(1.731 14.656)"/><path fill="#f76b3b" d="M178.437,154.8v1.888a2.081,2.081,0,0,1-2.083,2.083h-.271A2.081,2.081,0,0,1,174,156.688V154.8Z" transform="translate(-162.846 -144.911)"/><path fill="#39a9db" d="M260.437,154.8v1.888a2.08,2.08,0,0,1-2.083,2.083h-.27A2.081,2.081,0,0,1,256,156.688V154.8Z" transform="translate(-239.59 -144.911)"/><path fill="#f76b3b" d="M342.437,154.8v1.888a2.08,2.08,0,0,1-2.083,2.083h-.271A2.08,2.08,0,0,1,338,156.688V154.8Z" transform="translate(-316.334 -144.911)"/><path fill="#39a9db" d="M424.436,154.8v1.888a2.08,2.08,0,0,1-2.083,2.083h-.271A2.08,2.08,0,0,1,420,156.688V154.8Z" transform="translate(-392.978 -144.911)"/><path fill="#f76b3b" d="M14.437,154.8v1.888a2.08,2.08,0,0,1-2.083,2.083h-.271A2.076,2.076,0,0,1,10,156.694v-1.888l4.437-.005Z" transform="translate(-9.459 -144.911)"/><path fill="#39a9db" d="M96.437,154.8v1.888a2.08,2.08,0,0,1-2.083,2.083h-.271A2.08,2.08,0,0,1,92,156.688V154.8Z" transform="translate(-86.103 -144.911)"/><path fill="#e9f7ff" d="M10,68.869V65.082A1.183,1.183,0,0,1,11.257,64h28.4a1.183,1.183,0,0,1,1.257,1.082v3.787Z" transform="translate(-9.459 -60.54)"/><g transform="translate(8.951 19.769)"><rect fill="#e9f7ff" width="8.44" height="11.687"/><path fill="#e9f7ff" d="M311.631,293.791H302V286h9.631" transform="translate(-290.313 -286)"/></g><path fill="#fff" d="M209.232,10.442h0a1.6,1.6,0,0,0-2.256,0l-2.435,2.435a1.6,1.6,0,0,0,0,2.256h0a1.6,1.6,0,0,0,2.256,0l2.435-2.435A1.6,1.6,0,0,0,209.232,10.442Z" transform="translate(-189.552 -9.438)"/><line fill="none" x2="2.121" y2="2.121" transform="translate(15.022 2.362)"/><path fill="#f76b3b" d="M235.1,11.659l2.256,2.256,1.217-1.217a1.6,1.6,0,1,0-2.256-2.256Z" transform="translate(-218.763 -9.438)"/><path d="M32,55.9A1.9,1.9,0,0,0,30.125,54H24.906a.635.635,0,0,0,0,1.27h5.219a.632.632,0,0,1,.625.635v3.809H1.25V55.9a.632.632,0,0,1,.625-.635H9.662a.635.635,0,0,0,0-1.27H1.875A1.891,1.891,0,0,0,0,55.9v6.711A3.087,3.087,0,0,0,1.387,65.2a.961.961,0,0,0-.012.133V81.808H.625a.635.635,0,0,0,0,1.27h30.75a.635.635,0,0,0,0-1.27h-.75V65.333a.96.96,0,0,0-.013-.133A3.081,3.081,0,0,0,32,62.616V55.9ZM6.375,60.984H10.25v1.632a1.8,1.8,0,0,1-1.781,1.809H8.156a1.8,1.8,0,0,1-1.781-1.809V60.984Zm5.125,0h3.875v1.632a1.8,1.8,0,0,1-1.781,1.809h-.312A1.8,1.8,0,0,1,11.5,62.616V60.984Zm5.125,0H20.5v1.632a1.8,1.8,0,0,1-1.781,1.809h-.312a1.8,1.8,0,0,1-1.781-1.809V60.984Zm5.125,0h3.875v1.632a1.8,1.8,0,0,1-1.781,1.809h-.313a1.8,1.8,0,0,1-1.781-1.809V60.984Zm-20.5,0H5.125v1.632a1.8,1.8,0,0,1-1.781,1.809H3.031A1.8,1.8,0,0,1,1.25,62.616ZM6,81.808V69.364h8.5V81.808Zm23.375-4.571H19.5V69.364h9.875Zm0-9.142h-10.5a.632.632,0,0,0-.625.635v9.142a.632.632,0,0,0,.625.635h10.5v3.3H15.75V68.729a.632.632,0,0,0-.625-.635H5.375a.632.632,0,0,0-.625.635V81.808H2.625V65.669a2.849,2.849,0,0,0,.406.025h.312A3.022,3.022,0,0,0,5.75,64.488a3,3,0,0,0,2.406,1.206h.312a3.022,3.022,0,0,0,2.406-1.206,3,3,0,0,0,2.406,1.206h.312A3.022,3.022,0,0,0,16,64.488a3,3,0,0,0,2.406,1.206h.313a3.022,3.022,0,0,0,2.406-1.206,3,3,0,0,0,2.406,1.206h.313a3.022,3.022,0,0,0,2.406-1.206,3,3,0,0,0,2.406,1.206h.313c.138,0,.275-.013.406-.025v2.425Zm-.406-3.663h-.312a1.8,1.8,0,0,1-1.781-1.809V60.984H30.75v1.632A1.8,1.8,0,0,1,28.969,64.431Z" transform="translate(0 -51.081)"/><path d="M190.541,384a.569.569,0,0,0-.384.157.526.526,0,0,0-.157.384.559.559,0,0,0,.157.384.535.535,0,0,0,.384.157.559.559,0,0,0,.384-.157.527.527,0,0,0,.157-.384.559.559,0,0,0-.157-.384A.569.569,0,0,0,190.541,384Z" transform="translate(-178.06 -359.872)"/><path d="M196.137,6.756a2.131,2.131,0,0,0,1.509-.628l1.217-1.217h0l1.217-1.217a2.1,2.1,0,0,0,.628-1.51,2.1,2.1,0,0,0-.628-1.51,2.142,2.142,0,0,0-3.025,0L194.622,3.11a2.14,2.14,0,0,0,1.515,3.647Zm1.688-5.318a1.056,1.056,0,0,1,1.493,1.493l-.833.833-1.493-1.493ZM195.39,3.873l.833-.833,1.493,1.493-.833.833a1.058,1.058,0,0,1-1.493,0,1.058,1.058,0,0,1,0-1.493Z" transform="translate(-180.012 -0.05)"/><path d="M344.841,314.362h1.439V315.8a.541.541,0,0,0,1.082,0v-1.439H348.8a.541.541,0,0,0,0-1.082h-1.439v-1.439a.541.541,0,1,0-1.082,0v1.439h-1.439a.541.541,0,1,0,0,1.082Z" transform="translate(-321.373 -291.265)"/><path d="M124.541,323.3a.543.543,0,0,0-.541.541v4.507a.541.541,0,0,0,1.082,0v-4.507A.543.543,0,0,0,124.541,323.3Z" transform="translate(-116.208 -302.411)"/><path d="M124.541,444.7a.569.569,0,0,0-.384.157.536.536,0,0,0-.157.384.569.569,0,0,0,.157.384.536.536,0,0,0,.384.157.559.559,0,0,0,.384-.157.535.535,0,0,0,.157-.384.569.569,0,0,0-.157-.384A.545.545,0,0,0,124.541,444.7Z" transform="translate(-116.208 -416.344)"/></svg>