<svg xmlns="http://www.w3.org/2000/svg" width="96.365" height="96.365" viewBox="0 0 96.365 96.365">
    <defs>
        <style>.rate-icon-a{fill:#27528d;}.rate-icon-b{fill:#f76b3b;}</style>
    </defs>
    <g transform="translate(0 0)">
        <g transform="translate(36.94 24.135)">
            <path class="rate-icon-a"
                  d="M206.426,127.776a1.606,1.606,0,0,0-1.158-1.129l-5.822-1.455-2.868-4.3a1.666,1.666,0,0,0-2.673,0l-2.868,4.3-5.822,1.455a1.605,1.605,0,0,0-.745,2.693l4.176,4.176-1.386,5.543a1.606,1.606,0,0,0,2.277,1.825l5.7-2.852,5.706,2.852a1.606,1.606,0,0,0,2.276-1.825l-1.386-5.543,4.176-4.176A1.606,1.606,0,0,0,206.426,127.776Zm-7.5,4.112a1.6,1.6,0,0,0-.422,1.524l.76,3.037-3.3-1.649a1.609,1.609,0,0,0-1.437,0l-3.3,1.649.76-3.037a1.606,1.606,0,0,0-.422-1.524l-2.812-2.812,3.673-.919a1.6,1.6,0,0,0,.946-.667l1.874-2.812,1.876,2.814a1.6,1.6,0,0,0,.946.667l3.673.919Z"
                  transform="translate(-183.998 -120.218)"/>
        </g>
        <g transform="translate(62.637 28.953)">
            <path class="rate-icon-b"
                  d="M334.426,151.776a1.606,1.606,0,0,0-1.158-1.129l-5.822-1.455-2.869-4.3a1.666,1.666,0,0,0-2.673,0l-2.868,4.3-5.822,1.455a1.605,1.605,0,0,0-.745,2.693l4.176,4.176-1.386,5.543a1.606,1.606,0,0,0,2.277,1.825l5.7-2.852,5.706,2.852a1.606,1.606,0,0,0,2.276-1.824l-1.386-5.543,4.176-4.176A1.606,1.606,0,0,0,334.426,151.776Zm-7.5,4.112a1.6,1.6,0,0,0-.422,1.524l.76,3.037-3.3-1.649a1.609,1.609,0,0,0-1.437,0l-3.3,1.649.76-3.037a1.606,1.606,0,0,0-.422-1.524l-2.812-2.812,3.673-.919a1.6,1.6,0,0,0,.946-.667l1.874-2.812,1.876,2.814a1.6,1.6,0,0,0,.946.667l3.673.919Z"
                  transform="translate(-311.998 -144.218)"/>
        </g>
        <g transform="translate(11.242 28.953)">
            <path class="rate-icon-b"
                  d="M78.426,151.776a1.606,1.606,0,0,0-1.158-1.129l-5.822-1.455-2.868-4.3a1.666,1.666,0,0,0-2.673,0l-2.868,4.3-5.822,1.455a1.605,1.605,0,0,0-.745,2.693l4.176,4.176-1.386,5.543a1.606,1.606,0,0,0,2.277,1.825l5.7-2.852,5.706,2.852a1.606,1.606,0,0,0,2.276-1.824l-1.386-5.543,4.176-4.176A1.606,1.606,0,0,0,78.426,151.776Zm-7.5,4.112a1.6,1.6,0,0,0-.422,1.524l.76,3.037-3.3-1.649a1.609,1.609,0,0,0-1.437,0l-3.3,1.649.76-3.037a1.606,1.606,0,0,0-.422-1.524l-2.812-2.812,3.673-.919a1.6,1.6,0,0,0,.946-.667l1.874-2.812,1.876,2.814a1.6,1.6,0,0,0,.946.667l3.673.919Z"
                  transform="translate(-55.998 -144.218)"/>
        </g>
        <g transform="translate(46.577 86.729)">
            <rect class="rate-icon-a" width="3.212" height="3.212"/>
        </g>
        <g transform="translate(46.577 80.305)">
            <rect class="rate-icon-a" width="3.212" height="3.212"/>
        </g>
        <path class="rate-icon-a"
              d="M94.759,9.637A1.606,1.606,0,0,0,96.365,8.03V1.606A1.606,1.606,0,0,0,94.759,0H1.606A1.606,1.606,0,0,0,0,1.606V8.03A1.606,1.606,0,0,0,1.606,9.637h9.637v8.03H1.606A1.606,1.606,0,0,0,0,19.273V94.759a1.606,1.606,0,0,0,1.606,1.606H94.759a1.606,1.606,0,0,0,1.606-1.606V19.273a1.606,1.606,0,0,0-1.606-1.606H85.123V9.637ZM33.916,93.153l1.044-9.4a4.826,4.826,0,0,1,2.422-3.663l6.808-3.839c.077.034.157.056.234.088.207.084.414.165.626.236.138.047.278.084.418.124.2.058.4.116.605.159.159.035.32.058.48.084.191.032.379.069.573.09.225.024.45.031.675.039.127.006.252.024.381.024s.254-.018.381-.022c.225-.008.45-.014.675-.039.193-.021.382-.058.573-.09.161-.027.321-.05.48-.084.206-.045.4-.1.605-.159.14-.04.279-.077.418-.124.212-.071.419-.153.626-.236.077-.032.157-.055.234-.088l6.808,3.839a4.828,4.828,0,0,1,2.422,3.663l1.044,9.4Zm10.216-29.1a9.588,9.588,0,0,0,2.9-2.44,30.082,30.082,0,0,0,5.438,2.542,29.1,29.1,0,0,0,3.705,1,9.717,9.717,0,0,1-4.688,7.86l-.022.008a6.767,6.767,0,0,1-6.564,0l-.022-.008a9.717,9.717,0,0,1-4.688-7.873A9.284,9.284,0,0,0,44.132,64.049ZM40.4,61.916a10.339,10.339,0,0,1,1.86-4.161l0,0A8.158,8.158,0,0,1,45.444,55.2c.043-.019.087-.04.132-.058a6.892,6.892,0,0,1,1.168-.368c.061-.013.125-.022.186-.034a6.616,6.616,0,0,1,1.253-.13,6.855,6.855,0,0,1,1.222.124c.084.016.169.027.252.047a7.017,7.017,0,0,1,1.054.326c.116.047.228.1.34.149a7.5,7.5,0,0,1,.808.432c.153.095.3.2.45.305q.3.214.58.461c.127.111.257.22.379.34a8.957,8.957,0,0,1,.668.742c.108.132.209.27.31.408a9.78,9.78,0,0,1,.6.924c.051.09.093.186.141.279a10.488,10.488,0,0,1,.482,1.065c.022.058.047.112.069.17a10.913,10.913,0,0,1,.408,1.421.356.356,0,0,1,.008.04c-.822-.2-1.622-.44-2.417-.72a27,27,0,0,1-6.063-3.032,1.606,1.606,0,0,0-2.292.544A6.638,6.638,0,0,1,42.6,61.223,6,6,0,0,1,40.4,61.916Zm52.75-41.037V93.153H65.681L64.6,83.4a8.049,8.049,0,0,0-4.036-6.108L55.2,74.267a13.575,13.575,0,0,0,4.226-10.024c0-.145-.014-.283-.019-.426,0,0,0,0,0-.008,0-.024,0-.048,0-.072q-.019-.59-.084-1.168c-.006-.055-.014-.109-.022-.164-.043-.35-.1-.7-.165-1.034-.024-.122-.055-.239-.082-.36-.059-.262-.12-.522-.193-.776-.063-.22-.135-.434-.207-.647-.05-.146-.1-.3-.151-.44-.122-.328-.26-.646-.4-.959-.013-.027-.024-.055-.037-.082a11.07,11.07,0,0,0-9.874-6.713,9.951,9.951,0,0,0-1.119.064c-.162.019-.321.055-.482.08-.2.034-.4.059-.6.1s-.4.111-.6.169c-.149.043-.3.08-.446.132-.22.075-.432.169-.647.259-.117.05-.238.093-.353.148-.225.106-.443.226-.66.347-.1.055-.2.1-.294.162-.223.133-.438.283-.654.432-.084.058-.169.112-.251.173-.215.161-.422.332-.628.509-.074.063-.149.124-.222.19-.2.185-.4.381-.593.581-.064.067-.132.133-.194.2-.191.207-.373.426-.551.647-.058.072-.116.143-.172.215-.175.23-.34.467-.5.71-.05.075-.1.148-.146.225-.159.252-.31.512-.453.777-.04.074-.079.146-.117.22-.143.275-.275.557-.4.845-.031.071-.061.141-.09.214q-.183.448-.337.912c-.022.066-.043.132-.064.2q-.152.482-.27.981l-.039.172q-.116.518-.2,1.054l-.019.143q-.075.552-.109,1.115l0,.048s0,.01,0,.014c-.013.27-.034.535-.034.806a13.57,13.57,0,0,0,4.227,10.024L35.806,77.29A8.049,8.049,0,0,0,31.77,83.4l-1.086,9.755H3.212V20.879h8.03v3.212A1.606,1.606,0,0,0,12.849,25.7h6.424a1.606,1.606,0,0,0,1.606-1.606V20.879H75.486v3.212A1.606,1.606,0,0,0,77.092,25.7h6.424a1.606,1.606,0,0,0,1.606-1.606V20.879Zm-78.7,1.606V9.637h3.212V22.485Zm6.424-4.818V9.637H75.486v8.03ZM78.7,22.485V9.637h3.212V22.485ZM83.517,6.424H3.212V3.212H93.153V6.424Z"/>
    </g>
</svg>