<svg xmlns="http://www.w3.org/2000/svg" width="48" height="48" viewBox="0 0 48 48"><defs><style>.sad-12983647612783409812{opacity:0.8;}</style></defs><g class="sad-12983647612783409812"><g transform="translate(14.598 29.084)"><path fill="#f76b3b" d="M155.094,305.491a12.3,12.3,0,0,0-18.8,0l2.468,1.944a9.166,9.166,0,0,1,13.874.006l-.005-.006Z" transform="translate(-136.29 -301.122)"/></g><path fill="#f76b3b" d="M40.971,7.029A24,24,0,0,0,7.029,40.971,24,24,0,0,0,40.971,7.029ZM24,44.25A20.25,20.25,0,1,1,44.25,24,20.273,20.273,0,0,1,24,44.25Z"/><g transform="translate(13.046 14.208)"><circle fill="#f76b3b" cx="2.513" cy="2.513" r="2.513"/></g><g transform="translate(29.928 14.208)"><circle fill="#f76b3b" cx="2.513" cy="2.513" r="2.513"/></g></g></svg>