<svg xmlns="http://www.w3.org/2000/svg" width="450" height="260.536" viewBox="0 0 450 260.536"><defs><style>.a-sefaresh-az-darookhane{fill:#f5f6f8;}.aq-sefaresh-az-darookhane,.b-sefaresh-az-darookhane,.u-sefaresh-az-darookhane{fill:#fff;}.c-sefaresh-az-darookhane{fill:#c5cdcd;}.d-sefaresh-az-darookhane{fill:#6bad3d;}.e-sefaresh-az-darookhane{fill:#719433;}.f-sefaresh-az-darookhane{fill:#8fba41;}.g-sefaresh-az-darookhane{fill:#8fa34f;}.h-sefaresh-az-darookhane{fill:#96b043;}.i-sefaresh-az-darookhane{fill:#4ea33c;}.j-sefaresh-az-darookhane{fill:#1d8504;}.k-sefaresh-az-darookhane{fill:#573d33;}.l-sefaresh-az-darookhane{fill:#a8d632;}.m-sefaresh-az-darookhane{fill:#363636;}.n-sefaresh-az-darookhane{fill:#e1fffd;}.o-sefaresh-az-darookhane{fill:#27528d;}.p-sefaresh-az-darookhane{fill:#f76b3b;}.q-sefaresh-az-darookhane{fill:#3b98b0;}.r-sefaresh-az-darookhane{fill:#3d3d3d;}.s-sefaresh-az-darookhane{fill:#208dbf;}.t-sefaresh-az-darookhane{fill:#196d94;}.u-sefaresh-az-darookhane{opacity:0.2;}.v-sefaresh-az-darookhane{fill:#8cdbff;}.w-sefaresh-az-darookhane{fill:#165e80;}.x-sefaresh-az-darookhane{fill:#63ceff;}.y-sefaresh-az-darookhane{fill:#233457;}.z-sefaresh-az-darookhane{fill:#4da4cc;}.aa-sefaresh-az-darookhane{fill:#6eb6d6;}.ab-sefaresh-az-darookhane{fill:#9ecfe6;}.ac-sefaresh-az-darookhane{fill:#36538d;}.ad-sefaresh-az-darookhane{fill:#186b91;}.ae-sefaresh-az-darookhane{opacity:0.7;}.af-sefaresh-az-darookhane{fill:#1b8a00;}.ag-sefaresh-az-darookhane{fill:#23b000;}.ah-sefaresh-az-darookhane{fill:#6ec200;}.ai-sefaresh-az-darookhane{fill:#4a8200;}.aj-sefaresh-az-darookhane{fill:#6588d4;}.ak-sefaresh-az-darookhane{fill:#7ae4ff;}.al-sefaresh-az-darookhane{fill:#f1c40f;}.am-sefaresh-az-darookhane{fill:#143d4d;}.an-sefaresh-az-darookhane{fill:#216580;}.ao-sefaresh-az-darookhane{fill:#b3e9ff;}.ap-sefaresh-az-darookhane{fill:#297b8f;}.aq-sefaresh-az-darookhane{font-size:16px;font-family:IRANYekanWeb-Bold, IRANYekanWeb;font-weight:700;}.ar-sefaresh-az-darookhane{fill:#c0ff6d;}.as-sefaresh-az-darookhane{fill:#6c8f14;}.at-sefaresh-az-darookhane{fill:#5c4036;}.au-sefaresh-az-darookhane{fill:#68d63c;}.av-sefaresh-az-darookhane{fill:#121212;}.aw-sefaresh-az-darookhane{fill:#fcff4e;}</style></defs><path class="a-sefaresh-az-darookhane" d="M215.318,0C327.431,0,418.427,90.248,418.427,201.44a199.579,199.579,0,0,1-7.3,53.882H19.7a199.58,199.58,0,0,1-7.3-53.882C12.208,90.248,103.2,0,215.318,0" transform="translate(9.152)"/><path class="b-sefaresh-az-darookhane" d="M251.352,48.331a28.757,28.757,0,0,0-57.1-.24A21.117,21.117,0,0,0,174.1,69.2v.48A20.991,20.991,0,0,0,195.212,90.8h53.021a20.991,20.991,0,0,0,21.112-21.112V69.2A21.181,21.181,0,0,0,251.352,48.331Z" transform="translate(166.923 -1.807)"/><path class="b-sefaresh-az-darookhane" d="M71.329,47.912a19.608,19.608,0,0,0-38.894-.224A14.432,14.432,0,0,0,18.8,61.994v.224A14.406,14.406,0,0,0,33.106,76.523H68.87A14.406,14.406,0,0,0,83.176,62.218v-.224A13.845,13.845,0,0,0,71.329,47.912Z" transform="translate(-2.81 17.455)"/><path class="c-sefaresh-az-darookhane" d="M355.831,131.731V98.708H340.774v17.9H328.651V85.673H308.51V75.244H288.369V98.708H277.615V46.219L252.585,55.43V80.459H242.417V27.1H215.628V59.6h-19.75V104.1H186.3v-25.2H166.352V43.785l-18.381-13.9V75.94H133.11V65.859L111.8,77.33V95.058H99.477V46.566h-22.1v75.258H63.106v-7.3H45.7v15.816H28.3v75.606H47.854v-5.388h34.22v-2.086h17.4v-4h24.247V183h9.386v5.909h14.861v2.259h18.381v-3.129H186.3v6.6l9.582.174v-8.69h19.75v8.343h21.705v1.738h15.252v1.738H295.8v-1.738h8.8v1.738h24.051v-1.738h25.225v5.736h20.141V131.731Z" transform="translate(20.887 42.249)"/><g transform="translate(0.869 205.543)"><path class="d-sefaresh-az-darookhane" d="M265.164,147.133c-1.217-7.126-5.562-12.688-10.95-14.774a25.668,25.668,0,0,0-.174-3.65c-1.217-7.126-6.778-12.166-12.688-11.3-3.476.521-6.083,3.129-7.647,6.6a16.311,16.311,0,0,0-9.733-2.433c-3.65-4.345-8.864-6.778-14.078-5.909-8.864,1.39-14.6,11.3-12.862,22.073a22.774,22.774,0,0,0,4.519,10.428C200.856,148.871,265.164,147.133,265.164,147.133Z" transform="translate(182.75 -98.049)"/><path class="e-sefaresh-az-darookhane" d="M214.719,156.629c2.086-13.9-5.562-27.635-17.033-30.416a17.139,17.139,0,0,0-12.166,1.39,23.868,23.868,0,0,0-.869-4.867c-3.3-12.688-14.252-19.988-24.507-16.338-5.04,1.912-9.038,6.083-11.471,11.471a15.827,15.827,0,0,0-12.862-1.043c-9.907,3.65-15.469,16.512-12.34,28.678a22.918,22.918,0,0,0,8.517,13.209Z" transform="translate(115.339 -105.459)"/><path class="f-sefaresh-az-darookhane" d="M118.819,156.629c2.086-13.9-5.562-27.635-17.033-30.416a17.139,17.139,0,0,0-12.166,1.39,23.868,23.868,0,0,0-.869-4.867c-3.3-12.688-14.252-19.988-24.507-16.338-5.04,1.912-9.038,6.083-11.471,11.471a15.827,15.827,0,0,0-12.862-1.043c-9.907,3.65-15.469,16.512-12.34,28.678a22.918,22.918,0,0,0,8.517,13.209Z" transform="translate(18.836 -105.459)"/><path class="g-sefaresh-az-darookhane" d="M55.4,150.574l106.022.521c-.521-14.947-10.95-27.114-23.29-26.94-5.736,0-10.776,2.781-14.6,7.126-4.345-10.428-13.035-17.554-23.116-17.381-11.124.174-20.335,9.386-22.769,21.9C68.609,134.584,59.571,140.146,55.4,150.574Z" transform="translate(52.102 -99.231)"/><path class="h-sefaresh-az-darookhane" d="M155.8,150.574l106.022.521c-.521-14.947-10.95-27.114-23.29-26.94-5.736,0-10.776,2.781-14.6,7.126-4.345-10.428-13.035-17.554-23.116-17.381-11.124.174-20.335,9.386-22.769,21.9C169.009,134.584,159.8,140.146,155.8,150.574Z" transform="translate(152.548 -99.231)"/><path class="i-sefaresh-az-darookhane" d="M78.191,148.207c1.39-8.69-1.39-18.076-7.647-23.464a16.227,16.227,0,0,0-21.726,0,20.415,20.415,0,0,0-7.474-6.952c-10.255-5.562-22.247.348-26.592,12.862a29.357,29.357,0,0,0-1.39,14.426,14.129,14.129,0,0,0-3.824-.174c-4.345.348-7.126,1.043-9.038,2.607Z" transform="translate(-0.5 -97.906)"/></g><g transform="translate(79.592 177.109)"><circle class="j-sefaresh-az-darookhane" cx="29.199" cy="29.199" r="29.199"/><path class="k-sefaresh-az-darookhane" d="M60.545,105.332l2.781,44.842a.821.821,0,0,1-.869.869H57.069a.821.821,0,0,1-.869-.869l2.607-44.842C58.981,104.289,60.545,104.289,60.545,105.332Z" transform="translate(-30.303 -77.697)"/><g transform="translate(20.509 63.787)"><path class="l-sefaresh-az-darookhane" d="M53.1,138.314H78.128a12.514,12.514,0,0,0-25.028,0Z" transform="translate(-53.1 -125.8)"/></g></g><rect class="m-sefaresh-az-darookhane" width="450" height="7.126" transform="translate(0 253.41)"/><g transform="translate(129.053 116.972)"><rect class="n-sefaresh-az-darookhane" width="185.278" height="97.158" transform="translate(5.562 31.98)"/><rect class="o-sefaresh-az-darookhane" width="196.401" height="31.98"/><circle class="p-sefaresh-az-darookhane" cx="14.078" cy="14.078" r="14.078" transform="translate(143.912 1.912)"/><rect class="o-sefaresh-az-darookhane" width="111.931" height="27.461" transform="translate(4.519 2.259)"/><rect class="q-sefaresh-az-darookhane" width="185.278" height="3.476" transform="translate(5.562 31.98)"/><g transform="translate(96.636 44.494)"><rect class="r-sefaresh-az-darookhane" width="80.299" height="52.663" transform="translate(1.912 2.086)"/><rect class="s-sefaresh-az-darookhane" width="76.996" height="48.84" transform="translate(3.65 3.998)"/><path class="t-sefaresh-az-darookhane" d="M185.575,98.247V95.293H181.23v2.955H178.97V94.076a.748.748,0,0,0-.7-.7h0V92.164h-2.781v1.217a.748.748,0,0,0-.7.7v4.171h-1.043v-1.39a2.036,2.036,0,0,0-1.564-1.912v-.869H170.8v.869a2.033,2.033,0,0,0-1.39,1.912v1.39h-1.39V94.424H160.2v3.824h-.869V92.164h-7.821v6.083h-1.043V95.293h-7.821v2.955h-1.912V90.6h-7.821v7.647h-1.39V92.859h-4.867v5.388H123.7v1.217h65.7V98.247Z" transform="translate(-114.836 -72.35)"/><path class="t-sefaresh-az-darookhane" d="M185.5,91.157V88.2h-4.345v2.955H179.07V86.29h-4.345v4.867h-1.043V88.9h-4.171v2.259h-1.39V84.9H160.3v6.257h-.869V88.2h-7.821v2.955h-1.043V86.638h-7.821v4.519h-1.912V88.9h-7.821v2.259h-1.39V85.943h-4.867v5.214H123.8v1.217h65.7V91.157Z" transform="translate(-114.762 -76.557)"/><path class="t-sefaresh-az-darookhane" d="M127.724,110.474v-2.955h4.345v2.955h2.259v-4a.748.748,0,0,1,.7-.7h0v-1.217H137.8v1.217a.748.748,0,0,1,.7.7v4.171h1.043v-1.39a2.036,2.036,0,0,1,1.564-1.912v-.869h1.39v.869a2.033,2.033,0,0,1,1.39,1.912v1.39h1.39v-3.824H153.1v3.824h.869v-6.083h7.821v6.083h1.043v-2.955h7.821v2.955h1.912V103h7.821v7.647h1.39v-5.388h4.867v5.388H189.6v1.217H123.9v-1.217h3.824Z" transform="translate(-114.688 -63.198)"/><path class="t-sefaresh-az-darookhane" d="M127.8,103.557V100.6h4.171v2.955h2.259V98.69H138.4v4.867h1.043v-2.433h4.345v2.433H145V97.3h8v6.257h.7V100.6h8v2.955h1.043V98.864h7.821v4.693h1.912v-2.433h7.821v2.433h1.39V98.169h4.867v5.388H189.5v1.217H123.8v-1.217Z" transform="translate(-114.762 -67.405)"/><path class="u-sefaresh-az-darookhane" d="M142.757,82.4h-7.3L121.9,131.24h7.3Z" transform="translate(-116.164 -78.402)"/><path class="u-sefaresh-az-darookhane" d="M155.54,82.4H142.157L128.6,131.24h13.383Z" transform="translate(-111.219 -78.402)"/><path class="u-sefaresh-az-darookhane" d="M172.9,103.257V82.4h-5.04L154.3,131.24h10.428Z" transform="translate(-92.251 -78.402)"/><path class="t-sefaresh-az-darookhane" d="M202.722,80.1H118.6l1.912,2.086h80.3Z" transform="translate(-118.6 -80.1)"/><path class="v-sefaresh-az-darookhane" d="M118.6,113.859h84.122L200.81,111.6h-80.3Z" transform="translate(-118.6 -56.851)"/><path class="w-sefaresh-az-darookhane" d="M167.812,137.108V80.1L165.9,82.186v52.663Z" transform="translate(-83.69 -80.1)"/><path class="x-sefaresh-az-darookhane" d="M118.6,80.1v57.008l1.912-2.259V82.186Z" transform="translate(-118.6 -80.1)"/></g><path class="b-sefaresh-az-darookhane" d="M164.547,65.136h-5.736V59.4h-3.476v5.736H149.6v3.476h5.736v5.736h3.476V68.612h5.736Z" transform="translate(0.916 -50.883)"/><g transform="translate(30.416 62.57)"><rect class="y-sefaresh-az-darookhane" width="38.759" height="60.658" transform="translate(2.607)"/><rect class="y-sefaresh-az-darookhane" width="43.973" height="5.909" transform="translate(0 60.658)"/><rect class="z-sefaresh-az-darookhane" width="37.021" height="59.442" transform="translate(3.476 1.217)"/><path class="aa-sefaresh-az-darookhane" d="M108.031,104.221H87l.869-.521h19.64Z" transform="translate(-75.703 -80.758)"/><path class="ab-sefaresh-az-darookhane" d="M87.869,109.974l-.869.521V95.2l.869.521Z" transform="translate(-75.703 -87.031)"/><path class="ac-sefaresh-az-darookhane" d="M99.321,110.495l-.521-.521V95.721l.521-.521Z" transform="translate(-66.993 -87.031)"/><path class="y-sefaresh-az-darookhane" d="M107.509,95.721H87.869L87,95.2h21.031Z" transform="translate(-75.703 -87.031)"/><rect class="ad-sefaresh-az-darookhane" width="19.814" height="14.252" transform="translate(12.166 8.69)"/><rect class="s-sefaresh-az-darookhane" width="17.902" height="13.035" transform="translate(13.035 9.386)"/><g class="ae-sefaresh-az-darookhane" transform="translate(14.947 16.164)"><rect class="b-sefaresh-az-darookhane" width="13.905" height="5.04"/></g><path class="r-sefaresh-az-darookhane" d="M101.769,114.031h0a.821.821,0,0,1-.869-.869v-4.693a.821.821,0,0,1,.869-.869h0a.821.821,0,0,1,.869.869v4.693A.821.821,0,0,1,101.769,114.031Z" transform="translate(-65.444 -77.879)"/><rect class="ab-sefaresh-az-darookhane" width="31.285" height="15.816" transform="translate(6.257 43.452)"/><path class="u-sefaresh-az-darookhane" d="M95,95.9H92.224L88.4,108.762h2.607Z" transform="translate(-74.669 -86.514)"/><path class="u-sefaresh-az-darookhane" d="M101.538,95.9H96.324L92.5,108.762h5.214Z" transform="translate(-71.643 -86.514)"/></g><g transform="translate(90.553 104.458)"><g transform="translate(0 10.95)"><rect class="y-sefaresh-az-darookhane" width="95.593" height="13.731"/></g><path class="af-sefaresh-az-darookhane" d="M141.793,122.967H129.8c0-2.781,2.607-4.867,6.083-4.867C139.186,118.1,141.793,120.186,141.793,122.967Z" transform="translate(-104.25 -112.017)"/><path class="ag-sefaresh-az-darookhane" d="M141.831,124.59H120.8c0-4.693,4.693-8.69,10.6-8.69C137.138,115.9,141.831,119.9,141.831,124.59Z" transform="translate(-110.893 -113.641)"/><path class="ag-sefaresh-az-darookhane" d="M167.635,125.181H147.3A10.127,10.127,0,0,1,157.555,115.1,9.978,9.978,0,0,1,167.635,125.181Z" transform="translate(-91.334 -114.231)"/><path class="ah-sefaresh-az-darookhane" d="M157.047,125.55H134.8a11.125,11.125,0,0,1,22.247,0Z" transform="translate(-100.56 -114.6)"/><path class="ai-sefaresh-az-darookhane" d="M168.331,123.778H154.6A6.939,6.939,0,0,1,161.552,117,6.678,6.678,0,0,1,168.331,123.778Z" transform="translate(-85.947 -112.829)"/><g transform="translate(13.905 2.607)"><path class="aj-sefaresh-az-darookhane" d="M124.9,118.919s0-2.955,1.043-2.607S124.9,118.919,124.9,118.919Z" transform="translate(-121.771 -115.964)"/><path class="ak-sefaresh-az-darookhane" d="M124.9,118.323s.174-1.39.521-1.217C125.769,117.106,124.9,118.323,124.9,118.323Z" transform="translate(-121.771 -115.368)"/><path class="aj-sefaresh-az-darookhane" d="M125.1,118.467s2.086-2.086,2.433-1.043C127.881,118.293,125.1,118.467,125.1,118.467Z" transform="translate(-121.624 -115.338)"/><path class="ak-sefaresh-az-darookhane" d="M125.1,118.133s1.043-.7,1.217-.521C126.317,117.786,125.1,118.133,125.1,118.133Z" transform="translate(-121.624 -115.005)"/><path class="aj-sefaresh-az-darookhane" d="M125.1,118s2.955,0,2.607,1.043C127.186,120.086,125.1,118,125.1,118Z" transform="translate(-121.624 -114.698)"/><path class="ak-sefaresh-az-darookhane" d="M125.1,118s1.39.174,1.217.521C126.143,118.7,125.1,118,125.1,118Z" transform="translate(-121.624 -114.698)"/><path class="aj-sefaresh-az-darookhane" d="M124.9,118.1s2.086,2.086,1.043,2.433C125.074,121.055,124.9,118.1,124.9,118.1Z" transform="translate(-121.771 -114.624)"/><path class="ak-sefaresh-az-darookhane" d="M124.9,118.1s.7,1.043.521,1.217S124.9,118.1,124.9,118.1Z" transform="translate(-121.771 -114.624)"/><path class="aj-sefaresh-az-darookhane" d="M125.339,118.1s0,2.955-1.043,2.607C123.427,120.359,125.339,118.1,125.339,118.1Z" transform="translate(-122.384 -114.624)"/><path class="ak-sefaresh-az-darookhane" d="M125.033,118.1s-.174,1.39-.521,1.217C124.338,119.317,125.033,118.1,125.033,118.1Z" transform="translate(-122.079 -114.624)"/><path class="aj-sefaresh-az-darookhane" d="M125.759,118s-2.086,2.086-2.433,1.043C122.8,118.174,125.759,118,125.759,118Z" transform="translate(-122.979 -114.698)"/><path class="ak-sefaresh-az-darookhane" d="M125.223,118s-1.043.7-1.217.521S125.223,118,125.223,118Z" transform="translate(-122.442 -114.698)"/><path class="aj-sefaresh-az-darookhane" d="M125.819,118.467s-2.955,0-2.607-1.043S125.819,118.467,125.819,118.467Z" transform="translate(-123.038 -115.338)"/><path class="ak-sefaresh-az-darookhane" d="M125.223,118.133s-1.39-.174-1.217-.521C124.006,117.438,125.223,118.133,125.223,118.133Z" transform="translate(-122.442 -115.005)"/><path class="aj-sefaresh-az-darookhane" d="M125.367,118.859s-2.086-2.086-1.043-2.433C125.193,115.9,125.367,118.859,125.367,118.859Z" transform="translate(-122.412 -115.905)"/><path class="ak-sefaresh-az-darookhane" d="M125.033,118.323s-.7-1.043-.521-1.217S125.033,118.323,125.033,118.323Z" transform="translate(-122.079 -115.368)"/><path class="ak-sefaresh-az-darookhane" d="M125.1,118.881s-1.043-2.781,0-2.781C125.966,116.274,125.1,118.881,125.1,118.881Z" transform="translate(-121.968 -116.1)"/><path class="aj-sefaresh-az-darookhane" d="M124.966,118.29s-.348-1.39,0-1.39C125.139,117.074,124.966,118.29,124.966,118.29Z" transform="translate(-121.837 -115.51)"/><path class="ak-sefaresh-az-darookhane" d="M125,118.662s1.217-2.607,1.912-1.912S125,118.662,125,118.662Z" transform="translate(-121.698 -115.707)"/><path class="aj-sefaresh-az-darookhane" d="M125,118.177s.7-1.043.869-.869S125,118.177,125,118.177Z" transform="translate(-121.698 -115.223)"/><path class="ak-sefaresh-az-darookhane" d="M125.1,118.1s2.781-1.043,2.781,0C127.707,119.14,125.1,118.1,125.1,118.1Z" transform="translate(-121.624 -114.968)"/><path class="aj-sefaresh-az-darookhane" d="M125.1,117.933s1.39-.174,1.39,0C126.317,118.28,125.1,117.933,125.1,117.933Z" transform="translate(-121.624 -114.804)"/><path class="ak-sefaresh-az-darookhane" d="M125,118.1s2.607,1.217,1.912,1.912S125,118.1,125,118.1Z" transform="translate(-121.698 -114.624)"/><path class="aj-sefaresh-az-darookhane" d="M125,118.1s1.043.7.869.869S125,118.1,125,118.1Z" transform="translate(-121.698 -114.624)"/><path class="ak-sefaresh-az-darookhane" d="M125.1,118.2s1.043,2.781,0,2.781C124.054,120.807,125.1,118.2,125.1,118.2Z" transform="translate(-121.968 -114.55)"/><path class="aj-sefaresh-az-darookhane" d="M124.966,118.2s.348,1.39,0,1.39C124.618,119.417,124.966,118.2,124.966,118.2Z" transform="translate(-121.837 -114.55)"/><path class="ak-sefaresh-az-darookhane" d="M125.562,118.1s-1.217,2.607-1.912,1.912S125.562,118.1,125.562,118.1Z" transform="translate(-122.781 -114.624)"/><path class="aj-sefaresh-az-darookhane" d="M125.077,118.1s-.7,1.043-.869.869S125.077,118.1,125.077,118.1Z" transform="translate(-122.296 -114.624)"/><path class="ak-sefaresh-az-darookhane" d="M125.881,118.064s-2.781,1.043-2.781,0C123.1,117.195,125.881,118.064,125.881,118.064Z" transform="translate(-123.1 -114.936)"/><path class="aj-sefaresh-az-darookhane" d="M125.29,117.933s-1.39.348-1.39,0C123.9,117.759,125.29,117.933,125.29,117.933Z" transform="translate(-122.51 -114.804)"/><path class="ak-sefaresh-az-darookhane" d="M125.562,118.662s-2.607-1.217-1.912-1.912S125.562,118.662,125.562,118.662Z" transform="translate(-122.781 -115.707)"/><path class="aj-sefaresh-az-darookhane" d="M125.077,118.177s-1.043-.7-.869-.869S125.077,118.177,125.077,118.177Z" transform="translate(-122.296 -115.223)"/><circle class="al-sefaresh-az-darookhane" cx="0.869" cy="0.869" r="0.869" transform="translate(1.874 3.603) rotate(-68.08)"/></g><g transform="translate(37.368 1.043)"><path class="aj-sefaresh-az-darookhane" d="M137.9,117.055s0-2.086.7-1.738C139.29,115.49,137.9,117.055,137.9,117.055Z" transform="translate(-135.641 -115.143)"/><path class="ak-sefaresh-az-darookhane" d="M137.9,116.669s.174-.869.348-.869S137.9,116.669,137.9,116.669Z" transform="translate(-135.641 -114.757)"/><path class="aj-sefaresh-az-darookhane" d="M138,116.678s1.39-1.39,1.738-.7S138,116.678,138,116.678Z" transform="translate(-135.567 -114.766)"/><path class="ak-sefaresh-az-darookhane" d="M138,116.463s.7-.521.869-.348C138.869,116.289,138,116.463,138,116.463Z" transform="translate(-135.567 -114.551)"/><path class="aj-sefaresh-az-darookhane" d="M138,116.5s2.086,0,1.738.7C139.564,117.717,138,116.5,138,116.5Z" transform="translate(-135.567 -114.241)"/><path class="ak-sefaresh-az-darookhane" d="M138,116.5s.869.174.869.348Z" transform="translate(-135.567 -114.241)"/><path class="aj-sefaresh-az-darookhane" d="M137.9,116.5s1.39,1.39.7,1.738C138.074,118.586,137.9,116.5,137.9,116.5Z" transform="translate(-135.641 -114.241)"/><path class="ak-sefaresh-az-darookhane" d="M137.9,116.5s.521.7.348.869C138.248,117.543,137.9,116.5,137.9,116.5Z" transform="translate(-135.641 -114.241)"/><path class="aj-sefaresh-az-darookhane" d="M138.15,116.5s0,2.086-.7,1.738C136.934,118.064,138.15,116.5,138.15,116.5Z" transform="translate(-136.065 -114.241)"/><path class="ak-sefaresh-az-darookhane" d="M137.963,116.5s-.174.869-.348.869S137.963,116.5,137.963,116.5Z" transform="translate(-135.877 -114.241)"/><path class="aj-sefaresh-az-darookhane" d="M138.555,116.5s-1.39,1.39-1.738.7S138.555,116.5,138.555,116.5Z" transform="translate(-136.469 -114.241)"/><path class="ak-sefaresh-az-darookhane" d="M138.177,116.5s-.7.521-.869.348S138.177,116.5,138.177,116.5Z" transform="translate(-136.092 -114.241)"/><path class="aj-sefaresh-az-darookhane" d="M138.555,116.65s-2.086,0-1.738-.7C136.99,115.434,138.555,116.65,138.555,116.65Z" transform="translate(-136.469 -114.739)"/><path class="ak-sefaresh-az-darookhane" d="M138.169,116.463s-.869-.174-.869-.348S138.169,116.463,138.169,116.463Z" transform="translate(-136.083 -114.551)"/><path class="aj-sefaresh-az-darookhane" d="M138.178,117.055s-1.39-1.39-.7-1.738S138.178,117.055,138.178,117.055Z" transform="translate(-136.092 -115.143)"/><path class="ak-sefaresh-az-darookhane" d="M137.963,116.677s-.521-.7-.348-.869S137.963,116.677,137.963,116.677Z" transform="translate(-135.877 -114.765)"/><path class="ak-sefaresh-az-darookhane" d="M138.031,117.112s-.7-1.912,0-1.912S138.031,117.112,138.031,117.112Z" transform="translate(-135.772 -115.2)"/><path class="aj-sefaresh-az-darookhane" d="M137.933,116.677s-.174-.869,0-.869C138.107,115.634,137.933,116.677,137.933,116.677Z" transform="translate(-135.673 -114.765)"/><path class="ak-sefaresh-az-darookhane" d="M138,116.929s.869-1.912,1.39-1.39C139.738,116.06,138,116.929,138,116.929Z" transform="translate(-135.567 -115.017)"/><path class="aj-sefaresh-az-darookhane" d="M138,116.6s.521-.7.7-.7C138.7,116.074,138,116.6,138,116.6Z" transform="translate(-135.567 -114.683)"/><path class="ak-sefaresh-az-darookhane" d="M138,116.531s1.912-.7,1.912,0S138,116.531,138,116.531Z" transform="translate(-135.567 -114.446)"/><path class="aj-sefaresh-az-darookhane" d="M138,116.433s.869-.174.869,0C139.043,116.607,138,116.433,138,116.433Z" transform="translate(-135.567 -114.347)"/><path class="ak-sefaresh-az-darookhane" d="M138,116.5s1.912.869,1.39,1.39C138.869,118.238,138,116.5,138,116.5Z" transform="translate(-135.567 -114.241)"/><path class="aj-sefaresh-az-darookhane" d="M138,116.5s.7.521.7.7C138.521,117.2,138,116.5,138,116.5Z" transform="translate(-135.567 -114.241)"/><path class="ak-sefaresh-az-darookhane" d="M138.031,116.5s.7,1.912,0,1.912S138.031,116.5,138.031,116.5Z" transform="translate(-135.772 -114.241)"/><path class="aj-sefaresh-az-darookhane" d="M137.933,116.5s.174.869,0,.869C137.759,117.543,137.933,116.5,137.933,116.5Z" transform="translate(-135.673 -114.241)"/><path class="ak-sefaresh-az-darookhane" d="M138.429,116.5s-.869,1.912-1.39,1.39S138.429,116.5,138.429,116.5Z" transform="translate(-136.343 -114.241)"/><path class="aj-sefaresh-az-darookhane" d="M138.1,116.5s-.521.7-.7.7C137.236,117.021,138.1,116.5,138.1,116.5Z" transform="translate(-136.019 -114.241)"/><path class="ak-sefaresh-az-darookhane" d="M138.512,116.531s-1.912.7-1.912,0C136.774,115.836,138.512,116.531,138.512,116.531Z" transform="translate(-136.6 -114.446)"/><path class="aj-sefaresh-az-darookhane" d="M138.069,116.433s-.869.174-.869,0S138.069,116.433,138.069,116.433Z" transform="translate(-136.157 -114.347)"/><path class="ak-sefaresh-az-darookhane" d="M138.429,116.91s-1.912-.869-1.39-1.39C137.56,115.172,138.429,116.91,138.429,116.91Z" transform="translate(-136.343 -114.998)"/><path class="aj-sefaresh-az-darookhane" d="M138.1,116.6s-.7-.521-.7-.7C137.574,115.9,138.1,116.6,138.1,116.6Z" transform="translate(-136.01 -114.683)"/><circle class="al-sefaresh-az-darookhane" cx="0.695" cy="0.695" r="0.695" transform="translate(1.33 2.444) rotate(-68.08)"/></g><g transform="translate(44.842 3.121)"><path class="aj-sefaresh-az-darookhane" d="M142.8,119.119s0-2.955,1.043-2.607S142.8,119.119,142.8,119.119Z" transform="translate(-139.498 -116.331)"/><path class="ak-sefaresh-az-darookhane" d="M142.8,118.523s.348-1.39.521-1.217C143.669,117.306,142.8,118.523,142.8,118.523Z" transform="translate(-139.498 -115.735)"/><path class="aj-sefaresh-az-darookhane" d="M143,118.667s2.26-2.086,2.607-1.043C145.955,118.493,143,118.667,143,118.667Z" transform="translate(-139.35 -115.705)"/><path class="ak-sefaresh-az-darookhane" d="M143,118.333s1.217-.7,1.217-.521S143,118.333,143,118.333Z" transform="translate(-139.35 -115.371)"/><path class="aj-sefaresh-az-darookhane" d="M143,118.3s2.955,0,2.607,1.043C145.086,120.212,143,118.3,143,118.3Z" transform="translate(-139.35 -114.99)"/><path class="ak-sefaresh-az-darookhane" d="M143,118.3s1.39.348,1.217.521S143,118.3,143,118.3Z" transform="translate(-139.35 -114.99)"/><path class="aj-sefaresh-az-darookhane" d="M142.8,118.4s2.086,2.259,1.043,2.607C142.974,121.355,142.8,118.4,142.8,118.4Z" transform="translate(-139.498 -114.917)"/><path class="ak-sefaresh-az-darookhane" d="M142.8,118.4s.7,1.217.521,1.217C143.148,119.79,142.8,118.4,142.8,118.4Z" transform="translate(-139.498 -114.917)"/><path class="aj-sefaresh-az-darookhane" d="M143.267,118.4s0,2.955-1.043,2.607S143.267,118.4,143.267,118.4Z" transform="translate(-140.138 -114.917)"/><path class="ak-sefaresh-az-darookhane" d="M142.933,118.4s-.348,1.39-.521,1.217S142.933,118.4,142.933,118.4Z" transform="translate(-139.805 -114.917)"/><path class="aj-sefaresh-az-darookhane" d="M143.732,118.3s-2.259,2.086-2.607,1.043C140.6,118.3,143.732,118.3,143.732,118.3Z" transform="translate(-140.777 -114.99)"/><path class="ak-sefaresh-az-darookhane" d="M143.123,118.3s-1.217.7-1.217.521C141.733,118.474,143.123,118.3,143.123,118.3Z" transform="translate(-140.168 -114.99)"/><path class="aj-sefaresh-az-darookhane" d="M143.719,118.667s-2.955,0-2.607-1.043S143.719,118.667,143.719,118.667Z" transform="translate(-140.764 -115.705)"/><path class="ak-sefaresh-az-darookhane" d="M143.123,118.333s-1.39-.348-1.217-.521C141.906,117.638,143.123,118.333,143.123,118.333Z" transform="translate(-140.168 -115.371)"/><path class="aj-sefaresh-az-darookhane" d="M143.267,119.132s-2.086-2.259-1.043-2.607C143.093,116,143.267,119.132,143.267,119.132Z" transform="translate(-140.138 -116.344)"/><path class="ak-sefaresh-az-darookhane" d="M142.933,118.523s-.7-1.217-.521-1.217C142.586,117.133,142.933,118.523,142.933,118.523Z" transform="translate(-139.805 -115.735)"/><path class="ak-sefaresh-az-darookhane" d="M143,119.184s-1.043-2.781,0-2.781C144.04,116.229,143,119.184,143,119.184Z" transform="translate(-139.694 -116.396)"/><path class="aj-sefaresh-az-darookhane" d="M142.866,118.59s-.348-1.39,0-1.39C143.039,117.2,142.866,118.59,142.866,118.59Z" transform="translate(-139.563 -115.802)"/><path class="ak-sefaresh-az-darookhane" d="M142.9,118.933s1.217-2.781,1.912-2.086C145.681,117.716,142.9,118.933,142.9,118.933Z" transform="translate(-139.424 -116.145)"/><path class="aj-sefaresh-az-darookhane" d="M142.9,118.45s.7-1.217,1.043-1.043C144.117,117.755,142.9,118.45,142.9,118.45Z" transform="translate(-139.424 -115.662)"/><path class="ak-sefaresh-az-darookhane" d="M143,118.4s2.781-1.043,2.781,0S143,118.4,143,118.4Z" transform="translate(-139.35 -115.261)"/><path class="aj-sefaresh-az-darookhane" d="M143,118.266s1.39-.348,1.39,0C144.39,118.439,143,118.266,143,118.266Z" transform="translate(-139.35 -115.13)"/><path class="ak-sefaresh-az-darookhane" d="M142.9,118.3s2.781,1.217,2.086,1.912C144.29,121.081,142.9,118.3,142.9,118.3Z" transform="translate(-139.424 -114.99)"/><path class="aj-sefaresh-az-darookhane" d="M142.9,118.3s1.217.7,1.043.869C143.769,119.517,142.9,118.3,142.9,118.3Z" transform="translate(-139.424 -114.99)"/><path class="ak-sefaresh-az-darookhane" d="M143,118.4s1.043,2.781,0,2.781S143,118.4,143,118.4Z" transform="translate(-139.694 -114.917)"/><path class="aj-sefaresh-az-darookhane" d="M142.866,118.4s.348,1.39,0,1.39S142.866,118.4,142.866,118.4Z" transform="translate(-139.563 -114.917)"/><path class="ak-sefaresh-az-darookhane" d="M143.483,118.3s-1.217,2.781-1.912,2.086C140.7,119.69,143.483,118.3,143.483,118.3Z" transform="translate(-140.529 -114.99)"/><path class="aj-sefaresh-az-darookhane" d="M142.977,118.3s-.7,1.217-.869,1.043S142.977,118.3,142.977,118.3Z" transform="translate(-140.023 -114.99)"/><path class="ak-sefaresh-az-darookhane" d="M143.681,118.4s-2.781,1.043-2.781,0S143.681,118.4,143.681,118.4Z" transform="translate(-140.9 -115.261)"/><path class="aj-sefaresh-az-darookhane" d="M143.09,118.266s-1.39.348-1.39,0C141.874,117.918,143.09,118.266,143.09,118.266Z" transform="translate(-140.31 -115.13)"/><path class="ak-sefaresh-az-darookhane" d="M143.533,118.862s-2.781-1.217-2.086-1.912C142.316,116.255,143.533,118.862,143.533,118.862Z" transform="translate(-140.578 -116.074)"/><path class="aj-sefaresh-az-darookhane" d="M143.05,118.377s-1.217-.7-1.043-.869C142.355,117.335,143.05,118.377,143.05,118.377Z" transform="translate(-140.095 -115.589)"/><circle class="al-sefaresh-az-darookhane" cx="1.043" cy="1.043" r="1.043" transform="translate(1.946 3.64) rotate(-68.08)"/></g><g transform="translate(61.875 2.607)"><path class="aj-sefaresh-az-darookhane" d="M152.2,118.29s0-2.26.869-2.086C153.764,116.552,152.2,118.29,152.2,118.29Z" transform="translate(-149.593 -116.03)"/><path class="ak-sefaresh-az-darookhane" d="M152.2,117.843s.174-1.043.348-1.043C152.721,116.974,152.2,117.843,152.2,117.843Z" transform="translate(-149.593 -115.583)"/><path class="aj-sefaresh-az-darookhane" d="M152.3,117.945s1.738-1.564,2.086-.869C154.559,117.771,152.3,117.945,152.3,117.945Z" transform="translate(-149.519 -115.511)"/><path class="ak-sefaresh-az-darookhane" d="M152.3,117.663s.869-.521,1.043-.348Z" transform="translate(-149.519 -115.229)"/><path class="aj-sefaresh-az-darookhane" d="M152.3,117.6s2.259,0,2.086.869C154.038,119.164,152.3,117.6,152.3,117.6Z" transform="translate(-149.519 -114.993)"/><path class="ak-sefaresh-az-darookhane" d="M152.3,117.6s1.043.174,1.043.348C153.169,118.121,152.3,117.6,152.3,117.6Z" transform="translate(-149.519 -114.993)"/><path class="aj-sefaresh-az-darookhane" d="M152.2,117.7s1.564,1.738.869,2.086C152.2,119.959,152.2,117.7,152.2,117.7Z" transform="translate(-149.593 -114.919)"/><path class="ak-sefaresh-az-darookhane" d="M152.2,117.7s.521.869.348,1.043C152.374,118.743,152.2,117.7,152.2,117.7Z" transform="translate(-149.593 -114.919)"/><path class="aj-sefaresh-az-darookhane" d="M152.545,117.7s0,2.259-.869,2.086C150.98,119.438,152.545,117.7,152.545,117.7Z" transform="translate(-150.111 -114.919)"/><path class="ak-sefaresh-az-darookhane" d="M152.289,117.7s-.174,1.043-.348,1.043C151.594,118.569,152.289,117.7,152.289,117.7Z" transform="translate(-149.856 -114.919)"/><path class="aj-sefaresh-az-darookhane" d="M152.9,117.6s-1.738,1.564-2.086.869S152.9,117.6,152.9,117.6Z" transform="translate(-150.641 -114.993)"/><path class="ak-sefaresh-az-darookhane" d="M152.443,117.6s-.869.521-1.043.348C151.4,117.774,152.443,117.6,152.443,117.6Z" transform="translate(-150.183 -114.993)"/><path class="aj-sefaresh-az-darookhane" d="M152.89,117.945s-2.259,0-2.086-.869C151.152,116.38,152.89,117.945,152.89,117.945Z" transform="translate(-150.63 -115.511)"/><path class="ak-sefaresh-az-darookhane" d="M152.443,117.689s-1.043-.174-1.043-.348C151.4,116.994,152.443,117.689,152.443,117.689Z" transform="translate(-150.183 -115.256)"/><path class="aj-sefaresh-az-darookhane" d="M152.545,118.3s-1.564-1.738-.869-2.086S152.545,118.3,152.545,118.3Z" transform="translate(-150.111 -116.041)"/><path class="ak-sefaresh-az-darookhane" d="M152.263,117.843s-.521-.869-.348-1.043Z" transform="translate(-149.829 -115.583)"/><path class="ak-sefaresh-az-darookhane" d="M152.264,118.359s-.869-2.086,0-2.259C153.133,116.1,152.264,118.359,152.264,118.359Z" transform="translate(-149.831 -116.1)"/><path class="aj-sefaresh-az-darookhane" d="M152.133,117.843s-.174-1.043,0-1.043S152.133,117.843,152.133,117.843Z" transform="translate(-149.7 -115.583)"/><path class="ak-sefaresh-az-darookhane" d="M152.2,118.1s.869-2.086,1.564-1.564C154.459,117.231,152.2,118.1,152.2,118.1Z" transform="translate(-149.593 -115.84)"/><path class="aj-sefaresh-az-darookhane" d="M152.2,117.705s.521-.869.7-.7S152.2,117.705,152.2,117.705Z" transform="translate(-149.593 -115.446)"/><path class="ak-sefaresh-az-darookhane" d="M152.3,117.664s2.259-.869,2.259,0C154.386,118.533,152.3,117.664,152.3,117.664Z" transform="translate(-149.519 -115.231)"/><path class="aj-sefaresh-az-darookhane" d="M152.3,117.533s1.043-.174,1.043,0S152.3,117.533,152.3,117.533Z" transform="translate(-149.519 -115.1)"/><path class="ak-sefaresh-az-darookhane" d="M152.2,117.6s2.086.869,1.564,1.564S152.2,117.6,152.2,117.6Z" transform="translate(-149.593 -114.993)"/><path class="aj-sefaresh-az-darookhane" d="M152.2,117.6s.869.521.7.7C152.9,118.643,152.2,117.6,152.2,117.6Z" transform="translate(-149.593 -114.993)"/><path class="ak-sefaresh-az-darookhane" d="M152.231,117.7s.869,2.086,0,2.259C151.536,119.959,152.231,117.7,152.231,117.7Z" transform="translate(-149.798 -114.919)"/><path class="aj-sefaresh-az-darookhane" d="M152.133,117.7s.174,1.043,0,1.043S152.133,117.7,152.133,117.7Z" transform="translate(-149.7 -114.919)"/><path class="ak-sefaresh-az-darookhane" d="M152.7,117.6s-.869,2.086-1.564,1.564C150.614,118.643,152.7,117.6,152.7,117.6Z" transform="translate(-150.44 -114.993)"/><path class="aj-sefaresh-az-darookhane" d="M152.305,117.6s-.521.869-.7.7C151.436,118.3,152.305,117.6,152.305,117.6Z" transform="translate(-150.046 -114.993)"/><path class="ak-sefaresh-az-darookhane" d="M152.96,117.631s-2.086.869-2.26,0C150.7,116.936,152.96,117.631,152.96,117.631Z" transform="translate(-150.7 -115.198)"/><path class="aj-sefaresh-az-darookhane" d="M152.45,117.533s-1.043.174-1.043,0C151.233,117.359,152.45,117.533,152.45,117.533Z" transform="translate(-150.191 -115.1)"/><path class="ak-sefaresh-az-darookhane" d="M152.7,118.1s-2.086-.869-1.564-1.564C151.657,116.014,152.7,118.1,152.7,118.1Z" transform="translate(-150.44 -115.84)"/><path class="aj-sefaresh-az-darookhane" d="M152.305,117.705s-.869-.521-.7-.7C151.61,116.836,152.305,117.705,152.305,117.705Z" transform="translate(-150.046 -115.446)"/><circle class="al-sefaresh-az-darookhane" cx="0.695" cy="0.695" r="0.695" transform="translate(1.492 2.886) rotate(-68.08)"/></g><g transform="translate(75.432 3.815)"><path class="aj-sefaresh-az-darookhane" d="M160,118.99s0-2.259.869-2.086C161.564,117.252,160,118.99,160,118.99Z" transform="translate(-157.393 -116.721)"/><path class="ak-sefaresh-az-darookhane" d="M160,118.543s.174-1.043.348-1.043C160.521,117.674,160,118.543,160,118.543Z" transform="translate(-157.393 -116.274)"/><path class="aj-sefaresh-az-darookhane" d="M160.1,118.645s1.738-1.564,2.086-.869C162.359,118.471,160.1,118.645,160.1,118.645Z" transform="translate(-157.319 -116.202)"/><path class="ak-sefaresh-az-darookhane" d="M160.1,118.363s.869-.521,1.043-.348Z" transform="translate(-157.319 -115.921)"/><path class="aj-sefaresh-az-darookhane" d="M160.1,118.3s2.259,0,2.086.869C161.838,119.864,160.1,118.3,160.1,118.3Z" transform="translate(-157.319 -115.684)"/><path class="ak-sefaresh-az-darookhane" d="M160.1,118.3s1.043.174,1.043.348C160.969,118.821,160.1,118.3,160.1,118.3Z" transform="translate(-157.319 -115.684)"/><path class="aj-sefaresh-az-darookhane" d="M160,118.4s1.564,1.738.869,2.086C160,120.659,160,118.4,160,118.4Z" transform="translate(-157.393 -115.61)"/><path class="ak-sefaresh-az-darookhane" d="M160,118.4s.521.869.348,1.043C160.174,119.443,160,118.4,160,118.4Z" transform="translate(-157.393 -115.61)"/><path class="aj-sefaresh-az-darookhane" d="M160.345,118.4s0,2.259-.869,2.086C158.78,120.138,160.345,118.4,160.345,118.4Z" transform="translate(-157.911 -115.61)"/><path class="ak-sefaresh-az-darookhane" d="M160.089,118.4s-.174,1.043-.348,1.043C159.394,119.269,160.089,118.4,160.089,118.4Z" transform="translate(-157.656 -115.61)"/><path class="aj-sefaresh-az-darookhane" d="M160.7,118.3s-1.738,1.564-2.086.869C158.267,118.3,160.7,118.3,160.7,118.3Z" transform="translate(-158.441 -115.684)"/><path class="ak-sefaresh-az-darookhane" d="M160.243,118.3s-.869.521-1.043.348C159.2,118.474,160.243,118.3,160.243,118.3Z" transform="translate(-157.983 -115.684)"/><path class="aj-sefaresh-az-darookhane" d="M160.69,118.645s-2.259,0-2.086-.869C158.952,117.08,160.69,118.645,160.69,118.645Z" transform="translate(-158.43 -116.202)"/><path class="ak-sefaresh-az-darookhane" d="M160.243,118.389s-1.043-.174-1.043-.348C159.2,117.694,160.243,118.389,160.243,118.389Z" transform="translate(-157.983 -115.947)"/><path class="aj-sefaresh-az-darookhane" d="M160.345,119s-1.564-1.738-.869-2.086S160.345,119,160.345,119Z" transform="translate(-157.911 -116.732)"/><path class="ak-sefaresh-az-darookhane" d="M160.063,118.543s-.521-.869-.348-1.043Z" transform="translate(-157.629 -116.274)"/><path class="ak-sefaresh-az-darookhane" d="M160.064,119.063s-.869-2.086,0-2.259S160.064,119.063,160.064,119.063Z" transform="translate(-157.631 -116.795)"/><path class="aj-sefaresh-az-darookhane" d="M159.933,118.543s-.174-1.043,0-1.043S159.933,118.543,159.933,118.543Z" transform="translate(-157.5 -116.274)"/><path class="ak-sefaresh-az-darookhane" d="M160,118.8s.869-2.086,1.564-1.564S160,118.8,160,118.8Z" transform="translate(-157.393 -116.531)"/><path class="aj-sefaresh-az-darookhane" d="M160,118.4s.521-.869.7-.7S160,118.4,160,118.4Z" transform="translate(-157.393 -116.137)"/><path class="ak-sefaresh-az-darookhane" d="M160.1,118.364s2.259-.869,2.259,0C162.186,119.233,160.1,118.364,160.1,118.364Z" transform="translate(-157.319 -115.922)"/><path class="aj-sefaresh-az-darookhane" d="M160.1,118.233s1.043-.174,1.043,0S160.1,118.233,160.1,118.233Z" transform="translate(-157.319 -115.791)"/><path class="ak-sefaresh-az-darookhane" d="M160,118.3s2.086.869,1.564,1.564S160,118.3,160,118.3Z" transform="translate(-157.393 -115.684)"/><path class="aj-sefaresh-az-darookhane" d="M160,118.3s.869.521.7.7C160.7,119.169,160,118.3,160,118.3Z" transform="translate(-157.393 -115.684)"/><path class="ak-sefaresh-az-darookhane" d="M160.031,118.4s.869,2.086,0,2.259C159.336,120.486,160.031,118.4,160.031,118.4Z" transform="translate(-157.598 -115.61)"/><path class="aj-sefaresh-az-darookhane" d="M159.933,118.4s.174,1.043,0,1.043S159.933,118.4,159.933,118.4Z" transform="translate(-157.5 -115.61)"/><path class="ak-sefaresh-az-darookhane" d="M160.5,118.3s-.869,2.086-1.564,1.564C158.414,119.343,160.5,118.3,160.5,118.3Z" transform="translate(-158.24 -115.684)"/><path class="aj-sefaresh-az-darookhane" d="M160.1,118.3s-.521.869-.7.7C159.236,119,160.1,118.3,160.1,118.3Z" transform="translate(-157.846 -115.684)"/><path class="ak-sefaresh-az-darookhane" d="M160.759,118.331s-2.086.869-2.259,0C158.5,117.636,160.759,118.331,160.759,118.331Z" transform="translate(-158.5 -115.889)"/><path class="aj-sefaresh-az-darookhane" d="M160.25,118.233s-1.043.174-1.043,0C159.033,118.059,160.25,118.233,160.25,118.233Z" transform="translate(-157.991 -115.791)"/><path class="ak-sefaresh-az-darookhane" d="M160.5,118.8s-2.086-.869-1.564-1.564C159.457,116.714,160.5,118.8,160.5,118.8Z" transform="translate(-158.24 -116.531)"/><path class="aj-sefaresh-az-darookhane" d="M160.1,118.4s-.869-.521-.7-.7C159.41,117.536,160.1,118.4,160.1,118.4Z" transform="translate(-157.846 -116.137)"/><circle class="al-sefaresh-az-darookhane" cx="0.695" cy="0.695" r="0.695" transform="translate(1.51 2.873) rotate(-68.075)"/></g></g><g transform="translate(28.157 51.447)"><rect class="am-sefaresh-az-darookhane" width="48.666" height="1.738"/><rect class="an-sefaresh-az-darookhane" width="1.39" height="2.781" transform="translate(47.102 1.738)"/><rect class="an-sefaresh-az-darookhane" width="1.39" height="2.781" transform="translate(0 1.738)"/><rect class="ao-sefaresh-az-darookhane" width="45.885" height="1.912" transform="translate(1.39 1.738)"/></g><rect class="ap-sefaresh-az-darookhane" width="196.401" height="7.3" transform="translate(0 129.138)"/><text class="aq-sefaresh-az-darookhane" transform="translate(94.986 20.464)"><tspan x="-53.935" y="0">داروخانه</tspan></text></g><g transform="translate(337.026 163.205)"><circle class="ar-sefaresh-az-darookhane" cx="34.587" cy="34.587" r="34.587"/><path class="k-sefaresh-az-darookhane" d="M192.4,100.287l-3.3,52.837a.973.973,0,0,0,.869,1.043H196.4a.87.87,0,0,0,.869-1.043l-3.129-52.837C194.314,99.071,192.576,99.071,192.4,100.287Z" transform="translate(-159.032 -67.612)"/><g transform="translate(15.295 75.432)"><path class="as-sefaresh-az-darookhane" d="M210.147,139.274H180.6a14.774,14.774,0,1,1,29.547,0Z" transform="translate(-180.6 -124.5)"/></g></g><g transform="translate(59.094 155.905)"><path class="ah-sefaresh-az-darookhane" d="M71.89,117.571c0,22.421-8.517,40.671-18.945,40.671S34,139.992,34,117.571,42.517,76.9,52.945,76.9,71.89,95.15,71.89,117.571Z" transform="translate(-34 -76.9)"/><path class="at-sefaresh-az-darookhane" d="M44.79,113.9l-1.39,31.98c0,1.564.521,2.781,1.217,2.781h2.607c.7,0,1.217-1.217,1.217-2.781L47.224,113.9C47.05,110.768,44.964,110.768,44.79,113.9Z" transform="translate(-27.062 -51.326)"/><g transform="translate(11.993 83.601)"><path class="au-sefaresh-az-darookhane" d="M68.709,138.9H40.9a13.9,13.9,0,0,1,27.809,0Z" transform="translate(-40.9 -125)"/></g></g><g transform="translate(396.294 155.905)"><path class="ah-sefaresh-az-darookhane" d="M243.79,117.571c0,22.421-8.516,40.671-18.945,40.671S205.9,139.992,205.9,117.571,214.417,76.9,224.845,76.9C235.447,76.9,243.79,95.15,243.79,117.571Z" transform="translate(-205.9 -76.9)"/><path class="at-sefaresh-az-darookhane" d="M216.79,113.9l-1.39,31.98c0,1.564.521,2.781,1.217,2.781h2.607c.7,0,1.217-1.217,1.217-2.781l-1.217-31.98C219.05,110.768,216.964,110.768,216.79,113.9Z" transform="translate(-198.888 -51.326)"/><g transform="translate(12.166 83.601)"><path class="au-sefaresh-az-darookhane" d="M240.709,138.9H212.9a13.9,13.9,0,0,1,27.809,0Z" transform="translate(-212.9 -125)"/></g></g><g transform="translate(15.99 186.495)"><path class="ar-sefaresh-az-darookhane" d="M47.09,122.483c0,15.469-8.517,27.983-18.945,27.983S9.2,137.952,9.2,122.483,17.717,94.5,28.145,94.5C38.573,94.674,47.09,107.188,47.09,122.483Z" transform="translate(-9.2 -94.5)"/><path class="at-sefaresh-az-darookhane" d="M19.99,119.864l-1.39,21.9c0,1.043.521,1.912,1.217,1.912h2.607c.7,0,1.217-.869,1.217-1.912l-1.217-21.9C22.25,117.779,20.164,117.779,19.99,119.864Z" transform="translate(-2.262 -76.934)"/><g transform="translate(11.993 57.356)"><path class="au-sefaresh-az-darookhane" d="M43.909,137.059H16.1c0-5.214,6.257-9.559,13.9-9.559S43.909,131.845,43.909,137.059Z" transform="translate(-16.1 -127.5)"/></g></g><g transform="translate(57.182 128.444)"><g transform="translate(4.345)"><path class="av-sefaresh-az-darookhane" d="M35.5,66.662A5.6,5.6,0,0,1,41.062,61.1h.174A5.6,5.6,0,0,1,46.8,66.662Z" transform="translate(-35.326 -61.1)"/><path class="av-sefaresh-az-darookhane" d="M46.7,70.4a5.6,5.6,0,0,1-5.562,5.562h-.174A5.6,5.6,0,0,1,35.4,70.4Z" transform="translate(-35.4 -54.236)"/><rect class="aw-sefaresh-az-darookhane" width="10.255" height="10.602" transform="translate(0.521 5.562)"/><rect class="av-sefaresh-az-darookhane" width="0.521" height="10.602" transform="translate(0.521 5.562)"/><rect class="av-sefaresh-az-darookhane" width="0.521" height="10.602" transform="translate(10.255 5.562)"/><rect class="av-sefaresh-az-darookhane" width="0.521" height="10.602" transform="translate(5.388 5.562)"/></g><rect class="av-sefaresh-az-darookhane" width="2.607" height="92.813" transform="translate(8.69 20.162)"/><path class="av-sefaresh-az-darookhane" d="M53.062,138.093H32.9L41.59,126.1H44.2Z" transform="translate(-32.9 -13.126)"/></g><g transform="translate(371.961 128.444)"><g transform="translate(4.171)"><path class="av-sefaresh-az-darookhane" d="M194.4,66.662a5.6,5.6,0,0,1,5.562-5.562h.174a5.6,5.6,0,0,1,5.562,5.562Z" transform="translate(-194.226 -61.1)"/><path class="av-sefaresh-az-darookhane" d="M205.6,70.4a5.6,5.6,0,0,1-5.562,5.562h-.174A5.6,5.6,0,0,1,194.3,70.4Z" transform="translate(-194.3 -54.236)"/><rect class="aw-sefaresh-az-darookhane" width="10.255" height="10.602" transform="translate(0.695 5.562)"/><rect class="av-sefaresh-az-darookhane" width="0.521" height="10.602" transform="translate(0.695 5.562)"/><rect class="av-sefaresh-az-darookhane" width="0.521" height="10.602" transform="translate(10.428 5.562)"/><rect class="av-sefaresh-az-darookhane" width="0.521" height="10.602" transform="translate(5.562 5.562)"/></g><rect class="av-sefaresh-az-darookhane" width="2.607" height="92.813" transform="translate(8.69 20.162)"/><path class="av-sefaresh-az-darookhane" d="M211.888,138.093H191.9l8.69-11.993H203.2Z" transform="translate(-191.9 -13.126)"/></g></svg>