<svg xmlns="http://www.w3.org/2000/svg" width="25.714" height="24" viewBox="0 0 25.714 24"><defs><style>.a-stepper-finalize-purchase-rnd-183684{fill:#1d5c88;}.b-stepper-finalize-purchase-rnd-1836528{fill:#e9f7ff;}.c-stepper-finalize-purchase-rnd-1834085{fill:#39a9db;}.d-stepper-finalize-purchase-rnd-1834231{fill:#f76b3b;}.e-stepper-finalize-purchase-rnd-1234092{fill:#c4414b;}.f-stepper-finalize-purchase-rnd-1903721{fill:#2bb3ce;}.g-stepper-finalize-purchase-rnd-1989356{fill:#8d9aa5;}.h-stepper-finalize-purchase-rnd-1938016{fill:#b4833f;}</style></defs><g transform="translate(0 0)"><path class="a-stepper-finalize-purchase-rnd-183684" d="M352,112.2h2.573v3H352Z" transform="translate(-333.144 -106.19)"/><path class="b-stepper-finalize-purchase-rnd-1836528" d="M2.144,16.588a.86.86,0,0,0-.858.858v.847a.863.863,0,0,1-.863.863H0v1.281H6.862V17.864h6V9.715A1.714,1.714,0,0,0,11.151,8H6.433a1.7,1.7,0,0,0-1.19.488l-.021.027a1.692,1.692,0,0,0-.5,1.2c-.005,1.378-.005,4.5-.005,6.867Z" transform="translate(0 -7.571)"/><path class="b-stepper-finalize-purchase-rnd-1836528" d="M42.573,168v3.013a.858.858,0,0,1-1.715,0v-2.144a.86.86,0,0,0-.858-.858Z" transform="translate(-37.856 -159.001)"/><path class="b-stepper-finalize-purchase-rnd-1836528" d="M120,152.3h17.155v10.711H120Z" transform="translate(-113.585 -144.146)"/><path class="c-stepper-finalize-purchase-rnd-1834085" d="M137.155,163.016H120l6.337-.708A12.407,12.407,0,0,0,137.155,152.3Z" transform="translate(-113.585 -144.146)"/><path class="d-stepper-finalize-purchase-rnd-1834231" d="M88,344.2h20.586v5.146H88Z" transform="translate(-83.3 -325.765)"/><path class="d-stepper-finalize-purchase-rnd-1834231" d="M108.586,349.347H88l15.241-1.019a6.063,6.063,0,0,0,5.345-4.128Z" transform="translate(-83.3 -325.765)"/><path class="e-stepper-finalize-purchase-rnd-1234092" d="M144,184.2h6.862v.858H144Z" transform="translate(-136.288 -174.332)"/><g transform="translate(17.569 11.151)"><path class="a-stepper-finalize-purchase-rnd-183684" d="M328,208.2h.858v.858H328Z" transform="translate(-328 -208.2)"/><g transform="translate(1.715)"><path class="a-stepper-finalize-purchase-rnd-183684" d="M360,208.2h.858v.858H360Z" transform="translate(-360 -208.2)"/></g><g transform="translate(3.431)"><path class="a-stepper-finalize-purchase-rnd-183684" d="M392,208.2h.858v.858H392Z" transform="translate(-392 -208.2)"/></g><g transform="translate(0 1.715)"><path class="a-stepper-finalize-purchase-rnd-183684" d="M328,240.2h.858v.858H328Z" transform="translate(-328 -240.2)"/></g><g transform="translate(1.715 1.715)"><path class="a-stepper-finalize-purchase-rnd-183684" d="M360,240.2h.858v.858H360Z" transform="translate(-360 -240.2)"/></g><g transform="translate(3.431 1.715)"><path class="a-stepper-finalize-purchase-rnd-183684" d="M392,240.2h.858v.858H392Z" transform="translate(-392 -240.2)"/></g><g transform="translate(0 3.431)"><path class="a-stepper-finalize-purchase-rnd-183684" d="M328,272.2h.858v.858H328Z" transform="translate(-328 -272.2)"/></g><g transform="translate(1.715 3.431)"><path class="a-stepper-finalize-purchase-rnd-183684" d="M360,272.2h.858v.858H360Z" transform="translate(-360 -272.2)"/></g><g transform="translate(3.431 3.431)"><path class="a-stepper-finalize-purchase-rnd-183684" d="M392,272.2h.858v.858H392Z" transform="translate(-392 -272.2)"/></g><path class="a-stepper-finalize-purchase-rnd-183684" d="M328,304.2h.858v.858H328Z" transform="translate(-328 -299.054)"/><path class="a-stepper-finalize-purchase-rnd-183684" d="M360,304.2h.858v.858H360Z" transform="translate(-358.285 -299.054)"/><path class="a-stepper-finalize-purchase-rnd-183684" d="M392,304.2h.858v.858H392Z" transform="translate(-388.569 -299.054)"/></g><path class="b-stepper-finalize-purchase-rnd-1836528" d="M320,56.2h6v3.431h-6Z" transform="translate(-302.863 -53.187)"/><g transform="translate(17.569 4.295)"><path class="f-stepper-finalize-purchase-rnd-1903721" d="M344,80.2h3.431v.858H344Z" transform="translate(-343.142 -80.2)"/><path class="f-stepper-finalize-purchase-rnd-1903721" d="M328,176.2h4.289v.858H328Z" transform="translate(-328 -171.054)"/></g><path class="a-stepper-finalize-purchase-rnd-183684" d="M216,384.2h6.862v.858H216Z" transform="translate(-204.432 -363.62)"/><circle class="g-stepper-finalize-purchase-rnd-1989356" cx="0.858" cy="0.858" r="0.858" transform="translate(14.142 20.151)"/><path class="b-stepper-finalize-purchase-rnd-1836528" d="M126.433,18.075V9.915A1.714,1.714,0,0,0,124.718,8.2h-4.712a1.711,1.711,0,0,1,1.71,1.71v8.154Z" transform="translate(-113.573 -7.76)"/><g transform="translate(9.428 2.584)"><path class="h-stepper-finalize-purchase-rnd-1938016" d="M176,48.2h2.144v.858H176Z" transform="translate(-176 -48.2)"/><path class="h-stepper-finalize-purchase-rnd-1938016" d="M176,88.2h2.144v.858H176Z" transform="translate(-176 -86.056)"/><path class="h-stepper-finalize-purchase-rnd-1938016" d="M176,128.2h2.144v.858H176Z" transform="translate(-176 -123.911)"/></g><path d="M25.286,18H24V8.154a.43.43,0,0,0-.429-.429H21.857V6.868h1.286a.43.43,0,0,0,.429-.429V3.011a.43.43,0,0,0-.429-.429h-6a.43.43,0,0,0-.429.429V6.439a.43.43,0,0,0,.429.429h1.286v.857H13.286V2.143A2.142,2.142,0,0,0,11.143,0H6.429A2.142,2.142,0,0,0,4.286,2.143v9.868a.429.429,0,1,1-.857,0V9.868a1.286,1.286,0,0,0-2.571,0v.846a.441.441,0,0,1-.439.439H0v.857H.418a1.3,1.3,0,0,0,1.3-1.3V9.868a.429.429,0,0,1,.857,0v2.143a1.286,1.286,0,1,0,2.571,0V2.143a1.285,1.285,0,0,1,.375-.911,1.31,1.31,0,0,1,1.816,0,1.285,1.285,0,0,1,.375.911V7.725H6.423a.43.43,0,0,0-.429.429V18H4.714a.43.43,0,0,0-.429.429v5.143A.43.43,0,0,0,4.714,24H25.286a.43.43,0,0,0,.429-.429V18.429A.43.43,0,0,0,25.286,18ZM17.571,3.439h5.143V6.011H17.571Zm1.714,3.429H21v.857H19.286ZM12.429,2.143V9.868H8.571V2.143A2.108,2.108,0,0,0,8.132.857h3.011A1.289,1.289,0,0,1,12.429,2.143ZM6.857,8.582h.857v2.143h6.857V9.868H13.286V8.582h9.857V18H6.857Zm18,14.561H5.143V18.857H24.857Z" transform="translate(0 0)"/><path d="M344,80.2h3.431v.858H344Z" transform="translate(-325.574 -75.904)"/><path d="M328,208.2h.858v.858H328Z" transform="translate(-310.429 -197.047)"/><path d="M360,208.2h.858v.858H360Z" transform="translate(-340.715 -197.047)"/><path d="M392,208.2h.858v.858H392Z" transform="translate(-371.003 -197.047)"/><path d="M328,240.2h.858v.858H328Z" transform="translate(-310.429 -227.333)"/><path d="M360,240.2h.858v.858H360Z" transform="translate(-340.715 -227.333)"/><path d="M392,240.2h.858v.858H392Z" transform="translate(-371.003 -227.333)"/><path d="M328,272.2h.858v.858H328Z" transform="translate(-310.429 -257.618)"/><path d="M360,272.2h.858v.858H360Z" transform="translate(-340.715 -257.618)"/><path d="M392,272.2h.858v.858H392Z" transform="translate(-371.003 -257.618)"/><path d="M328,304h.858v.858H328Z" transform="translate(-310.429 -287.715)"/><path d="M360,304h.858v.858H360Z" transform="translate(-340.715 -287.715)"/><path d="M392,304h.858v.858H392Z" transform="translate(-371.003 -287.715)"/><path d="M328,176.2h4.289v.858H328Z" transform="translate(-310.431 -166.761)"/><path d="M219.431,368a1.281,1.281,0,0,0-1.206.858H216v.858h2.225a1.28,1.28,0,0,0,2.418,0h2.219v-.858h-2.225A1.281,1.281,0,0,0,219.431,368Zm0,1.715a.429.429,0,1,1,.429-.429A.43.43,0,0,1,219.431,369.716Z" transform="translate(-204.432 -348.289)"/><path d="M176,48.2h2.144v.858H176Z" transform="translate(-166.572 -45.616)"/><path d="M176,88.2h2.144v.858H176Z" transform="translate(-166.572 -83.475)"/><path d="M176,128.2h2.144v.858H176Z" transform="translate(-166.572 -121.332)"/></g></svg>