<svg xmlns="http://www.w3.org/2000/svg" width="24" height="24" viewBox="0 0 24 24"><defs><style>.d-svg-stepper-choose-address-rnd127836{clip-path:url(#a-svg-stepper-choose-address-rnd-672451);}</style><clipPath id="a-svg-stepper-choose-address-rnd-672451"><rect width="24" height="24"/></clipPath></defs><g transform="translate(0 0)"><path fill="#eafaff" d="M106.309,376h-5.623c-.131.169-4.555,5.74-4.686,5.909h15c-.131-.169-4.555-5.74-4.686-5.909Zm0,0" transform="translate(-91.498 -358.378)"/><path fill="#96c8ef" d="M320.033,376H316c.131.169,4.559,5.74,4.69,5.909h4.033c-.131-.169-4.559-5.74-4.69-5.909Zm0,0" transform="translate(-301.192 -358.378)"/><path fill="#f76b3b" d="M113.029,30.107c-.019-.033-5.843-9.173-5.848-9.177a7.029,7.029,0,1,1,11.7,0s-5.829,9.144-5.848,9.177Zm3.51-10.738a4.174,4.174,0,0,0,.708-2.339,4.218,4.218,0,1,0-.708,2.339Zm0,0" transform="translate(-101.029 -9.531)"/><path fill="#96c8ef" d="M14.69,376c-.131.169-4.559,5.74-4.69,5.909h4.033c.131-.169,4.559-5.74,4.69-5.909Zm0,0" transform="translate(-9.531 -358.378)"/><g class="d-svg-stepper-choose-address-rnd127836"><path d="M306.469,260a.469.469,0,1,0,.469.469.47.47,0,0,0-.469-.469Zm0,0" transform="translate(-291.656 -247.812)"/></g><g class="d-svg-stepper-choose-address-rnd127836"><path d="M4.829,17.334.141,23.241a.477.477,0,0,0-.056.5A.47.47,0,0,0,.507,24H23.569a.471.471,0,0,0,.366-.764l-4.687-5.906a.469.469,0,0,0-.366-.178H14.776l3.506-5.5a7.5,7.5,0,1,0-12.488,0l3.506,5.5H5.194a.462.462,0,0,0-.366.178ZM3.076,21.047H5.912l-1.6,2.016H1.477ZM9.9,18.094l1.284,2.016H7.852l1.6-2.016Zm4.28,0h.445l1.6,2.016H12.891Zm2.789,2.953,1.6,2.016H5.508l1.6-2.016Zm2.794,2.016-1.6-2.016H21l1.6,2.016Zm.492-2.953H17.419l-1.6-2.016h2.836ZM6.577,11.142a6.563,6.563,0,1,1,10.922,0s0,0,0,.009c-.309.483-5.217,8.184-5.456,8.555-.6-.937-4.847-7.6-5.456-8.555a.016.016,0,0,0,0-.009Zm1.678,6.952-1.6,2.016H3.821l1.6-2.016Zm0,0" transform="translate(-0.038 0)"/></g><path d="M160.69,69.38A4.69,4.69,0,1,0,156,64.69a4.692,4.692,0,0,0,4.69,4.69Zm0-8.442a3.752,3.752,0,1,1-3.752,3.752,3.757,3.757,0,0,1,3.752-3.752Zm0,0" transform="translate(-148.69 -57.186)"/><path d="M248.393,292.716a.466.466,0,0,0-.642.16l-1.735,2.875a.468.468,0,1,0,.8.483l1.735-2.875a.463.463,0,0,0-.159-.643Zm0,0" transform="translate(-234.42 -278.931)"/></g></svg>