<svg xmlns="http://www.w3.org/2000/svg" width="26.034" height="24" viewBox="0 0 26.034 24">
    <defs>
        <style>.d-stepper-register-order-rnd-17837462{clip-path:url(#a-stepper-register-order-rnd-17867352);}</style>
        <clipPath id="a-stepper-register-order-rnd-17867352">
            <rect width="26.034" height="24"/>
        </clipPath>
    </defs>
    <g transform="translate(0 0)">
        <path fill="#96c8ef" d="M114.511,374.255A2.255,2.255,0,1,1,112.255,372a2.252,2.252,0,0,1,2.255,2.255Zm0,0"
              transform="translate(-104.39 -353.012)"/>
        <path fill="#96c8ef" d="M354.511,374.255A2.255,2.255,0,1,1,352.255,372a2.252,2.252,0,0,1,2.255,2.255Zm0,0"
              transform="translate(-332.086 -353.012)"/>
        <rect fill="#e9f7ff" width="3.408" height="2.005" transform="translate(0.501 1.153)"/>
        <path fill="#f76b3b" d="M244.523,14.761A4.761,4.761,0,1,1,239.761,10a4.759,4.759,0,0,1,4.761,4.761Zm0,0"
              transform="translate(-222.95 -9.499)"/>
        <g transform="translate(0)">
            <path d="M25.932,5.034a.515.515,0,0,0-.407-.2H22.093a5.338,5.338,0,0,0-10.627,0H8.156L6.508,4.007V2.186A.51.51,0,0,0,6,1.678H4.475V1.169A.51.51,0,0,0,3.966.661H.508A.51.51,0,0,0,0,1.169V3.2a.51.51,0,0,0,.508.508H3.966A.51.51,0,0,0,4.475,3.2V2.695H5.492V4.322a.5.5,0,0,0,.28.453l1.795.9,1.439,9.8-1.419.992a.507.507,0,0,0-.219.417v1.571a2.8,2.8,0,1,0,3.259,3.259h6.707a2.8,2.8,0,1,0,0-1.017h-6.7A2.807,2.807,0,0,0,8.39,18.453V17.146l1.327-.925H22.475a.511.511,0,0,0,.488-.366L26.013,5.481a.5.5,0,0,0-.081-.447ZM3.458,2.695H1.017V1.678H3.458ZM20.085,19.424a1.78,1.78,0,1,1-1.78,1.78,1.782,1.782,0,0,1,1.78-1.78ZM9.661,21.2a1.78,1.78,0,1,1-1.78-1.78,1.782,1.782,0,0,1,1.78,1.78ZM16.78,1.017a4.322,4.322,0,1,1-4.322,4.322A4.325,4.325,0,0,1,16.78,1.017ZM8.995,8.39,8.619,5.847h2.842A5.313,5.313,0,0,0,12.4,8.39Zm.153,1.017h1.927l.208,2.542H9.519ZM10,15.2l-.331-2.237h1.7l.183,2.237Zm4.139,0H12.569l-.183-2.237h1.749Zm0-3.254H12.305L12.1,9.407h1.231a5.263,5.263,0,0,0,.808.569ZM16.729,15.2H15.152V12.966h1.82Zm.351-3.254H15.152V10.424a5.368,5.368,0,0,0,1.627.254,4.292,4.292,0,0,0,.442-.02ZM19.342,15.2H17.756L18,12.966h1.963Zm-1.236-3.254.158-1.48a5.361,5.361,0,0,0,1.968-1.063h.712l-.7,2.542ZM22.093,15.2h-1.7l.615-2.237h1.739Zm.956-3.254H21.295L22,9.407h1.8ZM24.1,8.39H21.158a5.313,5.313,0,0,0,.936-2.542h2.751Zm0,0"
                  transform="translate(0)"/>
        </g>
        <path d="M146,407.5a.5.5,0,1,1-.5-.5.5.5,0,0,1,.5.5Zm0,0" transform="translate(-137.623 -386.258)"/>
        <path d="M386,407.5a.5.5,0,1,1-.5-.5.5.5,0,0,1,.5.5Zm0,0" transform="translate(-365.412 -386.258)"/>
    </g>
</svg>