<svg xmlns="http://www.w3.org/2000/svg" width="24" height="24" viewBox="0 0 24 24"><defs><style>.e-stepper-inquiries-from-pharmacy-rnd-17836479{clip-path:url(#a-stepper-inquiries-from-pharmacy-rnd-17863109);}</style><clipPath id="a-stepper-inquiries-from-pharmacy-rnd-17863109"><rect width="24" height="24"/></clipPath></defs><g transform="translate(0 0)"><path fill="#39a9db" d="M21.018,12.876l-5.172-2.82a.478.478,0,0,0-.45,0l-5.153,2.806a.479.479,0,0,0-.244.417V23.735a.469.469,0,0,0,.693.412l4.7-2.562a.478.478,0,0,1,.45,0l5.172,2.82a.478.478,0,0,0,.45,0L26.621,21.6a.471.471,0,0,0,.244-.412V10.726a.469.469,0,0,0-.693-.412l-4.7,2.562a.478.478,0,0,1-.45,0Zm0,0" transform="translate(-9.532 -9.532)"/><path fill="#f76b3b" d="M135.4,12.876l-5.172-2.82A.471.471,0,0,0,130,10V21.524a.484.484,0,0,1,.225.056L135.4,24.4a.471.471,0,0,0,.225.056V12.932a.471.471,0,0,1-.225-.056Zm0,0" transform="translate(-123.905 -9.532)"/><path fill="#f76b3b" d="M378.1,379.683l3.893,3.893a1.12,1.12,0,0,0,1.583-1.583l-3.893-3.893Zm0,0" transform="translate(-360.373 -360.373)"/><path fill="#fff" d="M201.243,195.621A5.621,5.621,0,1,1,195.621,190a5.62,5.62,0,0,1,5.621,5.621Zm0,0" transform="translate(-181.089 -181.089)"/><path fill="#96c8ef" d="M239.308,235.654A3.654,3.654,0,1,1,235.654,232a3.653,3.653,0,0,1,3.654,3.654Zm0,0" transform="translate(-221.122 -221.122)"/><g class="e-stepper-inquiries-from-pharmacy-rnd-17836479"><path d="M226.125,222a4.125,4.125,0,1,0,4.125,4.125A4.131,4.131,0,0,0,226.125,222Zm0,7.313a3.188,3.188,0,1,1,3.188-3.188,3.191,3.191,0,0,1-3.188,3.188Zm0,0" transform="translate(-211.594 -211.594)"/></g><g class="e-stepper-inquiries-from-pharmacy-rnd-17836479"><path d="M23.536,21.214l-3.891-3.858a.467.467,0,0,0-.661.661l3.891,3.858a.649.649,0,0,1,.192.459.63.63,0,0,1-.192.459.656.656,0,0,1-.923,0l-3.6-3.6a6.087,6.087,0,0,0-.544-9.872v-8.2A.94.94,0,0,0,16.425.3L11.719,2.863,6.544.041a.922.922,0,0,0-.9,0L.492,2.849A.945.945,0,0,0,0,3.679V14.141a.938.938,0,0,0,.938.937.909.909,0,0,0,.45-.117L6.094,12.4l2.391,1.3a5.8,5.8,0,0,0-.047.759,6.1,6.1,0,0,0,6.094,6.094,6.034,6.034,0,0,0,3.033-.811l3.722,3.722a1.6,1.6,0,0,0,2.25,0,1.6,1.6,0,0,0,0-2.25ZM16.875,1.124V8.835a6.094,6.094,0,0,0-4.688,0V3.772a.635.635,0,0,0-.009-.094ZM6.544,11.572a.922.922,0,0,0-.9,0L.938,14.141V3.679L5.625,1.124v10.57a.469.469,0,1,0,.938,0V1.124l4.7,2.559a.577.577,0,0,0-.009.094V9.332a6.1,6.1,0,0,0-2.564,3.413ZM9.375,14.46a5.156,5.156,0,1,1,5.156,5.156A5.159,5.159,0,0,1,9.375,14.46Zm0,0" transform="translate(0 0.071)"/></g><path d="M300.468,265a.468.468,0,0,0,0,.937,1.172,1.172,0,0,1,1.171,1.171.468.468,0,0,0,.937,0A2.111,2.111,0,0,0,300.468,265Zm0,0" transform="translate(-285.936 -252.577)"/></g></svg>