<svg xmlns="http://www.w3.org/2000/svg" width="56.211" height="65.271" viewBox="0 0 56.211 65.271"><g transform="translate(-0.5 0)"><path fill="#ff4e61" d="M95.472,475.188a.942.942,0,0,1-.676-1.6l1.171-1.207a.942.942,0,1,1,1.353,1.313L96.149,474.9A.938.938,0,0,1,95.472,475.188Zm0,0" transform="translate(-82.043 -411.912)"/><path fill="#ff4e61" d="M195.2,112.1a.942.942,0,0,1-.676-1.6L195.7,109.3a.942.942,0,0,1,1.352,1.313l-1.172,1.207a.94.94,0,0,1-.676.286Zm0,0" transform="translate(-169.058 -95.113)"/><path fill="#5c73bc" d="M407.355,79.234a.942.942,0,0,1-.676-1.6l1.172-1.207a.942.942,0,0,1,1.353,1.313l-1.172,1.207a.94.94,0,0,1-.676.286Zm0,0" transform="translate(-354.165 -66.436)"/><path fill="#fa0" d="M407.355,442.614a.942.942,0,0,1-.676-1.6l1.172-1.207a.942.942,0,1,1,1.353,1.313l-1.172,1.207A.94.94,0,0,1,407.355,442.614Zm0,0" transform="translate(-354.165 -383.491)"/><path fill="#fa0" d="M56.624,91.753a.942.942,0,0,1-.676-1.6l1.172-1.207a.942.942,0,0,1,1.352,1.313L57.3,91.467A.94.94,0,0,1,56.624,91.753Zm0,0" transform="translate(-48.147 -77.359)"/><path fill="#2dc471" d="M5.862,257.664a.942.942,0,0,1-.676-1.6l1.171-1.207a.942.942,0,0,1,1.353,1.313l-1.172,1.207a.939.939,0,0,1-.676.286Zm0,0" transform="translate(-3.856 -222.119)"/><path fill="#ffd02f" d="M167.3,187.237l-3.059,1.657a1.089,1.089,0,0,1-1.569-1.175l.584-3.509a1.134,1.134,0,0,0-.311-.986l-2.475-2.485a1.123,1.123,0,0,1,.6-1.9l3.42-.512a1.083,1.083,0,0,0,.814-.61l1.53-3.193a1.068,1.068,0,0,1,1.94,0l1.529,3.193a1.084,1.084,0,0,0,.814.61l3.42.512a1.123,1.123,0,0,1,.6,1.9l-2.474,2.485a1.134,1.134,0,0,0-.311.986l.584,3.509a1.088,1.088,0,0,1-1.569,1.175l-3.059-1.657a1.052,1.052,0,0,0-1.006,0Zm0,0" transform="translate(-139.295 -151.734)"/><path fill="#5c73bc" d="M213.79,398.242a.942.942,0,0,1-.942-.942V382.564a.942.942,0,1,1,1.884,0V397.3A.942.942,0,0,1,213.79,398.242Zm0,0" transform="translate(-185.277 -332.971)"/><path fill="#5c73bc" d="M213.746,344.522h-.014a.942.942,0,1,1,0-1.885h.014a.942.942,0,0,1,0,1.885Zm0,0" transform="translate(-185.226 -298.957)"/><path fill="#fa0" d="M213.746,319.1h-.019a.942.942,0,0,1,0-1.884h.019a.942.942,0,0,1,0,1.884Zm0,0" transform="translate(-185.226 -276.775)"/><path fill="#ff4e61" d="M11.557,146.681a.94.94,0,0,1-.676-.286L.767,135.975a.942.942,0,0,1,1.352-1.313l10.115,10.42a.942.942,0,0,1-.676,1.6Zm0,0" transform="translate(0 -117.246)"/><path fill="#fa0" d="M107.5,245.533a.943.943,0,0,1-.674-1.6l.01-.01a.942.942,0,0,1,1.348,1.317l-.01.01A.941.941,0,0,1,107.5,245.533Zm0,0" transform="translate(-92.54 -212.578)"/><path fill="#5c73bc" d="M124.955,263.508a.942.942,0,0,1-.676-1.6l.01-.011a.943.943,0,0,1,1.353,1.313l-.01.01a.94.94,0,0,1-.676.286Zm0,0" transform="translate(-107.767 -228.262)"/><path fill="#fa0" d="M346.8,143.775a.942.942,0,0,1-.676-1.6l10.114-10.42a.942.942,0,0,1,1.352,1.313l-10.115,10.42A.94.94,0,0,1,346.8,143.775Zm0,0" transform="translate(-301.327 -114.71)"/><path fill="#ff4e61" d="M320,242.631a.938.938,0,0,1-.672-.282l-.01-.01a.942.942,0,0,1,1.344-1.321l.01.01a.943.943,0,0,1-.672,1.6Zm0,0" transform="translate(-277.941 -210.046)"/><path fill="#fa0" d="M302.554,260.608a.94.94,0,0,1-.676-.286l-.01-.01A.943.943,0,0,1,303.219,259l.01.01a.943.943,0,0,1-.676,1.6Zm0,0" transform="translate(-262.716 -225.731)"/><path fill="#62d38f" d="M294.21,16.845a.943.943,0,0,1-.817-1.409l7.249-12.7a.942.942,0,0,1,1.637.934l-7.249,12.7a.942.942,0,0,1-.82.475Zm0,0" transform="translate(-255.446 -1.969)"/><path fill="#fa0" d="M274.993,137.378a.939.939,0,0,1-.483-.133l-.012-.007a.942.942,0,0,1,.968-1.617l.012.007a.942.942,0,0,1-.485,1.751Zm0,0" transform="translate(-238.668 -118.214)"/><path fill="#2dc471" d="M262.487,159.295a.937.937,0,0,1-.486-.135l-.012-.007a.942.942,0,1,1,.973-1.614l.012.007a.942.942,0,0,1-.488,1.749Zm0,0" transform="translate(-227.756 -137.337)"/><path fill="#5c73bc" d="M83.892,16.845a.942.942,0,0,1-.82-.476l-7.249-12.7a.942.942,0,0,1,1.637-.934l7.249,12.7a.942.942,0,0,1-.817,1.41Zm0,0" transform="translate(-65.612 -1.969)"/><path fill="#ff4e61" d="M152.637,137.378a.942.942,0,0,1-.487-1.75l.013-.007a.942.942,0,0,1,.971,1.615l-.012.007A.939.939,0,0,1,152.637,137.378Zm0,0" transform="translate(-131.919 -118.214)"/><path fill="#fa0" d="M165.145,159.295a.943.943,0,0,1-.49-1.748l.012-.007a.942.942,0,1,1,.977,1.612l-.012.007A.938.938,0,0,1,165.145,159.295Zm0,0" transform="translate(-142.833 -137.337)"/><path fill="#ffd02f" d="M362.887,292.968l-1.979,1.479a.764.764,0,0,1-1.214-.658l.064-2.518a.8.8,0,0,0-.315-.658l-1.977-1.482a.8.8,0,0,1,.233-1.393l2.345-.715a.777.777,0,0,0,.51-.512l.757-2.395a.756.756,0,0,1,1.358-.2l1.385,2.076a.76.76,0,0,0,.63.342h2.445a.79.79,0,0,1,.607,1.268l-1.488,2a.808.808,0,0,0-.121.723l.754,2.4a.776.776,0,0,1-.984.986l-2.3-.841a.747.747,0,0,0-.7.105Zm0,0" transform="translate(-311.184 -247.421)"/><path fill="#ff4e61" d="M255.06,370.682a.942.942,0,0,1-.942-.942,22.727,22.727,0,0,1,5.352-15.082,19.6,19.6,0,0,1,5.417-4.522.942.942,0,0,1,.853,1.681,18.122,18.122,0,0,0-4.891,4.13A20.692,20.692,0,0,0,256,369.74a.942.942,0,0,1-.942.942Zm0,0" transform="translate(-221.285 -305.411)"/><path fill="#ffd02f" d="M76.164,337.04l1.5,1.989a.757.757,0,0,0,1.345-.284l.62-2.437a.78.78,0,0,1,.481-.541l2.3-.855a.8.8,0,0,0,.154-1.4l-2.058-1.36a.8.8,0,0,1-.352-.638l-.079-2.518a.762.762,0,0,0-1.249-.585L76.934,330a.749.749,0,0,1-.7.147l-2.348-.7a.779.779,0,0,0-.926,1.043l.888,2.347a.808.808,0,0,1-.08.729L72.4,335.653a.788.788,0,0,0,.677,1.23l2.441-.145a.756.756,0,0,1,.648.3Zm0,0" transform="translate(-62.615 -286.385)"/><path fill="#fa0" d="M154.467,424.7a.942.942,0,0,1-.942-.942,21.517,21.517,0,0,0-2.531-10.42.942.942,0,0,1,1.655-.9,23.387,23.387,0,0,1,2.76,11.322.942.942,0,0,1-.942.942Zm0,0" transform="translate(-131.208 -359.43)"/><path fill="#ffd02f" d="M234.312,38.07a2.53,2.53,0,1,0-2.529,2.605A2.568,2.568,0,0,0,234.312,38.07Zm0,0" transform="translate(-199.592 -30.944)"/><path fill="#5c73bc" d="M338.467,428.984a2.53,2.53,0,1,0-2.528,2.6A2.567,2.567,0,0,0,338.467,428.984Zm0,0" transform="translate(-290.47 -372.023)"/><path fill="#62d38f" d="M16.368,436.557a2.029,2.029,0,1,0-2.028,2.09A2.059,2.059,0,0,0,16.368,436.557Zm0,0" transform="translate(-10.306 -379.081)"/><path fill="#5c73bc" d="M60.411,274.054a2.029,2.029,0,1,0-2.028,2.09A2.059,2.059,0,0,0,60.411,274.054Zm0,0" transform="translate(-48.735 -237.294)"/><g transform="translate(17.336)"><path fill="#ff4e61" d="M183.08,2.09a2.029,2.029,0,1,0-4.056,0,2.029,2.029,0,1,0,4.056,0Zm0,0" transform="translate(-173.101)"/><path fill="#ff4e61" d="M337.463,138.582a2.029,2.029,0,1,0-2.028,2.089A2.06,2.06,0,0,0,337.463,138.582Zm0,0" transform="translate(-307.803 -119.092)"/><path fill="#ff4e61" d="M133.507,11.586a.942.942,0,0,1-.676-1.6L134,8.78a.942.942,0,0,1,1.352,1.313L134.183,11.3A.94.94,0,0,1,133.507,11.586Zm0,0" transform="translate(-132.565 -7.411)"/></g></g></svg>