<svg xmlns="http://www.w3.org/2000/svg" width="74.008" height="60" viewBox="0 0 74.008 60">
    <defs>
        <style>.a{clip-path:url(#a);}</style>
        <clipPath id="a">
            <rect width="74.008" height="60"/>
        </clipPath>
    </defs>
    <g transform="translate(-6.177 -5.007)">
        <g class="a" transform="translate(6.177 5.007)">
            <path d="M66.376,36.935a2.9,2.9,0,0,0-.3-1.1c-.723-1.388-2.038-1.518-3.484-1.576C57.645,22.29,53.713,13.716,54.06,12A3.9,3.9,0,0,0,56.6,10.521H57.1a4.655,4.655,0,0,0,0-9.311h-.463A3.684,3.684,0,0,0,53.829,0c-3.628.029-6.62,1.72-7.487,5.277H42.323a1.1,1.1,0,0,0,0,2.2H46.1a15.885,15.885,0,0,0,.911,5.031c2.934,8.906,2.587,30.434-2.558,30.463l-3.353.014H41.08a2.45,2.45,0,0,1-2.269-1.547c-5.334-13.749-5.059-13.055-5.1-13.142V27.22A3.113,3.113,0,0,0,30.6,24.111H17.461V9.147a1.839,1.839,0,0,0-1.836-1.836H14.05a1.1,1.1,0,0,0,0,2.2h1.229v14.6H2.183V9.509h7.5a1.1,1.1,0,0,0,0-2.2H1.836A1.857,1.857,0,0,0,0,9.147V24.458a1.839,1.839,0,0,0,1.836,1.836H5.623L9.54,31.08a38.237,38.237,0,0,0-4.568,9.239c-.477,1.345-.983,3.08-1.012,3.21a4.054,4.054,0,0,0,3.845,5.364H9.873a11.9,11.9,0,0,0,23.734,0H50.259A11.9,11.9,0,1,0,66.376,36.935ZM57.645,3.451a2.476,2.476,0,0,1-.26,4.872c.26-4.337.3-4.366.26-4.872ZM13.905,27.22a.922.922,0,0,1,.925-.925H30.615a.922.922,0,0,1,.925.925v.463H13.905Zm-5.464-.925h3.426a6.847,6.847,0,0,0-.145,2.053q-.412.455-.824.954Zm13.284,31.46a9.728,9.728,0,0,1-9.67-8.848h3.281a6.447,6.447,0,0,0,12.778,0H31.4a9.717,9.717,0,0,1-9.67,8.848Zm-4.177-8.848h8.34a4.258,4.258,0,0,1-8.34,0ZM48.38,46.723H33.954a5.357,5.357,0,0,0,.882-2.892,12.356,12.356,0,0,0-4.365-9.571,15.063,15.063,0,0,0-10.393-3.455,1.092,1.092,0,0,0,.072,2.183c.173,0,.347-.014.52-.014,6.273,0,11.983,4.193,11.983,10.858A2.841,2.841,0,0,1,31.294,46.3c-1.026.636-1.894.347-3.252.419-11.925,0-20.28,0-20.41-.014A1.822,1.822,0,0,1,6.5,46.174c-.853-.867-.52-1.72-.231-2.747,1-3.369,3.223-5.031,4.12-6.13a14.587,14.587,0,0,1,5.782-3.614,1.088,1.088,0,0,0-.679-2.067,16.614,16.614,0,0,0-5.753,3.311,27.022,27.022,0,0,1,3.57-5.075H32L36.787,42.2a4.655,4.655,0,0,0,4.322,2.949l3.353-.014c8.456-.029,7.328-25.142,4.625-33.325a13.8,13.8,0,0,1-.8-4.352h4.235a1.1,1.1,0,0,0,0-2.2h-3.9A4.153,4.153,0,0,1,49.2,4.131,5.6,5.6,0,0,1,53.858,2.15a1.56,1.56,0,0,1,1.171.506,1.609,1.609,0,0,1,.448,1.229l-.26,4.381A1.664,1.664,0,0,1,53.771,9.8,2.079,2.079,0,0,0,52.2,10.81c-1.258,2.2,1.243,7.012,8.08,23.523a13.692,13.692,0,0,0-11.9,12.39ZM63.7,36.545a.6.6,0,0,1,.434.853c.029-.072-.448.9-2.5,4.93-.8,1.243-1.417,4.4-4.77,4.4H50.577A11.447,11.447,0,0,1,63.7,36.545Zm-1.59,21.21a9.728,9.728,0,0,1-9.67-8.848h3.281a6.448,6.448,0,0,0,12.821-.4,1.094,1.094,0,1,0-2.183-.159,4.262,4.262,0,0,1-8.442.477c4.033-.68,4.958-4.381,5.348-4.872a4.347,4.347,0,0,1,1.98,1.214,1.095,1.095,0,1,0,1.6-1.489,6.43,6.43,0,0,0-2.587-1.706l1.489-2.935a9.716,9.716,0,0,1-3.643,18.723Zm0,0"
                  transform="translate(0 0.004)"/>
        </g>
        <path d="M88.3,256.8a1.3,1.3,0,0,0-.017,2.606H103a1.3,1.3,0,1,0,0-2.606Zm0,0"
              transform="translate(-72.385 -213.512)"/>
        <path d="M102.936,287.7H88.223a1.3,1.3,0,0,0-.7,2.384h0c.549.36.806.137,4.51.206,11.438-.034,10.94.086,11.369-.1a1.286,1.286,0,0,0-.463-2.486Zm0,0"
              transform="translate(-72.322 -239.203)"/>
    </g>
</svg>