<svg xmlns="http://www.w3.org/2000/svg" width="18.75" height="18.75" viewBox="0 0 18.75 18.75"><path id="user" d="M18,9A9,9,0,1,0,2.921,15.63l-.009.008.292.246c.019.016.04.029.059.045.155.129.316.251.479.369.053.038.106.077.16.114q.262.181.537.343l.12.069c.2.114.405.222.615.321l.046.021a8.919,8.919,0,0,0,2.177.689l.06.011c.237.041.477.074.719.1l.089.007c.242.02.486.033.733.033s.487-.013.727-.032l.091-.007q.361-.033.713-.094l.061-.011a8.919,8.919,0,0,0,2.146-.673l.075-.034q.3-.142.593-.306l.144-.083c.176-.1.349-.212.517-.327.061-.041.12-.085.18-.128.144-.1.285-.21.422-.322.03-.025.063-.046.093-.071l.3-.25-.009-.008A8.977,8.977,0,0,0,18,9ZM.655,9a8.345,8.345,0,1,1,13.88,6.239,2.453,2.453,0,0,0-.292-.176l-2.771-1.385a.725.725,0,0,1-.4-.652v-.968c.064-.079.132-.169.2-.267a6.669,6.669,0,0,0,.856-1.677,1.188,1.188,0,0,0,.682-1.076V7.877a1.191,1.191,0,0,0-.29-.775V5.574A2.64,2.64,0,0,0,11.9,3.655,3.684,3.684,0,0,0,9,2.618,3.685,3.685,0,0,0,6.1,3.655a2.64,2.64,0,0,0-.616,1.919V7.1a1.192,1.192,0,0,0-.29.775v1.16a1.191,1.191,0,0,0,.439.923,6.149,6.149,0,0,0,1.012,2.091V13a.73.73,0,0,1-.38.641L3.674,15.051a2.365,2.365,0,0,0-.246.156A8.325,8.325,0,0,1,.655,9ZM13.9,15.752q-.172.125-.349.241c-.054.035-.108.071-.164.105-.154.1-.312.187-.472.272l-.107.055a8.339,8.339,0,0,1-1.142.483l-.042.014q-.308.1-.623.181h0c-.212.052-.427.1-.643.132l-.018,0c-.2.033-.408.057-.614.075l-.109.008c-.2.015-.407.025-.613.025s-.414-.01-.62-.026l-.107-.008c-.207-.018-.414-.043-.619-.076l-.027,0a8.314,8.314,0,0,1-1.273-.318L6.315,16.9q-.309-.105-.609-.233l0,0c-.189-.081-.375-.172-.558-.267l-.072-.037c-.167-.089-.331-.186-.492-.287l-.142-.091c-.149-.1-.3-.2-.438-.305l-.044-.034.031-.018,2.588-1.412A1.384,1.384,0,0,0,7.3,13V11.819l-.075-.091a5.464,5.464,0,0,1-.982-2.034l-.03-.13L6.1,9.492a.542.542,0,0,1-.252-.456V7.876a.534.534,0,0,1,.182-.4l.108-.1V5.556l0-.043A1.971,1.971,0,0,1,6.59,4.086,3.084,3.084,0,0,1,9,3.273a3.092,3.092,0,0,1,2.4.807,2,2,0,0,1,.462,1.434l0,1.866.108.1a.535.535,0,0,1,.182.4v1.16a.547.547,0,0,1-.387.515L11.6,9.6l-.052.162a6.055,6.055,0,0,1-.817,1.647c-.086.121-.169.228-.241.311l-.081.093v1.211a1.376,1.376,0,0,0,.765,1.238l2.771,1.385.052.027C13.967,15.7,13.931,15.727,13.9,15.752Z" transform="translate(0.375 0.375)" fill="#27528d" stroke="#27528d" stroke-width="0.75"/></svg>
