<svg xmlns="http://www.w3.org/2000/svg" width="90.83" height="90.83" viewBox="0 0 90.83 90.83"><path fill="#adadad" d="M77.008,0H13.822A13.837,13.837,0,0,0,0,13.822v43.44A13.837,13.837,0,0,0,13.822,71.084H56.445L75.61,90.253a1.99,1.99,0,0,0,1.4.577,2.021,2.021,0,0,0,.754-.15,1.975,1.975,0,0,0,1.22-1.824V70.946A13.848,13.848,0,0,0,90.83,57.262V13.822A13.837,13.837,0,0,0,77.008,0Zm9.873,57.262a9.884,9.884,0,0,1-9.873,9.873,1.975,1.975,0,0,0-1.975,1.975V84.088L58.66,67.712a1.989,1.989,0,0,0-1.4-.577H13.822a9.884,9.884,0,0,1-9.873-9.873V13.822a9.884,9.884,0,0,1,9.873-9.873H77.008a9.884,9.884,0,0,1,9.873,9.873Z"/><g transform="translate(39.491 47.389)"><path fill="#adadad" d="M219.257,256a5.924,5.924,0,1,0,5.924,5.924A5.931,5.931,0,0,0,219.257,256Zm0,7.9a1.975,1.975,0,1,1,1.975-1.975A1.978,1.978,0,0,1,219.257,263.9Z" transform="translate(-213.333 -256)"/></g><g transform="translate(37.518 11.847)"><path fill="#adadad" d="M216.882,65.888A5.942,5.942,0,0,0,212.546,64H208.6a5.932,5.932,0,0,0-5.908,6.374l1.67,19.457a6.214,6.214,0,0,0,12.392.031l1.7-19.516A5.932,5.932,0,0,0,216.882,65.888Zm-2.362,4.147-1.706,19.521a2.267,2.267,0,0,1-4.522-.032l-1.667-19.457a1.947,1.947,0,0,1,.525-1.489,1.969,1.969,0,0,1,1.445-.628h3.949a1.969,1.969,0,0,1,1.445.628A1.937,1.937,0,0,1,214.52,70.034Z" transform="translate(-202.674 -64)"/></g></svg>