<svg xmlns="http://www.w3.org/2000/svg" width="250" height="250" viewBox="0 0 250 250"><rect fill="#e6f5ff" width="250" height="250"/><rect fill="#fcfdff" width="66.2" height="35.2" transform="translate(31.1 142.2)"/><path fill="#30b5a7" d="M31.1,168.8v8.6h8.7a6.153,6.153,0,0,0-.6-8A6.234,6.234,0,0,0,31.1,168.8Z"/><path fill="#30b5a7" d="M31.1,150.9a6.233,6.233,0,0,0,8.1-.5A6.039,6.039,0,0,0,41,146a6.456,6.456,0,0,0-1.3-3.8H31.1v8.7Z"/><path fill="#8f9e3a" d="M88.6,142.2a6.244,6.244,0,0,0,.5,8.2,6.118,6.118,0,0,0,8.1.5v-8.8H88.6Z"/><path fill="#8f9e3a" d="M89,169.4a6.039,6.039,0,0,0-1.8,4.4,5.782,5.782,0,0,0,1.2,3.6h8.8v-8.5A6.145,6.145,0,0,0,89,169.4Z"/><path fill="#30b5a7" d="M88,151.5a7.637,7.637,0,0,1-2.3-5.5,8.272,8.272,0,0,1,1-3.8H41.6a7.207,7.207,0,0,1,1,3.8,7.637,7.637,0,0,1-2.3,5.5,7.577,7.577,0,0,1-9.2,1.3V167a7.763,7.763,0,0,1,9.2,1.3,7.637,7.637,0,0,1,2.3,5.5,7.4,7.4,0,0,1-.9,3.6h45a7.4,7.4,0,0,1-.9-3.6,7.637,7.637,0,0,1,2.3-5.5,7.723,7.723,0,0,1,9.3-1.2V152.8a8.2,8.2,0,0,1-3.7,1A8.362,8.362,0,0,1,88,151.5ZM64.2,170.4a10.6,10.6,0,1,1,10.6-10.6A10.67,10.67,0,0,1,64.2,170.4Z"/><path fill="#f7a73b" d="M82,67.4a5.732,5.732,0,0,0-.4-1.4A15.193,15.193,0,0,0,67.1,55.4a15.2,15.2,0,1,0,0,30.4A15.068,15.068,0,0,0,81.8,74.2c.1-.4.2-.9.3-1.3a15.345,15.345,0,0,0-.1-5.5Z"/><path fill="#fff" d="M67.1,60.4A10.3,10.3,0,1,1,56.8,70.7,10.285,10.285,0,0,1,67.1,60.4m0-1.5A11.7,11.7,0,1,0,78.8,70.6,11.651,11.651,0,0,0,67.1,58.9Z"/><circle fill="#5b5952" cx="71.2" cy="71.2" r="71.2" transform="translate(51.5 45.1)"/><circle fill="#fefefe" cx="61.7" cy="61.7" r="61.7" transform="translate(61 54.6)"/><path fill="#5b5952" d="M84.8,113.9a2.659,2.659,0,0,1-.8-2.4,3.008,3.008,0,0,1,3.3-2.6l36.3,4.4a2.971,2.971,0,1,1-.7,5.9l-36.3-4.4A5.076,5.076,0,0,1,84.8,113.9Z"/><path fill="#5b5952" d="M122.1,118.2a2.177,2.177,0,0,1-.5-2.5L145.2,72a1.949,1.949,0,0,1,2.8-.6,2.272,2.272,0,0,1,.9,2.9L125.4,118a1.949,1.949,0,0,1-2.8.6A1.756,1.756,0,0,1,122.1,118.2Z"/><path fill="#5b5952" d="M151.1,165.6c-.1-.1-.1-.1-.1-.2l-33.3-56.5a1.458,1.458,0,0,1,2.5-1.5l33.3,56.5a1.456,1.456,0,0,1-.5,2A1.533,1.533,0,0,1,151.1,165.6Z"/><path fill="#0b3654" d="M91.5,139.7"/><circle fill="#f76b3b" cx="3.3" cy="3.3" r="3.3" transform="translate(119.4 65.1)"/><circle fill="#f76b3b" cx="3.3" cy="3.3" r="3.3" transform="translate(119.4 161)"/><circle fill="#f76b3b" cx="3.3" cy="3.3" r="3.3" transform="translate(167.4 113.9)"/><circle fill="#f76b3b" cx="3.3" cy="3.3" r="3.3" transform="translate(71.5 113.9)"/><circle fill="#5b5952" cx="1.8" cy="1.8" r="1.8" transform="translate(145.1 73.5)"/><circle fill="#545e61" cx="1.8" cy="1.8" r="1.8" transform="translate(162.6 91.5)"/><circle fill="#5b5952" cx="1.8" cy="1.8" r="1.8" transform="translate(162.4 138.7)"/><circle fill="#5b5952" cx="1.8" cy="1.8" r="1.8" transform="translate(144.8 156.4)"/><circle fill="#5b5952" cx="1.8" cy="1.8" r="1.8" transform="translate(97.6 156.5)"/><circle fill="#5b5952" cx="1.8" cy="1.8" r="1.8" transform="translate(79.9 138.8)"/><circle fill="#5b5952" cx="1.8" cy="1.8" r="1.8" transform="translate(80 91.5)"/><circle fill="#5b5952" cx="1.8" cy="1.8" r="1.8" transform="translate(97.6 73.8)"/><path fill="#f7a73b" d="M205.5,92.6a5.733,5.733,0,0,0-.4-1.4,15.193,15.193,0,0,0-14.5-10.6,15.2,15.2,0,0,0,0,30.4,15.068,15.068,0,0,0,14.7-11.6c.1-.4.2-.9.3-1.3a15.345,15.345,0,0,0-.1-5.5Z"/><path fill="#fff" d="M190.6,85.5a10.3,10.3,0,1,1-10.3,10.3,10.285,10.285,0,0,1,10.3-10.3m0-1.4a11.7,11.7,0,1,0,11.7,11.7,11.651,11.651,0,0,0-11.7-11.7Z"/><rect fill="#fcfdff" width="66.2" height="35.2" transform="translate(144.054 171.052) rotate(-24.74)"/><path fill="#8f9e3a" d="M155.2,195.3l3.6,7.8,7.9-3.6a6.189,6.189,0,0,0-.4-3.8,5.825,5.825,0,0,0-3.5-3.2A6.054,6.054,0,0,0,155.2,195.3Z"/><path fill="#e1a867" d="M147.7,179a6.254,6.254,0,0,0,7.2-3.9,6.148,6.148,0,0,0-.2-4.8,6.072,6.072,0,0,0-2.8-2.9L144,171l3.7,8Z"/><path fill="#e1a867" d="M196.2,147a6.181,6.181,0,0,0,.4,4,5.825,5.825,0,0,0,3.5,3.2,6.125,6.125,0,0,0,7.6-2.9l-3.7-7.9-7.8,3.6Z"/><path fill="#e1a867" d="M208,171.6a6.148,6.148,0,0,0,.2,4.8,6.425,6.425,0,0,0,2.6,2.8l8-3.7-3.6-7.8A6.207,6.207,0,0,0,208,171.6Z"/><path fill="#e1a867" d="M199.6,155.7a8.207,8.207,0,0,1-4.4-4,7.538,7.538,0,0,1-.7-3.9l-41,18.9a7.576,7.576,0,0,1,2.7,8.9,7.876,7.876,0,0,1-4,4.4,8.3,8.3,0,0,1-3.8.7l6,12.9a7.6,7.6,0,0,1,8.9-2.6,8.207,8.207,0,0,1,4.4,4,9.366,9.366,0,0,1,.7,3.7l40.8-18.8a8.491,8.491,0,0,1-2.4-2.9,7.564,7.564,0,0,1-.2-5.9,7.7,7.7,0,0,1,7.9-5l-6-13a7.393,7.393,0,0,1-8.9,2.6Zm-13.7,27.2a10.627,10.627,0,1,1,5.2-14.1A10.725,10.725,0,0,1,185.9,182.9Z"/><rect fill="#fcfdff" width="66.2" height="35.2" transform="translate(136 172.1)"/><path fill="#30b5a7" d="M136,198.7v8.6h8.7a6.153,6.153,0,0,0-.6-8A6.234,6.234,0,0,0,136,198.7Z"/><path fill="#30b5a7" d="M136,180.8a6.233,6.233,0,0,0,8.1-.5,6.039,6.039,0,0,0,1.8-4.4,6.456,6.456,0,0,0-1.3-3.8H136v8.7Z"/><path fill="#30b5a7" d="M193.5,172.1a6.244,6.244,0,0,0,.5,8.2,6.118,6.118,0,0,0,8.1.5V172h-8.6Z"/><path fill="#30b5a7" d="M193.9,199.3a6.039,6.039,0,0,0-1.8,4.4,5.782,5.782,0,0,0,1.2,3.6h8.8v-8.5A6.257,6.257,0,0,0,193.9,199.3Z"/><path fill="#30b5a7" d="M192.9,181.4a7.637,7.637,0,0,1-2.3-5.5,8.272,8.272,0,0,1,1-3.8H146.4a7.207,7.207,0,0,1,1,3.8,7.637,7.637,0,0,1-2.3,5.5,7.577,7.577,0,0,1-9.2,1.3V197a7.763,7.763,0,0,1,9.2,1.3,7.637,7.637,0,0,1,2.3,5.5,7.4,7.4,0,0,1-.9,3.6h45a7.4,7.4,0,0,1-.9-3.6,7.637,7.637,0,0,1,2.3-5.5,7.723,7.723,0,0,1,9.3-1.2V182.8a8.2,8.2,0,0,1-3.7,1A8.409,8.409,0,0,1,192.9,181.4Zm-23.8,18.9a10.6,10.6,0,1,1,10.6-10.6A10.67,10.67,0,0,1,169.1,200.3Z"/><path fill="#f7a73b" d="M120,176.2a5.732,5.732,0,0,0-.4-1.4,15.193,15.193,0,0,0-14.5-10.6,15.2,15.2,0,1,0,0,30.4A15.068,15.068,0,0,0,119.8,183c.1-.4.2-.9.3-1.3a15.345,15.345,0,0,0-.1-5.5Z"/><path fill="#fff" d="M105.1,169.2a10.3,10.3,0,1,1-10.3,10.3,10.415,10.415,0,0,1,10.3-10.3m0-1.5a11.7,11.7,0,1,0,11.7,11.7,11.651,11.651,0,0,0-11.7-11.7Z"/></svg>