<svg xmlns="http://www.w3.org/2000/svg" width="250" height="250" viewBox="0 0 250 250"><rect fill="#e6f5ff" width="250" height="250"/><g transform="translate(3.6 -1.1)"><g transform="translate(14.4 46.1)"><path fill="#5b5952" d="M217.6,48.875a2.783,2.783,0,0,0-2.775-2.775H29.075A2.783,2.783,0,0,0,26.3,48.875V167.283a2.783,2.783,0,0,0,2.775,2.775H214.828a2.783,2.783,0,0,0,2.775-2.775Z" transform="translate(-15.292 -46.1)"/><path fill="#5b5952" d="M211.567,160.915a2.765,2.765,0,0,1-2.775,2.683H36.175a2.706,2.706,0,0,1-2.775-2.683V56.383A2.765,2.765,0,0,1,36.175,53.7H208.792a2.706,2.706,0,0,1,2.775,2.683Z" transform="translate(-15.824 -46.67)"/><g transform="translate(21.739 10.083)"><rect fill="#dee1e2" width="169.842" height="9.713"/><rect fill="#e1f3ff" width="84.454" height="37.835" transform="translate(85.388 16.374)"/><rect fill="#fefefe" width="79.839" height="78.818" transform="translate(1.388 16.834)"/><rect fill="#7ae3d8" width="27.839" height="36.818" transform="translate(84.649 58.834)"/><rect fill="#f7a73b" width="53.839" height="36.818" transform="translate(116.003 58.834)"/><rect fill="#818282" width="168.454" height="4.348" transform="translate(1.388 99.352)"/></g><g transform="translate(0 125.809)"><path fill="#5b5952" d="M14.4,182.1v12.118c0,1.2,1.3,2.128,2.775,2.128h207.77c1.573,0,2.775-.925,2.775-2.128V182.1Zm181.59,7.956c0,1.2-1.3,2.128-2.775,2.128H49c-1.573,0-2.775-.925-2.775-2.128v-.185c0-1.2,1.3-2.128,2.775-2.128H193.123c1.573,0,2.775.925,2.775,2.128v.185Z" transform="translate(-14.4 -182.1)"/></g></g><g transform="translate(143.434 121.477)"><path fill="#fdd5b6" d="M215.786,118.1a6.225,6.225,0,0,0-6.105,5.735h-.093V118.1a6.2,6.2,0,1,0-12.4,0v-6.2a6.2,6.2,0,1,0-12.4,0V87.3a6.2,6.2,0,1,0-12.4,0v41.35a1.971,1.971,0,0,1-1.388,1.665,2.074,2.074,0,0,1-2.035-.648c-4.533-5.92-4.255-11.748-10.823-11.748a4.351,4.351,0,0,0-3.7,2.128,4.613,4.613,0,0,0-.093,4.255L173.7,165.836a3,3,0,0,0,2.683,1.573h35.985a9.278,9.278,0,0,0,9.251-9.251V124.3A5.784,5.784,0,0,0,215.786,118.1Z" transform="translate(-153.887 -81.1)"/><g transform="translate(17.311 89.916)"><path fill="#fa906c" d="M197.947,178.3H176.67a4.106,4.106,0,0,0-4.07,4.07v16.189a4.106,4.106,0,0,0,4.07,4.07h21.276V178.3Z" transform="translate(-172.6 -178.3)"/><path fill="#f76b3b" d="M221.276,178.3H200v24.329h21.276a4.106,4.106,0,0,0,4.07-4.07V182.37A4.047,4.047,0,0,0,221.276,178.3Z" transform="translate(-174.653 -178.3)"/></g><g transform="translate(13.796 98.704)"><path fill="#30b5a7" d="M224.407,187.9H199.8v29.695h24.607c2.22,0,3.978-1.2,3.978-2.683V190.675C228.292,189.1,226.534,187.9,224.407,187.9Z" transform="translate(-171.123 -187.807)"/><path fill="#48cbbd" d="M172.778,187.893c-2.22,0-3.978,1.2-3.978,2.683v24.237c0,1.48,1.758,2.683,3.978,2.683h24.607V187.8H172.778Z" transform="translate(-168.8 -187.8)"/></g><circle fill="#154f78" cx="3.978" cy="3.978" r="3.978" transform="translate(60.141 108.048)"/><circle fill="#154f78" cx="3.978" cy="3.978" r="3.978" transform="translate(60.141 118.778)"/></g></g><g transform="translate(52.03 81.979)"><path fill="#5b5952" d="M9.218,40.241A21.367,21.367,0,0,1,4.172,22.507,21.959,21.959,0,0,1,29.711,4.284c12,2.123,18.06,12.982,17.946,20.3-1.682-.588-3.331-1.176-5-1.747-.033.049-.065.082-.1.131,2.335,4.05,4.687,8.1,7.087,12.263,2.4-4.164,4.752-8.214,7.087-12.28l-.114-.114c-1.6.555-3.2,1.127-4.9,1.715a25.782,25.782,0,0,0-5.34-14.435,26.77,26.77,0,0,0-12.508-8.85,25.107,25.107,0,0,0-15.3-.163A25.833,25.833,0,0,0,.547,31.292c2.923,13.6,15.464,20.967,25.474,20.33V47.916A21.281,21.281,0,0,1,9.218,40.241Z" transform="translate(0 0)"/><path fill="#5b5952" d="M127.789,93.9a9.837,9.837,0,0,0,.425-1.225,1.958,1.958,0,0,0-.2-.18,4.863,4.863,0,0,0-1.094.261,10.188,10.188,0,0,0-1.764,1.078c-3.3,2.58-6.564,5.176-9.847,7.773a.72.72,0,0,1-1.012.049c-1.6-1.029-3.217-2.008-4.833-2.988a1.494,1.494,0,0,0-.653-.31,2.409,2.409,0,0,0-1.306.2c-.441.327-.163.865.082,1.274.865,1.47,1.7,2.972,2.645,4.409a33.145,33.145,0,0,0,2.515,3.3,2.831,2.831,0,0,0,4.229.1,7.858,7.858,0,0,0,.686-.784c2.123-2.58,4.229-5.176,6.368-7.756A26.613,26.613,0,0,0,127.789,93.9Z" transform="translate(-89.783 -77.406)"/><path fill="#f76b3b" d="M261.3,238.549c-.523.049-.653-.163-.653-.653q.024-2.964,0-5.928v-2.057c-1.421,0-2.743.016-4.05-.016a.893.893,0,0,0-.882.506c-1.568,2.547-3.086,5.144-4.768,7.626-.784,1.176-.555,2.351-.588,3.641h6.532v3.445h3.756c0-1.012.016-1.992,0-2.956-.016-.392.114-.555.523-.539.392.033.8,0,1.192,0v-3.07C261.973,238.549,261.63,238.516,261.3,238.549Zm-4.9.082c-.67-.033-1.339-.065-2.123-.114.849-1.453,1.666-2.841,2.5-4.246.033,0,.065.016.114.016v3.968C256.895,238.6,256.682,238.63,256.4,238.63Z" transform="translate(-209.499 -192.364)"/><path fill="#f76b3b" d="M184.006,238.3a7.783,7.783,0,0,0,2.221-3.87,4.691,4.691,0,0,0-2.237-5.193,8.18,8.18,0,0,0-7.92.751c-.114.1-.245.327-.212.441.327.9.686,1.764,1.012,2.58a23.7,23.7,0,0,1,2.515-1.11,2.124,2.124,0,0,1,2.482,3.364,13.319,13.319,0,0,1-1.764,2.172c-1.306,1.29-2.694,2.5-4.033,3.739-.163.147-.392.327-.408.506-.049.767-.016,1.535-.016,2.286h10.892v-3.282h-5.013C182.422,239.82,183.238,239.086,184.006,238.3Z" transform="translate(-146.979 -191.235)"/><path fill="#5b5952" d="M34.509,151.724c.425-.016.849-.016,1.274-.049a1.426,1.426,0,0,0,1.47-1.649,1.37,1.37,0,0,0-1.486-1.551q-2.474-.049-4.948,0a1.594,1.594,0,0,0,.016,3.184c.816.033,1.633,0,2.449,0v.065C33.709,151.724,34.117,151.74,34.509,151.724Z" transform="translate(-24.54 -124.22)"/><path fill="#5b5952" d="M149.3,32.06a1.382,1.382,0,0,0-1.535-1.568c-1.061-.033-1.649.457-1.666,1.5-.033,1.666-.016,3.331,0,5.013.016.947.588,1.4,1.617,1.421a1.388,1.388,0,0,0,1.568-1.421c.033-.849,0-1.715,0-2.564h0V33.284A10.222,10.222,0,0,0,149.3,32.06Z" transform="translate(-122.255 -25.523)"/></g></svg>