<svg xmlns="http://www.w3.org/2000/svg" width="250" height="250" viewBox="0 0 250 250"><rect fill="#e6f5ff" width="250" height="250"/><path fill="#fefefe" d="M149.4,170.5c0,4.7-3.1,8.5-7,8.5H109.7c-3.9,0-7-3.8-7-8.5v-13c0-4.7,3.1-8.5,7-8.5h32.7c3.9,0,7,3.8,7,8.5Z"/><path fill="#5b5952" d="M210,147.4a8.493,8.493,0,0,1-8.5,8.5H50.4a8.493,8.493,0,0,1-8.5-8.5V45.7a8.493,8.493,0,0,1,8.5-8.5H201.5a8.493,8.493,0,0,1,8.5,8.5Z"/><path fill="#fefefe" d="M206.3,136.5c0,4.1-3.6,7.4-8.1,7.4H53.8c-4.5,0-8.1-3.3-8.1-7.4V48.4c0-4.1,3.6-7.4,8.1-7.4H198.2c4.5,0,8.1,3.3,8.1,7.4v88.1Z"/><path fill="#fefefe" d="M149.3,171.5H102.7l-22.3,15h91.1Z"/><rect fill="#0d3859" width="34.2" height="2.5" transform="translate(108.9 147.7)"/><rect fill="#dee1e2" width="123.9" height="14" transform="translate(61.9 49.4)"/><rect fill="#e5e6e6" width="123.9" height="2.5" transform="translate(61.9 65.7)"/><rect fill="#e5e6e6" width="40.8" height="3.1" transform="translate(61.9 73.9)"/><rect fill="#e5e6e6" width="40.8" height="3.1" transform="translate(61.9 81.1)"/><rect fill="#7ae3d8" width="18.6" height="18.6" transform="translate(61.9 87.6)"/><rect fill="#f76b3b" width="18.6" height="18.6" transform="translate(84 87.6)"/><rect fill="#dee1e2" width="40.8" height="10.2" transform="translate(61.9 108.8)"/><path fill="#f7a73b" d="M171.8,101.1l-16.9-3.9-14.1,11.1-14.9-7.8-15.3,6.2V119H187V86.1Z"/><path fill="#e1f3ff" d="M140.7,106.6l13.9-10.9,16.7,3.9L187,84.1V73.9H110.6v31.3L126,98.9Z"/><path fill="#ec6244" d="M140.8,108.3l14.1-11.1,16.9,3.9,15.2-15v-2L171.3,99.6l-16.7-3.9-13.9,10.9L126,98.9l-15.4,6.3v1.5l15.3-6.2Z"/><rect fill="#7ae3d8" width="6.5" height="4.6" transform="translate(61.9 124.6)"/><rect fill="#f76b3b" width="6.5" height="5.3" transform="translate(61.9 132.1)"/><rect fill="#e5e6e6" width="114.1" height="3.1" transform="translate(72.9 125.4)"/><rect fill="#e5e6e6" width="114.1" height="3.1" transform="translate(72.9 133.2)"/><rect fill="#ced0d0" width="91.2" height="2.3" transform="translate(80.4 186.5)"/><path fill="#fefefe" d="M34.1,208.2H215.9l-15-13.1H43.5Z"/><rect fill="#ced0d0" width="181.8" height="4.6" transform="translate(34.1 208.2)"/><path fill="#ced0d0" d="M126.9,205.3l-67.6.1,1.8-4.4h64.6Z"/><rect fill="#bfbebe" width="67.6" height="1" transform="translate(59.3 205.4)"/><circle fill="none" cx="8.8" cy="8.8" r="8.8" transform="matrix(0.858, -0.514, 0.514, 0.858, 188.458, 91.854)"/><path fill="#30b5a7" d="M150.8,203.7l-13.1-64.4A32.67,32.67,0,0,0,152.3,127a33.472,33.472,0,1,0-46.3,9.5,33.978,33.978,0,0,0,14.7,5.3l13.4,65.5a8.529,8.529,0,0,0,3.7,5.3,8.675,8.675,0,0,0,6.5,1.2A8.423,8.423,0,0,0,150.8,203.7Zm-27-73.1a21.083,21.083,0,0,1-11.5-3.6,21.953,21.953,0,1,1,30.4-6.3,22.294,22.294,0,0,1-11.6,8.8A22.691,22.691,0,0,1,123.8,130.6Z"/><circle fill="#fff" cx="21.9" cy="21.9" r="21.9" transform="translate(94.015 114.845) rotate(-56.639)"/><path fill="#f7c69f" d="M113.3,161.7h13.5a6.707,6.707,0,0,1,0,13.4H113.3a6.707,6.707,0,0,1,0-13.4Z"/><path fill="#eba8a0" d="M150.2,155.1c0,.1,0,.1-.1.2V154A1.376,1.376,0,0,1,150.2,155.1Z"/><path fill="#f7c69f" d="M128.9,131.9a5.029,5.029,0,0,1,4.9-.1l6.3,2.9L181.5,154a3.532,3.532,0,0,1,1.8,3.1v41.3A10.542,10.542,0,0,1,172.7,209H159.8l-9.4-4.9-9.7-53c0-.1.1-.2.1-.3a2.2,2.2,0,0,0-.1-1.4,2.016,2.016,0,0,0-.7-.9,30.085,30.085,0,0,0-4.3-2.7c-2.7-1.5-5.2-2.5-6.9-4a7.2,7.2,0,0,1-2.3-5.7A4.909,4.909,0,0,1,128.9,131.9Z"/><path fill="#f7c69f" d="M110.8,146.9h13.5a6.707,6.707,0,0,1,0,13.4H110.8a6.578,6.578,0,0,1-6.4-6.7A6.511,6.511,0,0,1,110.8,146.9Z"/><path fill="#f7c69f" d="M122.5,192.6H136a6.707,6.707,0,0,1,0,13.4H122.5a6.578,6.578,0,0,1-6.4-6.7A6.451,6.451,0,0,1,122.5,192.6Z"/><path fill="#f7c69f" d="M116.7,177.3h13.5a6.707,6.707,0,0,1,0,13.4H116.7a6.707,6.707,0,0,1,0-13.4Z"/><path fill="#fa906c" d="M185.8,179.4V159.3a3.8,3.8,0,0,1,3.8-3.8h15.3a3.8,3.8,0,0,1,3.8,3.8v20.1H185.8Z"/><path fill="#f76b3b" d="M185.8,199.5V179.4h22.9v20.1a3.8,3.8,0,0,1-3.8,3.8H189.6A3.8,3.8,0,0,1,185.8,199.5Z"/><path fill="#30b5a7" d="M248.1,205.6a2.106,2.106,0,0,1-1.3.5H196.6c-1.4,0-2.6-1.7-2.6-3.7V179.2h54v26.4Z"/><path fill="#48cbbd" d="M196.7,152.2h50.2a2.106,2.106,0,0,1,1.3.5v26.4h-54V155.9C194.1,153.8,195.3,152.2,196.7,152.2Z"/><circle fill="#154f78" cx="3.7" cy="3.7" r="3.7" transform="translate(202.9 195.9)"/><circle fill="#154f78" cx="3.7" cy="3.7" r="3.7" transform="translate(223.1 195.9)"/><circle fill="#154f78" cx="3.7" cy="3.7" r="3.7" transform="translate(213 195.9)"/></svg>