<?xml version="1.0" encoding="UTF-8" standalone="no"?>
<!DOCTYPE svg PUBLIC "-//W3C//DTD SVG 1.1//EN"
 "http://www.w3.org/Graphics/SVG/1.1/DTD/svg11.dtd">
<!-- Generated by graphviz version 2.40.1 (20161225.0304)
 -->
<!-- Title: dependencies Pages: 1 -->
<svg width="960pt" height="211pt"
 viewBox="0.00 0.00 960.00 211.00" xmlns="http://www.w3.org/2000/svg" xmlns:xlink="http://www.w3.org/1999/xlink">
<g id="graph0" class="graph" transform="scale(1 1) rotate(0) translate(4 207)">
<title>dependencies</title>
<polygon fill="#ffffff" stroke="transparent" points="-4,4 -4,-207 956,-207 956,4 -4,4"/>
<text text-anchor="start" x="455.0091" y="-42.4" font-family="sans-serif" font-weight="bold" font-size="14.00" fill="#000000">Legend</text>
<polygon fill="#ffffb3" stroke="transparent" points="242,-10 242,-30 262,-30 262,-10 242,-10"/>
<text text-anchor="start" x="265.629" y="-15.4" font-family="sans-serif" font-size="14.00" fill="#000000"> &#160;Declarations</text>
<polygon fill="#8dd3c7" stroke="transparent" points="355,-10 355,-30 375,-30 375,-10 355,-10"/>
<text text-anchor="start" x="378.7251" y="-15.4" font-family="sans-serif" font-size="14.00" fill="#000000"> &#160;Module</text>
<polygon fill="#80b1d3" stroke="transparent" points="441,-10 441,-30 461,-30 461,-10 441,-10"/>
<text text-anchor="start" x="464.7812" y="-15.4" font-family="sans-serif" font-size="14.00" fill="#000000"> &#160;Bootstrap</text>
<polygon fill="#fdb462" stroke="transparent" points="538,-10 538,-30 558,-30 558,-10 538,-10"/>
<text text-anchor="start" x="561.6732" y="-15.4" font-family="sans-serif" font-size="14.00" fill="#000000"> &#160;Providers</text>
<polygon fill="#fb8072" stroke="transparent" points="634,-10 634,-30 654,-30 654,-10 634,-10"/>
<text text-anchor="start" x="657.7258" y="-15.4" font-family="sans-serif" font-size="14.00" fill="#000000"> &#160;Exports</text>
<g id="clust1" class="cluster">
<title>cluster_MobileProductDetailModule</title>
<polygon fill="none" stroke="#000000" stroke-dasharray="1,5" points="8,-70 8,-195 944,-195 944,-70 8,-70"/>
</g>
<g id="clust2" class="cluster">
<title>cluster_MobileProductDetailModule_declarations</title>
<polygon fill="none" stroke="#000000" points="178,-78 178,-130 936,-130 936,-78 178,-78"/>
</g>
<g id="clust6" class="cluster">
<title>cluster_MobileProductDetailModule_imports</title>
<polygon fill="none" stroke="#000000" points="16,-78 16,-130 170,-130 170,-78 16,-78"/>
</g>
<!-- MobileProductAttributesComponent -->
<g id="node1" class="node">
<title>MobileProductAttributesComponent</title>
<polygon fill="#ffffb3" stroke="#000000" points="927.8102,-122 706.1898,-122 706.1898,-86 927.8102,-86 927.8102,-122"/>
<text text-anchor="middle" x="817" y="-99.8" font-family="Times,serif" font-size="14.00" fill="#000000">MobileProductAttributesComponent</text>
</g>
<!-- MobileProductDetailModule -->
<g id="node4" class="node">
<title>MobileProductDetailModule</title>
<polygon fill="#8dd3c7" stroke="#000000" points="517.7464,-187 514.7464,-191 493.7464,-191 490.7464,-187 340.2536,-187 340.2536,-151 517.7464,-151 517.7464,-187"/>
<text text-anchor="middle" x="429" y="-164.8" font-family="Times,serif" font-size="14.00" fill="#000000">MobileProductDetailModule</text>
</g>
<!-- MobileProductAttributesComponent&#45;&gt;MobileProductDetailModule -->
<g id="edge1" class="edge">
<title>MobileProductAttributesComponent&#45;&gt;MobileProductDetailModule</title>
<path fill="none" stroke="#000000" d="M817,-122.1061C817,-141.3391 817,-169 817,-169 817,-169 528.015,-169 528.015,-169"/>
<polygon fill="#000000" stroke="#000000" points="528.0151,-165.5001 518.015,-169 528.015,-172.5001 528.0151,-165.5001"/>
</g>
<!-- MobileProductDescriptionCardComponent -->
<g id="node2" class="node">
<title>MobileProductDescriptionCardComponent</title>
<polygon fill="#ffffb3" stroke="#000000" points="687.8458,-122 430.1542,-122 430.1542,-86 687.8458,-86 687.8458,-122"/>
<text text-anchor="middle" x="559" y="-99.8" font-family="Times,serif" font-size="14.00" fill="#000000">MobileProductDescriptionCardComponent</text>
</g>
<!-- MobileProductDescriptionCardComponent&#45;&gt;MobileProductDetailModule -->
<g id="edge2" class="edge">
<title>MobileProductDescriptionCardComponent&#45;&gt;MobileProductDetailModule</title>
<path fill="none" stroke="#000000" d="M473.9751,-122.1061C473.9751,-122.1061 473.9751,-140.991 473.9751,-140.991"/>
<polygon fill="#000000" stroke="#000000" points="470.4752,-140.9909 473.9751,-150.991 477.4752,-140.991 470.4752,-140.9909"/>
</g>
<!-- MobileProductDetailPageComponent -->
<g id="node3" class="node">
<title>MobileProductDetailPageComponent</title>
<polygon fill="#ffffb3" stroke="#000000" points="412.2407,-122 185.7593,-122 185.7593,-86 412.2407,-86 412.2407,-122"/>
<text text-anchor="middle" x="299" y="-99.8" font-family="Times,serif" font-size="14.00" fill="#000000">MobileProductDetailPageComponent</text>
</g>
<!-- MobileProductDetailPageComponent&#45;&gt;MobileProductDetailModule -->
<g id="edge3" class="edge">
<title>MobileProductDetailPageComponent&#45;&gt;MobileProductDetailModule</title>
<path fill="none" stroke="#000000" d="M376.2486,-122.1061C376.2486,-122.1061 376.2486,-140.991 376.2486,-140.991"/>
<polygon fill="#000000" stroke="#000000" points="372.7487,-140.9909 376.2486,-150.991 379.7487,-140.991 372.7487,-140.9909"/>
</g>
<!-- ProductDetailModule -->
<g id="node5" class="node">
<title>ProductDetailModule</title>
<polygon fill="#8dd3c7" stroke="#000000" points="161.8061,-122 158.8061,-126 137.8061,-126 134.8061,-122 24.1939,-122 24.1939,-86 161.8061,-86 161.8061,-122"/>
<text text-anchor="middle" x="93" y="-99.8" font-family="Times,serif" font-size="14.00" fill="#000000">ProductDetailModule</text>
</g>
<!-- ProductDetailModule&#45;&gt;MobileProductDetailModule -->
<g id="edge4" class="edge">
<title>ProductDetailModule&#45;&gt;MobileProductDetailModule</title>
<path fill="none" stroke="#000000" d="M93,-122.1061C93,-141.3391 93,-169 93,-169 93,-169 329.8403,-169 329.8403,-169"/>
<polygon fill="#000000" stroke="#000000" points="329.8403,-172.5001 339.8403,-169 329.8403,-165.5001 329.8403,-172.5001"/>
</g>
</g>
</svg>
