<?xml version="1.0" encoding="UTF-8" standalone="no"?>
<!DOCTYPE svg PUBLIC "-//W3C//DTD SVG 1.1//EN"
 "http://www.w3.org/Graphics/SVG/1.1/DTD/svg11.dtd">
<!-- Generated by graphviz version 2.40.1 (20161225.0304)
 -->
<!-- Title: dependencies Pages: 1 -->
<svg width="1382pt" height="211pt"
 viewBox="0.00 0.00 1382.00 211.00" xmlns="http://www.w3.org/2000/svg" xmlns:xlink="http://www.w3.org/1999/xlink">
<g id="graph0" class="graph" transform="scale(1 1) rotate(0) translate(4 207)">
<title>dependencies</title>
<polygon fill="#ffffff" stroke="transparent" points="-4,4 -4,-207 1378,-207 1378,4 -4,4"/>
<text text-anchor="start" x="666.0091" y="-42.4" font-family="sans-serif" font-weight="bold" font-size="14.00" fill="#000000">Legend</text>
<polygon fill="#ffffb3" stroke="transparent" points="453,-10 453,-30 473,-30 473,-10 453,-10"/>
<text text-anchor="start" x="476.629" y="-15.4" font-family="sans-serif" font-size="14.00" fill="#000000"> &#160;Declarations</text>
<polygon fill="#8dd3c7" stroke="transparent" points="566,-10 566,-30 586,-30 586,-10 566,-10"/>
<text text-anchor="start" x="589.7251" y="-15.4" font-family="sans-serif" font-size="14.00" fill="#000000"> &#160;Module</text>
<polygon fill="#80b1d3" stroke="transparent" points="652,-10 652,-30 672,-30 672,-10 652,-10"/>
<text text-anchor="start" x="675.7812" y="-15.4" font-family="sans-serif" font-size="14.00" fill="#000000"> &#160;Bootstrap</text>
<polygon fill="#fdb462" stroke="transparent" points="749,-10 749,-30 769,-30 769,-10 749,-10"/>
<text text-anchor="start" x="772.6732" y="-15.4" font-family="sans-serif" font-size="14.00" fill="#000000"> &#160;Providers</text>
<polygon fill="#fb8072" stroke="transparent" points="845,-10 845,-30 865,-30 865,-10 845,-10"/>
<text text-anchor="start" x="868.7258" y="-15.4" font-family="sans-serif" font-size="14.00" fill="#000000"> &#160;Exports</text>
<g id="clust1" class="cluster">
<title>cluster_MobileProfileModule</title>
<polygon fill="none" stroke="#000000" stroke-dasharray="1,5" points="8,-70 8,-195 1366,-195 1366,-70 8,-70"/>
</g>
<g id="clust2" class="cluster">
<title>cluster_MobileProfileModule_declarations</title>
<polygon fill="none" stroke="#000000" points="371,-78 371,-130 1358,-130 1358,-78 371,-78"/>
</g>
<g id="clust7" class="cluster">
<title>cluster_MobileProfileModule_imports</title>
<polygon fill="none" stroke="#000000" points="16,-78 16,-130 363,-130 363,-78 16,-78"/>
</g>
<!-- MobileAddAddressPageComponent -->
<g id="node1" class="node">
<title>MobileAddAddressPageComponent</title>
<polygon fill="#ffffb3" stroke="#000000" points="1350.4622,-122 1131.5378,-122 1131.5378,-86 1350.4622,-86 1350.4622,-122"/>
<text text-anchor="middle" x="1241" y="-99.8" font-family="Times,serif" font-size="14.00" fill="#000000">MobileAddAddressPageComponent</text>
</g>
<!-- MobileProfileModule -->
<g id="node5" class="node">
<title>MobileProfileModule</title>
<polygon fill="#8dd3c7" stroke="#000000" points="568.0898,-187 565.0898,-191 544.0898,-191 541.0898,-187 429.9102,-187 429.9102,-151 568.0898,-151 568.0898,-187"/>
<text text-anchor="middle" x="499" y="-164.8" font-family="Times,serif" font-size="14.00" fill="#000000">MobileProfileModule</text>
</g>
<!-- MobileAddAddressPageComponent&#45;&gt;MobileProfileModule -->
<g id="edge1" class="edge">
<title>MobileAddAddressPageComponent&#45;&gt;MobileProfileModule</title>
<path fill="none" stroke="#000000" d="M1241,-122.2921C1241,-144.2057 1241,-178 1241,-178 1241,-178 578.1392,-178 578.1392,-178"/>
<polygon fill="#000000" stroke="#000000" points="578.1393,-174.5001 568.1392,-178 578.1392,-181.5001 578.1393,-174.5001"/>
</g>
<!-- MobileProfileAddressListComponent -->
<g id="node2" class="node">
<title>MobileProfileAddressListComponent</title>
<polygon fill="#ffffb3" stroke="#000000" points="1113.5223,-122 886.4777,-122 886.4777,-86 1113.5223,-86 1113.5223,-122"/>
<text text-anchor="middle" x="1000" y="-99.8" font-family="Times,serif" font-size="14.00" fill="#000000">MobileProfileAddressListComponent</text>
</g>
<!-- MobileProfileAddressListComponent&#45;&gt;MobileProfileModule -->
<g id="edge2" class="edge">
<title>MobileProfileAddressListComponent&#45;&gt;MobileProfileModule</title>
<path fill="none" stroke="#000000" d="M1000,-122.1061C1000,-141.3391 1000,-169 1000,-169 1000,-169 578.1359,-169 578.1359,-169"/>
<polygon fill="#000000" stroke="#000000" points="578.1359,-165.5001 568.1359,-169 578.1359,-172.5001 578.1359,-165.5001"/>
</g>
<!-- MobileProfilePersonalInfoComponent -->
<g id="node3" class="node">
<title>MobileProfilePersonalInfoComponent</title>
<polygon fill="#ffffb3" stroke="#000000" points="868.9015,-122 637.0985,-122 637.0985,-86 868.9015,-86 868.9015,-122"/>
<text text-anchor="middle" x="753" y="-99.8" font-family="Times,serif" font-size="14.00" fill="#000000">MobileProfilePersonalInfoComponent</text>
</g>
<!-- MobileProfilePersonalInfoComponent&#45;&gt;MobileProfileModule -->
<g id="edge3" class="edge">
<title>MobileProfilePersonalInfoComponent&#45;&gt;MobileProfileModule</title>
<path fill="none" stroke="#000000" d="M753,-122.027C753,-138.3976 753,-160 753,-160 753,-160 578.0711,-160 578.0711,-160"/>
<polygon fill="#000000" stroke="#000000" points="578.0711,-156.5001 568.0711,-160 578.0711,-163.5001 578.0711,-156.5001"/>
</g>
<!-- MobileRegisterPersonalInfoComponent -->
<g id="node4" class="node">
<title>MobileRegisterPersonalInfoComponent</title>
<polygon fill="#ffffb3" stroke="#000000" points="618.9538,-122 379.0462,-122 379.0462,-86 618.9538,-86 618.9538,-122"/>
<text text-anchor="middle" x="499" y="-99.8" font-family="Times,serif" font-size="14.00" fill="#000000">MobileRegisterPersonalInfoComponent</text>
</g>
<!-- MobileRegisterPersonalInfoComponent&#45;&gt;MobileProfileModule -->
<g id="edge4" class="edge">
<title>MobileRegisterPersonalInfoComponent&#45;&gt;MobileProfileModule</title>
<path fill="none" stroke="#000000" d="M499,-122.1061C499,-122.1061 499,-140.991 499,-140.991"/>
<polygon fill="#000000" stroke="#000000" points="495.5001,-140.9909 499,-150.991 502.5001,-140.991 495.5001,-140.9909"/>
</g>
<!-- LayoutModule -->
<g id="node6" class="node">
<title>LayoutModule</title>
<polygon fill="#8dd3c7" stroke="#000000" points="354.7078,-122 351.7078,-126 330.7078,-126 327.7078,-122 255.2922,-122 255.2922,-86 354.7078,-86 354.7078,-122"/>
<text text-anchor="middle" x="305" y="-99.8" font-family="Times,serif" font-size="14.00" fill="#000000">LayoutModule</text>
</g>
<!-- LayoutModule&#45;&gt;MobileProfileModule -->
<g id="edge5" class="edge">
<title>LayoutModule&#45;&gt;MobileProfileModule</title>
<path fill="none" stroke="#000000" d="M305,-122.027C305,-138.3976 305,-160 305,-160 305,-160 419.7832,-160 419.7832,-160"/>
<polygon fill="#000000" stroke="#000000" points="419.7832,-163.5001 429.7832,-160 419.7831,-156.5001 419.7832,-163.5001"/>
</g>
<!-- ProfileModule -->
<g id="node7" class="node">
<title>ProfileModule</title>
<polygon fill="#8dd3c7" stroke="#000000" points="237.65,-122 234.65,-126 213.65,-126 210.65,-122 140.35,-122 140.35,-86 237.65,-86 237.65,-122"/>
<text text-anchor="middle" x="189" y="-99.8" font-family="Times,serif" font-size="14.00" fill="#000000">ProfileModule</text>
</g>
<!-- ProfileModule&#45;&gt;MobileProfileModule -->
<g id="edge6" class="edge">
<title>ProfileModule&#45;&gt;MobileProfileModule</title>
<path fill="none" stroke="#000000" d="M189,-122.1061C189,-141.3391 189,-169 189,-169 189,-169 419.8158,-169 419.8158,-169"/>
<polygon fill="#000000" stroke="#000000" points="419.8158,-172.5001 429.8158,-169 419.8158,-165.5001 419.8158,-172.5001"/>
</g>
<!-- SharedModule -->
<g id="node8" class="node">
<title>SharedModule</title>
<polygon fill="#8dd3c7" stroke="#000000" points="122.4231,-122 119.4231,-126 98.4231,-126 95.4231,-122 23.5769,-122 23.5769,-86 122.4231,-86 122.4231,-122"/>
<text text-anchor="middle" x="73" y="-99.8" font-family="Times,serif" font-size="14.00" fill="#000000">SharedModule</text>
</g>
<!-- SharedModule&#45;&gt;MobileProfileModule -->
<g id="edge7" class="edge">
<title>SharedModule&#45;&gt;MobileProfileModule</title>
<path fill="none" stroke="#000000" d="M73,-122.2921C73,-144.2057 73,-178 73,-178 73,-178 419.6076,-178 419.6076,-178"/>
<polygon fill="#000000" stroke="#000000" points="419.6077,-181.5001 429.6076,-178 419.6076,-174.5001 419.6077,-181.5001"/>
</g>
</g>
</svg>
