<?xml version="1.0" encoding="UTF-8" standalone="no"?>
<!DOCTYPE svg PUBLIC "-//W3C//DTD SVG 1.1//EN"
 "http://www.w3.org/Graphics/SVG/1.1/DTD/svg11.dtd">
<!-- Generated by graphviz version 2.40.1 (20161225.0304)
 -->
<!-- Title: dependencies Pages: 1 -->
<svg width="504pt" height="284pt"
 viewBox="0.00 0.00 504.00 284.00" xmlns="http://www.w3.org/2000/svg" xmlns:xlink="http://www.w3.org/1999/xlink">
<g id="graph0" class="graph" transform="scale(1 1) rotate(0) translate(4 280)">
<title>dependencies</title>
<polygon fill="#ffffff" stroke="transparent" points="-4,4 -4,-280 500,-280 500,4 -4,4"/>
<text text-anchor="start" x="227.0091" y="-42.4" font-family="sans-serif" font-weight="bold" font-size="14.00" fill="#000000">Legend</text>
<polygon fill="#ffffb3" stroke="transparent" points="14,-10 14,-30 34,-30 34,-10 14,-10"/>
<text text-anchor="start" x="37.629" y="-15.4" font-family="sans-serif" font-size="14.00" fill="#000000"> &#160;Declarations</text>
<polygon fill="#8dd3c7" stroke="transparent" points="127,-10 127,-30 147,-30 147,-10 127,-10"/>
<text text-anchor="start" x="150.7251" y="-15.4" font-family="sans-serif" font-size="14.00" fill="#000000"> &#160;Module</text>
<polygon fill="#80b1d3" stroke="transparent" points="213,-10 213,-30 233,-30 233,-10 213,-10"/>
<text text-anchor="start" x="236.7812" y="-15.4" font-family="sans-serif" font-size="14.00" fill="#000000"> &#160;Bootstrap</text>
<polygon fill="#fdb462" stroke="transparent" points="310,-10 310,-30 330,-30 330,-10 310,-10"/>
<text text-anchor="start" x="333.6732" y="-15.4" font-family="sans-serif" font-size="14.00" fill="#000000"> &#160;Providers</text>
<polygon fill="#fb8072" stroke="transparent" points="406,-10 406,-30 426,-30 426,-10 406,-10"/>
<text text-anchor="start" x="429.7258" y="-15.4" font-family="sans-serif" font-size="14.00" fill="#000000"> &#160;Exports</text>
<g id="clust1" class="cluster">
<title>cluster_LoginModule</title>
<polygon fill="none" stroke="#000000" stroke-dasharray="1,5" points="16.5,-70 16.5,-268 479.5,-268 479.5,-70 16.5,-70"/>
</g>
<g id="clust2" class="cluster">
<title>cluster_LoginModule_declarations</title>
<polygon fill="none" stroke="#000000" points="146.5,-78 146.5,-130 471.5,-130 471.5,-78 146.5,-78"/>
</g>
<g id="clust5" class="cluster">
<title>cluster_LoginModule_imports</title>
<polygon fill="none" stroke="#000000" points="24.5,-78 24.5,-130 138.5,-130 138.5,-78 24.5,-78"/>
</g>
<g id="clust6" class="cluster">
<title>cluster_LoginModule_exports</title>
<polygon fill="none" stroke="#000000" points="82.5,-208 82.5,-260 414.5,-260 414.5,-208 82.5,-208"/>
</g>
<!-- LoginComponent -->
<g id="node1" class="node">
<title>LoginComponent</title>
<polygon fill="#ffffb3" stroke="#000000" points="463.7758,-122 349.2242,-122 349.2242,-86 463.7758,-86 463.7758,-122"/>
<text text-anchor="middle" x="406.5" y="-99.8" font-family="Times,serif" font-size="14.00" fill="#000000">LoginComponent</text>
</g>
<!-- LoginModule -->
<g id="node3" class="node">
<title>LoginModule</title>
<polygon fill="#8dd3c7" stroke="#000000" points="288.993,-187 285.993,-191 264.993,-191 261.993,-187 196.007,-187 196.007,-151 288.993,-151 288.993,-187"/>
<text text-anchor="middle" x="242.5" y="-164.8" font-family="Times,serif" font-size="14.00" fill="#000000">LoginModule</text>
</g>
<!-- LoginComponent&#45;&gt;LoginModule -->
<g id="edge1" class="edge">
<title>LoginComponent&#45;&gt;LoginModule</title>
<path fill="none" stroke="#000000" d="M377.875,-122.1061C377.875,-141.3391 377.875,-169 377.875,-169 377.875,-169 299.0884,-169 299.0884,-169"/>
<polygon fill="#000000" stroke="#000000" points="299.0884,-165.5001 289.0884,-169 299.0884,-172.5001 299.0884,-165.5001"/>
</g>
<!-- SecondsTimerFormatterPipe -->
<g id="node2" class="node">
<title>SecondsTimerFormatterPipe</title>
<polygon fill="#ffffb3" stroke="#000000" points="330.958,-122 154.042,-122 154.042,-86 330.958,-86 330.958,-122"/>
<text text-anchor="middle" x="242.5" y="-99.8" font-family="Times,serif" font-size="14.00" fill="#000000">SecondsTimerFormatterPipe</text>
</g>
<!-- SecondsTimerFormatterPipe&#45;&gt;LoginModule -->
<g id="edge2" class="edge">
<title>SecondsTimerFormatterPipe&#45;&gt;LoginModule</title>
<path fill="none" stroke="#000000" d="M242.5,-122.1061C242.5,-122.1061 242.5,-140.991 242.5,-140.991"/>
<polygon fill="#000000" stroke="#000000" points="239.0001,-140.9909 242.5,-150.991 246.0001,-140.991 239.0001,-140.9909"/>
</g>
<!-- LoginComponent  -->
<g id="node5" class="node">
<title>LoginComponent </title>
<polygon fill="#fb8072" stroke="#000000" points="406.7759,-252 288.2241,-252 288.2241,-216 406.7759,-216 406.7759,-252"/>
<text text-anchor="middle" x="347.5" y="-229.8" font-family="Times,serif" font-size="14.00" fill="#000000">LoginComponent </text>
</g>
<!-- LoginModule&#45;&gt;LoginComponent  -->
<g id="edge4" class="edge">
<title>LoginModule&#45;&gt;LoginComponent </title>
<path fill="none" stroke="#000000" stroke-dasharray="5,2" d="M279.5456,-187.1061C279.5456,-206.3391 279.5456,-234 279.5456,-234 279.5456,-234 280.4062,-234 280.4062,-234"/>
<polygon fill="#000000" stroke="#000000" points="278.1521,-237.5001 288.1521,-234 278.152,-230.5001 278.1521,-237.5001"/>
</g>
<!-- SecondsTimerFormatterPipe  -->
<g id="node6" class="node">
<title>SecondsTimerFormatterPipe </title>
<polygon fill="#fb8072" stroke="#000000" points="270.9586,-252 90.0414,-252 90.0414,-216 270.9586,-216 270.9586,-252"/>
<text text-anchor="middle" x="180.5" y="-229.8" font-family="Times,serif" font-size="14.00" fill="#000000">SecondsTimerFormatterPipe </text>
</g>
<!-- LoginModule&#45;&gt;SecondsTimerFormatterPipe  -->
<g id="edge5" class="edge">
<title>LoginModule&#45;&gt;SecondsTimerFormatterPipe </title>
<path fill="none" stroke="#000000" stroke-dasharray="5,2" d="M233.3663,-187.1061C233.3663,-187.1061 233.3663,-205.991 233.3663,-205.991"/>
<polygon fill="#000000" stroke="#000000" points="229.8663,-205.9909 233.3663,-215.991 236.8663,-205.991 229.8663,-205.9909"/>
</g>
<!-- SharedModule -->
<g id="node4" class="node">
<title>SharedModule</title>
<polygon fill="#8dd3c7" stroke="#000000" points="130.9231,-122 127.9231,-126 106.9231,-126 103.9231,-122 32.0769,-122 32.0769,-86 130.9231,-86 130.9231,-122"/>
<text text-anchor="middle" x="81.5" y="-99.8" font-family="Times,serif" font-size="14.00" fill="#000000">SharedModule</text>
</g>
<!-- SharedModule&#45;&gt;LoginModule -->
<g id="edge3" class="edge">
<title>SharedModule&#45;&gt;LoginModule</title>
<path fill="none" stroke="#000000" d="M110.4911,-122.1061C110.4911,-141.3391 110.4911,-169 110.4911,-169 110.4911,-169 185.9586,-169 185.9586,-169"/>
<polygon fill="#000000" stroke="#000000" points="185.9586,-172.5001 195.9586,-169 185.9585,-165.5001 185.9586,-172.5001"/>
</g>
</g>
</svg>
