<?xml version="1.0" encoding="UTF-8" standalone="no"?>
<!DOCTYPE svg PUBLIC "-//W3C//DTD SVG 1.1//EN"
 "http://www.w3.org/Graphics/SVG/1.1/DTD/svg11.dtd">
<!-- Generated by graphviz version 2.40.1 (20161225.0304)
 -->
<!-- Title: dependencies Pages: 1 -->
<svg width="990pt" height="211pt"
 viewBox="0.00 0.00 990.00 211.00" xmlns="http://www.w3.org/2000/svg" xmlns:xlink="http://www.w3.org/1999/xlink">
<g id="graph0" class="graph" transform="scale(1 1) rotate(0) translate(4 207)">
<title>dependencies</title>
<polygon fill="#ffffff" stroke="transparent" points="-4,4 -4,-207 986,-207 986,4 -4,4"/>
<text text-anchor="start" x="470.0091" y="-42.4" font-family="sans-serif" font-weight="bold" font-size="14.00" fill="#000000">Legend</text>
<polygon fill="#ffffb3" stroke="transparent" points="257,-10 257,-30 277,-30 277,-10 257,-10"/>
<text text-anchor="start" x="280.629" y="-15.4" font-family="sans-serif" font-size="14.00" fill="#000000"> &#160;Declarations</text>
<polygon fill="#8dd3c7" stroke="transparent" points="370,-10 370,-30 390,-30 390,-10 370,-10"/>
<text text-anchor="start" x="393.7251" y="-15.4" font-family="sans-serif" font-size="14.00" fill="#000000"> &#160;Module</text>
<polygon fill="#80b1d3" stroke="transparent" points="456,-10 456,-30 476,-30 476,-10 456,-10"/>
<text text-anchor="start" x="479.7812" y="-15.4" font-family="sans-serif" font-size="14.00" fill="#000000"> &#160;Bootstrap</text>
<polygon fill="#fdb462" stroke="transparent" points="553,-10 553,-30 573,-30 573,-10 553,-10"/>
<text text-anchor="start" x="576.6732" y="-15.4" font-family="sans-serif" font-size="14.00" fill="#000000"> &#160;Providers</text>
<polygon fill="#fb8072" stroke="transparent" points="649,-10 649,-30 669,-30 669,-10 649,-10"/>
<text text-anchor="start" x="672.7258" y="-15.4" font-family="sans-serif" font-size="14.00" fill="#000000"> &#160;Exports</text>
<g id="clust1" class="cluster">
<title>cluster_DesktopHomeModule</title>
<polygon fill="none" stroke="#000000" stroke-dasharray="1,5" points="8,-70 8,-195 974,-195 974,-70 8,-70"/>
</g>
<g id="clust2" class="cluster">
<title>cluster_DesktopHomeModule_declarations</title>
<polygon fill="none" stroke="#000000" points="250,-78 250,-130 966,-130 966,-78 250,-78"/>
</g>
<g id="clust6" class="cluster">
<title>cluster_DesktopHomeModule_imports</title>
<polygon fill="none" stroke="#000000" points="16,-78 16,-130 242,-130 242,-78 16,-78"/>
</g>
<!-- DesktopDaroopinVitrinComponent -->
<g id="node1" class="node">
<title>DesktopDaroopinVitrinComponent</title>
<polygon fill="#ffffb3" stroke="#000000" points="958.3004,-122 743.6996,-122 743.6996,-86 958.3004,-86 958.3004,-122"/>
<text text-anchor="middle" x="851" y="-99.8" font-family="Times,serif" font-size="14.00" fill="#000000">DesktopDaroopinVitrinComponent</text>
</g>
<!-- DesktopHomeModule -->
<g id="node4" class="node">
<title>DesktopHomeModule</title>
<polygon fill="#8dd3c7" stroke="#000000" points="436.4186,-187 433.4186,-191 412.4186,-191 409.4186,-187 295.5814,-187 295.5814,-151 436.4186,-151 436.4186,-187"/>
<text text-anchor="middle" x="366" y="-164.8" font-family="Times,serif" font-size="14.00" fill="#000000">DesktopHomeModule</text>
</g>
<!-- DesktopDaroopinVitrinComponent&#45;&gt;DesktopHomeModule -->
<g id="edge1" class="edge">
<title>DesktopDaroopinVitrinComponent&#45;&gt;DesktopHomeModule</title>
<path fill="none" stroke="#000000" d="M851,-122.2843C851,-143.3211 851,-175 851,-175 851,-175 446.264,-175 446.264,-175"/>
<polygon fill="#000000" stroke="#000000" points="446.264,-171.5001 436.264,-175 446.264,-178.5001 446.264,-171.5001"/>
</g>
<!-- DesktopGeneralHomePageComponent -->
<g id="node2" class="node">
<title>DesktopGeneralHomePageComponent</title>
<polygon fill="#ffffb3" stroke="#000000" points="725.7142,-122 492.2858,-122 492.2858,-86 725.7142,-86 725.7142,-122"/>
<text text-anchor="middle" x="609" y="-99.8" font-family="Times,serif" font-size="14.00" fill="#000000">DesktopGeneralHomePageComponent</text>
</g>
<!-- DesktopGeneralHomePageComponent&#45;&gt;DesktopHomeModule -->
<g id="edge2" class="edge">
<title>DesktopGeneralHomePageComponent&#45;&gt;DesktopHomeModule</title>
<path fill="none" stroke="#000000" d="M609,-122.0225C609,-139.3734 609,-163 609,-163 609,-163 446.2857,-163 446.2857,-163"/>
<polygon fill="#000000" stroke="#000000" points="446.2857,-159.5001 436.2857,-163 446.2856,-166.5001 446.2857,-159.5001"/>
</g>
<!-- DesktopUserHomePageComponent -->
<g id="node3" class="node">
<title>DesktopUserHomePageComponent</title>
<polygon fill="#ffffb3" stroke="#000000" points="473.8389,-122 258.1611,-122 258.1611,-86 473.8389,-86 473.8389,-122"/>
<text text-anchor="middle" x="366" y="-99.8" font-family="Times,serif" font-size="14.00" fill="#000000">DesktopUserHomePageComponent</text>
</g>
<!-- DesktopUserHomePageComponent&#45;&gt;DesktopHomeModule -->
<g id="edge3" class="edge">
<title>DesktopUserHomePageComponent&#45;&gt;DesktopHomeModule</title>
<path fill="none" stroke="#000000" d="M366,-122.1061C366,-122.1061 366,-140.991 366,-140.991"/>
<polygon fill="#000000" stroke="#000000" points="362.5001,-140.9909 366,-150.991 369.5001,-140.991 362.5001,-140.9909"/>
</g>
<!-- HomeModule -->
<g id="node5" class="node">
<title>HomeModule</title>
<polygon fill="#8dd3c7" stroke="#000000" points="233.7619,-122 230.7619,-126 209.7619,-126 206.7619,-122 140.2381,-122 140.2381,-86 233.7619,-86 233.7619,-122"/>
<text text-anchor="middle" x="187" y="-99.8" font-family="Times,serif" font-size="14.00" fill="#000000">HomeModule</text>
</g>
<!-- HomeModule&#45;&gt;DesktopHomeModule -->
<g id="edge4" class="edge">
<title>HomeModule&#45;&gt;DesktopHomeModule</title>
<path fill="none" stroke="#000000" d="M187,-122.0225C187,-139.3734 187,-163 187,-163 187,-163 285.7682,-163 285.7682,-163"/>
<polygon fill="#000000" stroke="#000000" points="285.7682,-166.5001 295.7682,-163 285.7682,-159.5001 285.7682,-166.5001"/>
</g>
<!-- SharedModule -->
<g id="node6" class="node">
<title>SharedModule</title>
<polygon fill="#8dd3c7" stroke="#000000" points="122.4231,-122 119.4231,-126 98.4231,-126 95.4231,-122 23.5769,-122 23.5769,-86 122.4231,-86 122.4231,-122"/>
<text text-anchor="middle" x="73" y="-99.8" font-family="Times,serif" font-size="14.00" fill="#000000">SharedModule</text>
</g>
<!-- SharedModule&#45;&gt;DesktopHomeModule -->
<g id="edge5" class="edge">
<title>SharedModule&#45;&gt;DesktopHomeModule</title>
<path fill="none" stroke="#000000" d="M73,-122.2843C73,-143.3211 73,-175 73,-175 73,-175 285.4463,-175 285.4463,-175"/>
<polygon fill="#000000" stroke="#000000" points="285.4464,-178.5001 295.4463,-175 285.4463,-171.5001 285.4464,-178.5001"/>
</g>
</g>
</svg>
