<?xml version="1.0" encoding="UTF-8" standalone="no"?>
<!DOCTYPE svg PUBLIC "-//W3C//DTD SVG 1.1//EN"
 "http://www.w3.org/Graphics/SVG/1.1/DTD/svg11.dtd">
<!-- Generated by graphviz version 2.40.1 (20161225.0304)
 -->
<!-- Title: dependencies Pages: 1 -->
<svg width="795pt" height="284pt"
 viewBox="0.00 0.00 795.00 284.00" xmlns="http://www.w3.org/2000/svg" xmlns:xlink="http://www.w3.org/1999/xlink">
<g id="graph0" class="graph" transform="scale(1 1) rotate(0) translate(4 280)">
<title>dependencies</title>
<polygon fill="#ffffff" stroke="transparent" points="-4,4 -4,-280 791,-280 791,4 -4,4"/>
<text text-anchor="start" x="372.5091" y="-42.4" font-family="sans-serif" font-weight="bold" font-size="14.00" fill="#000000">Legend</text>
<polygon fill="#ffffb3" stroke="transparent" points="159.5,-10 159.5,-30 179.5,-30 179.5,-10 159.5,-10"/>
<text text-anchor="start" x="183.129" y="-15.4" font-family="sans-serif" font-size="14.00" fill="#000000"> &#160;Declarations</text>
<polygon fill="#8dd3c7" stroke="transparent" points="272.5,-10 272.5,-30 292.5,-30 292.5,-10 272.5,-10"/>
<text text-anchor="start" x="296.2251" y="-15.4" font-family="sans-serif" font-size="14.00" fill="#000000"> &#160;Module</text>
<polygon fill="#80b1d3" stroke="transparent" points="358.5,-10 358.5,-30 378.5,-30 378.5,-10 358.5,-10"/>
<text text-anchor="start" x="382.2812" y="-15.4" font-family="sans-serif" font-size="14.00" fill="#000000"> &#160;Bootstrap</text>
<polygon fill="#fdb462" stroke="transparent" points="455.5,-10 455.5,-30 475.5,-30 475.5,-10 455.5,-10"/>
<text text-anchor="start" x="479.1732" y="-15.4" font-family="sans-serif" font-size="14.00" fill="#000000"> &#160;Providers</text>
<polygon fill="#fb8072" stroke="transparent" points="551.5,-10 551.5,-30 571.5,-30 571.5,-10 551.5,-10"/>
<text text-anchor="start" x="575.2258" y="-15.4" font-family="sans-serif" font-size="14.00" fill="#000000"> &#160;Exports</text>
<g id="clust1" class="cluster">
<title>cluster_DesktopCommentModule</title>
<polygon fill="none" stroke="#000000" stroke-dasharray="1,5" points="8,-70 8,-268 779,-268 779,-70 8,-70"/>
</g>
<g id="clust2" class="cluster">
<title>cluster_DesktopCommentModule_declarations</title>
<polygon fill="none" stroke="#000000" points="271,-78 271,-130 771,-130 771,-78 271,-78"/>
</g>
<g id="clust5" class="cluster">
<title>cluster_DesktopCommentModule_imports</title>
<polygon fill="none" stroke="#000000" points="16,-78 16,-130 263,-130 263,-78 16,-78"/>
</g>
<g id="clust6" class="cluster">
<title>cluster_DesktopCommentModule_exports</title>
<polygon fill="none" stroke="#000000" points="100,-208 100,-260 470,-260 470,-208 100,-208"/>
</g>
<!-- DesktopInsertCommentComponent -->
<g id="node1" class="node">
<title>DesktopInsertCommentComponent</title>
<polygon fill="#ffffb3" stroke="#000000" points="762.5828,-122 547.4172,-122 547.4172,-86 762.5828,-86 762.5828,-122"/>
<text text-anchor="middle" x="655" y="-99.8" font-family="Times,serif" font-size="14.00" fill="#000000">DesktopInsertCommentComponent</text>
</g>
<!-- DesktopCommentModule -->
<g id="node3" class="node">
<title>DesktopCommentModule</title>
<polygon fill="#8dd3c7" stroke="#000000" points="381.9298,-187 378.9298,-191 357.9298,-191 354.9298,-187 220.0702,-187 220.0702,-151 381.9298,-151 381.9298,-187"/>
<text text-anchor="middle" x="301" y="-164.8" font-family="Times,serif" font-size="14.00" fill="#000000">DesktopCommentModule</text>
</g>
<!-- DesktopInsertCommentComponent&#45;&gt;DesktopCommentModule -->
<g id="edge1" class="edge">
<title>DesktopInsertCommentComponent&#45;&gt;DesktopCommentModule</title>
<path fill="none" stroke="#000000" d="M655,-122.1061C655,-141.3391 655,-169 655,-169 655,-169 391.771,-169 391.771,-169"/>
<polygon fill="#000000" stroke="#000000" points="391.7711,-165.5001 381.771,-169 391.771,-172.5001 391.7711,-165.5001"/>
</g>
<!-- DesktopInsertCommentPopupComponent -->
<g id="node2" class="node">
<title>DesktopInsertCommentPopupComponent</title>
<polygon fill="#ffffb3" stroke="#000000" points="529.3654,-122 278.6346,-122 278.6346,-86 529.3654,-86 529.3654,-122"/>
<text text-anchor="middle" x="404" y="-99.8" font-family="Times,serif" font-size="14.00" fill="#000000">DesktopInsertCommentPopupComponent</text>
</g>
<!-- DesktopInsertCommentPopupComponent&#45;&gt;DesktopCommentModule -->
<g id="edge2" class="edge">
<title>DesktopInsertCommentPopupComponent&#45;&gt;DesktopCommentModule</title>
<path fill="none" stroke="#000000" d="M330.141,-122.1061C330.141,-122.1061 330.141,-140.991 330.141,-140.991"/>
<polygon fill="#000000" stroke="#000000" points="326.641,-140.9909 330.141,-150.991 333.641,-140.991 326.641,-140.9909"/>
</g>
<!-- CommentModule  -->
<g id="node6" class="node">
<title>CommentModule </title>
<polygon fill="#fb8072" stroke="#000000" points="462.2731,-252 343.7269,-252 343.7269,-216 462.2731,-216 462.2731,-252"/>
<text text-anchor="middle" x="403" y="-229.8" font-family="Times,serif" font-size="14.00" fill="#000000">CommentModule </text>
</g>
<!-- DesktopCommentModule&#45;&gt;CommentModule  -->
<g id="edge5" class="edge">
<title>DesktopCommentModule&#45;&gt;CommentModule </title>
<path fill="none" stroke="#000000" stroke-dasharray="5,2" d="M362.7891,-187.1061C362.7891,-187.1061 362.7891,-205.991 362.7891,-205.991"/>
<polygon fill="#000000" stroke="#000000" points="359.2892,-205.9909 362.7891,-215.991 366.2892,-205.991 359.2892,-205.9909"/>
</g>
<!-- DesktopInsertCommentComponent  -->
<g id="node7" class="node">
<title>DesktopInsertCommentComponent </title>
<polygon fill="#fb8072" stroke="#000000" points="326.0832,-252 107.9168,-252 107.9168,-216 326.0832,-216 326.0832,-252"/>
<text text-anchor="middle" x="217" y="-229.8" font-family="Times,serif" font-size="14.00" fill="#000000">DesktopInsertCommentComponent </text>
</g>
<!-- DesktopCommentModule&#45;&gt;DesktopInsertCommentComponent  -->
<g id="edge6" class="edge">
<title>DesktopCommentModule&#45;&gt;DesktopInsertCommentComponent </title>
<path fill="none" stroke="#000000" stroke-dasharray="5,2" d="M273.2884,-187.1061C273.2884,-187.1061 273.2884,-205.991 273.2884,-205.991"/>
<polygon fill="#000000" stroke="#000000" points="269.7885,-205.9909 273.2884,-215.991 276.7885,-205.991 269.7885,-205.9909"/>
</g>
<!-- CommentModule -->
<g id="node4" class="node">
<title>CommentModule</title>
<polygon fill="#8dd3c7" stroke="#000000" points="255.273,-122 252.273,-126 231.273,-126 228.273,-122 140.727,-122 140.727,-86 255.273,-86 255.273,-122"/>
<text text-anchor="middle" x="198" y="-99.8" font-family="Times,serif" font-size="14.00" fill="#000000">CommentModule</text>
</g>
<!-- CommentModule&#45;&gt;DesktopCommentModule -->
<g id="edge3" class="edge">
<title>CommentModule&#45;&gt;DesktopCommentModule</title>
<path fill="none" stroke="#000000" d="M237.8359,-122.1061C237.8359,-122.1061 237.8359,-140.991 237.8359,-140.991"/>
<polygon fill="#000000" stroke="#000000" points="234.336,-140.9909 237.8359,-150.991 241.336,-140.991 234.336,-140.9909"/>
</g>
<!-- SharedModule -->
<g id="node5" class="node">
<title>SharedModule</title>
<polygon fill="#8dd3c7" stroke="#000000" points="122.4231,-122 119.4231,-126 98.4231,-126 95.4231,-122 23.5769,-122 23.5769,-86 122.4231,-86 122.4231,-122"/>
<text text-anchor="middle" x="73" y="-99.8" font-family="Times,serif" font-size="14.00" fill="#000000">SharedModule</text>
</g>
<!-- SharedModule&#45;&gt;DesktopCommentModule -->
<g id="edge4" class="edge">
<title>SharedModule&#45;&gt;DesktopCommentModule</title>
<path fill="none" stroke="#000000" d="M114.9599,-122.1061C114.9599,-141.3391 114.9599,-169 114.9599,-169 114.9599,-169 210.2117,-169 210.2117,-169"/>
<polygon fill="#000000" stroke="#000000" points="210.2118,-172.5001 220.2117,-169 210.2117,-165.5001 210.2118,-172.5001"/>
</g>
</g>
</svg>
