<?xml version="1.0" encoding="UTF-8" standalone="no"?>
<!DOCTYPE svg PUBLIC "-//W3C//DTD SVG 1.1//EN"
 "http://www.w3.org/Graphics/SVG/1.1/DTD/svg11.dtd">
<!-- Generated by graphviz version 2.40.1 (20161225.0304)
 -->
<!-- Title: dependencies Pages: 1 -->
<svg width="1212pt" height="284pt"
 viewBox="0.00 0.00 1212.00 284.00" xmlns="http://www.w3.org/2000/svg" xmlns:xlink="http://www.w3.org/1999/xlink">
<g id="graph0" class="graph" transform="scale(1 1) rotate(0) translate(4 280)">
<title>dependencies</title>
<polygon fill="#ffffff" stroke="transparent" points="-4,4 -4,-280 1208,-280 1208,4 -4,4"/>
<text text-anchor="start" x="581.0091" y="-42.4" font-family="sans-serif" font-weight="bold" font-size="14.00" fill="#000000">Legend</text>
<polygon fill="#ffffb3" stroke="transparent" points="368,-10 368,-30 388,-30 388,-10 368,-10"/>
<text text-anchor="start" x="391.629" y="-15.4" font-family="sans-serif" font-size="14.00" fill="#000000"> &#160;Declarations</text>
<polygon fill="#8dd3c7" stroke="transparent" points="481,-10 481,-30 501,-30 501,-10 481,-10"/>
<text text-anchor="start" x="504.7251" y="-15.4" font-family="sans-serif" font-size="14.00" fill="#000000"> &#160;Module</text>
<polygon fill="#80b1d3" stroke="transparent" points="567,-10 567,-30 587,-30 587,-10 567,-10"/>
<text text-anchor="start" x="590.7812" y="-15.4" font-family="sans-serif" font-size="14.00" fill="#000000"> &#160;Bootstrap</text>
<polygon fill="#fdb462" stroke="transparent" points="664,-10 664,-30 684,-30 684,-10 664,-10"/>
<text text-anchor="start" x="687.6732" y="-15.4" font-family="sans-serif" font-size="14.00" fill="#000000"> &#160;Providers</text>
<polygon fill="#fb8072" stroke="transparent" points="760,-10 760,-30 780,-30 780,-10 760,-10"/>
<text text-anchor="start" x="783.7258" y="-15.4" font-family="sans-serif" font-size="14.00" fill="#000000"> &#160;Exports</text>
<g id="clust1" class="cluster">
<title>cluster_CommentModule</title>
<polygon fill="none" stroke="#000000" stroke-dasharray="1,5" points="8,-70 8,-268 1196,-268 1196,-70 8,-70"/>
</g>
<g id="clust2" class="cluster">
<title>cluster_CommentModule_declarations</title>
<polygon fill="none" stroke="#000000" points="138,-78 138,-130 1188,-130 1188,-78 138,-78"/>
</g>
<g id="clust8" class="cluster">
<title>cluster_CommentModule_imports</title>
<polygon fill="none" stroke="#000000" points="16,-78 16,-130 130,-130 130,-78 16,-78"/>
</g>
<g id="clust9" class="cluster">
<title>cluster_CommentModule_exports</title>
<polygon fill="none" stroke="#000000" points="116,-208 116,-260 1088,-260 1088,-208 116,-208"/>
</g>
<!-- BaseInsertCommentComponent -->
<g id="node1" class="node">
<title>BaseInsertCommentComponent</title>
<polygon fill="#ffffb3" stroke="#000000" points="1179.6371,-122 984.3629,-122 984.3629,-86 1179.6371,-86 1179.6371,-122"/>
<text text-anchor="middle" x="1082" y="-99.8" font-family="Times,serif" font-size="14.00" fill="#000000">BaseInsertCommentComponent</text>
</g>
<!-- CommentModule -->
<g id="node6" class="node">
<title>CommentModule</title>
<polygon fill="#8dd3c7" stroke="#000000" points="646.273,-187 643.273,-191 622.273,-191 619.273,-187 531.727,-187 531.727,-151 646.273,-151 646.273,-187"/>
<text text-anchor="middle" x="589" y="-164.8" font-family="Times,serif" font-size="14.00" fill="#000000">CommentModule</text>
</g>
<!-- BaseInsertCommentComponent&#45;&gt;CommentModule -->
<g id="edge1" class="edge">
<title>BaseInsertCommentComponent&#45;&gt;CommentModule</title>
<path fill="none" stroke="#000000" d="M1031.9076,-122.2667C1031.9076,-140.5552 1031.9076,-166 1031.9076,-166 1031.9076,-166 656.4484,-166 656.4484,-166"/>
<polygon fill="#000000" stroke="#000000" points="656.4484,-162.5001 646.4484,-166 656.4483,-169.5001 656.4484,-162.5001"/>
</g>
<!-- CommentCardComponent -->
<g id="node2" class="node">
<title>CommentCardComponent</title>
<polygon fill="#ffffb3" stroke="#000000" points="965.7674,-122 802.2326,-122 802.2326,-86 965.7674,-86 965.7674,-122"/>
<text text-anchor="middle" x="884" y="-99.8" font-family="Times,serif" font-size="14.00" fill="#000000">CommentCardComponent</text>
</g>
<!-- CommentCardComponent&#45;&gt;CommentModule -->
<g id="edge2" class="edge">
<title>CommentCardComponent&#45;&gt;CommentModule</title>
<path fill="none" stroke="#000000" d="M848.0167,-122.0091C848.0167,-138.0494 848.0167,-159 848.0167,-159 848.0167,-159 656.4842,-159 656.4842,-159"/>
<polygon fill="#000000" stroke="#000000" points="656.4842,-155.5001 646.4842,-159 656.4842,-162.5001 656.4842,-155.5001"/>
</g>
<!-- CommentListComponent -->
<g id="node3" class="node">
<title>CommentListComponent</title>
<polygon fill="#ffffb3" stroke="#000000" points="784.3342,-122 625.6658,-122 625.6658,-86 784.3342,-86 784.3342,-122"/>
<text text-anchor="middle" x="705" y="-99.8" font-family="Times,serif" font-size="14.00" fill="#000000">CommentListComponent</text>
</g>
<!-- CommentListComponent&#45;&gt;CommentModule -->
<g id="edge3" class="edge">
<title>CommentListComponent&#45;&gt;CommentModule</title>
<path fill="none" stroke="#000000" d="M636.1098,-122.1061C636.1098,-122.1061 636.1098,-140.991 636.1098,-140.991"/>
<polygon fill="#000000" stroke="#000000" points="632.6098,-140.9909 636.1098,-150.991 639.6098,-140.991 632.6098,-140.9909"/>
</g>
<!-- EditCommentConfirmPopUpComponent -->
<g id="node4" class="node">
<title>EditCommentConfirmPopUpComponent</title>
<polygon fill="#ffffb3" stroke="#000000" points="608.2175,-122 361.7825,-122 361.7825,-86 608.2175,-86 608.2175,-122"/>
<text text-anchor="middle" x="485" y="-99.8" font-family="Times,serif" font-size="14.00" fill="#000000">EditCommentConfirmPopUpComponent</text>
</g>
<!-- EditCommentConfirmPopUpComponent&#45;&gt;CommentModule -->
<g id="edge4" class="edge">
<title>EditCommentConfirmPopUpComponent&#45;&gt;CommentModule</title>
<path fill="none" stroke="#000000" d="M569.8611,-122.1061C569.8611,-122.1061 569.8611,-140.991 569.8611,-140.991"/>
<polygon fill="#000000" stroke="#000000" points="566.3612,-140.9909 569.8611,-150.991 573.3612,-140.991 566.3612,-140.9909"/>
</g>
<!-- InsertCommentFormComponent -->
<g id="node5" class="node">
<title>InsertCommentFormComponent</title>
<polygon fill="#ffffb3" stroke="#000000" points="344.2603,-122 145.7397,-122 145.7397,-86 344.2603,-86 344.2603,-122"/>
<text text-anchor="middle" x="245" y="-99.8" font-family="Times,serif" font-size="14.00" fill="#000000">InsertCommentFormComponent</text>
</g>
<!-- InsertCommentFormComponent&#45;&gt;CommentModule -->
<g id="edge5" class="edge">
<title>InsertCommentFormComponent&#45;&gt;CommentModule</title>
<path fill="none" stroke="#000000" d="M294.125,-122.0091C294.125,-138.0494 294.125,-159 294.125,-159 294.125,-159 521.4451,-159 521.4451,-159"/>
<polygon fill="#000000" stroke="#000000" points="521.4452,-162.5001 531.4451,-159 521.4451,-155.5001 521.4452,-162.5001"/>
</g>
<!-- CommentCardComponent  -->
<g id="node8" class="node">
<title>CommentCardComponent </title>
<polygon fill="#fb8072" stroke="#000000" points="1079.7674,-252 912.2326,-252 912.2326,-216 1079.7674,-216 1079.7674,-252"/>
<text text-anchor="middle" x="996" y="-229.8" font-family="Times,serif" font-size="14.00" fill="#000000">CommentCardComponent </text>
</g>
<!-- CommentModule&#45;&gt;CommentCardComponent  -->
<g id="edge7" class="edge">
<title>CommentModule&#45;&gt;CommentCardComponent </title>
<path fill="none" stroke="#000000" stroke-dasharray="5,2" d="M646.424,-173C745.7535,-173 939.125,-173 939.125,-173 939.125,-173 939.125,-205.698 939.125,-205.698"/>
<polygon fill="#000000" stroke="#000000" points="935.6251,-205.698 939.125,-215.698 942.6251,-205.698 935.6251,-205.698"/>
</g>
<!-- CommentListComponent  -->
<g id="node9" class="node">
<title>CommentListComponent </title>
<polygon fill="#fb8072" stroke="#000000" points="893.8339,-252 732.1661,-252 732.1661,-216 893.8339,-216 893.8339,-252"/>
<text text-anchor="middle" x="813" y="-229.8" font-family="Times,serif" font-size="14.00" fill="#000000">CommentListComponent </text>
</g>
<!-- CommentModule&#45;&gt;CommentListComponent  -->
<g id="edge8" class="edge">
<title>CommentModule&#45;&gt;CommentListComponent </title>
<path fill="none" stroke="#000000" stroke-dasharray="5,2" d="M646.7302,-180C695.7244,-180 758.125,-180 758.125,-180 758.125,-180 758.125,-205.7181 758.125,-205.7181"/>
<polygon fill="#000000" stroke="#000000" points="754.6251,-205.718 758.125,-215.7181 761.6251,-205.7181 754.6251,-205.718"/>
</g>
<!-- EditCommentConfirmPopUpComponent  -->
<g id="node10" class="node">
<title>EditCommentConfirmPopUpComponent </title>
<polygon fill="#fb8072" stroke="#000000" points="713.7176,-252 464.2824,-252 464.2824,-216 713.7176,-216 713.7176,-252"/>
<text text-anchor="middle" x="589" y="-229.8" font-family="Times,serif" font-size="14.00" fill="#000000">EditCommentConfirmPopUpComponent </text>
</g>
<!-- CommentModule&#45;&gt;EditCommentConfirmPopUpComponent  -->
<g id="edge9" class="edge">
<title>CommentModule&#45;&gt;EditCommentConfirmPopUpComponent </title>
<path fill="none" stroke="#000000" stroke-dasharray="5,2" d="M589,-187.1061C589,-187.1061 589,-205.991 589,-205.991"/>
<polygon fill="#000000" stroke="#000000" points="585.5001,-205.9909 589,-215.991 592.5001,-205.991 585.5001,-205.9909"/>
</g>
<!-- InsertCommentFormComponent  -->
<g id="node11" class="node">
<title>InsertCommentFormComponent </title>
<polygon fill="#fb8072" stroke="#000000" points="446.2604,-252 243.7396,-252 243.7396,-216 446.2604,-216 446.2604,-252"/>
<text text-anchor="middle" x="345" y="-229.8" font-family="Times,serif" font-size="14.00" fill="#000000">InsertCommentFormComponent </text>
</g>
<!-- CommentModule&#45;&gt;InsertCommentFormComponent  -->
<g id="edge10" class="edge">
<title>CommentModule&#45;&gt;InsertCommentFormComponent </title>
<path fill="none" stroke="#000000" stroke-dasharray="5,2" d="M531.4823,-180C477.1782,-180 404.0107,-180 404.0107,-180 404.0107,-180 404.0107,-205.7181 404.0107,-205.7181"/>
<polygon fill="#000000" stroke="#000000" points="400.5108,-205.718 404.0107,-215.7181 407.5108,-205.7181 400.5108,-205.718"/>
</g>
<!-- SharedModule  -->
<g id="node12" class="node">
<title>SharedModule </title>
<polygon fill="#fb8072" stroke="#000000" points="225.9222,-252 124.0778,-252 124.0778,-216 225.9222,-216 225.9222,-252"/>
<text text-anchor="middle" x="175" y="-229.8" font-family="Times,serif" font-size="14.00" fill="#000000">SharedModule </text>
</g>
<!-- CommentModule&#45;&gt;SharedModule  -->
<g id="edge11" class="edge">
<title>CommentModule&#45;&gt;SharedModule </title>
<path fill="none" stroke="#000000" stroke-dasharray="5,2" d="M531.6581,-173C420.3391,-173 185.7905,-173 185.7905,-173 185.7905,-173 185.7905,-205.698 185.7905,-205.698"/>
<polygon fill="#000000" stroke="#000000" points="182.2906,-205.698 185.7905,-215.698 189.2906,-205.698 182.2906,-205.698"/>
</g>
<!-- SharedModule -->
<g id="node7" class="node">
<title>SharedModule</title>
<polygon fill="#8dd3c7" stroke="#000000" points="122.4231,-122 119.4231,-126 98.4231,-126 95.4231,-122 23.5769,-122 23.5769,-86 122.4231,-86 122.4231,-122"/>
<text text-anchor="middle" x="73" y="-99.8" font-family="Times,serif" font-size="14.00" fill="#000000">SharedModule</text>
</g>
<!-- SharedModule&#45;&gt;CommentModule -->
<g id="edge6" class="edge">
<title>SharedModule&#45;&gt;CommentModule</title>
<path fill="none" stroke="#000000" d="M73,-122.2667C73,-140.5552 73,-166 73,-166 73,-166 521.3102,-166 521.3102,-166"/>
<polygon fill="#000000" stroke="#000000" points="521.3103,-169.5001 531.3102,-166 521.3102,-162.5001 521.3103,-169.5001"/>
</g>
</g>
</svg>
