<?xml version="1.0" encoding="UTF-8" standalone="no"?>
<!DOCTYPE svg PUBLIC "-//W3C//DTD SVG 1.1//EN"
 "http://www.w3.org/Graphics/SVG/1.1/DTD/svg11.dtd">
<!-- Generated by graphviz version 2.40.1 (20161225.0304)
 -->
<!-- Title: dependencies Pages: 1 -->
<svg width="1213pt" height="284pt"
 viewBox="0.00 0.00 1213.00 284.00" xmlns="http://www.w3.org/2000/svg" xmlns:xlink="http://www.w3.org/1999/xlink">
<g id="graph0" class="graph" transform="scale(1 1) rotate(0) translate(4 280)">
<title>dependencies</title>
<polygon fill="#ffffff" stroke="transparent" points="-4,4 -4,-280 1209,-280 1209,4 -4,4"/>
<text text-anchor="start" x="581.5091" y="-42.4" font-family="sans-serif" font-weight="bold" font-size="14.00" fill="#000000">Legend</text>
<polygon fill="#ffffb3" stroke="transparent" points="368.5,-10 368.5,-30 388.5,-30 388.5,-10 368.5,-10"/>
<text text-anchor="start" x="392.129" y="-15.4" font-family="sans-serif" font-size="14.00" fill="#000000"> &#160;Declarations</text>
<polygon fill="#8dd3c7" stroke="transparent" points="481.5,-10 481.5,-30 501.5,-30 501.5,-10 481.5,-10"/>
<text text-anchor="start" x="505.2251" y="-15.4" font-family="sans-serif" font-size="14.00" fill="#000000"> &#160;Module</text>
<polygon fill="#80b1d3" stroke="transparent" points="567.5,-10 567.5,-30 587.5,-30 587.5,-10 567.5,-10"/>
<text text-anchor="start" x="591.2812" y="-15.4" font-family="sans-serif" font-size="14.00" fill="#000000"> &#160;Bootstrap</text>
<polygon fill="#fdb462" stroke="transparent" points="664.5,-10 664.5,-30 684.5,-30 684.5,-10 664.5,-10"/>
<text text-anchor="start" x="688.1732" y="-15.4" font-family="sans-serif" font-size="14.00" fill="#000000"> &#160;Providers</text>
<polygon fill="#fb8072" stroke="transparent" points="760.5,-10 760.5,-30 780.5,-30 780.5,-10 760.5,-10"/>
<text text-anchor="start" x="784.2258" y="-15.4" font-family="sans-serif" font-size="14.00" fill="#000000"> &#160;Exports</text>
<g id="clust1" class="cluster">
<title>cluster_HomeModule</title>
<polygon fill="none" stroke="#000000" stroke-dasharray="1,5" points="8,-70 8,-268 1197,-268 1197,-70 8,-70"/>
</g>
<g id="clust2" class="cluster">
<title>cluster_HomeModule_declarations</title>
<polygon fill="none" stroke="#000000" points="138,-78 138,-130 1189,-130 1189,-78 138,-78"/>
</g>
<g id="clust8" class="cluster">
<title>cluster_HomeModule_imports</title>
<polygon fill="none" stroke="#000000" points="16,-78 16,-130 130,-130 130,-78 16,-78"/>
</g>
<g id="clust9" class="cluster">
<title>cluster_HomeModule_exports</title>
<polygon fill="none" stroke="#000000" points="217,-208 217,-260 953,-260 953,-208 217,-208"/>
</g>
<!-- BaseGeneralHomePageComponent -->
<g id="node1" class="node">
<title>BaseGeneralHomePageComponent</title>
<polygon fill="#ffffb3" stroke="#000000" points="1181.2682,-122 966.7318,-122 966.7318,-86 1181.2682,-86 1181.2682,-122"/>
<text text-anchor="middle" x="1074" y="-99.8" font-family="Times,serif" font-size="14.00" fill="#000000">BaseGeneralHomePageComponent</text>
</g>
<!-- HomeModule -->
<g id="node6" class="node">
<title>HomeModule</title>
<polygon fill="#8dd3c7" stroke="#000000" points="602.7619,-187 599.7619,-191 578.7619,-191 575.7619,-187 509.2381,-187 509.2381,-151 602.7619,-151 602.7619,-187"/>
<text text-anchor="middle" x="556" y="-164.8" font-family="Times,serif" font-size="14.00" fill="#000000">HomeModule</text>
</g>
<!-- BaseGeneralHomePageComponent&#45;&gt;HomeModule -->
<g id="edge1" class="edge">
<title>BaseGeneralHomePageComponent&#45;&gt;HomeModule</title>
<path fill="none" stroke="#000000" d="M1074,-122.1061C1074,-141.3391 1074,-169 1074,-169 1074,-169 612.8826,-169 612.8826,-169"/>
<polygon fill="#000000" stroke="#000000" points="612.8827,-165.5001 602.8826,-169 612.8826,-172.5001 612.8827,-165.5001"/>
</g>
<!-- BaseUserHomePageComponent -->
<g id="node2" class="node">
<title>BaseUserHomePageComponent</title>
<polygon fill="#ffffb3" stroke="#000000" points="949.3932,-122 752.6068,-122 752.6068,-86 949.3932,-86 949.3932,-122"/>
<text text-anchor="middle" x="851" y="-99.8" font-family="Times,serif" font-size="14.00" fill="#000000">BaseUserHomePageComponent</text>
</g>
<!-- BaseUserHomePageComponent&#45;&gt;HomeModule -->
<g id="edge2" class="edge">
<title>BaseUserHomePageComponent&#45;&gt;HomeModule</title>
<path fill="none" stroke="#000000" d="M766.0796,-122.027C766.0796,-138.3976 766.0796,-160 766.0796,-160 766.0796,-160 612.8845,-160 612.8845,-160"/>
<polygon fill="#000000" stroke="#000000" points="612.8845,-156.5001 602.8845,-160 612.8844,-163.5001 612.8845,-156.5001"/>
</g>
<!-- HomePageInfoComponent -->
<g id="node3" class="node">
<title>HomePageInfoComponent</title>
<polygon fill="#ffffb3" stroke="#000000" points="735.0772,-122 568.9228,-122 568.9228,-86 735.0772,-86 735.0772,-122"/>
<text text-anchor="middle" x="652" y="-99.8" font-family="Times,serif" font-size="14.00" fill="#000000">HomePageInfoComponent</text>
</g>
<!-- HomePageInfoComponent&#45;&gt;HomeModule -->
<g id="edge3" class="edge">
<title>HomePageInfoComponent&#45;&gt;HomeModule</title>
<path fill="none" stroke="#000000" d="M585.9211,-122.1061C585.9211,-122.1061 585.9211,-140.991 585.9211,-140.991"/>
<polygon fill="#000000" stroke="#000000" points="582.4212,-140.9909 585.9211,-150.991 589.4212,-140.991 582.4212,-140.9909"/>
</g>
<!-- ProductOfferCardComponent -->
<g id="node4" class="node">
<title>ProductOfferCardComponent</title>
<polygon fill="#ffffb3" stroke="#000000" points="551.396,-122 368.604,-122 368.604,-86 551.396,-86 551.396,-122"/>
<text text-anchor="middle" x="460" y="-99.8" font-family="Times,serif" font-size="14.00" fill="#000000">ProductOfferCardComponent</text>
</g>
<!-- ProductOfferCardComponent&#45;&gt;HomeModule -->
<g id="edge4" class="edge">
<title>ProductOfferCardComponent&#45;&gt;HomeModule</title>
<path fill="none" stroke="#000000" d="M530.1585,-122.1061C530.1585,-122.1061 530.1585,-140.991 530.1585,-140.991"/>
<polygon fill="#000000" stroke="#000000" points="526.6586,-140.9909 530.1585,-150.991 533.6586,-140.991 526.6586,-140.9909"/>
</g>
<!-- ProductOfferCarouselComponent -->
<g id="node5" class="node">
<title>ProductOfferCarouselComponent</title>
<polygon fill="#ffffb3" stroke="#000000" points="350.4454,-122 145.5546,-122 145.5546,-86 350.4454,-86 350.4454,-122"/>
<text text-anchor="middle" x="248" y="-99.8" font-family="Times,serif" font-size="14.00" fill="#000000">ProductOfferCarouselComponent</text>
</g>
<!-- ProductOfferCarouselComponent&#45;&gt;HomeModule -->
<g id="edge5" class="edge">
<title>ProductOfferCarouselComponent&#45;&gt;HomeModule</title>
<path fill="none" stroke="#000000" d="M335.8692,-122.027C335.8692,-138.3976 335.8692,-160 335.8692,-160 335.8692,-160 499.0464,-160 499.0464,-160"/>
<polygon fill="#000000" stroke="#000000" points="499.0465,-163.5001 509.0464,-160 499.0464,-156.5001 499.0465,-163.5001"/>
</g>
<!-- HomePageInfoComponent  -->
<g id="node8" class="node">
<title>HomePageInfoComponent </title>
<polygon fill="#fb8072" stroke="#000000" points="944.5777,-252 775.4223,-252 775.4223,-216 944.5777,-216 944.5777,-252"/>
<text text-anchor="middle" x="860" y="-229.8" font-family="Times,serif" font-size="14.00" fill="#000000">HomePageInfoComponent </text>
</g>
<!-- HomeModule&#45;&gt;HomePageInfoComponent  -->
<g id="edge7" class="edge">
<title>HomeModule&#45;&gt;HomePageInfoComponent </title>
<path fill="none" stroke="#000000" stroke-dasharray="5,2" d="M602.8338,-178C688.1082,-178 860,-178 860,-178 860,-178 860,-205.973 860,-205.973"/>
<polygon fill="#000000" stroke="#000000" points="856.5001,-205.973 860,-215.973 863.5001,-205.973 856.5001,-205.973"/>
</g>
<!-- ProductOfferCardComponent  -->
<g id="node9" class="node">
<title>ProductOfferCardComponent </title>
<polygon fill="#fb8072" stroke="#000000" points="756.8956,-252 571.1044,-252 571.1044,-216 756.8956,-216 756.8956,-252"/>
<text text-anchor="middle" x="664" y="-229.8" font-family="Times,serif" font-size="14.00" fill="#000000">ProductOfferCardComponent </text>
</g>
<!-- HomeModule&#45;&gt;ProductOfferCardComponent  -->
<g id="edge8" class="edge">
<title>HomeModule&#45;&gt;ProductOfferCardComponent </title>
<path fill="none" stroke="#000000" stroke-dasharray="5,2" d="M586.9665,-187.1061C586.9665,-187.1061 586.9665,-205.991 586.9665,-205.991"/>
<polygon fill="#000000" stroke="#000000" points="583.4666,-205.9909 586.9665,-215.991 590.4666,-205.991 583.4666,-205.9909"/>
</g>
<!-- ProductOfferCarouselComponent  -->
<g id="node10" class="node">
<title>ProductOfferCarouselComponent </title>
<polygon fill="#fb8072" stroke="#000000" points="553.4459,-252 344.5541,-252 344.5541,-216 553.4459,-216 553.4459,-252"/>
<text text-anchor="middle" x="449" y="-229.8" font-family="Times,serif" font-size="14.00" fill="#000000">ProductOfferCarouselComponent </text>
</g>
<!-- HomeModule&#45;&gt;ProductOfferCarouselComponent  -->
<g id="edge9" class="edge">
<title>HomeModule&#45;&gt;ProductOfferCarouselComponent </title>
<path fill="none" stroke="#000000" stroke-dasharray="5,2" d="M531.1709,-187.1061C531.1709,-187.1061 531.1709,-205.991 531.1709,-205.991"/>
<polygon fill="#000000" stroke="#000000" points="527.671,-205.9909 531.1709,-215.991 534.671,-205.991 527.671,-205.9909"/>
</g>
<!-- SharedModule  -->
<g id="node11" class="node">
<title>SharedModule </title>
<polygon fill="#fb8072" stroke="#000000" points="326.9222,-252 225.0778,-252 225.0778,-216 326.9222,-216 326.9222,-252"/>
<text text-anchor="middle" x="276" y="-229.8" font-family="Times,serif" font-size="14.00" fill="#000000">SharedModule </text>
</g>
<!-- HomeModule&#45;&gt;SharedModule  -->
<g id="edge10" class="edge">
<title>HomeModule&#45;&gt;SharedModule </title>
<path fill="none" stroke="#000000" stroke-dasharray="5,2" d="M509.1343,-178C429.4251,-178 276,-178 276,-178 276,-178 276,-205.973 276,-205.973"/>
<polygon fill="#000000" stroke="#000000" points="272.5001,-205.973 276,-215.973 279.5001,-205.973 272.5001,-205.973"/>
</g>
<!-- SharedModule -->
<g id="node7" class="node">
<title>SharedModule</title>
<polygon fill="#8dd3c7" stroke="#000000" points="122.4231,-122 119.4231,-126 98.4231,-126 95.4231,-122 23.5769,-122 23.5769,-86 122.4231,-86 122.4231,-122"/>
<text text-anchor="middle" x="73" y="-99.8" font-family="Times,serif" font-size="14.00" fill="#000000">SharedModule</text>
</g>
<!-- SharedModule&#45;&gt;HomeModule -->
<g id="edge6" class="edge">
<title>SharedModule&#45;&gt;HomeModule</title>
<path fill="none" stroke="#000000" d="M73,-122.1061C73,-141.3391 73,-169 73,-169 73,-169 498.8085,-169 498.8085,-169"/>
<polygon fill="#000000" stroke="#000000" points="498.8085,-172.5001 508.8085,-169 498.8085,-165.5001 498.8085,-172.5001"/>
</g>
</g>
</svg>
