<?xml version="1.0" encoding="UTF-8" standalone="no"?>
<!DOCTYPE svg PUBLIC "-//W3C//DTD SVG 1.1//EN"
 "http://www.w3.org/Graphics/SVG/1.1/DTD/svg11.dtd">
<!-- Generated by graphviz version 2.40.1 (20161225.0304)
 -->
<!-- Title: dependencies Pages: 1 -->
<svg width="1731pt" height="211pt"
 viewBox="0.00 0.00 1731.00 211.00" xmlns="http://www.w3.org/2000/svg" xmlns:xlink="http://www.w3.org/1999/xlink">
<g id="graph0" class="graph" transform="scale(1 1) rotate(0) translate(4 207)">
<title>dependencies</title>
<polygon fill="#ffffff" stroke="transparent" points="-4,4 -4,-207 1727,-207 1727,4 -4,4"/>
<text text-anchor="start" x="840.5091" y="-42.4" font-family="sans-serif" font-weight="bold" font-size="14.00" fill="#000000">Legend</text>
<polygon fill="#ffffb3" stroke="transparent" points="627.5,-10 627.5,-30 647.5,-30 647.5,-10 627.5,-10"/>
<text text-anchor="start" x="651.129" y="-15.4" font-family="sans-serif" font-size="14.00" fill="#000000"> &#160;Declarations</text>
<polygon fill="#8dd3c7" stroke="transparent" points="740.5,-10 740.5,-30 760.5,-30 760.5,-10 740.5,-10"/>
<text text-anchor="start" x="764.2251" y="-15.4" font-family="sans-serif" font-size="14.00" fill="#000000"> &#160;Module</text>
<polygon fill="#80b1d3" stroke="transparent" points="826.5,-10 826.5,-30 846.5,-30 846.5,-10 826.5,-10"/>
<text text-anchor="start" x="850.2812" y="-15.4" font-family="sans-serif" font-size="14.00" fill="#000000"> &#160;Bootstrap</text>
<polygon fill="#fdb462" stroke="transparent" points="923.5,-10 923.5,-30 943.5,-30 943.5,-10 923.5,-10"/>
<text text-anchor="start" x="947.1732" y="-15.4" font-family="sans-serif" font-size="14.00" fill="#000000"> &#160;Providers</text>
<polygon fill="#fb8072" stroke="transparent" points="1019.5,-10 1019.5,-30 1039.5,-30 1039.5,-10 1019.5,-10"/>
<text text-anchor="start" x="1043.2258" y="-15.4" font-family="sans-serif" font-size="14.00" fill="#000000"> &#160;Exports</text>
<g id="clust1" class="cluster">
<title>cluster_DesktopProfileModule</title>
<polygon fill="none" stroke="#000000" stroke-dasharray="1,5" points="8,-70 8,-195 1715,-195 1715,-70 8,-70"/>
</g>
<g id="clust2" class="cluster">
<title>cluster_DesktopProfileModule_declarations</title>
<polygon fill="none" stroke="#000000" points="527,-78 527,-130 1707,-130 1707,-78 527,-78"/>
</g>
<g id="clust8" class="cluster">
<title>cluster_DesktopProfileModule_imports</title>
<polygon fill="none" stroke="#000000" points="16,-78 16,-130 519,-130 519,-78 16,-78"/>
</g>
<!-- DesktopAddAddressPageComponent -->
<g id="node1" class="node">
<title>DesktopAddAddressPageComponent</title>
<polygon fill="#ffffb3" stroke="#000000" points="1698.6783,-122 1473.3217,-122 1473.3217,-86 1698.6783,-86 1698.6783,-122"/>
<text text-anchor="middle" x="1586" y="-99.8" font-family="Times,serif" font-size="14.00" fill="#000000">DesktopAddAddressPageComponent</text>
</g>
<!-- DesktopProfileModule -->
<g id="node6" class="node">
<title>DesktopProfileModule</title>
<polygon fill="#8dd3c7" stroke="#000000" points="708.3061,-187 705.3061,-191 684.3061,-191 681.3061,-187 563.6939,-187 563.6939,-151 708.3061,-151 708.3061,-187"/>
<text text-anchor="middle" x="636" y="-164.8" font-family="Times,serif" font-size="14.00" fill="#000000">DesktopProfileModule</text>
</g>
<!-- DesktopAddAddressPageComponent&#45;&gt;DesktopProfileModule -->
<g id="edge1" class="edge">
<title>DesktopAddAddressPageComponent&#45;&gt;DesktopProfileModule</title>
<path fill="none" stroke="#000000" d="M1586,-122.0109C1586,-144.4852 1586,-180 1586,-180 1586,-180 718.1841,-180 718.1841,-180"/>
<polygon fill="#000000" stroke="#000000" points="718.1842,-176.5001 708.1841,-180 718.1841,-183.5001 718.1842,-176.5001"/>
</g>
<!-- DesktopProfileAddressListComponent -->
<g id="node2" class="node">
<title>DesktopProfileAddressListComponent</title>
<polygon fill="#ffffb3" stroke="#000000" points="1455.7379,-122 1222.2621,-122 1222.2621,-86 1455.7379,-86 1455.7379,-122"/>
<text text-anchor="middle" x="1339" y="-99.8" font-family="Times,serif" font-size="14.00" fill="#000000">DesktopProfileAddressListComponent</text>
</g>
<!-- DesktopProfileAddressListComponent&#45;&gt;DesktopProfileModule -->
<g id="edge2" class="edge">
<title>DesktopProfileAddressListComponent&#45;&gt;DesktopProfileModule</title>
<path fill="none" stroke="#000000" d="M1339,-122.1289C1339,-142.5724 1339,-173 1339,-173 1339,-173 718.2573,-173 718.2573,-173"/>
<polygon fill="#000000" stroke="#000000" points="718.2573,-169.5001 708.2573,-173 718.2572,-176.5001 718.2573,-169.5001"/>
</g>
<!-- DesktopProfilePageComponent -->
<g id="node3" class="node">
<title>DesktopProfilePageComponent</title>
<polygon fill="#ffffb3" stroke="#000000" points="1203.8004,-122 1010.1996,-122 1010.1996,-86 1203.8004,-86 1203.8004,-122"/>
<text text-anchor="middle" x="1107" y="-99.8" font-family="Times,serif" font-size="14.00" fill="#000000">DesktopProfilePageComponent</text>
</g>
<!-- DesktopProfilePageComponent&#45;&gt;DesktopProfileModule -->
<g id="edge3" class="edge">
<title>DesktopProfilePageComponent&#45;&gt;DesktopProfileModule</title>
<path fill="none" stroke="#000000" d="M1107,-122.2667C1107,-140.5552 1107,-166 1107,-166 1107,-166 718.3043,-166 718.3043,-166"/>
<polygon fill="#000000" stroke="#000000" points="718.3044,-162.5001 708.3043,-166 718.3043,-169.5001 718.3044,-162.5001"/>
</g>
<!-- DesktopProfilePersonalInfoComponent -->
<g id="node4" class="node">
<title>DesktopProfilePersonalInfoComponent</title>
<polygon fill="#ffffb3" stroke="#000000" points="992.6175,-122 755.3825,-122 755.3825,-86 992.6175,-86 992.6175,-122"/>
<text text-anchor="middle" x="874" y="-99.8" font-family="Times,serif" font-size="14.00" fill="#000000">DesktopProfilePersonalInfoComponent</text>
</g>
<!-- DesktopProfilePersonalInfoComponent&#45;&gt;DesktopProfileModule -->
<g id="edge4" class="edge">
<title>DesktopProfilePersonalInfoComponent&#45;&gt;DesktopProfileModule</title>
<path fill="none" stroke="#000000" d="M874,-122.0091C874,-138.0494 874,-159 874,-159 874,-159 718.3772,-159 718.3772,-159"/>
<polygon fill="#000000" stroke="#000000" points="718.3772,-155.5001 708.3772,-159 718.3772,-162.5001 718.3772,-155.5001"/>
</g>
<!-- DesktopRegisterPageComponent -->
<g id="node5" class="node">
<title>DesktopRegisterPageComponent</title>
<polygon fill="#ffffb3" stroke="#000000" points="736.8529,-122 535.1471,-122 535.1471,-86 736.8529,-86 736.8529,-122"/>
<text text-anchor="middle" x="636" y="-99.8" font-family="Times,serif" font-size="14.00" fill="#000000">DesktopRegisterPageComponent</text>
</g>
<!-- DesktopRegisterPageComponent&#45;&gt;DesktopProfileModule -->
<g id="edge5" class="edge">
<title>DesktopRegisterPageComponent&#45;&gt;DesktopProfileModule</title>
<path fill="none" stroke="#000000" d="M636,-122.1061C636,-122.1061 636,-140.991 636,-140.991"/>
<polygon fill="#000000" stroke="#000000" points="632.5001,-140.9909 636,-150.991 639.5001,-140.991 632.5001,-140.9909"/>
</g>
<!-- DesktopOrderModule -->
<g id="node7" class="node">
<title>DesktopOrderModule</title>
<polygon fill="#8dd3c7" stroke="#000000" points="511.3487,-122 508.3487,-126 487.3487,-126 484.3487,-122 372.6513,-122 372.6513,-86 511.3487,-86 511.3487,-122"/>
<text text-anchor="middle" x="442" y="-99.8" font-family="Times,serif" font-size="14.00" fill="#000000">DesktopOrderModule</text>
</g>
<!-- DesktopOrderModule&#45;&gt;DesktopProfileModule -->
<g id="edge6" class="edge">
<title>DesktopOrderModule&#45;&gt;DesktopProfileModule</title>
<path fill="none" stroke="#000000" d="M442,-122.0091C442,-138.0494 442,-159 442,-159 442,-159 553.7616,-159 553.7616,-159"/>
<polygon fill="#000000" stroke="#000000" points="553.7616,-162.5001 563.7616,-159 553.7615,-155.5001 553.7616,-162.5001"/>
</g>
<!-- LayoutModule -->
<g id="node8" class="node">
<title>LayoutModule</title>
<polygon fill="#8dd3c7" stroke="#000000" points="354.7078,-122 351.7078,-126 330.7078,-126 327.7078,-122 255.2922,-122 255.2922,-86 354.7078,-86 354.7078,-122"/>
<text text-anchor="middle" x="305" y="-99.8" font-family="Times,serif" font-size="14.00" fill="#000000">LayoutModule</text>
</g>
<!-- LayoutModule&#45;&gt;DesktopProfileModule -->
<g id="edge7" class="edge">
<title>LayoutModule&#45;&gt;DesktopProfileModule</title>
<path fill="none" stroke="#000000" d="M305,-122.2667C305,-140.5552 305,-166 305,-166 305,-166 553.7697,-166 553.7697,-166"/>
<polygon fill="#000000" stroke="#000000" points="553.7697,-169.5001 563.7697,-166 553.7696,-162.5001 553.7697,-169.5001"/>
</g>
<!-- ProfileModule -->
<g id="node9" class="node">
<title>ProfileModule</title>
<polygon fill="#8dd3c7" stroke="#000000" points="237.65,-122 234.65,-126 213.65,-126 210.65,-122 140.35,-122 140.35,-86 237.65,-86 237.65,-122"/>
<text text-anchor="middle" x="189" y="-99.8" font-family="Times,serif" font-size="14.00" fill="#000000">ProfileModule</text>
</g>
<!-- ProfileModule&#45;&gt;DesktopProfileModule -->
<g id="edge8" class="edge">
<title>ProfileModule&#45;&gt;DesktopProfileModule</title>
<path fill="none" stroke="#000000" d="M189,-122.1289C189,-142.5724 189,-173 189,-173 189,-173 553.6849,-173 553.6849,-173"/>
<polygon fill="#000000" stroke="#000000" points="553.685,-176.5001 563.6849,-173 553.6849,-169.5001 553.685,-176.5001"/>
</g>
<!-- SharedModule -->
<g id="node10" class="node">
<title>SharedModule</title>
<polygon fill="#8dd3c7" stroke="#000000" points="122.4231,-122 119.4231,-126 98.4231,-126 95.4231,-122 23.5769,-122 23.5769,-86 122.4231,-86 122.4231,-122"/>
<text text-anchor="middle" x="73" y="-99.8" font-family="Times,serif" font-size="14.00" fill="#000000">SharedModule</text>
</g>
<!-- SharedModule&#45;&gt;DesktopProfileModule -->
<g id="edge9" class="edge">
<title>SharedModule&#45;&gt;DesktopProfileModule</title>
<path fill="none" stroke="#000000" d="M73,-122.0109C73,-144.4852 73,-180 73,-180 73,-180 553.8372,-180 553.8372,-180"/>
<polygon fill="#000000" stroke="#000000" points="553.8372,-183.5001 563.8372,-180 553.8372,-176.5001 553.8372,-183.5001"/>
</g>
</g>
</svg>
