<?xml version="1.0" encoding="UTF-8" standalone="no"?>
<!DOCTYPE svg PUBLIC "-//W3C//DTD SVG 1.1//EN"
 "http://www.w3.org/Graphics/SVG/1.1/DTD/svg11.dtd">
<!-- Generated by graphviz version 2.40.1 (20161225.0304)
 -->
<!-- Title: dependencies Pages: 1 -->
<svg width="1348pt" height="284pt"
 viewBox="0.00 0.00 1348.00 284.00" xmlns="http://www.w3.org/2000/svg" xmlns:xlink="http://www.w3.org/1999/xlink">
<g id="graph0" class="graph" transform="scale(1 1) rotate(0) translate(4 280)">
<title>dependencies</title>
<polygon fill="#ffffff" stroke="transparent" points="-4,4 -4,-280 1344,-280 1344,4 -4,4"/>
<text text-anchor="start" x="649.0091" y="-42.4" font-family="sans-serif" font-weight="bold" font-size="14.00" fill="#000000">Legend</text>
<polygon fill="#ffffb3" stroke="transparent" points="436,-10 436,-30 456,-30 456,-10 436,-10"/>
<text text-anchor="start" x="459.629" y="-15.4" font-family="sans-serif" font-size="14.00" fill="#000000"> &#160;Declarations</text>
<polygon fill="#8dd3c7" stroke="transparent" points="549,-10 549,-30 569,-30 569,-10 549,-10"/>
<text text-anchor="start" x="572.7251" y="-15.4" font-family="sans-serif" font-size="14.00" fill="#000000"> &#160;Module</text>
<polygon fill="#80b1d3" stroke="transparent" points="635,-10 635,-30 655,-30 655,-10 635,-10"/>
<text text-anchor="start" x="658.7812" y="-15.4" font-family="sans-serif" font-size="14.00" fill="#000000"> &#160;Bootstrap</text>
<polygon fill="#fdb462" stroke="transparent" points="732,-10 732,-30 752,-30 752,-10 732,-10"/>
<text text-anchor="start" x="755.6732" y="-15.4" font-family="sans-serif" font-size="14.00" fill="#000000"> &#160;Providers</text>
<polygon fill="#fb8072" stroke="transparent" points="828,-10 828,-30 848,-30 848,-10 828,-10"/>
<text text-anchor="start" x="851.7258" y="-15.4" font-family="sans-serif" font-size="14.00" fill="#000000"> &#160;Exports</text>
<g id="clust1" class="cluster">
<title>cluster_DesktopOrderModule</title>
<polygon fill="none" stroke="#000000" stroke-dasharray="1,5" points="8,-70 8,-268 1332,-268 1332,-70 8,-70"/>
</g>
<g id="clust2" class="cluster">
<title>cluster_DesktopOrderModule_declarations</title>
<polygon fill="none" stroke="#000000" points="364,-78 364,-130 1324,-130 1324,-78 364,-78"/>
</g>
<g id="clust7" class="cluster">
<title>cluster_DesktopOrderModule_imports</title>
<polygon fill="none" stroke="#000000" points="16,-78 16,-130 356,-130 356,-78 16,-78"/>
</g>
<g id="clust8" class="cluster">
<title>cluster_DesktopOrderModule_exports</title>
<polygon fill="none" stroke="#000000" points="289,-208 289,-260 849,-260 849,-208 289,-208"/>
</g>
<!-- DesktopOrderDetailCardComponent -->
<g id="node1" class="node">
<title>DesktopOrderDetailCardComponent</title>
<polygon fill="#ffffb3" stroke="#000000" points="1316.0506,-122 1093.9494,-122 1093.9494,-86 1316.0506,-86 1316.0506,-122"/>
<text text-anchor="middle" x="1205" y="-99.8" font-family="Times,serif" font-size="14.00" fill="#000000">DesktopOrderDetailCardComponent</text>
</g>
<!-- DesktopOrderModule -->
<g id="node5" class="node">
<title>DesktopOrderModule</title>
<polygon fill="#8dd3c7" stroke="#000000" points="573.3487,-187 570.3487,-191 549.3487,-191 546.3487,-187 434.6513,-187 434.6513,-151 573.3487,-151 573.3487,-187"/>
<text text-anchor="middle" x="504" y="-164.8" font-family="Times,serif" font-size="14.00" fill="#000000">DesktopOrderModule</text>
</g>
<!-- DesktopOrderDetailCardComponent&#45;&gt;DesktopOrderModule -->
<g id="edge1" class="edge">
<title>DesktopOrderDetailCardComponent&#45;&gt;DesktopOrderModule</title>
<path fill="none" stroke="#000000" d="M1205,-122.1289C1205,-142.5724 1205,-173 1205,-173 1205,-173 583.4549,-173 583.4549,-173"/>
<polygon fill="#000000" stroke="#000000" points="583.4549,-169.5001 573.4549,-173 583.4549,-176.5001 583.4549,-169.5001"/>
</g>
<!-- DesktopOrderDetailPageComponent -->
<g id="node2" class="node">
<title>DesktopOrderDetailPageComponent</title>
<polygon fill="#ffffb3" stroke="#000000" points="1076.0506,-122 853.9494,-122 853.9494,-86 1076.0506,-86 1076.0506,-122"/>
<text text-anchor="middle" x="965" y="-99.8" font-family="Times,serif" font-size="14.00" fill="#000000">DesktopOrderDetailPageComponent</text>
</g>
<!-- DesktopOrderDetailPageComponent&#45;&gt;DesktopOrderModule -->
<g id="edge2" class="edge">
<title>DesktopOrderDetailPageComponent&#45;&gt;DesktopOrderModule</title>
<path fill="none" stroke="#000000" d="M965,-122.2667C965,-140.5552 965,-166 965,-166 965,-166 583.5155,-166 583.5155,-166"/>
<polygon fill="#000000" stroke="#000000" points="583.5155,-162.5001 573.5155,-166 583.5155,-169.5001 583.5155,-162.5001"/>
</g>
<!-- DesktopOrderListComponent -->
<g id="node3" class="node">
<title>DesktopOrderListComponent</title>
<polygon fill="#ffffb3" stroke="#000000" points="836.4101,-122 653.5899,-122 653.5899,-86 836.4101,-86 836.4101,-122"/>
<text text-anchor="middle" x="745" y="-99.8" font-family="Times,serif" font-size="14.00" fill="#000000">DesktopOrderListComponent</text>
</g>
<!-- DesktopOrderListComponent&#45;&gt;DesktopOrderModule -->
<g id="edge3" class="edge">
<title>DesktopOrderListComponent&#45;&gt;DesktopOrderModule</title>
<path fill="none" stroke="#000000" d="M745,-122.0091C745,-138.0494 745,-159 745,-159 745,-159 583.3839,-159 583.3839,-159"/>
<polygon fill="#000000" stroke="#000000" points="583.3839,-155.5001 573.3839,-159 583.3838,-162.5001 583.3839,-155.5001"/>
</g>
<!-- DesktopOrderListSummaryCardComponent -->
<g id="node4" class="node">
<title>DesktopOrderListSummaryCardComponent</title>
<polygon fill="#ffffb3" stroke="#000000" points="636.0604,-122 371.9396,-122 371.9396,-86 636.0604,-86 636.0604,-122"/>
<text text-anchor="middle" x="504" y="-99.8" font-family="Times,serif" font-size="14.00" fill="#000000">DesktopOrderListSummaryCardComponent</text>
</g>
<!-- DesktopOrderListSummaryCardComponent&#45;&gt;DesktopOrderModule -->
<g id="edge4" class="edge">
<title>DesktopOrderListSummaryCardComponent&#45;&gt;DesktopOrderModule</title>
<path fill="none" stroke="#000000" d="M504,-122.1061C504,-122.1061 504,-140.991 504,-140.991"/>
<polygon fill="#000000" stroke="#000000" points="500.5001,-140.9909 504,-150.991 507.5001,-140.991 500.5001,-140.9909"/>
</g>
<!-- DesktopOrderDetailCardComponent  -->
<g id="node9" class="node">
<title>DesktopOrderDetailCardComponent </title>
<polygon fill="#fb8072" stroke="#000000" points="840.551,-252 615.449,-252 615.449,-216 840.551,-216 840.551,-252"/>
<text text-anchor="middle" x="728" y="-229.8" font-family="Times,serif" font-size="14.00" fill="#000000">DesktopOrderDetailCardComponent </text>
</g>
<!-- DesktopOrderModule&#45;&gt;DesktopOrderDetailCardComponent  -->
<g id="edge8" class="edge">
<title>DesktopOrderModule&#45;&gt;DesktopOrderDetailCardComponent </title>
<path fill="none" stroke="#000000" stroke-dasharray="5,2" d="M573.6937,-180C600.8694,-180 625.6275,-180 625.6275,-180 625.6275,-180 625.6275,-205.7181 625.6275,-205.7181"/>
<polygon fill="#000000" stroke="#000000" points="622.1275,-205.718 625.6275,-215.7181 629.1275,-205.7181 622.1275,-205.718"/>
</g>
<!-- DesktopOrderListComponent  -->
<g id="node10" class="node">
<title>DesktopOrderListComponent </title>
<polygon fill="#fb8072" stroke="#000000" points="596.9096,-252 411.0904,-252 411.0904,-216 596.9096,-216 596.9096,-252"/>
<text text-anchor="middle" x="504" y="-229.8" font-family="Times,serif" font-size="14.00" fill="#000000">DesktopOrderListComponent </text>
</g>
<!-- DesktopOrderModule&#45;&gt;DesktopOrderListComponent  -->
<g id="edge9" class="edge">
<title>DesktopOrderModule&#45;&gt;DesktopOrderListComponent </title>
<path fill="none" stroke="#000000" stroke-dasharray="5,2" d="M504,-187.1061C504,-187.1061 504,-205.991 504,-205.991"/>
<polygon fill="#000000" stroke="#000000" points="500.5001,-205.9909 504,-215.991 507.5001,-205.991 500.5001,-205.9909"/>
</g>
<!-- OrderModule  -->
<g id="node11" class="node">
<title>OrderModule </title>
<polygon fill="#fb8072" stroke="#000000" points="392.6927,-252 297.3073,-252 297.3073,-216 392.6927,-216 392.6927,-252"/>
<text text-anchor="middle" x="345" y="-229.8" font-family="Times,serif" font-size="14.00" fill="#000000">OrderModule </text>
</g>
<!-- DesktopOrderModule&#45;&gt;OrderModule  -->
<g id="edge10" class="edge">
<title>DesktopOrderModule&#45;&gt;OrderModule </title>
<path fill="none" stroke="#000000" stroke-dasharray="5,2" d="M434.3266,-180C407.1587,-180 382.408,-180 382.408,-180 382.408,-180 382.408,-205.7181 382.408,-205.7181"/>
<polygon fill="#000000" stroke="#000000" points="378.908,-205.718 382.408,-215.7181 385.908,-205.7181 378.908,-205.718"/>
</g>
<!-- BasketModule -->
<g id="node6" class="node">
<title>BasketModule</title>
<polygon fill="#8dd3c7" stroke="#000000" points="347.6514,-122 344.6514,-126 323.6514,-126 320.6514,-122 250.3486,-122 250.3486,-86 347.6514,-86 347.6514,-122"/>
<text text-anchor="middle" x="299" y="-99.8" font-family="Times,serif" font-size="14.00" fill="#000000">BasketModule</text>
</g>
<!-- BasketModule&#45;&gt;DesktopOrderModule -->
<g id="edge5" class="edge">
<title>BasketModule&#45;&gt;DesktopOrderModule</title>
<path fill="none" stroke="#000000" d="M322.4897,-122.0091C322.4897,-138.0494 322.4897,-159 322.4897,-159 322.4897,-159 424.6018,-159 424.6018,-159"/>
<polygon fill="#000000" stroke="#000000" points="424.6018,-162.5001 434.6018,-159 424.6017,-155.5001 424.6018,-162.5001"/>
</g>
<!-- OrderModule -->
<g id="node7" class="node">
<title>OrderModule</title>
<polygon fill="#8dd3c7" stroke="#000000" points="232.1924,-122 229.1924,-126 208.1924,-126 205.1924,-122 139.8076,-122 139.8076,-86 232.1924,-86 232.1924,-122"/>
<text text-anchor="middle" x="186" y="-99.8" font-family="Times,serif" font-size="14.00" fill="#000000">OrderModule</text>
</g>
<!-- OrderModule&#45;&gt;DesktopOrderModule -->
<g id="edge6" class="edge">
<title>OrderModule&#45;&gt;DesktopOrderModule</title>
<path fill="none" stroke="#000000" d="M186,-122.2667C186,-140.5552 186,-166 186,-166 186,-166 424.6065,-166 424.6065,-166"/>
<polygon fill="#000000" stroke="#000000" points="424.6065,-169.5001 434.6065,-166 424.6065,-162.5001 424.6065,-169.5001"/>
</g>
<!-- SharedModule -->
<g id="node8" class="node">
<title>SharedModule</title>
<polygon fill="#8dd3c7" stroke="#000000" points="122.4231,-122 119.4231,-126 98.4231,-126 95.4231,-122 23.5769,-122 23.5769,-86 122.4231,-86 122.4231,-122"/>
<text text-anchor="middle" x="73" y="-99.8" font-family="Times,serif" font-size="14.00" fill="#000000">SharedModule</text>
</g>
<!-- SharedModule&#45;&gt;DesktopOrderModule -->
<g id="edge7" class="edge">
<title>SharedModule&#45;&gt;DesktopOrderModule</title>
<path fill="none" stroke="#000000" d="M73,-122.1289C73,-142.5724 73,-173 73,-173 73,-173 424.2734,-173 424.2734,-173"/>
<polygon fill="#000000" stroke="#000000" points="424.2734,-176.5001 434.2734,-173 424.2733,-169.5001 424.2734,-176.5001"/>
</g>
</g>
</svg>
