<?xml version="1.0" encoding="UTF-8" standalone="no"?>
<!DOCTYPE svg PUBLIC "-//W3C//DTD SVG 1.1//EN"
 "http://www.w3.org/Graphics/SVG/1.1/DTD/svg11.dtd">
<!-- Generated by graphviz version 2.40.1 (20161225.0304)
 -->
<!-- Title: dependencies Pages: 1 -->
<svg width="3721pt" height="211pt"
 viewBox="0.00 0.00 3721.00 211.00" xmlns="http://www.w3.org/2000/svg" xmlns:xlink="http://www.w3.org/1999/xlink">
<g id="graph0" class="graph" transform="scale(1 1) rotate(0) translate(4 207)">
<title>dependencies</title>
<polygon fill="#ffffff" stroke="transparent" points="-4,4 -4,-207 3717,-207 3717,4 -4,4"/>
<text text-anchor="start" x="1835.5091" y="-42.4" font-family="sans-serif" font-weight="bold" font-size="14.00" fill="#000000">Legend</text>
<polygon fill="#ffffb3" stroke="transparent" points="1622.5,-10 1622.5,-30 1642.5,-30 1642.5,-10 1622.5,-10"/>
<text text-anchor="start" x="1646.129" y="-15.4" font-family="sans-serif" font-size="14.00" fill="#000000"> &#160;Declarations</text>
<polygon fill="#8dd3c7" stroke="transparent" points="1735.5,-10 1735.5,-30 1755.5,-30 1755.5,-10 1735.5,-10"/>
<text text-anchor="start" x="1759.2251" y="-15.4" font-family="sans-serif" font-size="14.00" fill="#000000"> &#160;Module</text>
<polygon fill="#80b1d3" stroke="transparent" points="1821.5,-10 1821.5,-30 1841.5,-30 1841.5,-10 1821.5,-10"/>
<text text-anchor="start" x="1845.2812" y="-15.4" font-family="sans-serif" font-size="14.00" fill="#000000"> &#160;Bootstrap</text>
<polygon fill="#fdb462" stroke="transparent" points="1918.5,-10 1918.5,-30 1938.5,-30 1938.5,-10 1918.5,-10"/>
<text text-anchor="start" x="1942.1732" y="-15.4" font-family="sans-serif" font-size="14.00" fill="#000000"> &#160;Providers</text>
<polygon fill="#fb8072" stroke="transparent" points="2014.5,-10 2014.5,-30 2034.5,-30 2034.5,-10 2014.5,-10"/>
<text text-anchor="start" x="2038.2258" y="-15.4" font-family="sans-serif" font-size="14.00" fill="#000000"> &#160;Exports</text>
<g id="clust1" class="cluster">
<title>cluster_LayoutModule</title>
<polygon fill="none" stroke="#000000" stroke-dasharray="1,5" points="8,-70 8,-195 3705,-195 3705,-70 8,-70"/>
</g>
<g id="clust2" class="cluster">
<title>cluster_LayoutModule_declarations</title>
<polygon fill="none" stroke="#000000" points="138,-78 138,-130 3697,-130 3697,-78 138,-78"/>
</g>
<g id="clust23" class="cluster">
<title>cluster_LayoutModule_imports</title>
<polygon fill="none" stroke="#000000" points="16,-78 16,-130 130,-130 130,-78 16,-78"/>
</g>
<!-- AboutUsComponent -->
<g id="node1" class="node">
<title>AboutUsComponent</title>
<polygon fill="#ffffb3" stroke="#000000" points="3688.8809,-122 3557.1191,-122 3557.1191,-86 3688.8809,-86 3688.8809,-122"/>
<text text-anchor="middle" x="3623" y="-99.8" font-family="Times,serif" font-size="14.00" fill="#000000">AboutUsComponent</text>
</g>
<!-- LayoutModule -->
<g id="node21" class="node">
<title>LayoutModule</title>
<polygon fill="#8dd3c7" stroke="#000000" points="1890.7078,-187 1887.7078,-191 1866.7078,-191 1863.7078,-187 1791.2922,-187 1791.2922,-151 1890.7078,-151 1890.7078,-187"/>
<text text-anchor="middle" x="1841" y="-164.8" font-family="Times,serif" font-size="14.00" fill="#000000">LayoutModule</text>
</g>
<!-- AboutUsComponent&#45;&gt;LayoutModule -->
<g id="edge1" class="edge">
<title>AboutUsComponent&#45;&gt;LayoutModule</title>
<path fill="none" stroke="#000000" d="M3623,-122.1532C3623,-145.7566 3623,-184 3623,-184 3623,-184 1900.99,-184 1900.99,-184"/>
<polygon fill="#000000" stroke="#000000" points="1900.99,-180.5001 1890.99,-184 1900.99,-187.5001 1900.99,-180.5001"/>
</g>
<!-- BaseFullLayoutComponent -->
<g id="node2" class="node">
<title>BaseFullLayoutComponent</title>
<polygon fill="#ffffb3" stroke="#000000" points="3539.2646,-122 3368.7354,-122 3368.7354,-86 3539.2646,-86 3539.2646,-122"/>
<text text-anchor="middle" x="3454" y="-99.8" font-family="Times,serif" font-size="14.00" fill="#000000">BaseFullLayoutComponent</text>
</g>
<!-- BaseFullLayoutComponent&#45;&gt;LayoutModule -->
<g id="edge2" class="edge">
<title>BaseFullLayoutComponent&#45;&gt;LayoutModule</title>
<path fill="none" stroke="#000000" d="M3454,-122.2479C3454,-145.0179 3454,-181 3454,-181 3454,-181 1901.0426,-181 1901.0426,-181"/>
<polygon fill="#000000" stroke="#000000" points="1901.0427,-177.5001 1891.0426,-181 1901.0426,-184.5001 1901.0427,-177.5001"/>
</g>
<!-- BaseHeaderComponent -->
<g id="node3" class="node">
<title>BaseHeaderComponent</title>
<polygon fill="#ffffb3" stroke="#000000" points="3350.4538,-122 3201.5462,-122 3201.5462,-86 3350.4538,-86 3350.4538,-122"/>
<text text-anchor="middle" x="3276" y="-99.8" font-family="Times,serif" font-size="14.00" fill="#000000">BaseHeaderComponent</text>
</g>
<!-- BaseHeaderComponent&#45;&gt;LayoutModule -->
<g id="edge3" class="edge">
<title>BaseHeaderComponent&#45;&gt;LayoutModule</title>
<path fill="none" stroke="#000000" d="M3276,-122.2921C3276,-144.2057 3276,-178 3276,-178 3276,-178 1900.8127,-178 1900.8127,-178"/>
<polygon fill="#000000" stroke="#000000" points="1900.8127,-174.5001 1890.8127,-178 1900.8126,-181.5001 1900.8127,-174.5001"/>
</g>
<!-- BaseMenuComponent -->
<g id="node4" class="node">
<title>BaseMenuComponent</title>
<polygon fill="#ffffb3" stroke="#000000" points="3183.7021,-122 3042.2979,-122 3042.2979,-86 3183.7021,-86 3183.7021,-122"/>
<text text-anchor="middle" x="3113" y="-99.8" font-family="Times,serif" font-size="14.00" fill="#000000">BaseMenuComponent</text>
</g>
<!-- BaseMenuComponent&#45;&gt;LayoutModule -->
<g id="edge4" class="edge">
<title>BaseMenuComponent&#45;&gt;LayoutModule</title>
<path fill="none" stroke="#000000" d="M3113,-122.0267C3113,-142.7672 3113,-174 3113,-174 3113,-174 1900.8639,-174 1900.8639,-174"/>
<polygon fill="#000000" stroke="#000000" points="1900.8639,-170.5001 1890.8639,-174 1900.8639,-177.5001 1900.8639,-170.5001"/>
</g>
<!-- BaseSubMenuComponent -->
<g id="node5" class="node">
<title>BaseSubMenuComponent</title>
<polygon fill="#ffffb3" stroke="#000000" points="3024.4846,-122 2861.5154,-122 2861.5154,-86 3024.4846,-86 3024.4846,-122"/>
<text text-anchor="middle" x="2943" y="-99.8" font-family="Times,serif" font-size="14.00" fill="#000000">BaseSubMenuComponent</text>
</g>
<!-- BaseSubMenuComponent&#45;&gt;LayoutModule -->
<g id="edge5" class="edge">
<title>BaseSubMenuComponent&#45;&gt;LayoutModule</title>
<path fill="none" stroke="#000000" d="M2943,-122.308C2943,-142.1455 2943,-171 2943,-171 2943,-171 1900.8523,-171 1900.8523,-171"/>
<polygon fill="#000000" stroke="#000000" points="1900.8523,-167.5001 1890.8523,-171 1900.8522,-174.5001 1900.8523,-167.5001"/>
</g>
<!-- CenterMatMenuDirective -->
<g id="node6" class="node">
<title>CenterMatMenuDirective</title>
<polygon fill="#ffffb3" stroke="#000000" points="2843.1093,-122 2682.8907,-122 2682.8907,-86 2843.1093,-86 2843.1093,-122"/>
<text text-anchor="middle" x="2763" y="-99.8" font-family="Times,serif" font-size="14.00" fill="#000000">CenterMatMenuDirective</text>
</g>
<!-- CenterMatMenuDirective&#45;&gt;LayoutModule -->
<g id="edge6" class="edge">
<title>CenterMatMenuDirective&#45;&gt;LayoutModule</title>
<path fill="none" stroke="#000000" d="M2763,-122.1686C2763,-141.0898 2763,-168 2763,-168 2763,-168 1900.8976,-168 1900.8976,-168"/>
<polygon fill="#000000" stroke="#000000" points="1900.8977,-164.5001 1890.8976,-168 1900.8976,-171.5001 1900.8977,-164.5001"/>
</g>
<!-- ContactUsComponent -->
<g id="node7" class="node">
<title>ContactUsComponent</title>
<polygon fill="#ffffb3" stroke="#000000" points="2664.4313,-122 2523.5687,-122 2523.5687,-86 2664.4313,-86 2664.4313,-122"/>
<text text-anchor="middle" x="2594" y="-99.8" font-family="Times,serif" font-size="14.00" fill="#000000">ContactUsComponent</text>
</g>
<!-- ContactUsComponent&#45;&gt;LayoutModule -->
<g id="edge7" class="edge">
<title>ContactUsComponent&#45;&gt;LayoutModule</title>
<path fill="none" stroke="#000000" d="M2594,-122.302C2594,-140.2699 2594,-165 2594,-165 2594,-165 1900.6976,-165 1900.6976,-165"/>
<polygon fill="#000000" stroke="#000000" points="1900.6977,-161.5001 1890.6976,-165 1900.6976,-168.5001 1900.6977,-161.5001"/>
</g>
<!-- DesktopFullLayoutComponent -->
<g id="node8" class="node">
<title>DesktopFullLayoutComponent</title>
<polygon fill="#ffffb3" stroke="#000000" points="2506.2105,-122 2315.7895,-122 2315.7895,-86 2506.2105,-86 2506.2105,-122"/>
<text text-anchor="middle" x="2411" y="-99.8" font-family="Times,serif" font-size="14.00" fill="#000000">DesktopFullLayoutComponent</text>
</g>
<!-- DesktopFullLayoutComponent&#45;&gt;LayoutModule -->
<g id="edge8" class="edge">
<title>DesktopFullLayoutComponent&#45;&gt;LayoutModule</title>
<path fill="none" stroke="#000000" d="M2411,-122.0352C2411,-138.7344 2411,-161 2411,-161 2411,-161 1901.0841,-161 1901.0841,-161"/>
<polygon fill="#000000" stroke="#000000" points="1901.0842,-157.5001 1891.0841,-161 1901.0841,-164.5001 1901.0842,-157.5001"/>
</g>
<!-- DesktopHeaderComponent -->
<g id="node9" class="node">
<title>DesktopHeaderComponent</title>
<polygon fill="#ffffb3" stroke="#000000" points="2298.4003,-122 2129.5997,-122 2129.5997,-86 2298.4003,-86 2298.4003,-122"/>
<text text-anchor="middle" x="2214" y="-99.8" font-family="Times,serif" font-size="14.00" fill="#000000">DesktopHeaderComponent</text>
</g>
<!-- DesktopHeaderComponent&#45;&gt;LayoutModule -->
<g id="edge9" class="edge">
<title>DesktopHeaderComponent&#45;&gt;LayoutModule</title>
<path fill="none" stroke="#000000" d="M2214,-122.2819C2214,-137.9478 2214,-158 2214,-158 2214,-158 1900.9174,-158 1900.9174,-158"/>
<polygon fill="#000000" stroke="#000000" points="1900.9174,-154.5001 1890.9174,-158 1900.9174,-161.5001 1900.9174,-154.5001"/>
</g>
<!-- DesktopMenuComponent -->
<g id="node10" class="node">
<title>DesktopMenuComponent</title>
<polygon fill="#ffffb3" stroke="#000000" points="2111.1484,-122 1950.8516,-122 1950.8516,-86 2111.1484,-86 2111.1484,-122"/>
<text text-anchor="middle" x="2031" y="-99.8" font-family="Times,serif" font-size="14.00" fill="#000000">DesktopMenuComponent</text>
</g>
<!-- DesktopMenuComponent&#45;&gt;LayoutModule -->
<g id="edge10" class="edge">
<title>DesktopMenuComponent&#45;&gt;LayoutModule</title>
<path fill="none" stroke="#000000" d="M2031,-122.1243C2031,-136.7832 2031,-155 2031,-155 2031,-155 1900.9203,-155 1900.9203,-155"/>
<polygon fill="#000000" stroke="#000000" points="1900.9203,-151.5001 1890.9203,-155 1900.9202,-158.5001 1900.9203,-151.5001"/>
</g>
<!-- DesktopSubMenuComponent -->
<g id="node11" class="node">
<title>DesktopSubMenuComponent</title>
<polygon fill="#ffffb3" stroke="#000000" points="1932.4311,-122 1749.5689,-122 1749.5689,-86 1932.4311,-86 1932.4311,-122"/>
<text text-anchor="middle" x="1841" y="-99.8" font-family="Times,serif" font-size="14.00" fill="#000000">DesktopSubMenuComponent</text>
</g>
<!-- DesktopSubMenuComponent&#45;&gt;LayoutModule -->
<g id="edge11" class="edge">
<title>DesktopSubMenuComponent&#45;&gt;LayoutModule</title>
<path fill="none" stroke="#000000" d="M1841,-122.1061C1841,-122.1061 1841,-140.991 1841,-140.991"/>
<polygon fill="#000000" stroke="#000000" points="1837.5001,-140.9909 1841,-150.991 1844.5001,-140.991 1837.5001,-140.9909"/>
</g>
<!-- FAQComponent -->
<g id="node12" class="node">
<title>FAQComponent</title>
<polygon fill="#ffffb3" stroke="#000000" points="1731.8287,-122 1622.1713,-122 1622.1713,-86 1731.8287,-86 1731.8287,-122"/>
<text text-anchor="middle" x="1677" y="-99.8" font-family="Times,serif" font-size="14.00" fill="#000000">FAQComponent</text>
</g>
<!-- FAQComponent&#45;&gt;LayoutModule -->
<g id="edge12" class="edge">
<title>FAQComponent&#45;&gt;LayoutModule</title>
<path fill="none" stroke="#000000" d="M1677,-122.1243C1677,-136.7832 1677,-155 1677,-155 1677,-155 1781.3495,-155 1781.3495,-155"/>
<polygon fill="#000000" stroke="#000000" points="1781.3496,-158.5001 1791.3495,-155 1781.3495,-151.5001 1781.3496,-158.5001"/>
</g>
<!-- FileAComplaintComponent -->
<g id="node13" class="node">
<title>FileAComplaintComponent</title>
<polygon fill="#ffffb3" stroke="#000000" points="1604.3313,-122 1431.6687,-122 1431.6687,-86 1604.3313,-86 1604.3313,-122"/>
<text text-anchor="middle" x="1518" y="-99.8" font-family="Times,serif" font-size="14.00" fill="#000000">FileAComplaintComponent</text>
</g>
<!-- FileAComplaintComponent&#45;&gt;LayoutModule -->
<g id="edge13" class="edge">
<title>FileAComplaintComponent&#45;&gt;LayoutModule</title>
<path fill="none" stroke="#000000" d="M1518,-122.2819C1518,-137.9478 1518,-158 1518,-158 1518,-158 1781.2391,-158 1781.2391,-158"/>
<polygon fill="#000000" stroke="#000000" points="1781.2391,-161.5001 1791.2391,-158 1781.2391,-154.5001 1781.2391,-161.5001"/>
</g>
<!-- FooterComponent -->
<g id="node14" class="node">
<title>FooterComponent</title>
<polygon fill="#ffffb3" stroke="#000000" points="1413.8809,-122 1296.1191,-122 1296.1191,-86 1413.8809,-86 1413.8809,-122"/>
<text text-anchor="middle" x="1355" y="-99.8" font-family="Times,serif" font-size="14.00" fill="#000000">FooterComponent</text>
</g>
<!-- FooterComponent&#45;&gt;LayoutModule -->
<g id="edge14" class="edge">
<title>FooterComponent&#45;&gt;LayoutModule</title>
<path fill="none" stroke="#000000" d="M1355,-122.0352C1355,-138.7344 1355,-161 1355,-161 1355,-161 1781.2734,-161 1781.2734,-161"/>
<polygon fill="#000000" stroke="#000000" points="1781.2735,-164.5001 1791.2734,-161 1781.2734,-157.5001 1781.2735,-164.5001"/>
</g>
<!-- HowToInsertAnOrderComponent -->
<g id="node15" class="node">
<title>HowToInsertAnOrderComponent</title>
<polygon fill="#ffffb3" stroke="#000000" points="1277.7184,-122 1072.2816,-122 1072.2816,-86 1277.7184,-86 1277.7184,-122"/>
<text text-anchor="middle" x="1175" y="-99.8" font-family="Times,serif" font-size="14.00" fill="#000000">HowToInsertAnOrderComponent</text>
</g>
<!-- HowToInsertAnOrderComponent&#45;&gt;LayoutModule -->
<g id="edge15" class="edge">
<title>HowToInsertAnOrderComponent&#45;&gt;LayoutModule</title>
<path fill="none" stroke="#000000" d="M1175,-122.302C1175,-140.2699 1175,-165 1175,-165 1175,-165 1781.2141,-165 1781.2141,-165"/>
<polygon fill="#000000" stroke="#000000" points="1781.2142,-168.5001 1791.2141,-165 1781.2141,-161.5001 1781.2142,-168.5001"/>
</g>
<!-- MobileFullLayoutComponent -->
<g id="node16" class="node">
<title>MobileFullLayoutComponent</title>
<polygon fill="#ffffb3" stroke="#000000" points="1053.9944,-122 870.0056,-122 870.0056,-86 1053.9944,-86 1053.9944,-122"/>
<text text-anchor="middle" x="962" y="-99.8" font-family="Times,serif" font-size="14.00" fill="#000000">MobileFullLayoutComponent</text>
</g>
<!-- MobileFullLayoutComponent&#45;&gt;LayoutModule -->
<g id="edge16" class="edge">
<title>MobileFullLayoutComponent&#45;&gt;LayoutModule</title>
<path fill="none" stroke="#000000" d="M962,-122.1686C962,-141.0898 962,-168 962,-168 962,-168 1781.2226,-168 1781.2226,-168"/>
<polygon fill="#000000" stroke="#000000" points="1781.2227,-171.5001 1791.2226,-168 1781.2226,-164.5001 1781.2227,-171.5001"/>
</g>
<!-- MobileHeaderComponent -->
<g id="node17" class="node">
<title>MobileHeaderComponent</title>
<polygon fill="#ffffb3" stroke="#000000" points="852.1839,-122 689.8161,-122 689.8161,-86 852.1839,-86 852.1839,-122"/>
<text text-anchor="middle" x="771" y="-99.8" font-family="Times,serif" font-size="14.00" fill="#000000">MobileHeaderComponent</text>
</g>
<!-- MobileHeaderComponent&#45;&gt;LayoutModule -->
<g id="edge17" class="edge">
<title>MobileHeaderComponent&#45;&gt;LayoutModule</title>
<path fill="none" stroke="#000000" d="M771,-122.308C771,-142.1455 771,-171 771,-171 771,-171 1781.1828,-171 1781.1828,-171"/>
<polygon fill="#000000" stroke="#000000" points="1781.1828,-174.5001 1791.1828,-171 1781.1828,-167.5001 1781.1828,-174.5001"/>
</g>
<!-- MobileMenuComponent -->
<g id="node18" class="node">
<title>MobileMenuComponent</title>
<polygon fill="#ffffb3" stroke="#000000" points="672.4326,-122 517.5674,-122 517.5674,-86 672.4326,-86 672.4326,-122"/>
<text text-anchor="middle" x="595" y="-99.8" font-family="Times,serif" font-size="14.00" fill="#000000">MobileMenuComponent</text>
</g>
<!-- MobileMenuComponent&#45;&gt;LayoutModule -->
<g id="edge18" class="edge">
<title>MobileMenuComponent&#45;&gt;LayoutModule</title>
<path fill="none" stroke="#000000" d="M595,-122.0267C595,-142.7672 595,-174 595,-174 595,-174 1781.3864,-174 1781.3864,-174"/>
<polygon fill="#000000" stroke="#000000" points="1781.3865,-177.5001 1791.3864,-174 1781.3864,-170.5001 1781.3865,-177.5001"/>
</g>
<!-- MobileSubMenuComponent -->
<g id="node19" class="node">
<title>MobileSubMenuComponent</title>
<polygon fill="#ffffb3" stroke="#000000" points="500.2147,-122 323.7853,-122 323.7853,-86 500.2147,-86 500.2147,-122"/>
<text text-anchor="middle" x="412" y="-99.8" font-family="Times,serif" font-size="14.00" fill="#000000">MobileSubMenuComponent</text>
</g>
<!-- MobileSubMenuComponent&#45;&gt;LayoutModule -->
<g id="edge19" class="edge">
<title>MobileSubMenuComponent&#45;&gt;LayoutModule</title>
<path fill="none" stroke="#000000" d="M412,-122.2921C412,-144.2057 412,-178 412,-178 412,-178 1781.3956,-178 1781.3956,-178"/>
<polygon fill="#000000" stroke="#000000" points="1781.3956,-181.5001 1791.3956,-178 1781.3956,-174.5001 1781.3956,-181.5001"/>
</g>
<!-- SimpleLayoutComponent -->
<g id="node20" class="node">
<title>SimpleLayoutComponent</title>
<polygon fill="#ffffb3" stroke="#000000" points="306.1596,-122 145.8404,-122 145.8404,-86 306.1596,-86 306.1596,-122"/>
<text text-anchor="middle" x="226" y="-99.8" font-family="Times,serif" font-size="14.00" fill="#000000">SimpleLayoutComponent</text>
</g>
<!-- SimpleLayoutComponent&#45;&gt;LayoutModule -->
<g id="edge20" class="edge">
<title>SimpleLayoutComponent&#45;&gt;LayoutModule</title>
<path fill="none" stroke="#000000" d="M226,-122.2479C226,-145.0179 226,-181 226,-181 226,-181 1781.3408,-181 1781.3408,-181"/>
<polygon fill="#000000" stroke="#000000" points="1781.3408,-184.5001 1791.3408,-181 1781.3408,-177.5001 1781.3408,-184.5001"/>
</g>
<!-- SharedModule -->
<g id="node22" class="node">
<title>SharedModule</title>
<polygon fill="#8dd3c7" stroke="#000000" points="122.4231,-122 119.4231,-126 98.4231,-126 95.4231,-122 23.5769,-122 23.5769,-86 122.4231,-86 122.4231,-122"/>
<text text-anchor="middle" x="73" y="-99.8" font-family="Times,serif" font-size="14.00" fill="#000000">SharedModule</text>
</g>
<!-- SharedModule&#45;&gt;LayoutModule -->
<g id="edge21" class="edge">
<title>SharedModule&#45;&gt;LayoutModule</title>
<path fill="none" stroke="#000000" d="M73,-122.1532C73,-145.7566 73,-184 73,-184 73,-184 1780.9351,-184 1780.9351,-184"/>
<polygon fill="#000000" stroke="#000000" points="1780.9352,-187.5001 1790.9351,-184 1780.9351,-180.5001 1780.9352,-187.5001"/>
</g>
</g>
</svg>
