<?xml version="1.0" encoding="UTF-8" standalone="no"?>
<!DOCTYPE svg PUBLIC "-//W3C//DTD SVG 1.1//EN"
 "http://www.w3.org/Graphics/SVG/1.1/DTD/svg11.dtd">
<!-- Generated by graphviz version 2.40.1 (20161225.0304)
 -->
<!-- Title: dependencies Pages: 1 -->
<svg width="1624pt" height="211pt"
 viewBox="0.00 0.00 1624.00 211.00" xmlns="http://www.w3.org/2000/svg" xmlns:xlink="http://www.w3.org/1999/xlink">
<g id="graph0" class="graph" transform="scale(1 1) rotate(0) translate(4 207)">
<title>dependencies</title>
<polygon fill="#ffffff" stroke="transparent" points="-4,4 -4,-207 1620,-207 1620,4 -4,4"/>
<text text-anchor="start" x="787.0091" y="-42.4" font-family="sans-serif" font-weight="bold" font-size="14.00" fill="#000000">Legend</text>
<polygon fill="#ffffb3" stroke="transparent" points="574,-10 574,-30 594,-30 594,-10 574,-10"/>
<text text-anchor="start" x="597.629" y="-15.4" font-family="sans-serif" font-size="14.00" fill="#000000"> &#160;Declarations</text>
<polygon fill="#8dd3c7" stroke="transparent" points="687,-10 687,-30 707,-30 707,-10 687,-10"/>
<text text-anchor="start" x="710.7251" y="-15.4" font-family="sans-serif" font-size="14.00" fill="#000000"> &#160;Module</text>
<polygon fill="#80b1d3" stroke="transparent" points="773,-10 773,-30 793,-30 793,-10 773,-10"/>
<text text-anchor="start" x="796.7812" y="-15.4" font-family="sans-serif" font-size="14.00" fill="#000000"> &#160;Bootstrap</text>
<polygon fill="#fdb462" stroke="transparent" points="870,-10 870,-30 890,-30 890,-10 870,-10"/>
<text text-anchor="start" x="893.6732" y="-15.4" font-family="sans-serif" font-size="14.00" fill="#000000"> &#160;Providers</text>
<polygon fill="#fb8072" stroke="transparent" points="966,-10 966,-30 986,-30 986,-10 966,-10"/>
<text text-anchor="start" x="989.7258" y="-15.4" font-family="sans-serif" font-size="14.00" fill="#000000"> &#160;Exports</text>
<g id="clust1" class="cluster">
<title>cluster_DesktopBasketModule</title>
<polygon fill="none" stroke="#000000" stroke-dasharray="1,5" points="8,-70 8,-195 1608,-195 1608,-70 8,-70"/>
</g>
<g id="clust2" class="cluster">
<title>cluster_DesktopBasketModule_declarations</title>
<polygon fill="none" stroke="#000000" points="411,-78 411,-130 1600,-130 1600,-78 411,-78"/>
</g>
<g id="clust8" class="cluster">
<title>cluster_DesktopBasketModule_imports</title>
<polygon fill="none" stroke="#000000" points="16,-78 16,-130 403,-130 403,-78 16,-78"/>
</g>
<!-- DesktopBasketItemCardComponent -->
<g id="node1" class="node">
<title>DesktopBasketItemCardComponent</title>
<polygon fill="#ffffb3" stroke="#000000" points="1592.458,-122 1373.542,-122 1373.542,-86 1592.458,-86 1592.458,-122"/>
<text text-anchor="middle" x="1483" y="-99.8" font-family="Times,serif" font-size="14.00" fill="#000000">DesktopBasketItemCardComponent</text>
</g>
<!-- DesktopBasketModule -->
<g id="node6" class="node">
<title>DesktopBasketModule</title>
<polygon fill="#8dd3c7" stroke="#000000" points="731.3075,-187 728.3075,-191 707.3075,-191 704.3075,-187 586.6925,-187 586.6925,-151 731.3075,-151 731.3075,-187"/>
<text text-anchor="middle" x="659" y="-164.8" font-family="Times,serif" font-size="14.00" fill="#000000">DesktopBasketModule</text>
</g>
<!-- DesktopBasketItemCardComponent&#45;&gt;DesktopBasketModule -->
<g id="edge1" class="edge">
<title>DesktopBasketItemCardComponent&#45;&gt;DesktopBasketModule</title>
<path fill="none" stroke="#000000" d="M1483,-122.2921C1483,-144.2057 1483,-178 1483,-178 1483,-178 741.4023,-178 741.4023,-178"/>
<polygon fill="#000000" stroke="#000000" points="741.4024,-174.5001 731.4023,-178 741.4023,-181.5001 741.4024,-174.5001"/>
</g>
<!-- DesktopBasketItemListComponent -->
<g id="node2" class="node">
<title>DesktopBasketItemListComponent</title>
<polygon fill="#ffffb3" stroke="#000000" points="1355.5251,-122 1142.4749,-122 1142.4749,-86 1355.5251,-86 1355.5251,-122"/>
<text text-anchor="middle" x="1249" y="-99.8" font-family="Times,serif" font-size="14.00" fill="#000000">DesktopBasketItemListComponent</text>
</g>
<!-- DesktopBasketItemListComponent&#45;&gt;DesktopBasketModule -->
<g id="edge2" class="edge">
<title>DesktopBasketItemListComponent&#45;&gt;DesktopBasketModule</title>
<path fill="none" stroke="#000000" d="M1249,-122.1061C1249,-141.3391 1249,-169 1249,-169 1249,-169 741.3456,-169 741.3456,-169"/>
<polygon fill="#000000" stroke="#000000" points="741.3456,-165.5001 731.3456,-169 741.3455,-172.5001 741.3456,-165.5001"/>
</g>
<!-- DesktopBasketPageComponent -->
<g id="node3" class="node">
<title>DesktopBasketPageComponent</title>
<polygon fill="#ffffb3" stroke="#000000" points="1124.8018,-122 931.1982,-122 931.1982,-86 1124.8018,-86 1124.8018,-122"/>
<text text-anchor="middle" x="1028" y="-99.8" font-family="Times,serif" font-size="14.00" fill="#000000">DesktopBasketPageComponent</text>
</g>
<!-- DesktopBasketPageComponent&#45;&gt;DesktopBasketModule -->
<g id="edge3" class="edge">
<title>DesktopBasketPageComponent&#45;&gt;DesktopBasketModule</title>
<path fill="none" stroke="#000000" d="M1028,-122.027C1028,-138.3976 1028,-160 1028,-160 1028,-160 741.4623,-160 741.4623,-160"/>
<polygon fill="#000000" stroke="#000000" points="741.4623,-156.5001 731.4623,-160 741.4622,-163.5001 741.4623,-156.5001"/>
</g>
<!-- DesktopCancelPurchasePopupComponent -->
<g id="node4" class="node">
<title>DesktopCancelPurchasePopupComponent</title>
<polygon fill="#ffffb3" stroke="#000000" points="913.6741,-122 660.3259,-122 660.3259,-86 913.6741,-86 913.6741,-122"/>
<text text-anchor="middle" x="787" y="-99.8" font-family="Times,serif" font-size="14.00" fill="#000000">DesktopCancelPurchasePopupComponent</text>
</g>
<!-- DesktopCancelPurchasePopupComponent&#45;&gt;DesktopBasketModule -->
<g id="edge4" class="edge">
<title>DesktopCancelPurchasePopupComponent&#45;&gt;DesktopBasketModule</title>
<path fill="none" stroke="#000000" d="M695.7833,-122.1061C695.7833,-122.1061 695.7833,-140.991 695.7833,-140.991"/>
<polygon fill="#000000" stroke="#000000" points="692.2834,-140.9909 695.7833,-150.991 699.2834,-140.991 692.2834,-140.9909"/>
</g>
<!-- DesktopFinalizePurchaseComponent -->
<g id="node5" class="node">
<title>DesktopFinalizePurchaseComponent</title>
<polygon fill="#ffffb3" stroke="#000000" points="642.6189,-122 419.3811,-122 419.3811,-86 642.6189,-86 642.6189,-122"/>
<text text-anchor="middle" x="531" y="-99.8" font-family="Times,serif" font-size="14.00" fill="#000000">DesktopFinalizePurchaseComponent</text>
</g>
<!-- DesktopFinalizePurchaseComponent&#45;&gt;DesktopBasketModule -->
<g id="edge5" class="edge">
<title>DesktopFinalizePurchaseComponent&#45;&gt;DesktopBasketModule</title>
<path fill="none" stroke="#000000" d="M614.8279,-122.1061C614.8279,-122.1061 614.8279,-140.991 614.8279,-140.991"/>
<polygon fill="#000000" stroke="#000000" points="611.3279,-140.9909 614.8279,-150.991 618.3279,-140.991 611.3279,-140.9909"/>
</g>
<!-- BasketModule -->
<g id="node7" class="node">
<title>BasketModule</title>
<polygon fill="#8dd3c7" stroke="#000000" points="394.6514,-122 391.6514,-126 370.6514,-126 367.6514,-122 297.3486,-122 297.3486,-86 394.6514,-86 394.6514,-122"/>
<text text-anchor="middle" x="346" y="-99.8" font-family="Times,serif" font-size="14.00" fill="#000000">BasketModule</text>
</g>
<!-- BasketModule&#45;&gt;DesktopBasketModule -->
<g id="edge6" class="edge">
<title>BasketModule&#45;&gt;DesktopBasketModule</title>
<path fill="none" stroke="#000000" d="M346,-122.027C346,-138.3976 346,-160 346,-160 346,-160 576.7985,-160 576.7985,-160"/>
<polygon fill="#000000" stroke="#000000" points="576.7985,-163.5001 586.7985,-160 576.7984,-156.5001 576.7985,-163.5001"/>
</g>
<!-- DesktopOrderModule -->
<g id="node8" class="node">
<title>DesktopOrderModule</title>
<polygon fill="#8dd3c7" stroke="#000000" points="279.3487,-122 276.3487,-126 255.3487,-126 252.3487,-122 140.6513,-122 140.6513,-86 279.3487,-86 279.3487,-122"/>
<text text-anchor="middle" x="210" y="-99.8" font-family="Times,serif" font-size="14.00" fill="#000000">DesktopOrderModule</text>
</g>
<!-- DesktopOrderModule&#45;&gt;DesktopBasketModule -->
<g id="edge7" class="edge">
<title>DesktopOrderModule&#45;&gt;DesktopBasketModule</title>
<path fill="none" stroke="#000000" d="M210,-122.1061C210,-141.3391 210,-169 210,-169 210,-169 576.611,-169 576.611,-169"/>
<polygon fill="#000000" stroke="#000000" points="576.6111,-172.5001 586.611,-169 576.611,-165.5001 576.6111,-172.5001"/>
</g>
<!-- SharedModule -->
<g id="node9" class="node">
<title>SharedModule</title>
<polygon fill="#8dd3c7" stroke="#000000" points="122.4231,-122 119.4231,-126 98.4231,-126 95.4231,-122 23.5769,-122 23.5769,-86 122.4231,-86 122.4231,-122"/>
<text text-anchor="middle" x="73" y="-99.8" font-family="Times,serif" font-size="14.00" fill="#000000">SharedModule</text>
</g>
<!-- SharedModule&#45;&gt;DesktopBasketModule -->
<g id="edge8" class="edge">
<title>SharedModule&#45;&gt;DesktopBasketModule</title>
<path fill="none" stroke="#000000" d="M73,-122.2921C73,-144.2057 73,-178 73,-178 73,-178 576.5572,-178 576.5572,-178"/>
<polygon fill="#000000" stroke="#000000" points="576.5572,-181.5001 586.5572,-178 576.5571,-174.5001 576.5572,-181.5001"/>
</g>
</g>
</svg>
