<?xml version="1.0" encoding="UTF-8" standalone="no"?>
<!DOCTYPE svg PUBLIC "-//W3C//DTD SVG 1.1//EN"
 "http://www.w3.org/Graphics/SVG/1.1/DTD/svg11.dtd">
<!-- Generated by graphviz version 2.40.1 (20161225.0304)
 -->
<!-- Title: dependencies Pages: 1 -->
<svg width="535pt" height="211pt"
 viewBox="0.00 0.00 535.00 211.00" xmlns="http://www.w3.org/2000/svg" xmlns:xlink="http://www.w3.org/1999/xlink">
<g id="graph0" class="graph" transform="scale(1 1) rotate(0) translate(4 207)">
<title>dependencies</title>
<polygon fill="#ffffff" stroke="transparent" points="-4,4 -4,-207 531,-207 531,4 -4,4"/>
<text text-anchor="start" x="242.5091" y="-42.4" font-family="sans-serif" font-weight="bold" font-size="14.00" fill="#000000">Legend</text>
<polygon fill="#ffffb3" stroke="transparent" points="29.5,-10 29.5,-30 49.5,-30 49.5,-10 29.5,-10"/>
<text text-anchor="start" x="53.129" y="-15.4" font-family="sans-serif" font-size="14.00" fill="#000000"> &#160;Declarations</text>
<polygon fill="#8dd3c7" stroke="transparent" points="142.5,-10 142.5,-30 162.5,-30 162.5,-10 142.5,-10"/>
<text text-anchor="start" x="166.2251" y="-15.4" font-family="sans-serif" font-size="14.00" fill="#000000"> &#160;Module</text>
<polygon fill="#80b1d3" stroke="transparent" points="228.5,-10 228.5,-30 248.5,-30 248.5,-10 228.5,-10"/>
<text text-anchor="start" x="252.2812" y="-15.4" font-family="sans-serif" font-size="14.00" fill="#000000"> &#160;Bootstrap</text>
<polygon fill="#fdb462" stroke="transparent" points="325.5,-10 325.5,-30 345.5,-30 345.5,-10 325.5,-10"/>
<text text-anchor="start" x="349.1732" y="-15.4" font-family="sans-serif" font-size="14.00" fill="#000000"> &#160;Providers</text>
<polygon fill="#fb8072" stroke="transparent" points="421.5,-10 421.5,-30 441.5,-30 441.5,-10 421.5,-10"/>
<text text-anchor="start" x="445.2258" y="-15.4" font-family="sans-serif" font-size="14.00" fill="#000000"> &#160;Exports</text>
<g id="clust1" class="cluster">
<title>cluster_MobileProductListModule</title>
<polygon fill="none" stroke="#000000" stroke-dasharray="1,5" points="8,-70 8,-195 519,-195 519,-70 8,-70"/>
</g>
<g id="clust2" class="cluster">
<title>cluster_MobileProductListModule_declarations</title>
<polygon fill="none" stroke="#000000" points="281,-78 281,-130 511,-130 511,-78 281,-78"/>
</g>
<g id="clust4" class="cluster">
<title>cluster_MobileProductListModule_imports</title>
<polygon fill="none" stroke="#000000" points="16,-78 16,-130 273,-130 273,-78 16,-78"/>
</g>
<!-- MobileProductListPageComponent -->
<g id="node1" class="node">
<title>MobileProductListPageComponent</title>
<polygon fill="#ffffb3" stroke="#000000" points="503.3116,-122 288.6884,-122 288.6884,-86 503.3116,-86 503.3116,-122"/>
<text text-anchor="middle" x="396" y="-99.8" font-family="Times,serif" font-size="14.00" fill="#000000">MobileProductListPageComponent</text>
</g>
<!-- MobileProductListModule -->
<g id="node2" class="node">
<title>MobileProductListModule</title>
<polygon fill="#8dd3c7" stroke="#000000" points="285.8173,-187 282.8173,-191 261.8173,-191 258.8173,-187 120.1827,-187 120.1827,-151 285.8173,-151 285.8173,-187"/>
<text text-anchor="middle" x="203" y="-164.8" font-family="Times,serif" font-size="14.00" fill="#000000">MobileProductListModule</text>
</g>
<!-- MobileProductListPageComponent&#45;&gt;MobileProductListModule -->
<g id="edge1" class="edge">
<title>MobileProductListPageComponent&#45;&gt;MobileProductListModule</title>
<path fill="none" stroke="#000000" d="M288.4388,-104C280.5182,-104 275.5484,-104 275.5484,-104 275.5484,-104 275.5484,-140.8939 275.5484,-140.8939"/>
<polygon fill="#000000" stroke="#000000" points="272.0485,-140.8938 275.5484,-150.8939 279.0485,-140.8939 272.0485,-140.8938"/>
</g>
<!-- ProductListModule -->
<g id="node3" class="node">
<title>ProductListModule</title>
<polygon fill="#8dd3c7" stroke="#000000" points="265.3767,-122 262.3767,-126 241.3767,-126 238.3767,-122 140.6233,-122 140.6233,-86 265.3767,-86 265.3767,-122"/>
<text text-anchor="middle" x="203" y="-99.8" font-family="Times,serif" font-size="14.00" fill="#000000">ProductListModule</text>
</g>
<!-- ProductListModule&#45;&gt;MobileProductListModule -->
<g id="edge2" class="edge">
<title>ProductListModule&#45;&gt;MobileProductListModule</title>
<path fill="none" stroke="#000000" d="M203,-122.1061C203,-122.1061 203,-140.991 203,-140.991"/>
<polygon fill="#000000" stroke="#000000" points="199.5001,-140.9909 203,-150.991 206.5001,-140.991 199.5001,-140.9909"/>
</g>
<!-- SharedModule -->
<g id="node4" class="node">
<title>SharedModule</title>
<polygon fill="#8dd3c7" stroke="#000000" points="122.4231,-122 119.4231,-126 98.4231,-126 95.4231,-122 23.5769,-122 23.5769,-86 122.4231,-86 122.4231,-122"/>
<text text-anchor="middle" x="73" y="-99.8" font-family="Times,serif" font-size="14.00" fill="#000000">SharedModule</text>
</g>
<!-- SharedModule&#45;&gt;MobileProductListModule -->
<g id="edge3" class="edge">
<title>SharedModule&#45;&gt;MobileProductListModule</title>
<path fill="none" stroke="#000000" d="M122.2635,-104C127.7373,-104 131.3864,-104 131.3864,-104 131.3864,-104 131.3864,-140.8939 131.3864,-140.8939"/>
<polygon fill="#000000" stroke="#000000" points="127.8865,-140.8938 131.3864,-150.8939 134.8865,-140.8939 127.8865,-140.8938"/>
</g>
</g>
</svg>
