<?xml version="1.0" encoding="UTF-8" standalone="no"?>
<!DOCTYPE svg PUBLIC "-//W3C//DTD SVG 1.1//EN"
 "http://www.w3.org/Graphics/SVG/1.1/DTD/svg11.dtd">
<!-- Generated by graphviz version 2.40.1 (20161225.0304)
 -->
<!-- Title: dependencies Pages: 1 -->
<svg width="1429pt" height="211pt"
 viewBox="0.00 0.00 1429.00 211.00" xmlns="http://www.w3.org/2000/svg" xmlns:xlink="http://www.w3.org/1999/xlink">
<g id="graph0" class="graph" transform="scale(1 1) rotate(0) translate(4 207)">
<title>dependencies</title>
<polygon fill="#ffffff" stroke="transparent" points="-4,4 -4,-207 1425,-207 1425,4 -4,4"/>
<text text-anchor="start" x="689.5091" y="-42.4" font-family="sans-serif" font-weight="bold" font-size="14.00" fill="#000000">Legend</text>
<polygon fill="#ffffb3" stroke="transparent" points="476.5,-10 476.5,-30 496.5,-30 496.5,-10 476.5,-10"/>
<text text-anchor="start" x="500.129" y="-15.4" font-family="sans-serif" font-size="14.00" fill="#000000"> &#160;Declarations</text>
<polygon fill="#8dd3c7" stroke="transparent" points="589.5,-10 589.5,-30 609.5,-30 609.5,-10 589.5,-10"/>
<text text-anchor="start" x="613.2251" y="-15.4" font-family="sans-serif" font-size="14.00" fill="#000000"> &#160;Module</text>
<polygon fill="#80b1d3" stroke="transparent" points="675.5,-10 675.5,-30 695.5,-30 695.5,-10 675.5,-10"/>
<text text-anchor="start" x="699.2812" y="-15.4" font-family="sans-serif" font-size="14.00" fill="#000000"> &#160;Bootstrap</text>
<polygon fill="#fdb462" stroke="transparent" points="772.5,-10 772.5,-30 792.5,-30 792.5,-10 772.5,-10"/>
<text text-anchor="start" x="796.1732" y="-15.4" font-family="sans-serif" font-size="14.00" fill="#000000"> &#160;Providers</text>
<polygon fill="#fb8072" stroke="transparent" points="868.5,-10 868.5,-30 888.5,-30 888.5,-10 868.5,-10"/>
<text text-anchor="start" x="892.2258" y="-15.4" font-family="sans-serif" font-size="14.00" fill="#000000"> &#160;Exports</text>
<g id="clust1" class="cluster">
<title>cluster_MobileBasketModule</title>
<polygon fill="none" stroke="#000000" stroke-dasharray="1,5" points="8,-70 8,-195 1413,-195 1413,-70 8,-70"/>
</g>
<g id="clust2" class="cluster">
<title>cluster_MobileBasketModule_declarations</title>
<polygon fill="none" stroke="#000000" points="254,-78 254,-130 1405,-130 1405,-78 254,-78"/>
</g>
<g id="clust8" class="cluster">
<title>cluster_MobileBasketModule_imports</title>
<polygon fill="none" stroke="#000000" points="16,-78 16,-130 246,-130 246,-78 16,-78"/>
</g>
<!-- MobileBasketItemCardComponent -->
<g id="node1" class="node">
<title>MobileBasketItemCardComponent</title>
<polygon fill="#ffffb3" stroke="#000000" points="1397.2422,-122 1184.7578,-122 1184.7578,-86 1397.2422,-86 1397.2422,-122"/>
<text text-anchor="middle" x="1291" y="-99.8" font-family="Times,serif" font-size="14.00" fill="#000000">MobileBasketItemCardComponent</text>
</g>
<!-- MobileBasketModule -->
<g id="node6" class="node">
<title>MobileBasketModule</title>
<polygon fill="#8dd3c7" stroke="#000000" points="686.0912,-187 683.0912,-191 662.0912,-191 659.0912,-187 547.9088,-187 547.9088,-151 686.0912,-151 686.0912,-187"/>
<text text-anchor="middle" x="617" y="-164.8" font-family="Times,serif" font-size="14.00" fill="#000000">MobileBasketModule</text>
</g>
<!-- MobileBasketItemCardComponent&#45;&gt;MobileBasketModule -->
<g id="edge1" class="edge">
<title>MobileBasketItemCardComponent&#45;&gt;MobileBasketModule</title>
<path fill="none" stroke="#000000" d="M1291,-122.2921C1291,-144.2057 1291,-178 1291,-178 1291,-178 696.2765,-178 696.2765,-178"/>
<polygon fill="#000000" stroke="#000000" points="696.2766,-174.5001 686.2765,-178 696.2765,-181.5001 696.2766,-174.5001"/>
</g>
<!-- MobileBasketItemListComponent -->
<g id="node2" class="node">
<title>MobileBasketItemListComponent</title>
<polygon fill="#ffffb3" stroke="#000000" points="1166.8088,-122 959.1912,-122 959.1912,-86 1166.8088,-86 1166.8088,-122"/>
<text text-anchor="middle" x="1063" y="-99.8" font-family="Times,serif" font-size="14.00" fill="#000000">MobileBasketItemListComponent</text>
</g>
<!-- MobileBasketItemListComponent&#45;&gt;MobileBasketModule -->
<g id="edge2" class="edge">
<title>MobileBasketItemListComponent&#45;&gt;MobileBasketModule</title>
<path fill="none" stroke="#000000" d="M1063,-122.1061C1063,-141.3391 1063,-169 1063,-169 1063,-169 696.1981,-169 696.1981,-169"/>
<polygon fill="#000000" stroke="#000000" points="696.1982,-165.5001 686.1981,-169 696.1981,-172.5001 696.1982,-165.5001"/>
</g>
<!-- MobileBasketPageComponent -->
<g id="node3" class="node">
<title>MobileBasketPageComponent</title>
<polygon fill="#ffffb3" stroke="#000000" points="941.5856,-122 754.4144,-122 754.4144,-86 941.5856,-86 941.5856,-122"/>
<text text-anchor="middle" x="848" y="-99.8" font-family="Times,serif" font-size="14.00" fill="#000000">MobileBasketPageComponent</text>
</g>
<!-- MobileBasketPageComponent&#45;&gt;MobileBasketModule -->
<g id="edge3" class="edge">
<title>MobileBasketPageComponent&#45;&gt;MobileBasketModule</title>
<path fill="none" stroke="#000000" d="M848,-122.027C848,-138.3976 848,-160 848,-160 848,-160 696.3076,-160 696.3076,-160"/>
<polygon fill="#000000" stroke="#000000" points="696.3077,-156.5001 686.3076,-160 696.3076,-163.5001 696.3077,-156.5001"/>
</g>
<!-- MobileCancelPurchasePageComponent -->
<g id="node4" class="node">
<title>MobileCancelPurchasePageComponent</title>
<polygon fill="#ffffb3" stroke="#000000" points="736.3875,-122 497.6125,-122 497.6125,-86 736.3875,-86 736.3875,-122"/>
<text text-anchor="middle" x="617" y="-99.8" font-family="Times,serif" font-size="14.00" fill="#000000">MobileCancelPurchasePageComponent</text>
</g>
<!-- MobileCancelPurchasePageComponent&#45;&gt;MobileBasketModule -->
<g id="edge4" class="edge">
<title>MobileCancelPurchasePageComponent&#45;&gt;MobileBasketModule</title>
<path fill="none" stroke="#000000" d="M617,-122.1061C617,-122.1061 617,-140.991 617,-140.991"/>
<polygon fill="#000000" stroke="#000000" points="613.5001,-140.9909 617,-150.991 620.5001,-140.991 613.5001,-140.9909"/>
</g>
<!-- MobileFinalizePurchaseComponent -->
<g id="node5" class="node">
<title>MobileFinalizePurchaseComponent</title>
<polygon fill="#ffffb3" stroke="#000000" points="479.903,-122 262.097,-122 262.097,-86 479.903,-86 479.903,-122"/>
<text text-anchor="middle" x="371" y="-99.8" font-family="Times,serif" font-size="14.00" fill="#000000">MobileFinalizePurchaseComponent</text>
</g>
<!-- MobileFinalizePurchaseComponent&#45;&gt;MobileBasketModule -->
<g id="edge5" class="edge">
<title>MobileFinalizePurchaseComponent&#45;&gt;MobileBasketModule</title>
<path fill="none" stroke="#000000" d="M371,-122.027C371,-138.3976 371,-160 371,-160 371,-160 537.8206,-160 537.8206,-160"/>
<polygon fill="#000000" stroke="#000000" points="537.8207,-163.5001 547.8206,-160 537.8206,-156.5001 537.8207,-163.5001"/>
</g>
<!-- BasketModule -->
<g id="node7" class="node">
<title>BasketModule</title>
<polygon fill="#8dd3c7" stroke="#000000" points="237.6514,-122 234.6514,-126 213.6514,-126 210.6514,-122 140.3486,-122 140.3486,-86 237.6514,-86 237.6514,-122"/>
<text text-anchor="middle" x="189" y="-99.8" font-family="Times,serif" font-size="14.00" fill="#000000">BasketModule</text>
</g>
<!-- BasketModule&#45;&gt;MobileBasketModule -->
<g id="edge6" class="edge">
<title>BasketModule&#45;&gt;MobileBasketModule</title>
<path fill="none" stroke="#000000" d="M189,-122.1061C189,-141.3391 189,-169 189,-169 189,-169 537.7587,-169 537.7587,-169"/>
<polygon fill="#000000" stroke="#000000" points="537.7588,-172.5001 547.7587,-169 537.7587,-165.5001 537.7588,-172.5001"/>
</g>
<!-- SharedModule -->
<g id="node8" class="node">
<title>SharedModule</title>
<polygon fill="#8dd3c7" stroke="#000000" points="122.4231,-122 119.4231,-126 98.4231,-126 95.4231,-122 23.5769,-122 23.5769,-86 122.4231,-86 122.4231,-122"/>
<text text-anchor="middle" x="73" y="-99.8" font-family="Times,serif" font-size="14.00" fill="#000000">SharedModule</text>
</g>
<!-- SharedModule&#45;&gt;MobileBasketModule -->
<g id="edge7" class="edge">
<title>SharedModule&#45;&gt;MobileBasketModule</title>
<path fill="none" stroke="#000000" d="M73,-122.2921C73,-144.2057 73,-178 73,-178 73,-178 537.826,-178 537.826,-178"/>
<polygon fill="#000000" stroke="#000000" points="537.826,-181.5001 547.826,-178 537.8259,-174.5001 537.826,-181.5001"/>
</g>
</g>
</svg>
