<?xml version="1.0" encoding="UTF-8" standalone="no"?>
<!DOCTYPE svg PUBLIC "-//W3C//DTD SVG 1.1//EN"
 "http://www.w3.org/Graphics/SVG/1.1/DTD/svg11.dtd">
<!-- Generated by graphviz version 2.40.1 (20161225.0304)
 -->
<!-- Title: dependencies Pages: 1 -->
<svg width="516pt" height="211pt"
 viewBox="0.00 0.00 516.00 211.00" xmlns="http://www.w3.org/2000/svg" xmlns:xlink="http://www.w3.org/1999/xlink">
<g id="graph0" class="graph" transform="scale(1 1) rotate(0) translate(4 207)">
<title>dependencies</title>
<polygon fill="#ffffff" stroke="transparent" points="-4,4 -4,-207 512,-207 512,4 -4,4"/>
<text text-anchor="start" x="233.0091" y="-42.4" font-family="sans-serif" font-weight="bold" font-size="14.00" fill="#000000">Legend</text>
<polygon fill="#ffffb3" stroke="transparent" points="20,-10 20,-30 40,-30 40,-10 20,-10"/>
<text text-anchor="start" x="43.629" y="-15.4" font-family="sans-serif" font-size="14.00" fill="#000000"> &#160;Declarations</text>
<polygon fill="#8dd3c7" stroke="transparent" points="133,-10 133,-30 153,-30 153,-10 133,-10"/>
<text text-anchor="start" x="156.7251" y="-15.4" font-family="sans-serif" font-size="14.00" fill="#000000"> &#160;Module</text>
<polygon fill="#80b1d3" stroke="transparent" points="219,-10 219,-30 239,-30 239,-10 219,-10"/>
<text text-anchor="start" x="242.7812" y="-15.4" font-family="sans-serif" font-size="14.00" fill="#000000"> &#160;Bootstrap</text>
<polygon fill="#fdb462" stroke="transparent" points="316,-10 316,-30 336,-30 336,-10 316,-10"/>
<text text-anchor="start" x="339.6732" y="-15.4" font-family="sans-serif" font-size="14.00" fill="#000000"> &#160;Providers</text>
<polygon fill="#fb8072" stroke="transparent" points="412,-10 412,-30 432,-30 432,-10 412,-10"/>
<text text-anchor="start" x="435.7258" y="-15.4" font-family="sans-serif" font-size="14.00" fill="#000000"> &#160;Exports</text>
<g id="clust1" class="cluster">
<title>cluster_MobilePharmacyModule</title>
<polygon fill="none" stroke="#000000" stroke-dasharray="1,5" points="8,-70 8,-195 500,-195 500,-70 8,-70"/>
</g>
<g id="clust2" class="cluster">
<title>cluster_MobilePharmacyModule_declarations</title>
<polygon fill="none" stroke="#000000" points="272,-78 272,-130 492,-130 492,-78 272,-78"/>
</g>
<g id="clust4" class="cluster">
<title>cluster_MobilePharmacyModule_imports</title>
<polygon fill="none" stroke="#000000" points="16,-78 16,-130 264,-130 264,-78 16,-78"/>
</g>
<!-- MobilePharmacyPageComponent -->
<g id="node1" class="node">
<title>MobilePharmacyPageComponent</title>
<polygon fill="#ffffb3" stroke="#000000" points="484.4622,-122 279.5378,-122 279.5378,-86 484.4622,-86 484.4622,-122"/>
<text text-anchor="middle" x="382" y="-99.8" font-family="Times,serif" font-size="14.00" fill="#000000">MobilePharmacyPageComponent</text>
</g>
<!-- MobilePharmacyModule -->
<g id="node2" class="node">
<title>MobilePharmacyModule</title>
<polygon fill="#8dd3c7" stroke="#000000" points="275.9678,-187 272.9678,-191 251.9678,-191 248.9678,-187 120.0322,-187 120.0322,-151 275.9678,-151 275.9678,-187"/>
<text text-anchor="middle" x="198" y="-164.8" font-family="Times,serif" font-size="14.00" fill="#000000">MobilePharmacyModule</text>
</g>
<!-- MobilePharmacyPageComponent&#45;&gt;MobilePharmacyModule -->
<g id="edge1" class="edge">
<title>MobilePharmacyPageComponent&#45;&gt;MobilePharmacyModule</title>
<path fill="none" stroke="#000000" d="M279.195,-104C271.0408,-104 265.8738,-104 265.8738,-104 265.8738,-104 265.8738,-140.8939 265.8738,-140.8939"/>
<polygon fill="#000000" stroke="#000000" points="262.3739,-140.8938 265.8738,-150.8939 269.3739,-140.8939 262.3739,-140.8938"/>
</g>
<!-- PharmacyModule -->
<g id="node3" class="node">
<title>PharmacyModule</title>
<polygon fill="#8dd3c7" stroke="#000000" points="255.5284,-122 252.5284,-126 231.5284,-126 228.5284,-122 140.4716,-122 140.4716,-86 255.5284,-86 255.5284,-122"/>
<text text-anchor="middle" x="198" y="-99.8" font-family="Times,serif" font-size="14.00" fill="#000000">PharmacyModule</text>
</g>
<!-- PharmacyModule&#45;&gt;MobilePharmacyModule -->
<g id="edge2" class="edge">
<title>PharmacyModule&#45;&gt;MobilePharmacyModule</title>
<path fill="none" stroke="#000000" d="M198,-122.1061C198,-122.1061 198,-140.991 198,-140.991"/>
<polygon fill="#000000" stroke="#000000" points="194.5001,-140.9909 198,-150.991 201.5001,-140.991 194.5001,-140.9909"/>
</g>
<!-- SharedModule -->
<g id="node4" class="node">
<title>SharedModule</title>
<polygon fill="#8dd3c7" stroke="#000000" points="122.4231,-122 119.4231,-126 98.4231,-126 95.4231,-122 23.5769,-122 23.5769,-86 122.4231,-86 122.4231,-122"/>
<text text-anchor="middle" x="73" y="-99.8" font-family="Times,serif" font-size="14.00" fill="#000000">SharedModule</text>
</g>
<!-- SharedModule&#45;&gt;MobilePharmacyModule -->
<g id="edge3" class="edge">
<title>SharedModule&#45;&gt;MobilePharmacyModule</title>
<path fill="none" stroke="#000000" d="M122.6326,-104C127.8086,-104 131.2237,-104 131.2237,-104 131.2237,-104 131.2237,-140.8939 131.2237,-140.8939"/>
<polygon fill="#000000" stroke="#000000" points="127.7238,-140.8938 131.2237,-150.8939 134.7238,-140.8939 127.7238,-140.8938"/>
</g>
</g>
</svg>
