<?xml version="1.0" encoding="UTF-8" standalone="no"?>
<!DOCTYPE svg PUBLIC "-//W3C//DTD SVG 1.1//EN"
 "http://www.w3.org/Graphics/SVG/1.1/DTD/svg11.dtd">
<!-- Generated by graphviz version 2.40.1 (20161225.0304)
 -->
<!-- Title: dependencies Pages: 1 -->
<svg width="519pt" height="211pt"
 viewBox="0.00 0.00 519.00 211.00" xmlns="http://www.w3.org/2000/svg" xmlns:xlink="http://www.w3.org/1999/xlink">
<g id="graph0" class="graph" transform="scale(1 1) rotate(0) translate(4 207)">
<title>dependencies</title>
<polygon fill="#ffffff" stroke="transparent" points="-4,4 -4,-207 515,-207 515,4 -4,4"/>
<text text-anchor="start" x="234.5091" y="-42.4" font-family="sans-serif" font-weight="bold" font-size="14.00" fill="#000000">Legend</text>
<polygon fill="#ffffb3" stroke="transparent" points="21.5,-10 21.5,-30 41.5,-30 41.5,-10 21.5,-10"/>
<text text-anchor="start" x="45.129" y="-15.4" font-family="sans-serif" font-size="14.00" fill="#000000"> &#160;Declarations</text>
<polygon fill="#8dd3c7" stroke="transparent" points="134.5,-10 134.5,-30 154.5,-30 154.5,-10 134.5,-10"/>
<text text-anchor="start" x="158.2251" y="-15.4" font-family="sans-serif" font-size="14.00" fill="#000000"> &#160;Module</text>
<polygon fill="#80b1d3" stroke="transparent" points="220.5,-10 220.5,-30 240.5,-30 240.5,-10 220.5,-10"/>
<text text-anchor="start" x="244.2812" y="-15.4" font-family="sans-serif" font-size="14.00" fill="#000000"> &#160;Bootstrap</text>
<polygon fill="#fdb462" stroke="transparent" points="317.5,-10 317.5,-30 337.5,-30 337.5,-10 317.5,-10"/>
<text text-anchor="start" x="341.1732" y="-15.4" font-family="sans-serif" font-size="14.00" fill="#000000"> &#160;Providers</text>
<polygon fill="#fb8072" stroke="transparent" points="413.5,-10 413.5,-30 433.5,-30 433.5,-10 413.5,-10"/>
<text text-anchor="start" x="437.2258" y="-15.4" font-family="sans-serif" font-size="14.00" fill="#000000"> &#160;Exports</text>
<g id="clust1" class="cluster">
<title>cluster_MobileCommentModule</title>
<polygon fill="none" stroke="#000000" stroke-dasharray="1,5" points="8,-70 8,-195 503,-195 503,-70 8,-70"/>
</g>
<g id="clust2" class="cluster">
<title>cluster_MobileCommentModule_declarations</title>
<polygon fill="none" stroke="#000000" points="271,-78 271,-130 495,-130 495,-78 271,-78"/>
</g>
<g id="clust4" class="cluster">
<title>cluster_MobileCommentModule_imports</title>
<polygon fill="none" stroke="#000000" points="16,-78 16,-130 263,-130 263,-78 16,-78"/>
</g>
<!-- MobileInsertCommentComponent -->
<g id="node1" class="node">
<title>MobileInsertCommentComponent</title>
<polygon fill="#ffffb3" stroke="#000000" points="487.3668,-122 278.6332,-122 278.6332,-86 487.3668,-86 487.3668,-122"/>
<text text-anchor="middle" x="383" y="-99.8" font-family="Times,serif" font-size="14.00" fill="#000000">MobileInsertCommentComponent</text>
</g>
<!-- MobileCommentModule -->
<g id="node2" class="node">
<title>MobileCommentModule</title>
<polygon fill="#8dd3c7" stroke="#000000" points="275.7133,-187 272.7133,-191 251.7133,-191 248.7133,-187 120.2867,-187 120.2867,-151 275.7133,-151 275.7133,-187"/>
<text text-anchor="middle" x="198" y="-164.8" font-family="Times,serif" font-size="14.00" fill="#000000">MobileCommentModule</text>
</g>
<!-- MobileInsertCommentComponent&#45;&gt;MobileCommentModule -->
<g id="edge1" class="edge">
<title>MobileInsertCommentComponent&#45;&gt;MobileCommentModule</title>
<path fill="none" stroke="#000000" d="M278.5204,-104C270.5329,-104 265.4965,-104 265.4965,-104 265.4965,-104 265.4965,-140.8939 265.4965,-140.8939"/>
<polygon fill="#000000" stroke="#000000" points="261.9966,-140.8938 265.4965,-150.8939 268.9966,-140.8939 261.9966,-140.8938"/>
</g>
<!-- CommentModule -->
<g id="node3" class="node">
<title>CommentModule</title>
<polygon fill="#8dd3c7" stroke="#000000" points="255.273,-122 252.273,-126 231.273,-126 228.273,-122 140.727,-122 140.727,-86 255.273,-86 255.273,-122"/>
<text text-anchor="middle" x="198" y="-99.8" font-family="Times,serif" font-size="14.00" fill="#000000">CommentModule</text>
</g>
<!-- CommentModule&#45;&gt;MobileCommentModule -->
<g id="edge2" class="edge">
<title>CommentModule&#45;&gt;MobileCommentModule</title>
<path fill="none" stroke="#000000" d="M198,-122.1061C198,-122.1061 198,-140.991 198,-140.991"/>
<polygon fill="#000000" stroke="#000000" points="194.5001,-140.9909 198,-150.991 201.5001,-140.991 194.5001,-140.9909"/>
</g>
<!-- SharedModule -->
<g id="node4" class="node">
<title>SharedModule</title>
<polygon fill="#8dd3c7" stroke="#000000" points="122.4231,-122 119.4231,-126 98.4231,-126 95.4231,-122 23.5769,-122 23.5769,-86 122.4231,-86 122.4231,-122"/>
<text text-anchor="middle" x="73" y="-99.8" font-family="Times,serif" font-size="14.00" fill="#000000">SharedModule</text>
</g>
<!-- SharedModule&#45;&gt;MobileCommentModule -->
<g id="edge3" class="edge">
<title>SharedModule&#45;&gt;MobileCommentModule</title>
<path fill="none" stroke="#000000" d="M122.2854,-104C127.7616,-104 131.4124,-104 131.4124,-104 131.4124,-104 131.4124,-140.8939 131.4124,-140.8939"/>
<polygon fill="#000000" stroke="#000000" points="127.9124,-140.8938 131.4124,-150.8939 134.9124,-140.8939 127.9124,-140.8938"/>
</g>
</g>
</svg>
