<?xml version="1.0" encoding="UTF-8" standalone="no"?>
<!DOCTYPE svg PUBLIC "-//W3C//DTD SVG 1.1//EN"
 "http://www.w3.org/Graphics/SVG/1.1/DTD/svg11.dtd">
<!-- Generated by graphviz version 2.40.1 (20161225.0304)
 -->
<!-- Title: dependencies Pages: 1 -->
<svg width="746pt" height="211pt"
 viewBox="0.00 0.00 746.00 211.00" xmlns="http://www.w3.org/2000/svg" xmlns:xlink="http://www.w3.org/1999/xlink">
<g id="graph0" class="graph" transform="scale(1 1) rotate(0) translate(4 207)">
<title>dependencies</title>
<polygon fill="#ffffff" stroke="transparent" points="-4,4 -4,-207 742,-207 742,4 -4,4"/>
<text text-anchor="start" x="348.0091" y="-42.4" font-family="sans-serif" font-weight="bold" font-size="14.00" fill="#000000">Legend</text>
<polygon fill="#ffffb3" stroke="transparent" points="135,-10 135,-30 155,-30 155,-10 135,-10"/>
<text text-anchor="start" x="158.629" y="-15.4" font-family="sans-serif" font-size="14.00" fill="#000000"> &#160;Declarations</text>
<polygon fill="#8dd3c7" stroke="transparent" points="248,-10 248,-30 268,-30 268,-10 248,-10"/>
<text text-anchor="start" x="271.7251" y="-15.4" font-family="sans-serif" font-size="14.00" fill="#000000"> &#160;Module</text>
<polygon fill="#80b1d3" stroke="transparent" points="334,-10 334,-30 354,-30 354,-10 334,-10"/>
<text text-anchor="start" x="357.7812" y="-15.4" font-family="sans-serif" font-size="14.00" fill="#000000"> &#160;Bootstrap</text>
<polygon fill="#fdb462" stroke="transparent" points="431,-10 431,-30 451,-30 451,-10 431,-10"/>
<text text-anchor="start" x="454.6732" y="-15.4" font-family="sans-serif" font-size="14.00" fill="#000000"> &#160;Providers</text>
<polygon fill="#fb8072" stroke="transparent" points="527,-10 527,-30 547,-30 547,-10 527,-10"/>
<text text-anchor="start" x="550.7258" y="-15.4" font-family="sans-serif" font-size="14.00" fill="#000000"> &#160;Exports</text>
<g id="clust1" class="cluster">
<title>cluster_DesktopPharmacyModule</title>
<polygon fill="none" stroke="#000000" stroke-dasharray="1,5" points="8,-70 8,-195 730,-195 730,-70 8,-70"/>
</g>
<g id="clust2" class="cluster">
<title>cluster_DesktopPharmacyModule_declarations</title>
<polygon fill="none" stroke="#000000" points="156,-78 156,-130 722,-130 722,-78 156,-78"/>
</g>
<g id="clust5" class="cluster">
<title>cluster_DesktopPharmacyModule_imports</title>
<polygon fill="none" stroke="#000000" points="16,-78 16,-130 148,-130 148,-78 16,-78"/>
</g>
<!-- DesktopPharmacyPageComponent -->
<g id="node1" class="node">
<title>DesktopPharmacyPageComponent</title>
<polygon fill="#ffffb3" stroke="#000000" points="713.6783,-122 502.3217,-122 502.3217,-86 713.6783,-86 713.6783,-122"/>
<text text-anchor="middle" x="608" y="-99.8" font-family="Times,serif" font-size="14.00" fill="#000000">DesktopPharmacyPageComponent</text>
</g>
<!-- DesktopPharmacyModule -->
<g id="node3" class="node">
<title>DesktopPharmacyModule</title>
<polygon fill="#8dd3c7" stroke="#000000" points="405.1839,-187 402.1839,-191 381.1839,-191 378.1839,-187 242.8161,-187 242.8161,-151 405.1839,-151 405.1839,-187"/>
<text text-anchor="middle" x="324" y="-164.8" font-family="Times,serif" font-size="14.00" fill="#000000">DesktopPharmacyModule</text>
</g>
<!-- DesktopPharmacyPageComponent&#45;&gt;DesktopPharmacyModule -->
<g id="edge1" class="edge">
<title>DesktopPharmacyPageComponent&#45;&gt;DesktopPharmacyModule</title>
<path fill="none" stroke="#000000" d="M608,-122.1061C608,-141.3391 608,-169 608,-169 608,-169 415.383,-169 415.383,-169"/>
<polygon fill="#000000" stroke="#000000" points="415.383,-165.5001 405.383,-169 415.383,-172.5001 415.383,-165.5001"/>
</g>
<!-- DesktopPharmacySpecialOfferProductListComponent -->
<g id="node2" class="node">
<title>DesktopPharmacySpecialOfferProductListComponent</title>
<polygon fill="#ffffb3" stroke="#000000" points="484.3039,-122 163.6961,-122 163.6961,-86 484.3039,-86 484.3039,-122"/>
<text text-anchor="middle" x="324" y="-99.8" font-family="Times,serif" font-size="14.00" fill="#000000">DesktopPharmacySpecialOfferProductListComponent</text>
</g>
<!-- DesktopPharmacySpecialOfferProductListComponent&#45;&gt;DesktopPharmacyModule -->
<g id="edge2" class="edge">
<title>DesktopPharmacySpecialOfferProductListComponent&#45;&gt;DesktopPharmacyModule</title>
<path fill="none" stroke="#000000" d="M324,-122.1061C324,-122.1061 324,-140.991 324,-140.991"/>
<polygon fill="#000000" stroke="#000000" points="320.5001,-140.9909 324,-150.991 327.5001,-140.991 320.5001,-140.9909"/>
</g>
<!-- PharmacyModule -->
<g id="node4" class="node">
<title>PharmacyModule</title>
<polygon fill="#8dd3c7" stroke="#000000" points="139.5284,-122 136.5284,-126 115.5284,-126 112.5284,-122 24.4716,-122 24.4716,-86 139.5284,-86 139.5284,-122"/>
<text text-anchor="middle" x="82" y="-99.8" font-family="Times,serif" font-size="14.00" fill="#000000">PharmacyModule</text>
</g>
<!-- PharmacyModule&#45;&gt;DesktopPharmacyModule -->
<g id="edge3" class="edge">
<title>PharmacyModule&#45;&gt;DesktopPharmacyModule</title>
<path fill="none" stroke="#000000" d="M82,-122.1061C82,-141.3391 82,-169 82,-169 82,-169 232.7443,-169 232.7443,-169"/>
<polygon fill="#000000" stroke="#000000" points="232.7443,-172.5001 242.7443,-169 232.7443,-165.5001 232.7443,-172.5001"/>
</g>
</g>
</svg>
